<svg xmlns="http://www.w3.org/2000/svg" width="303.584" height="238.565" viewBox="0 0 303.584 238.565">
  <g id="Grupo_150141" data-name="Grupo 150141" transform="translate(1316.998 9224.181)">
    <g id="Grupo_150028" data-name="Grupo 150028" transform="translate(17.646 -5198.906)">
      <g id="Grupo_150015" data-name="Grupo 150015" transform="translate(-1661.404 -4075.038)">
        <g id="Grupo_149332" data-name="Grupo 149332" transform="translate(365.309 50.959)">
          <g id="Grupo_149321" data-name="Grupo 149321" transform="translate(0 194.819)">
            <g id="Grupo_149320" data-name="Grupo 149320">
              <path id="Trazado_200632" data-name="Trazado 200632" d="M606.313,134.147H344.08a1.2,1.2,0,0,1,0-2.391H606.313a1.2,1.2,0,1,1,0,2.391Z" transform="translate(-342.885 -131.756)" fill="#c4c4c4"/>
            </g>
          </g>
          <g id="Grupo_149323" data-name="Grupo 149323" transform="translate(0 155.856)">
            <g id="Grupo_149322" data-name="Grupo 149322">
              <path id="Trazado_200633" data-name="Trazado 200633" d="M606.313,117.849H344.08a1.2,1.2,0,0,1,0-2.391H606.313a1.2,1.2,0,1,1,0,2.391Z" transform="translate(-342.885 -115.458)" fill="#c4c4c4"/>
            </g>
          </g>
          <g id="Grupo_149325" data-name="Grupo 149325" transform="translate(0 116.891)">
            <g id="Grupo_149324" data-name="Grupo 149324">
              <path id="Trazado_200634" data-name="Trazado 200634" d="M606.313,101.55H344.08a1.2,1.2,0,0,1,0-2.391H606.313a1.2,1.2,0,1,1,0,2.391Z" transform="translate(-342.885 -99.159)" fill="#c4c4c4"/>
            </g>
          </g>
          <g id="Grupo_149327" data-name="Grupo 149327" transform="translate(0 77.928)">
            <g id="Grupo_149326" data-name="Grupo 149326">
              <path id="Trazado_200635" data-name="Trazado 200635" d="M606.313,85.252H344.08a1.2,1.2,0,0,1,0-2.391H606.313a1.2,1.2,0,1,1,0,2.391Z" transform="translate(-342.885 -82.861)" fill="#c4c4c4"/>
            </g>
          </g>
          <g id="Grupo_149329" data-name="Grupo 149329" transform="translate(0 38.963)">
            <g id="Grupo_149328" data-name="Grupo 149328">
              <path id="Trazado_200636" data-name="Trazado 200636" d="M606.313,68.953H344.08a1.2,1.2,0,0,1,0-2.391H606.313a1.2,1.2,0,1,1,0,2.391Z" transform="translate(-342.885 -66.562)" fill="#c4c4c4"/>
            </g>
          </g>
          <g id="Grupo_149331" data-name="Grupo 149331">
            <g id="Grupo_149330" data-name="Grupo 149330">
              <path id="Trazado_200637" data-name="Trazado 200637" d="M606.313,52.655H344.08a1.2,1.2,0,0,1,0-2.391H606.313a1.2,1.2,0,1,1,0,2.391Z" transform="translate(-342.885 -50.264)" fill="#c4c4c4"/>
            </g>
          </g>
        </g>
        <g id="Grupo_149333" data-name="Grupo 149333" transform="translate(352.73 49.764)">
          <path id="Trazado_200638" data-name="Trazado 200638" d="M612.846,288.329H340.014a2.387,2.387,0,0,1-2.391-2.391V52.155a2.391,2.391,0,1,1,4.781,0V283.548H612.846a2.391,2.391,0,0,1,0,4.781Z" transform="translate(-337.623 -49.764)" fill="#c4c4c4"/>
        </g>
        <g id="Grupo_149338" data-name="Grupo 149338" transform="translate(329.351 259.775)">
          <g id="Grupo_149337" data-name="Grupo 149337">
            <g id="Grupo_149336" data-name="Grupo 149336">
              <g id="Grupo_149334" data-name="Grupo 149334" transform="translate(0 0.175)">
                <path id="Trazado_200639" data-name="Trazado 200639" d="M332.924,149.5H331.3V139.417l-2.749,1.676-.705-1.148,3.646-2.262h1.434Z" transform="translate(-327.844 -137.684)" fill="#c4c4c4"/>
              </g>
              <g id="Grupo_149335" data-name="Grupo 149335" transform="translate(7.997)">
                <path id="Trazado_200640" data-name="Trazado 200640" d="M339.1,143.7c0,3.918-1.308,6.108-3.954,6.108s-3.957-2.19-3.957-6.108,1.3-6.091,3.957-6.091S339.1,139.8,339.1,143.7Zm-6.216,0c0,3.478.777,4.82,2.262,4.82,1.461,0,2.259-1.341,2.259-4.82,0-3.462-.8-4.8-2.259-4.8C333.661,138.9,332.884,140.241,332.884,143.7Z" transform="translate(-331.189 -137.611)" fill="#c4c4c4"/>
              </g>
            </g>
          </g>
        </g>
        <g id="Grupo_149343" data-name="Grupo 149343" transform="translate(326.97 220.753)">
          <g id="Grupo_149342" data-name="Grupo 149342">
            <g id="Grupo_149341" data-name="Grupo 149341">
              <g id="Grupo_149339" data-name="Grupo 149339">
                <path id="Trazado_200641" data-name="Trazado 200641" d="M333.986,124.52c0,2.207-1.411,3.78-5.037,7.4h5.317l-.2,1.36h-6.976v-1.289c4.174-4.344,5.2-5.472,5.2-7.4a1.822,1.822,0,0,0-1.946-1.958,2.9,2.9,0,0,0-2.4,1.289l-1.1-.846a4.374,4.374,0,0,1,3.586-1.786A3.25,3.25,0,0,1,333.986,124.52Z" transform="translate(-326.848 -121.288)" fill="#c4c4c4"/>
              </g>
              <g id="Grupo_149340" data-name="Grupo 149340" transform="translate(9.273)">
                <path id="Trazado_200642" data-name="Trazado 200642" d="M338.635,127.379c0,3.921-1.3,6.11-3.954,6.11s-3.954-2.19-3.954-6.11,1.31-6.091,3.954-6.091S338.635,123.478,338.635,127.379Zm-6.213,0c0,3.478.775,4.82,2.259,4.82,1.465,0,2.259-1.341,2.259-4.82,0-3.459-.794-4.8-2.259-4.8C333.2,122.579,332.422,123.92,332.422,127.379Z" transform="translate(-330.727 -121.288)" fill="#c4c4c4"/>
              </g>
            </g>
          </g>
        </g>
        <g id="Grupo_149348" data-name="Grupo 149348" transform="translate(326.76 181.74)">
          <g id="Grupo_149347" data-name="Grupo 149347">
            <g id="Grupo_149346" data-name="Grupo 149346">
              <g id="Grupo_149344" data-name="Grupo 149344">
                <path id="Trazado_200643" data-name="Trazado 200643" d="M333.968,107.972a2.711,2.711,0,0,1-2.3,2.718,2.723,2.723,0,0,1,2.668,2.862c0,2.063-1.571,3.619-4.031,3.619a4.47,4.47,0,0,1-3.548-1.59l.975-.9a3.319,3.319,0,0,0,2.522,1.167,2.186,2.186,0,0,0,2.381-2.314c0-1.626-.911-2.118-2.345-2.118h-.882l.2-1.253h.6a1.985,1.985,0,0,0,2.135-2.085,1.758,1.758,0,0,0-1.958-1.8,3.339,3.339,0,0,0-2.436,1.059l-.846-.971a4.765,4.765,0,0,1,3.368-1.4C332.727,104.969,333.968,106.382,333.968,107.972Z" transform="translate(-326.76 -104.969)" fill="#c4c4c4"/>
              </g>
              <g id="Grupo_149345" data-name="Grupo 149345" transform="translate(9.52)">
                <path id="Trazado_200644" data-name="Trazado 200644" d="M338.653,111.06c0,3.921-1.3,6.111-3.957,6.111s-3.954-2.19-3.954-6.111,1.308-6.091,3.954-6.091S338.653,107.159,338.653,111.06Zm-6.216,0c0,3.478.779,4.82,2.259,4.82s2.257-1.341,2.257-4.82c0-3.459-.789-4.8-2.257-4.8S332.437,107.6,332.437,111.06Z" transform="translate(-330.742 -104.969)" fill="#c4c4c4"/>
              </g>
            </g>
          </g>
        </g>
        <g id="Grupo_149353" data-name="Grupo 149353" transform="translate(326.908 142.724)">
          <g id="Grupo_149352" data-name="Grupo 149352" transform="translate(0 0)">
            <g id="Grupo_149351" data-name="Grupo 149351">
              <g id="Grupo_149349" data-name="Grupo 149349">
                <path id="Trazado_200645" data-name="Trazado 200645" d="M334.979,97.724h-1.53v2.912h-1.573V97.724h-5.054V96.557l3.55-7.908,1.363.564-3.2,7.222h3.356l.141-3.177h1.415v3.177h1.53Z" transform="translate(-326.822 -88.649)" fill="#c4c4c4"/>
              </g>
              <g id="Grupo_149350" data-name="Grupo 149350" transform="translate(9.665)">
                <path id="Trazado_200646" data-name="Trazado 200646" d="M338.771,94.74c0,3.918-1.3,6.108-3.954,6.108s-3.952-2.19-3.952-6.108,1.3-6.091,3.952-6.091S338.771,90.839,338.771,94.74Zm-6.216,0c0,3.478.779,4.82,2.262,4.82,1.465,0,2.264-1.341,2.264-4.82,0-3.462-.8-4.8-2.264-4.8C333.335,89.938,332.555,91.279,332.555,94.74Z" transform="translate(-330.865 -88.649)" fill="#c4c4c4"/>
              </g>
            </g>
          </g>
        </g>
        <g id="Grupo_149358" data-name="Grupo 149358" transform="translate(326.942 103.709)">
          <g id="Grupo_149357" data-name="Grupo 149357">
            <g id="Grupo_149356" data-name="Grupo 149356">
              <g id="Grupo_149354" data-name="Grupo 149354" transform="translate(0 0.177)">
                <path id="Trazado_200647" data-name="Trazado 200647" d="M333.788,73.675h-4.6v3.478a4.09,4.09,0,0,1,1.891-.459c1.994,0,3.349,1.4,3.349,3.744a3.848,3.848,0,0,1-4.1,3.99,4.607,4.607,0,0,1-3.493-1.5l.99-.954A3.169,3.169,0,0,0,330.31,83.1c1.485,0,2.424-.971,2.424-2.7,0-1.819-.94-2.453-2.154-2.453a3.672,3.672,0,0,0-1.676.4H327.63V72.4h6.388Z" transform="translate(-326.836 -72.403)" fill="#c4c4c4"/>
              </g>
              <g id="Grupo_149355" data-name="Grupo 149355" transform="translate(9.362)">
                <path id="Trazado_200648" data-name="Trazado 200648" d="M338.663,78.42c0,3.921-1.308,6.11-3.957,6.11s-3.954-2.19-3.954-6.11,1.3-6.091,3.954-6.091S338.663,74.521,338.663,78.42Zm-6.216,0c0,3.478.775,4.822,2.259,4.822,1.463,0,2.262-1.344,2.262-4.822,0-3.459-.8-4.8-2.262-4.8C333.222,73.62,332.447,74.961,332.447,78.42Z" transform="translate(-330.752 -72.329)" fill="#c4c4c4"/>
              </g>
            </g>
          </g>
        </g>
        <g id="Grupo_149363" data-name="Grupo 149363" transform="translate(327.171 64.691)">
          <g id="Grupo_149362" data-name="Grupo 149362">
            <g id="Grupo_149361" data-name="Grupo 149361">
              <g id="Grupo_149359" data-name="Grupo 149359">
                <path id="Trazado_200649" data-name="Trazado 200649" d="M334.659,63.988c0,2.577-1.671,4.219-3.753,4.219-2.881,0-3.973-2.367-3.973-5.754,0-3.868,1.671-6.445,4.459-6.445a4.288,4.288,0,0,1,2.441.722l-.633,1.078a3.478,3.478,0,0,0-1.817-.512c-1.714,0-2.737,1.783-2.831,4.485a3.33,3.33,0,0,1,2.84-1.554C333.126,60.227,334.659,61.463,334.659,63.988Zm-1.642.053c0-1.872-.791-2.525-1.9-2.525a3.048,3.048,0,0,0-2.546,1.626c.074,2.577.763,3.777,2.336,3.777C332.3,66.919,333.016,65.771,333.016,64.041Z" transform="translate(-326.932 -56.008)" fill="#c4c4c4"/>
              </g>
              <g id="Grupo_149360" data-name="Grupo 149360" transform="translate(9.412)">
                <path id="Trazado_200650" data-name="Trazado 200650" d="M338.78,62.1c0,3.918-1.308,6.108-3.957,6.108s-3.954-2.19-3.954-6.108,1.3-6.091,3.954-6.091S338.78,58.2,338.78,62.1Zm-6.221,0c0,3.478.779,4.82,2.264,4.82,1.463,0,2.262-1.341,2.262-4.82,0-3.462-.8-4.8-2.262-4.8C333.339,57.3,332.559,58.638,332.559,62.1Z" transform="translate(-330.869 -56.008)" fill="#c4c4c4"/>
              </g>
            </g>
          </g>
        </g>
        <g id="Grupo_149926" data-name="Grupo 149926" transform="translate(391.404 231.519)">
          <rect id="Rectángulo_295755" data-name="Rectángulo 295755" width="44.823" height="51.651" fill="#75b62f"/>
        </g>
        <g id="Grupo_149927" data-name="Grupo 149927" transform="translate(581.404 257.344)">
          <rect id="Rectángulo_295755-2" data-name="Rectángulo 295755" width="44.823" height="27.002" fill="#75b62f"/>
        </g>
        <g id="Grupo_149928" data-name="Grupo 149928" transform="translate(451.581 172.764)">
          <rect id="Rectángulo_295755-3" data-name="Rectángulo 295755" width="44.823" height="110.406" fill="#dce736"/>
        </g>
        <g id="Grupo_149929" data-name="Grupo 149929" transform="translate(511.758 115.299)">
          <rect id="Rectángulo_295755-4" data-name="Rectángulo 295755" width="44.823" height="167.871" fill="#dce736"/>
        </g>
        <g id="Grupo_149930" data-name="Grupo 149930" transform="translate(366.504 115.698)">
          <path id="Trazado_200653" data-name="Trazado 200653" d="M578.285,223.54,513.48,77.344,491.028,183.919l-37.743-48.865L397.8,194.388" transform="translate(-343.385 -77.344)" fill="none" stroke="#707070" stroke-width="1"/>
        </g>
      </g>
    </g>
  </g>
</svg>
