<svg xmlns="http://www.w3.org/2000/svg" width="324.357" height="293.048" viewBox="0 0 324.357 293.048">
  <g id="Grupo_150142" data-name="Grupo 150142" transform="translate(883.592 9240.695)">
    <g id="Grupo_150029" data-name="Grupo 150029" transform="translate(456.407 -5650.266)">
      <g id="Grupo_150017" data-name="Grupo 150017" transform="translate(-1364.865 -4029.647)">
        <g id="Grupo_149380" data-name="Grupo 149380" transform="translate(66.053 478.65)">
          <g id="Grupo_149369" data-name="Grupo 149369" transform="translate(0 208.153)">
            <g id="Grupo_149368" data-name="Grupo 149368">
              <path id="Trazado_200654" data-name="Trazado 200654" d="M322.443,561.919H42.267a1.277,1.277,0,0,1,0-2.554H322.443a1.277,1.277,0,0,1,0,2.554Z" transform="translate(-40.99 -559.365)" fill="#c4c4c4"/>
            </g>
          </g>
          <g id="Grupo_149371" data-name="Grupo 149371" transform="translate(0 166.521)">
            <g id="Grupo_149370" data-name="Grupo 149370">
              <path id="Trazado_200655" data-name="Trazado 200655" d="M322.443,545.62H42.267a1.277,1.277,0,0,1,0-2.554H322.443a1.277,1.277,0,0,1,0,2.554Z" transform="translate(-40.99 -543.066)" fill="#c4c4c4"/>
            </g>
          </g>
          <g id="Grupo_149373" data-name="Grupo 149373" transform="translate(0 124.889)">
            <g id="Grupo_149372" data-name="Grupo 149372">
              <path id="Trazado_200656" data-name="Trazado 200656" d="M322.443,529.321H42.267a1.277,1.277,0,0,1,0-2.554H322.443a1.277,1.277,0,0,1,0,2.554Z" transform="translate(-40.99 -526.767)" fill="#c4c4c4"/>
            </g>
          </g>
          <g id="Grupo_149375" data-name="Grupo 149375" transform="translate(0 83.259)">
            <g id="Grupo_149374" data-name="Grupo 149374">
              <path id="Trazado_200657" data-name="Trazado 200657" d="M322.443,513.023H42.267a1.277,1.277,0,0,1,0-2.554H322.443a1.277,1.277,0,0,1,0,2.554Z" transform="translate(-40.99 -510.469)" fill="#c4c4c4"/>
            </g>
          </g>
          <g id="Grupo_149377" data-name="Grupo 149377" transform="translate(0 41.627)">
            <g id="Grupo_149376" data-name="Grupo 149376">
              <path id="Trazado_200658" data-name="Trazado 200658" d="M322.443,496.724H42.267a1.277,1.277,0,1,1,0-2.554H322.443a1.277,1.277,0,1,1,0,2.554Z" transform="translate(-40.99 -494.17)" fill="#c4c4c4"/>
            </g>
          </g>
          <g id="Grupo_149379" data-name="Grupo 149379">
            <g id="Grupo_149378" data-name="Grupo 149378">
              <path id="Trazado_200659" data-name="Trazado 200659" d="M322.443,480.427H42.267a1.277,1.277,0,0,1,0-2.554H322.443a1.277,1.277,0,0,1,0,2.554Z" transform="translate(-40.99 -477.873)" fill="#c4c4c4"/>
            </g>
          </g>
        </g>
        <g id="Grupo_149381" data-name="Grupo 149381" transform="translate(52.607 477.373)">
          <path id="Trazado_200660" data-name="Trazado 200660" d="M329.787,732.266H38.28a2.55,2.55,0,0,1-2.554-2.554V479.927a2.554,2.554,0,0,1,5.109,0V727.158H329.787a2.554,2.554,0,0,1,0,5.109Z" transform="translate(-35.726 -477.373)" fill="#c4c4c4"/>
        </g>
        <g id="Grupo_149386" data-name="Grupo 149386" transform="translate(27.629 701.756)">
          <g id="Grupo_149385" data-name="Grupo 149385">
            <g id="Grupo_149384" data-name="Grupo 149384">
              <g id="Grupo_149382" data-name="Grupo 149382" transform="translate(0 0.189)">
                <path id="Trazado_200661" data-name="Trazado 200661" d="M31.377,577.914H29.64V567.142l-2.94,1.793-.754-1.229,3.905-2.414h1.525Z" transform="translate(-25.947 -565.293)" fill="#c4c4c4"/>
              </g>
              <g id="Grupo_149383" data-name="Grupo 149383" transform="translate(8.547)">
                <path id="Trazado_200662" data-name="Trazado 200662" d="M37.743,571.727c0,4.186-1.4,6.526-4.225,6.526s-4.225-2.34-4.225-6.526,1.395-6.508,4.225-6.508S37.743,567.559,37.743,571.727Zm-6.639,0c0,3.719.828,5.149,2.414,5.149,1.566,0,2.414-1.43,2.414-5.149,0-3.7-.848-5.132-2.414-5.132C31.932,566.6,31.1,568.031,31.1,571.727Z" transform="translate(-29.293 -565.219)" fill="#c4c4c4"/>
              </g>
            </g>
          </g>
        </g>
        <g id="Grupo_149391" data-name="Grupo 149391" transform="translate(25.095 660.062)">
          <g id="Grupo_149390" data-name="Grupo 149390">
            <g id="Grupo_149389" data-name="Grupo 149389">
              <g id="Grupo_149387" data-name="Grupo 149387">
                <path id="Trazado_200663" data-name="Trazado 200663" d="M32.577,552.349c0,2.36-1.512,4.041-5.377,7.908h5.676l-.212,1.451H25.216v-1.377c4.452-4.639,5.55-5.847,5.55-7.908a1.947,1.947,0,0,0-2.074-2.089,3.112,3.112,0,0,0-2.572,1.377l-1.165-.909a4.667,4.667,0,0,1,3.824-1.906A3.471,3.471,0,0,1,32.577,552.349Z" transform="translate(-24.955 -548.896)" fill="#c4c4c4"/>
              </g>
              <g id="Grupo_149388" data-name="Grupo 149388" transform="translate(9.9)">
                <path id="Trazado_200664" data-name="Trazado 200664" d="M37.281,555.407c0,4.186-1.392,6.526-4.225,6.526s-4.225-2.34-4.225-6.526,1.4-6.511,4.225-6.511S37.281,551.238,37.281,555.407Zm-6.639,0c0,3.717.835,5.149,2.414,5.149s2.416-1.433,2.416-5.149c0-3.7-.851-5.134-2.416-5.134S30.642,551.711,30.642,555.407Z" transform="translate(-28.831 -548.896)" fill="#c4c4c4"/>
              </g>
            </g>
          </g>
        </g>
        <g id="Grupo_149396" data-name="Grupo 149396" transform="translate(24.865 618.382)">
          <g id="Grupo_149395" data-name="Grupo 149395">
            <g id="Grupo_149394" data-name="Grupo 149394">
              <g id="Grupo_149392" data-name="Grupo 149392">
                <path id="Trazado_200665" data-name="Trazado 200665" d="M32.561,535.786a2.9,2.9,0,0,1-2.45,2.9,2.911,2.911,0,0,1,2.851,3.057c0,2.2-1.681,3.867-4.309,3.867a4.755,4.755,0,0,1-3.788-1.7l1.037-.958a3.558,3.558,0,0,0,2.7,1.241,2.34,2.34,0,0,0,2.552-2.47c0-1.737-.986-2.266-2.511-2.266H27.7l.207-1.336h.644a2.122,2.122,0,0,0,2.278-2.23,1.876,1.876,0,0,0-2.089-1.921,3.561,3.561,0,0,0-2.605,1.132l-.907-1.037a5.1,5.1,0,0,1,3.6-1.492C31.238,532.578,32.561,534.085,32.561,535.786Z" transform="translate(-24.865 -532.578)" fill="#c4c4c4"/>
              </g>
              <g id="Grupo_149393" data-name="Grupo 149393" transform="translate(10.171)">
                <path id="Trazado_200666" data-name="Trazado 200666" d="M37.3,539.084c0,4.192-1.4,6.531-4.225,6.531s-4.227-2.34-4.227-6.531,1.392-6.506,4.227-6.506S37.3,534.918,37.3,539.084Zm-6.641,0c0,3.717.828,5.152,2.416,5.152,1.561,0,2.414-1.436,2.414-5.152,0-3.7-.853-5.129-2.414-5.129C31.486,533.955,30.658,535.388,30.658,539.084Z" transform="translate(-28.847 -532.578)" fill="#c4c4c4"/>
              </g>
            </g>
          </g>
        </g>
        <g id="Grupo_149401" data-name="Grupo 149401" transform="translate(25.028 576.696)">
          <g id="Grupo_149400" data-name="Grupo 149400">
            <g id="Grupo_149399" data-name="Grupo 149399">
              <g id="Grupo_149397" data-name="Grupo 149397">
                <path id="Trazado_200667" data-name="Trazado 200667" d="M33.642,525.951H32v3.111H30.321v-3.111H24.929v-1.244l3.793-8.449,1.448.6-3.418,7.714h3.586l.151-3.395H32v3.395h1.64Z" transform="translate(-24.929 -516.258)" fill="#c4c4c4"/>
              </g>
              <g id="Grupo_149398" data-name="Grupo 149398" transform="translate(10.317)">
                <path id="Trazado_200668" data-name="Trazado 200668" d="M37.42,522.764c0,4.189-1.395,6.529-4.225,6.529s-4.227-2.34-4.227-6.529,1.395-6.506,4.227-6.506S37.42,518.6,37.42,522.764Zm-6.641,0c0,3.716.833,5.152,2.416,5.152,1.563,0,2.414-1.436,2.414-5.152,0-3.7-.851-5.129-2.414-5.129C31.612,517.635,30.779,519.065,30.779,522.764Z" transform="translate(-28.968 -516.258)" fill="#c4c4c4"/>
              </g>
            </g>
          </g>
        </g>
        <g id="Grupo_149406" data-name="Grupo 149406" transform="translate(25.054 535.01)">
          <g id="Grupo_149405" data-name="Grupo 149405">
            <g id="Grupo_149404" data-name="Grupo 149404">
              <g id="Grupo_149402" data-name="Grupo 149402" transform="translate(0 0.189)">
                <path id="Trazado_200669" data-name="Trazado 200669" d="M32.369,501.368H27.447v3.716a4.367,4.367,0,0,1,2.02-.488c2.13,0,3.584,1.492,3.584,4a4.11,4.11,0,0,1-4.375,4.26,4.945,4.945,0,0,1-3.737-1.6L26,510.239a3.4,3.4,0,0,0,2.656,1.206c1.586,0,2.587-1.037,2.587-2.889,0-1.939-1-2.618-2.3-2.618a3.977,3.977,0,0,0-1.791.429H25.787v-6.355h6.828Z" transform="translate(-24.939 -500.012)" fill="#c4c4c4"/>
              </g>
              <g id="Grupo_149403" data-name="Grupo 149403" transform="translate(10.003)">
                <path id="Trazado_200670" data-name="Trazado 200670" d="M37.307,506.446c0,4.187-1.4,6.526-4.227,6.526s-4.225-2.34-4.225-6.526,1.39-6.508,4.225-6.508S37.307,502.275,37.307,506.446Zm-6.641,0c0,3.717.828,5.15,2.414,5.15,1.561,0,2.416-1.433,2.416-5.15,0-3.7-.856-5.131-2.416-5.131C31.494,501.315,30.666,502.75,30.666,506.446Z" transform="translate(-28.855 -499.938)" fill="#c4c4c4"/>
              </g>
            </g>
          </g>
        </g>
        <g id="Grupo_149411" data-name="Grupo 149411" transform="translate(25.299 493.322)">
          <g id="Grupo_149410" data-name="Grupo 149410">
            <g id="Grupo_149409" data-name="Grupo 149409">
              <g id="Grupo_149407" data-name="Grupo 149407">
                <path id="Trazado_200671" data-name="Trazado 200671" d="M33.3,492.143c0,2.754-1.8,4.511-4.02,4.511-3.073,0-4.245-2.531-4.245-6.151,0-4.133,1.8-6.886,4.771-6.886a4.54,4.54,0,0,1,2.6.774l-.677,1.147a3.726,3.726,0,0,0-1.944-.544c-1.831,0-2.922,1.905-3.019,4.789a3.562,3.562,0,0,1,3.037-1.66C31.658,488.123,33.3,489.443,33.3,492.143Zm-1.755.056c0-2-.848-2.7-2.041-2.7a3.252,3.252,0,0,0-2.715,1.737c.077,2.754.812,4.036,2.49,4.036C30.772,495.272,31.546,494.049,31.546,492.2Z" transform="translate(-25.035 -483.617)" fill="#c4c4c4"/>
              </g>
              <g id="Grupo_149408" data-name="Grupo 149408" transform="translate(10.056)">
                <path id="Trazado_200672" data-name="Trazado 200672" d="M37.424,490.123c0,4.192-1.4,6.531-4.225,6.531s-4.227-2.34-4.227-6.531,1.395-6.506,4.227-6.506S37.424,485.957,37.424,490.123Zm-6.641,0c0,3.716.828,5.149,2.416,5.149,1.566,0,2.414-1.433,2.414-5.149,0-3.7-.848-5.129-2.414-5.129C31.611,484.994,30.783,486.427,30.783,490.123Z" transform="translate(-28.972 -483.617)" fill="#c4c4c4"/>
              </g>
            </g>
          </g>
        </g>
        <g id="Grupo_149412" data-name="Grupo 149412" transform="translate(65.109 681.475)">
          <rect id="Rectángulo_295753" data-name="Rectángulo 295753" width="19.381" height="36.303" fill="#d7df23"/>
        </g>
        <g id="Grupo_149413" data-name="Grupo 149413" transform="translate(85.544 660.062)">
          <rect id="Rectángulo_295754" data-name="Rectángulo 295754" width="19.381" height="57.716" fill="#616161"/>
        </g>
        <g id="Grupo_149414" data-name="Grupo 149414" transform="translate(105.978 644.037)">
          <rect id="Rectángulo_295755" data-name="Rectángulo 295755" width="19.381" height="73.742" fill="#75b62f"/>
        </g>
        <g id="Grupo_149415" data-name="Grupo 149415" transform="translate(126.412 618.382)">
          <rect id="Rectángulo_295756" data-name="Rectángulo 295756" width="19.381" height="99.397" fill="#d7df23"/>
        </g>
        <g id="Grupo_149416" data-name="Grupo 149416" transform="translate(146.846 604.82)">
          <rect id="Rectángulo_295757" data-name="Rectángulo 295757" width="19.381" height="112.959" fill="#616161"/>
        </g>
        <g id="Grupo_149417" data-name="Grupo 149417" transform="translate(167.28 584.004)">
          <rect id="Rectángulo_295758" data-name="Rectángulo 295758" width="19.381" height="133.775" fill="#d7df23"/>
        </g>
        <g id="Grupo_149418" data-name="Grupo 149418" transform="translate(187.714 570.295)">
          <rect id="Rectángulo_295759" data-name="Rectángulo 295759" width="19.381" height="147.484" fill="#75b62f"/>
        </g>
        <g id="Grupo_149423" data-name="Grupo 149423" transform="translate(207.418 556.083)">
          <rect id="Rectángulo_295760" data-name="Rectángulo 295760" width="19.382" height="161.696" fill="#d7df23"/>
        </g>
        <g id="Grupo_149424" data-name="Grupo 149424" transform="translate(226.799 532.982)">
          <rect id="Rectángulo_295761" data-name="Rectángulo 295761" width="19.382" height="184.797" fill="#616161"/>
        </g>
        <g id="Grupo_149425" data-name="Grupo 149425" transform="translate(247.233 521.557)">
          <rect id="Rectángulo_295762" data-name="Rectángulo 295762" width="19.382" height="196.222" fill="#75b62f"/>
        </g>
        <g id="Grupo_149426" data-name="Grupo 149426" transform="translate(267.667 506.359)">
          <rect id="Rectángulo_295763" data-name="Rectángulo 295763" width="19.382" height="211.42" transform="translate(0)" fill="#616161"/>
        </g>
        <g id="Grupo_149427" data-name="Grupo 149427" transform="translate(288.102 484.147)">
          <rect id="Rectángulo_295764" data-name="Rectángulo 295764" width="19.382" height="233.632" transform="translate(0)" fill="#d7df23"/>
        </g>
        <g id="Grupo_149931" data-name="Grupo 149931" transform="translate(308.536 477.373)">
          <rect id="Rectángulo_295765" data-name="Rectángulo 295765" width="19.382" height="240.406" fill="#75b62f"/>
        </g>
        <path id="Trazado_201730" data-name="Trazado 201730" d="M239.5,679.867s-50.674-189.3-164.632-191.815" transform="translate(754.732 372.572) rotate(90)" fill="none" stroke="#75b62f" stroke-width="3"/>
        <path id="Trazado_158597" data-name="Trazado 158597" d="M0,0V16.156L8.078,8.078Z" transform="translate(259.432 447.297) rotate(-90)" fill="#75b62f"/>
      </g>
    </g>
  </g>
</svg>
