<svg xmlns="http://www.w3.org/2000/svg" width="252.196" height="251.474" viewBox="0 0 252.196 251.474">
  <g id="Grupo_150143" data-name="Grupo 150143" transform="translate(1679.241 8801.757)">
    <path id="Trazado_201731" data-name="Trazado 201731" d="M493.685,226.156a124.51,124.51,0,0,0-4.648,33.692c0,69.425,56.846,125.7,126.971,125.7.171,0,.34-.015.509-.015V259.554Z" transform="translate(-2168.278 -8935.836)" fill="#d7df23"/>
    <path id="Trazado_201732" data-name="Trazado 201732" d="M663.614,315.868c0-68.527-55.585-124.215-124.716-125.7v251.4C608.029,440.088,663.614,384.4,663.614,315.868Z" transform="translate(-2090.659 -8991.854)" fill="#75b62f"/>
    <path id="Trazado_201733" data-name="Trazado 201733" d="M490.867,282l122.8,33.912V190.142h0C555.155,190.142,505.883,229.024,490.867,282Z" transform="translate(-2165.429 -8991.898)" fill="#3d46c2"/>
    <path id="Trazado_201734" data-name="Trazado 201734" d="M521.161,264.454h-1.777v3.372h-1.82v-3.372h-5.845V263.1l4.106-9.158,1.575.654-3.7,8.363h3.886l.161-3.682h1.636v3.682h1.777Z" transform="translate(-2132.969 -8892.575)" fill="#fff"/>
    <path id="Trazado_201735" data-name="Trazado 201735" d="M525.252,261c0,4.538-1.514,7.072-4.579,7.072s-4.579-2.534-4.579-7.072,1.514-7.054,4.579-7.054S525.252,256.482,525.252,261Zm-7.2,0c0,4.027.9,5.581,2.618,5.581,1.7,0,2.615-1.554,2.615-5.581,0-4.006-.918-5.561-2.615-5.561C518.955,255.439,518.055,256.994,518.055,261Z" transform="translate(-2126.158 -8892.575)" fill="#fff"/>
    <path id="Trazado_201736" data-name="Trazado 201736" d="M527.119,257.8a3.323,3.323,0,1,1-3.331-3.457A3.219,3.219,0,0,1,527.119,257.8Zm-4.988,0c0,1.061.35,2.186,1.657,2.186,1.33,0,1.657-1.084,1.657-2.186,0-1.064-.327-2.188-1.657-2.188C522.481,255.613,522.131,256.7,522.131,257.8Zm11.265-3.252-9.465,14.31L522.622,268l9.467-14.312Zm2.127,10.467a3.325,3.325,0,1,1-3.313-3.454A3.206,3.206,0,0,1,535.523,265.016Zm-4.968,0c0,1.064.348,2.186,1.654,2.186,1.329,0,1.657-1.082,1.657-2.186,0-1.064-.327-2.168-1.657-2.168C530.9,262.848,530.555,263.912,530.555,265.016Z" transform="translate(-2119.332 -8892.974)" fill="#fff"/>
    <path id="Trazado_201737" data-name="Trazado 201737" d="M565.132,249.367h-1.777v3.372h-1.818v-3.372h-5.85v-1.35l4.111-9.158,1.572.655-3.7,8.36h3.884l.166-3.679h1.634v3.679h1.777Z" transform="translate(-2064.524 -8916.06)" fill="#fff"/>
    <path id="Trazado_201738" data-name="Trazado 201738" d="M569.224,245.913c0,4.536-1.513,7.072-4.582,7.072s-4.579-2.536-4.579-7.072,1.511-7.054,4.579-7.054S569.224,241.393,569.224,245.913Zm-7.2,0c0,4.027.9,5.579,2.615,5.579,1.7,0,2.618-1.552,2.618-5.579,0-4.009-.92-5.561-2.618-5.561C562.926,240.352,562.027,241.9,562.027,245.913Z" transform="translate(-2057.712 -8916.06)" fill="#fff"/>
    <path id="Trazado_201739" data-name="Trazado 201739" d="M571.092,242.712a3.325,3.325,0,1,1-3.334-3.454A3.22,3.22,0,0,1,571.092,242.712Zm-4.988,0c0,1.064.345,2.188,1.654,2.188,1.329,0,1.659-1.084,1.659-2.188,0-1.064-.33-2.186-1.659-2.186C566.449,240.526,566.1,241.607,566.1,242.712Zm11.262-3.25-9.462,14.31-1.309-.859,9.462-14.31Zm2.127,10.467a3.325,3.325,0,1,1-3.311-3.454A3.205,3.205,0,0,1,579.493,249.929Zm-4.968,0c0,1.064.348,2.186,1.657,2.186,1.33,0,1.654-1.084,1.654-2.186,0-1.064-.325-2.168-1.654-2.168C574.873,247.761,574.525,248.825,574.525,249.929Z" transform="translate(-2050.887 -8916.459)" fill="#fff"/>
    <path id="Trazado_201740" data-name="Trazado 201740" d="M523.127,218.629c0,2.554-1.636,4.374-5.827,8.565h6.154l-.225,1.575h-8.074v-1.493c4.822-5.029,6.008-6.338,6.008-8.565a2.11,2.11,0,0,0-2.25-2.27,3.364,3.364,0,0,0-2.779,1.493l-1.268-.982a5.067,5.067,0,0,1,4.152-2.063C521.531,214.889,523.127,216.5,523.127,218.629Z" transform="translate(-2128.07 -8953.375)" fill="#fff"/>
    <path id="Trazado_201741" data-name="Trazado 201741" d="M528.224,221.94c0,4.538-1.511,7.072-4.579,7.072s-4.579-2.534-4.579-7.072,1.514-7.051,4.579-7.051S528.224,217.423,528.224,221.94Zm-7.195,0c0,4.029.9,5.581,2.615,5.581,1.7,0,2.618-1.552,2.618-5.581,0-4.006-.92-5.558-2.618-5.558C521.93,216.382,521.03,217.934,521.03,221.94Z" transform="translate(-2121.532 -8953.375)" fill="#fff"/>
    <path id="Trazado_201742" data-name="Trazado 201742" d="M530.095,218.742a3.325,3.325,0,1,1-3.331-3.454A3.219,3.219,0,0,1,530.095,218.742Zm-4.988,0c0,1.064.348,2.188,1.657,2.188,1.33,0,1.654-1.084,1.654-2.188,0-1.064-.325-2.186-1.654-2.186C525.455,216.556,525.107,217.637,525.107,218.742Zm11.265-3.25L526.9,229.8l-1.309-.859,9.467-14.31Zm2.125,10.467a3.325,3.325,0,1,1-3.314-3.457A3.2,3.2,0,0,1,538.5,225.959Zm-4.965,0c0,1.064.343,2.186,1.652,2.186,1.33,0,1.657-1.084,1.657-2.186,0-1.064-.327-2.168-1.657-2.168C533.874,223.791,533.531,224.855,533.531,225.959Z" transform="translate(-2114.707 -8953.773)" fill="#fff"/>
  </g>
</svg>
