<svg xmlns="http://www.w3.org/2000/svg" width="100.781" height="86.517" viewBox="0 0 100.781 86.517">
  <g id="Grupo_150163" data-name="Grupo 150163" transform="translate(-2889.083 8674.704)">
    <g id="Grupo_150097" data-name="Grupo 150097" transform="translate(-5035.367 -8119.389)">
      <g id="Grupo_150052" data-name="Grupo 150052" transform="translate(7923.15 -839.958)">
        <path id="Trazado_201107" data-name="Trazado 201107" d="M61.516,332.953h6.77v4.407a17.941,17.941,0,0,1,6.762,2.8l3.117-3.118,4.787,4.787-3.117,3.117a17.917,17.917,0,0,1,2.8,6.762h4.409v6.77H82.636a17.933,17.933,0,0,1-2.8,6.762l3.117,3.117-4.787,4.787-3.117-3.117a17.95,17.95,0,0,1-6.762,2.8v4.408h-6.77v-4.408a17.916,17.916,0,0,1-6.762-2.8l-3.117,3.117L46.85,368.36l3.117-3.117a17.958,17.958,0,0,1-2.8-6.762H42.758v-6.77h4.409a17.917,17.917,0,0,1,2.8-6.762l-3.117-3.117,4.787-4.787,3.117,3.118a17.958,17.958,0,0,1,6.762-2.8Zm3.386,10.86A11.284,11.284,0,1,0,76.186,355.1,11.284,11.284,0,0,0,64.9,343.813Z" transform="translate(-23.61 -26.001)" fill="#dce736" fill-rule="evenodd"/>
        <circle id="Elipse_12657" data-name="Elipse 12657" cx="18.757" cy="18.757" r="18.757" transform="translate(61.948 332.343)" fill="#fff"/>
        <path id="Trazado_201194" data-name="Trazado 201194" d="M54.5,291.731a40.594,40.594,0,1,1-18.643-.837l1.019,5.037a35.451,35.451,0,1,0,16.292.765l-1.073,4-4.846-4.849L42.4,291l6.622-1.774,6.622-1.774Z" transform="translate(-1.516 -1.514)" fill="#dce736" fill-rule="evenodd"/>
        <path id="Trazado_201195" data-name="Trazado 201195" d="M68.2,352.286l3.4-3.458a1.263,1.263,0,0,1,1.806,0l3.427,3.486,11.894-12.1a1.263,1.263,0,0,1,1.806,0l3.4,3.458a1.318,1.318,0,0,1,0,1.838l-16.2,16.479a1.263,1.263,0,0,1-1.806,0L68.2,354.123a1.314,1.314,0,0,1,0-1.838Zm4.3-.7L70.91,353.2l5.922,6.026,14.392-14.641-1.594-1.622-11.894,12.1a1.263,1.263,0,0,1-1.806,0ZM82.3,331.077l.008-.226c.022-.6.032-1.13.032-1.583a42.18,42.18,0,0,0-8.3-25.218,41.267,41.267,0,0,0-20.415-14.714l.8-3.046a1.3,1.3,0,0,0,0-.687,1.273,1.273,0,0,0-1.562-.919l-12.953,3.531a1.261,1.261,0,0,0-.635.353,1.317,1.317,0,0,0,0,1.838L48.81,300.1l0,0a1.266,1.266,0,0,0,2.135-.582l.712-2.7A33.671,33.671,0,0,1,68,308.736a34.377,34.377,0,0,1,6.738,20.53c0,.666-.016,1.286-.046,1.862-.018.334-.04.671-.069,1.007a19.661,19.661,0,0,0-7.494,4.778A20.175,20.175,0,0,0,61.354,351.1a20.428,20.428,0,0,0,.615,4.986,33.367,33.367,0,0,1-9.4,5.324,33.19,33.19,0,0,1-35.132-7.989,34.609,34.609,0,0,1-2.112-45.949,33.432,33.432,0,0,1,19.663-11.778v0l.02,0a1.293,1.293,0,0,0,1-1.522l-.989-4.969-.008-.054a1.275,1.275,0,0,0-1.486-1.035A41.012,41.012,0,0,0,9.453,302.565a42.427,42.427,0,0,0,2.6,56.325,40.621,40.621,0,0,0,53.275,4.295,20.076,20.076,0,0,0,1.794,2.1,19.485,19.485,0,0,0,27.88,0,20.307,20.307,0,0,0,0-28.368A19.5,19.5,0,0,0,82.3,331.077ZM63.928,361.015a38.127,38.127,0,0,1-50.062-3.964,39.8,39.8,0,0,1-2.447-52.832,38.52,38.52,0,0,1,21.344-13.311l.5,2.5a36.019,36.019,0,0,0-19.89,12.408,37.215,37.215,0,0,0,2.263,49.44,35.64,35.64,0,0,0,47.184,3.433A19.631,19.631,0,0,0,63.928,361.015Zm13.3-29.595.008-.158c.036-.7.056-1.366.056-1.994a37.007,37.007,0,0,0-7.256-22.092,36.174,36.174,0,0,0-18.915-13.243,1.272,1.272,0,0,0-1.576.895l-.486,1.85-6.406-6.516,8.748-2.385-.554,2.106a1.3,1.3,0,0,0,.9,1.59l.018,0a38.663,38.663,0,0,1,20.243,14.139,39.563,39.563,0,0,1,7.778,23.653c0,.576-.008,1.073-.022,1.493,0,.1-.008.213-.014.322a19.286,19.286,0,0,0-2.526.337ZM93.2,338.752a16.95,16.95,0,0,0-24.268,0,17.676,17.676,0,0,0,0,24.693,16.951,16.951,0,0,0,24.268,0,17.677,17.677,0,0,0,0-24.693ZM37.841,305.658H44.5a1.285,1.285,0,0,1,1.272,1.294h0v3.368a18.759,18.759,0,0,1,5.188,2.186l2.34-2.381a1.263,1.263,0,0,1,1.806,0l4.7,4.787a1.317,1.317,0,0,1,0,1.838l-2.34,2.381a19.32,19.32,0,0,1,1.27,2.564,19.713,19.713,0,0,1,.881,2.716h3.31a1.29,1.29,0,0,1,1.278,1.3v6.77a1.289,1.289,0,0,1-1.278,1.3H59.622a19.58,19.58,0,0,1-2.15,5.279l2.34,2.381a1.317,1.317,0,0,1,0,1.838l-4.7,4.787a1.263,1.263,0,0,1-1.806,0l-2.34-2.381a18.765,18.765,0,0,1-2.519,1.292,18.576,18.576,0,0,1-2.669.895v3.368a1.289,1.289,0,0,1-1.278,1.3H37.841a1.29,1.29,0,0,1-1.278-1.3c0-.039,0-.076,0-.115v-3.251a18.808,18.808,0,0,1-5.194-2.188l-2.34,2.381a1.263,1.263,0,0,1-1.806,0l-4.7-4.787a1.317,1.317,0,0,1,0-1.838l2.34-2.381a19.5,19.5,0,0,1-2.149-5.279H19.407a1.289,1.289,0,0,1-1.278-1.3c0-.039,0-.078,0-.115V325.71a1.284,1.284,0,0,1,1.272-1.294v0h3.31a19.56,19.56,0,0,1,2.151-5.279l-2.34-2.381a1.317,1.317,0,0,1,0-1.838l4.7-4.787a1.263,1.263,0,0,1,1.806,0l2.34,2.381a18.849,18.849,0,0,1,5.192-2.188v-3.366a1.287,1.287,0,0,1,1.274-1.3Zm5.377,2.589v3.113a1.293,1.293,0,0,0,1.125,1.29,16.074,16.074,0,0,1,3.128.96,16.341,16.341,0,0,1,2.949,1.622,1.258,1.258,0,0,0,1.618-.154l0,0,2.16-2.2,2.9,2.949-2.161,2.2a1.317,1.317,0,0,0-.1,1.717,16.808,16.808,0,0,1,2.509,6.2,1.281,1.281,0,0,0,1.252,1.058v0h3.055v4.172H58.6a1.286,1.286,0,0,0-1.268,1.145,16.787,16.787,0,0,1-2.538,6.186,1.313,1.313,0,0,0,.151,1.647l0,0,2.161,2.2-2.9,2.949-2.16-2.2A1.262,1.262,0,0,0,50.355,343a16.349,16.349,0,0,1-2.884,1.579,16.18,16.18,0,0,1-3.213.976,1.293,1.293,0,0,0-1.04,1.274h0v3.109h-4.1V346.83a1.287,1.287,0,0,0-1.038-1.271v0a16.1,16.1,0,0,1-3.213-.976,16.371,16.371,0,0,1-2.949-1.622,1.258,1.258,0,0,0-1.619.154l0,0-2.161,2.2-2.9-2.949,2.161-2.2a1.318,1.318,0,0,0,.1-1.717,16.761,16.761,0,0,1-2.512-6.2,1.282,1.282,0,0,0-1.251-1.059h-3.06V327.01h3.06A1.285,1.285,0,0,0,25,325.866a16.788,16.788,0,0,1,2.538-6.186,1.313,1.313,0,0,0-.151-1.647l0,0-2.16-2.2,2.9-2.949,2.161,2.2a1.262,1.262,0,0,0,1.687.107,16.163,16.163,0,0,1,6.1-2.556,1.294,1.294,0,0,0,1.038-1.345v-3.043Zm-2.05,8.267a12.223,12.223,0,0,1,8.744,3.685,12.738,12.738,0,0,1,0,17.794,12.216,12.216,0,0,1-17.488,0,12.738,12.738,0,0,1,0-17.794,12.215,12.215,0,0,1,8.744-3.685Zm6.938,5.521a10.105,10.105,0,0,1,0,14.118,9.691,9.691,0,0,1-13.876,0,10.105,10.105,0,0,1,0-14.118,9.691,9.691,0,0,1,13.876,0Z" transform="translate(1.3 0)" fill="#12263f" fill-rule="evenodd"/>
      </g>
    </g>
  </g>
</svg>
