<svg xmlns="http://www.w3.org/2000/svg" width="712.46" height="712.556" viewBox="0 0 712.46 712.556">
  <g id="Grupo_150155" data-name="Grupo 150155" transform="translate(-1733.758 10192.945)">
    <g id="Grupo_108268" data-name="Grupo 108268" transform="translate(2062.436 -10137.127)">
      <g id="Grupo_78489" data-name="Grupo 78489">
        <circle id="Elipse_4758" data-name="Elipse 4758" cx="20.025" cy="20.025" r="20.025" transform="translate(4.975 4.975)" fill="#f85316" opacity="0.18" style="isolation: isolate"/>
        <circle id="Elipse_4759" data-name="Elipse 4759" cx="25" cy="25" r="25" fill="#f85316" opacity="0.154" style="isolation: isolate"/>
      </g>
      <path id="Elipse_4753" data-name="Elipse 4753" d="M15.05,0A15.05,15.05,0,1,1,0,15.05,15.05,15.05,0,0,1,15.05,0Z" transform="translate(9.95 9.95)" fill="#f85316"/>
      <path id="Trazado_146139" data-name="Trazado 146139" d="M44.521,63.923h3.812v2.669H44.521V70.97H41.6V66.592H37.766V63.923H41.6V59.749h2.921Z" transform="translate(-18.181 -40.183)" fill="#fff"/>
    </g>
    <g id="Grupo_108268-2" data-name="Grupo 108268" transform="translate(1788.436 -9841.795)">
      <g id="Grupo_78489-2" data-name="Grupo 78489">
        <circle id="Elipse_4758-2" data-name="Elipse 4758" cx="20.025" cy="20.025" r="20.025" transform="translate(4.975 4.975)" fill="#f85316" opacity="0.18" style="isolation: isolate"/>
        <circle id="Elipse_4759-2" data-name="Elipse 4759" cx="25" cy="25" r="25" fill="#f85316" opacity="0.154" style="isolation: isolate"/>
      </g>
      <path id="Elipse_4753-2" data-name="Elipse 4753" d="M15.05,0A15.05,15.05,0,1,1,0,15.05,15.05,15.05,0,0,1,15.05,0Z" transform="translate(9.95 9.95)" fill="#f85316"/>
      <path id="Trazado_146139-2" data-name="Trazado 146139" d="M44.521,63.923h3.812v2.669H44.521V70.97H41.6V66.592H37.766V63.923H41.6V59.749h2.921Z" transform="translate(-18.181 -40.183)" fill="#fff"/>
    </g>
    <g id="Grupo_108268-3" data-name="Grupo 108268" transform="translate(2343.436 -9841.795)">
      <g id="Grupo_78489-3" data-name="Grupo 78489">
        <circle id="Elipse_4758-3" data-name="Elipse 4758" cx="20.025" cy="20.025" r="20.025" transform="translate(4.975 4.975)" fill="#f85316" opacity="0.18" style="isolation: isolate"/>
        <circle id="Elipse_4759-3" data-name="Elipse 4759" cx="25" cy="25" r="25" fill="#f85316" opacity="0.154" style="isolation: isolate"/>
      </g>
      <path id="Elipse_4753-3" data-name="Elipse 4753" d="M15.05,0A15.05,15.05,0,1,1,0,15.05,15.05,15.05,0,0,1,15.05,0Z" transform="translate(9.95 9.95)" fill="#f85316"/>
      <path id="Trazado_146139-3" data-name="Trazado 146139" d="M44.521,63.923h3.812v2.669H44.521V70.97H41.6V66.592H37.766V63.923H41.6V59.749h2.921Z" transform="translate(-18.181 -40.183)" fill="#fff"/>
    </g>
    <g id="Grupo_108268-4" data-name="Grupo 108268" transform="translate(2062.436 -9583.109)">
      <g id="Grupo_78489-4" data-name="Grupo 78489">
        <circle id="Elipse_4758-4" data-name="Elipse 4758" cx="20.025" cy="20.025" r="20.025" transform="translate(4.975 4.975)" fill="#f85316" opacity="0.18" style="isolation: isolate"/>
        <circle id="Elipse_4759-4" data-name="Elipse 4759" cx="25" cy="25" r="25" fill="#f85316" opacity="0.154" style="isolation: isolate"/>
      </g>
      <path id="Elipse_4753-4" data-name="Elipse 4753" d="M15.05,0A15.05,15.05,0,1,1,0,15.05,15.05,15.05,0,0,1,15.05,0Z" transform="translate(9.95 9.95)" fill="#f85316"/>
      <path id="Trazado_146139-4" data-name="Trazado 146139" d="M44.521,63.923h3.812v2.669H44.521V70.97H41.6V66.592H37.766V63.923H41.6V59.749h2.921Z" transform="translate(-18.181 -40.183)" fill="#fff"/>
    </g>
    <g id="Grupo_150154" data-name="Grupo 150154" transform="translate(1321.218 -12237.945)">
      <g id="Grupo_149654" data-name="Grupo 149654" transform="matrix(0.574, -0.819, 0.819, 0.574, -1057.35, 3132.386)">
        <g id="Grupo_149653" data-name="Grupo 149653" transform="translate(1390.229 820.563)">
          <path id="Trazado_201036" data-name="Trazado 201036" d="M1631.933,1545.333v87.63a255.888,255.888,0,0,1-241.7-255.5l47.01-38.18.061-.052,40.357,38.232C1477.657,1465.572,1545.65,1538.1,1631.933,1545.333Z" transform="translate(-1390.229 -1121.568)" fill="#75b62f"/>
          <path id="Trazado_201037" data-name="Trazado 201037" d="M2188.852,1430.333a255.888,255.888,0,0,1-255.894,255.894c-4.748,0-9.486-.131-14.19-.393l-34.289-48.75,34.289-38.88q7.016.591,14.19.595c92.893,0,168.466-75.573,168.466-168.466Z" transform="translate(-1677.064 -1174.439)" fill="#dce736"/>
          <path id="Trazado_201038" data-name="Trazado 201038" d="M2236.271,1076.457,2188.9,1116.6l-40.06-40.138c0-92.893-75.573-168.466-168.466-168.466q-7.174,0-14.19.595v-87.63c4.7-.262,9.442-.393,14.19-.393a255.9,255.9,0,0,1,255.894,255.894Z" transform="translate(-1724.483 -820.563)" fill="#75b62f"/>
          <path id="Trazado_201039" data-name="Trazado 201039" d="M1671.854,866.228l-.009.009-39.912,42.893c-86.283,7.23-154.276,79.761-154.276,167.871l-40.357-38.232-.061.052-47.01,38.18a255.9,255.9,0,0,1,241.7-255.5Z" transform="translate(-1390.229 -821.107)" fill="#dce736"/>
        </g>
        <path id="Trazado_201040" data-name="Trazado 201040" d="M1732.116,925.964a213.475,213.475,0,0,0-25.722-1.547q-7.147,0-14.19.472c-97.823,6.452-177.541,79.158-194.694,173.659a212.96,212.96,0,0,0-3.427,38.18c0,100.578,69.934,184.815,163.832,206.751a212.691,212.691,0,0,0,34.289,5.1q7.043.459,14.19.463c103.533,0,189.764-74.1,208.526-172.173a213.8,213.8,0,0,0,3.786-40.138C1918.705,1028.177,1837.239,938.65,1732.116,925.964Zm-25.722,379.23q-7.173,0-14.19-.595c-86.283-7.23-154.276-79.761-154.276-167.871s67.993-160.641,154.276-167.871q7.016-.59,14.19-.595c92.893,0,168.466,75.573,168.466,168.466S1799.287,1305.194,1706.394,1305.194Z" transform="translate(-60.271 -60.271)" opacity="0.2"/>
      </g>
      <g id="Elipse_12655" data-name="Elipse 12655" transform="translate(635.705 2274.294)" fill="#75b62f" stroke="#707070" stroke-width="1">
        <circle cx="130.5" cy="130.5" r="130.5" stroke="none"/>
        <circle cx="130.5" cy="130.5" r="130" fill="none"/>
      </g>
      <text id="Ciclo_PHVA" data-name="Ciclo

PHVA" transform="translate(674.241 2338.544)" fill="#fff" font-size="60" font-family="Roboto-Bold, Roboto" font-weight="700"><tspan x="23.733" y="63">Ciclo</tspan><tspan x="91.877" y="87"></tspan><tspan x="12.629" y="111">PHVA</tspan></text>
      <g id="Grupo_149894" data-name="Grupo 149894" transform="translate(968.667 2931.368) rotate(180)">
        <path id="Trazado_201690" data-name="Trazado 201690" d="M424.854,494.518l-3.1-8.438-5.4.164-1.881-5.117,26.55.112,1.639,4.459-20.143,17.325-1.88-5.117Zm1.276-8.571,2.145,5.839,7.663-6.148Z" fill="#161615"/>
        <path id="Trazado_201691" data-name="Trazado 201691" d="M427.008,511.025a3.243,3.243,0,0,0,1.069,2.088,2.633,2.633,0,0,0,2.109.587l.677,4.581a6.337,6.337,0,0,1-3.556-.51,6.762,6.762,0,0,1-2.8-2.375,8.637,8.637,0,0,1-1.42-3.7,8.025,8.025,0,0,1,1.577-6.556,9.973,9.973,0,0,1,6.555-3.285l.321-.047a9.857,9.857,0,0,1,7.078,1.25,7.932,7.932,0,0,1,3.432,5.8,7.775,7.775,0,0,1-1.139,5.792,6.989,6.989,0,0,1-4.886,2.874l-.678-4.582a3.4,3.4,0,0,0,2.189-1.222,3.3,3.3,0,0,0-1.063-4.758,7.285,7.285,0,0,0-4.167-.273l-.508.075a7.374,7.374,0,0,0-3.937,1.464A3.011,3.011,0,0,0,427.008,511.025Z" fill="#161615"/>
        <path id="Trazado_201692" data-name="Trazado 201692" d="M447.449,526.672l-4.546.074.052,3.161-3.623.059-.051-3.161-9.227.149a2.2,2.2,0,0,0-1.463.417,1.966,1.966,0,0,0-.42,1.511,7.936,7.936,0,0,0,.142,1.45l-3.742.061a10.206,10.206,0,0,1-.492-2.983q-.086-5.2,5.159-5.383l9.963-.161-.044-2.7,3.622-.059.044,2.7,4.546-.075Z" fill="#161615"/>
        <path id="Trazado_201693" data-name="Trazado 201693" d="M424.663,543.388a6.193,6.193,0,0,1-1.436-5.335,5.842,5.842,0,0,1,2.372-4.23,7.294,7.294,0,0,1,5.19-.827l11.98,1.821-.743,4.883L430.2,537.9q-2.859-.434-3.254,2.168a3.565,3.565,0,0,0,1.207,3.675l12.956,1.97-.744,4.9-18.281-2.778.7-4.6Z" fill="#161615"/>
        <path id="Trazado_201694" data-name="Trazado 201694" d="M417.843,560.488a5.484,5.484,0,0,1,1.727.084,5.979,5.979,0,0,1-.334-5.065,6.57,6.57,0,0,1,2.981-3.724,5.055,5.055,0,0,1,4.333-.365,5.223,5.223,0,0,1,3.53,3.555,10.741,10.741,0,0,1-.6,6.467l-.755,2.144,1,.353a3.046,3.046,0,0,0,2.152.061,2.587,2.587,0,0,0,1.416-1.7,2.944,2.944,0,0,0,.087-2.044,2.034,2.034,0,0,0-1.312-1.215l1.643-4.658a4.957,4.957,0,0,1,2.474,1.924,6.556,6.556,0,0,1,1.091,3.356,10.2,10.2,0,0,1-.62,4.1,8.071,8.071,0,0,1-3.424,4.546,6.008,6.008,0,0,1-5.22.288l-7.56-2.666a8.845,8.845,0,0,0-4-.631l-.274-.1Zm4.6-2.71a4.259,4.259,0,0,0-.211,2.065,3.2,3.2,0,0,0,.778,1.723l3,1.058.614-1.741q1.233-3.5-1.1-4.575l-.269-.114a1.974,1.974,0,0,0-1.65.108A2.515,2.515,0,0,0,422.44,557.778Z" fill="#161615"/>
        <path id="Trazado_201695" data-name="Trazado 201695" d="M422.329,582.763a13.3,13.3,0,0,0,.962-1.5q1.329-2.469.071-4.135L412.707,571.4l2.341-4.349,16.283,8.762-2.211,4.108-2.006-.924a4.574,4.574,0,0,1,.29,4.833,5.116,5.116,0,0,1-.924,1.249Z" fill="#161615"/>
      </g>
      <g id="Grupo_149897" data-name="Grupo 149897" transform="translate(1126.439 1736.234)">
        <path id="Trazado_201711" data-name="Trazado 201711" d="M-426.836,449.623l3.8,7.9-4.62,2.221-10.78-22.427,8.749-4.2A11.244,11.244,0,0,1-424.8,431.9a7.563,7.563,0,0,1,4.213,1.209,8.138,8.138,0,0,1,2.894,3.377,7.148,7.148,0,0,1,.242,6.283,10.424,10.424,0,0,1-5.332,4.9Zm-1.8-3.742,4.128-1.985a4.5,4.5,0,0,0,2.381-2.206,3.479,3.479,0,0,0-.222-2.927,4.107,4.107,0,0,0-2.251-2.2,4.024,4.024,0,0,0-3.184.242l-4.236,2.036Z" fill="#fcfdea"/>
        <path id="Trazado_201712" data-name="Trazado 201712" d="M-403.072,449.131l-4.672,1.655-8.768-24.742,4.671-1.655Z" fill="#fcfdea"/>
        <path id="Trazado_201713" data-name="Trazado 201713" d="M-389.376,445.28a5.472,5.472,0,0,1-.884-1.487,5.975,5.975,0,0,1-4.039,3.074,6.563,6.563,0,0,1-4.75-.43,5.058,5.058,0,0,1-2.7-3.412,5.227,5.227,0,0,1,1.017-4.906,10.755,10.755,0,0,1,5.722-3.073l2.2-.553-.258-1.027a3.046,3.046,0,0,0-1.137-1.829,2.583,2.583,0,0,0-2.2-.241,2.935,2.935,0,0,0-1.752,1.055,2.031,2.031,0,0,0-.289,1.764l-4.791,1.2a4.961,4.961,0,0,1,.238-3.126,6.555,6.555,0,0,1,2.2-2.762,10.216,10.216,0,0,1,3.755-1.743,8.074,8.074,0,0,1,5.682.347,6.009,6.009,0,0,1,3.121,4.2l1.949,7.775a8.83,8.83,0,0,0,1.681,3.683l.07.282Zm-4.8-2.339a4.254,4.254,0,0,0,1.838-.962,3.209,3.209,0,0,0,1.008-1.6l-.773-3.083-1.79.448q-3.6.9-3.206,3.447l.054.286a1.974,1.974,0,0,0,1,1.318A2.523,2.523,0,0,0-394.173,442.941Z" fill="#fcfdea"/>
        <path id="Trazado_201714" data-name="Trazado 201714" d="M-379.907,424.781l.4,2.1a6.45,6.45,0,0,1,4.991-3.079,5.365,5.365,0,0,1,4.546,1.206,8.059,8.059,0,0,1,2.059,4.956l1.387,11.865-4.906.573-1.373-11.746a3.2,3.2,0,0,0-.944-2.186,3.058,3.058,0,0,0-2.34-.441,3.4,3.4,0,0,0-2.9,2.128l1.515,12.952-4.906.574-2.147-18.367Z" fill="#fcfdea"/>
        <path id="Trazado_201715" data-name="Trazado 201715" d="M-363.836,418.6a2.431,2.431,0,0,1,.707-1.843,2.791,2.791,0,0,1,2.01-.759,2.8,2.8,0,0,1,2.03.677,2.42,2.42,0,0,1,.789,1.813,2.427,2.427,0,0,1-.723,1.861,2.811,2.811,0,0,1-1.993.758,2.808,2.808,0,0,1-2.023-.677A2.425,2.425,0,0,1-363.836,418.6Zm5.715,23.166-4.955.1-.373-18.487,4.955-.1Z" fill="#fcfdea"/>
        <path id="Trazado_201716" data-name="Trazado 201716" d="M-353.144,441.822l.771-14.848-2.748-.143.188-3.618,2.747.142.082-1.57a6.38,6.38,0,0,1,2.034-4.729,6.915,6.915,0,0,1,5.081-1.456,11.515,11.515,0,0,1,2.491.471l-.25,3.821a6.289,6.289,0,0,0-1.494-.232q-2.781-.144-2.917,2.467l-.077,1.485,3.669.191-.187,3.618-3.67-.191-.77,14.848Z" fill="#fcfdea"/>
        <path id="Trazado_201717" data-name="Trazado 201717" d="M-337.247,443.207l-4.918-.616,2.3-18.348,4.917.616Zm-2.312-23.748a2.434,2.434,0,0,1,.965-1.722,2.792,2.792,0,0,1,2.1-.46,2.8,2.8,0,0,1,1.912.963,2.424,2.424,0,0,1,.519,1.907,2.423,2.423,0,0,1-.985,1.737,2.8,2.8,0,0,1-2.081.464,2.81,2.81,0,0,1-1.9-.963A2.429,2.429,0,0,1-339.559,419.459Z" fill="#fcfdea"/>
        <path id="Trazado_201718" data-name="Trazado 201718" d="M-325.435,441.7a3.236,3.236,0,0,0,2.332-.255,2.636,2.636,0,0,0,1.3-1.76l4.523,1a6.343,6.343,0,0,1-1.745,3.141,6.772,6.772,0,0,1-3.219,1.774,8.656,8.656,0,0,1-3.965.008,8.027,8.027,0,0,1-5.564-3.812,9.976,9.976,0,0,1-.733-7.294l.07-.317a9.859,9.859,0,0,1,3.69-6.167,7.936,7.936,0,0,1,6.641-1.141A7.78,7.78,0,0,1-317.1,430a6.986,6.986,0,0,1,.943,5.59l-4.522-1a3.394,3.394,0,0,0-.362-2.482,2.965,2.965,0,0,0-2.008-1.368,2.979,2.979,0,0,0-2.816.666,7.292,7.292,0,0,0-1.74,3.8l-.111.5a7.38,7.38,0,0,0-.035,4.2A3.01,3.01,0,0,0-325.435,441.7Z" fill="#fcfdea"/>
        <path id="Trazado_201719" data-name="Trazado 201719" d="M-306.57,451.142a5.477,5.477,0,0,1,.09-1.728,5.975,5.975,0,0,1-5.066.315,6.564,6.564,0,0,1-3.713-2.994,5.058,5.058,0,0,1-.35-4.335,5.228,5.228,0,0,1,3.568-3.516,10.753,10.753,0,0,1,6.466.619l2.141.764.356-1a3.048,3.048,0,0,0,.069-2.153,2.589,2.589,0,0,0-1.7-1.422,2.944,2.944,0,0,0-2.044-.094,2.026,2.026,0,0,0-1.219,1.307l-4.652-1.66a4.963,4.963,0,0,1,1.933-2.468,6.566,6.566,0,0,1,3.36-1.078,10.211,10.211,0,0,1,4.092.635,8.073,8.073,0,0,1,4.534,3.44,6.014,6.014,0,0,1,.269,5.223l-2.694,7.549a8.824,8.824,0,0,0-.645,4l-.1.273Zm-2.693-4.608a4.255,4.255,0,0,0,2.063.219,3.2,3.2,0,0,0,1.727-.773l1.068-2.993-1.738-.62q-3.493-1.246-4.58,1.088l-.113.268a1.973,1.973,0,0,0,.1,1.65A2.522,2.522,0,0,0-309.263,446.534Z" fill="#fcfdea"/>
        <path id="Trazado_201720" data-name="Trazado 201720" d="M-284.326,445.969a13.312,13.312,0,0,0-1.541-.9q-2.526-1.217-4.133.114l-5.255,10.9-4.449-2.146,8.03-16.656,4.2,2.027-.834,2.044a4.574,4.574,0,0,1,4.815-.5,5.086,5.086,0,0,1,1.289.868Z" fill="#fcfdea"/>
      </g>
      <g id="Grupo_149898" data-name="Grupo 149898" transform="translate(1121.786 1896.075)">
        <path id="Trazado_201721" data-name="Trazado 201721" d="M-296.377,721.754l3.006,19.312-5.147,2.468-2.945-26.182,4.823-2.314,18.54,18.7-5.131,2.461Z" fill="#fcfdea"/>
        <path id="Trazado_201722" data-name="Trazado 201722" d="M-318.716,723.531a9.085,9.085,0,0,1,7.066.385,8.871,8.871,0,0,1,4.438,5.57l.144.457a11.17,11.17,0,0,1,.473,5.075,7.906,7.906,0,0,1-1.89,4.145,8.558,8.558,0,0,1-3.937,2.489,7.674,7.674,0,0,1-6.416-.484q-2.8-1.626-4.12-5.814l-.607-1.922,11.228-3.545a4.589,4.589,0,0,0-2.252-2.336,4.369,4.369,0,0,0-3.238-.125,5.333,5.333,0,0,0-3.631,3.314l-3.132-1.859a7.4,7.4,0,0,1,2.13-3.244A9.841,9.841,0,0,1-318.716,723.531Zm5.112,14.319a3.087,3.087,0,0,0,1.973-1.668,5.153,5.153,0,0,0,.259-3.07l-6.552,2.069.119.376a3.686,3.686,0,0,0,1.615,2.164A3.189,3.189,0,0,0-313.6,737.85Z" fill="#fcfdea"/>
        <path id="Trazado_201723" data-name="Trazado 201723" d="M-335.47,742.115a13.225,13.225,0,0,0,1.769-.217q2.748-.554,3.227-2.585l-2.388-11.861,4.841-.975,3.651,18.127-4.574.921-.569-2.134a4.577,4.577,0,0,1-3.535,3.31,5.165,5.165,0,0,1-1.552.085Z" fill="#fcfdea"/>
        <path id="Trazado_201724" data-name="Trazado 201724" d="M-345.312,729.371l4.917-.615,2.3,18.348-4.918.616Zm8.1,22.445a2.437,2.437,0,0,1-.511,1.907,2.8,2.8,0,0,1-1.92.964,2.807,2.807,0,0,1-2.091-.462,2.421,2.421,0,0,1-.973-1.721,2.425,2.425,0,0,1,.526-1.926,2.806,2.806,0,0,1,1.9-.962,2.817,2.817,0,0,1,2.082.463A2.429,2.429,0,0,1-337.216,751.816Z" fill="#fcfdea"/>
        <path id="Trazado_201725" data-name="Trazado 201725" d="M-350.267,729.828l.767,14.85,2.748-.143.187,3.618-2.748.142.082,1.57a6.388,6.388,0,0,1-1.535,4.914,6.913,6.913,0,0,1-4.9,1.973,11.591,11.591,0,0,1-2.527-.211l-.146-3.826a6.285,6.285,0,0,0,1.509.076q2.783-.144,2.647-2.755l-.076-1.485-3.67.189-.187-3.617,3.67-.19-.768-14.849Z" fill="#fcfdea"/>
        <path id="Trazado_201726" data-name="Trazado 201726" d="M-361.454,753.476a2.434,2.434,0,0,1-.78,1.813,2.791,2.791,0,0,1-2.039.676,2.807,2.807,0,0,1-2-.758,2.417,2.417,0,0,1-.715-1.844,2.427,2.427,0,0,1,.8-1.83,2.805,2.805,0,0,1,2.022-.677,2.806,2.806,0,0,1,1.993.759A2.424,2.424,0,0,1-361.454,753.476Zm-4.771-23.378,4.955.1-.376,18.488-4.956-.1Z" fill="#fcfdea"/>
        <path id="Trazado_201727" data-name="Trazado 201727" d="M-377.81,732.84a3.238,3.238,0,0,0-2.292.5,2.633,2.633,0,0,0-1.106,1.888l-4.6-.518a6.348,6.348,0,0,1,1.4-3.308,6.76,6.76,0,0,1,3.014-2.1,8.646,8.646,0,0,1,3.944-.426,8.031,8.031,0,0,1,5.933,3.205,9.971,9.971,0,0,1,1.5,7.176l-.036.323a9.866,9.866,0,0,1-3.021,6.523,7.934,7.934,0,0,1-6.484,1.832,7.774,7.774,0,0,1-5.307-2.583,7,7,0,0,1-1.527-5.46l4.6.517a3.393,3.393,0,0,0,.621,2.43,2.958,2.958,0,0,0,2.141,1.148,2.973,2.973,0,0,0,2.73-.959,7.282,7.282,0,0,0,1.331-3.957l.057-.51a7.38,7.38,0,0,0-.406-4.18A3.01,3.01,0,0,0-377.81,732.84Z" fill="#fcfdea"/>
        <path id="Trazado_201728" data-name="Trazado 201728" d="M-397.577,725.436a5.438,5.438,0,0,1,.093,1.727,5.978,5.978,0,0,1,5.005-.849,6.567,6.567,0,0,1,4.008,2.584,5.057,5.057,0,0,1,.806,4.274,5.227,5.227,0,0,1-3.177,3.875,10.745,10.745,0,0,1-6.494.067l-2.21-.533-.248,1.03a3.045,3.045,0,0,0,.158,2.148,2.593,2.593,0,0,0,1.838,1.235,2.943,2.943,0,0,0,2.043-.123,2.033,2.033,0,0,0,1.074-1.428l4.8,1.159a4.964,4.964,0,0,1-1.661,2.658,6.564,6.564,0,0,1-3.228,1.428,10.2,10.2,0,0,1-4.136-.2,8.069,8.069,0,0,1-4.872-2.942,6.006,6.006,0,0,1-.819-5.164l1.88-7.792a8.833,8.833,0,0,0,.22-4.043l.068-.282Zm3.165,4.3a4.3,4.3,0,0,0-2.075,0,3.2,3.2,0,0,0-1.636.951l-.745,3.089,1.794.434q3.606.87,4.439-1.566l.085-.279a1.977,1.977,0,0,0-.275-1.631A2.524,2.524,0,0,0-394.412,729.732Z" fill="#fcfdea"/>
        <path id="Trazado_201729" data-name="Trazado 201729" d="M-419.123,732.941a13.161,13.161,0,0,0,1.628.727q2.64.943,4.1-.549l4.073-11.394,4.651,1.662L-410.9,740.8l-4.394-1.571.614-2.122a4.576,4.576,0,0,1-4.736,1.012,5.187,5.187,0,0,1-1.373-.726Z" fill="#fcfdea"/>
      </g>
      <g id="Grupo_149895" data-name="Grupo 149895" transform="translate(490.891 2037.816)">
        <path id="Trazado_201696" data-name="Trazado 201696" d="M501.7,356.68l-1.74-4.823,10.031-3.62-3.394-9.4-10.031,3.62-1.741-4.822,23.4-8.447,1.741,4.822-9.484,3.423,3.394,9.4,9.484-3.423,1.74,4.822Z" fill="#161615"/>
        <path id="Trazado_201697" data-name="Trazado 201697" d="M503.548,370.238a5.493,5.493,0,0,1,1.578-.71,5.975,5.975,0,0,1-2.6-4.36,6.568,6.568,0,0,1,.962-4.672,5.062,5.062,0,0,1,3.7-2.294,5.219,5.219,0,0,1,4.759,1.563,10.742,10.742,0,0,1,2.41,6.031l.3,2.253,1.05-.14a3.043,3.043,0,0,0,1.946-.924,2.586,2.586,0,0,0,.488-2.16,2.952,2.952,0,0,0-.852-1.86,2.036,2.036,0,0,0-1.721-.486l-.653-4.895a4.963,4.963,0,0,1,3.079.589,6.544,6.544,0,0,1,2.5,2.494,10.2,10.2,0,0,1,1.31,3.929,8.065,8.065,0,0,1-.984,5.6,6.007,6.007,0,0,1-4.52,2.629l-7.945,1.062a8.842,8.842,0,0,0-3.85,1.254l-.288.039Zm2.864-4.5a4.261,4.261,0,0,0,.75,1.935,3.212,3.212,0,0,0,1.477,1.183l3.15-.421-.244-1.83q-.491-3.676-3.064-3.574l-.29.022a1.974,1.974,0,0,0-1.421.845A2.518,2.518,0,0,0,506.412,365.735Z" fill="#161615"/>
        <path id="Trazado_201698" data-name="Trazado 201698" d="M507.488,385.058a3.237,3.237,0,0,0,.65,2.254,2.635,2.635,0,0,0,1.956.979l-.212,4.627a6.343,6.343,0,0,1-3.394-1.183,6.764,6.764,0,0,1-2.3-2.868,8.628,8.628,0,0,1-.684-3.907,8.02,8.02,0,0,1,2.805-6.132,9.974,9.974,0,0,1,7.062-1.968l.324.015a9.86,9.86,0,0,1,6.707,2.583,7.938,7.938,0,0,1,2.258,6.349,7.777,7.777,0,0,1-2.227,5.465,6.994,6.994,0,0,1-5.348,1.885l.213-4.627a3.39,3.39,0,0,0,2.384-.78,3.305,3.305,0,0,0-.133-4.873,7.274,7.274,0,0,0-4.037-1.066l-.513-.024a7.382,7.382,0,0,0-4.144.682A3.014,3.014,0,0,0,507.488,385.058Z" fill="#161615"/>
        <path id="Trazado_201699" data-name="Trazado 201699" d="M500.95,402.6a9.076,9.076,0,0,1,3.923-5.891,8.872,8.872,0,0,1,7.053-.991l.466.108A11.171,11.171,0,0,1,517,398a7.892,7.892,0,0,1,2.609,3.734,8.565,8.565,0,0,1,.143,4.656,7.67,7.67,0,0,1-3.677,5.28q-2.821,1.584-7.1.594l-1.965-.454,2.652-11.472a4.584,4.584,0,0,0-3.155.752,4.358,4.358,0,0,0-1.753,2.725,5.327,5.327,0,0,0,1.01,4.812l-3.2,1.753a7.424,7.424,0,0,1-1.712-3.483A9.871,9.871,0,0,1,500.95,402.6Zm14.929,2.873a3.079,3.079,0,0,0-.433-2.547,5.146,5.146,0,0,0-2.512-1.782l-1.548,6.693.385.089a3.679,3.679,0,0,0,2.683-.292A3.18,3.18,0,0,0,515.879,405.474Z" fill="#161615"/>
        <path id="Trazado_201700" data-name="Trazado 201700" d="M507.675,426.608a13.448,13.448,0,0,0,.791-1.6q1.047-2.6-.387-4.117l-11.224-4.521,1.845-4.581,17.153,6.908-1.744,4.328-2.1-.7a4.579,4.579,0,0,1,.823,4.772,5.188,5.188,0,0,1-.78,1.343Z" fill="#161615"/>
      </g>
    </g>
  </g>
</svg>
