<svg xmlns="http://www.w3.org/2000/svg" width="104.827" height="112.076" viewBox="0 0 104.827 112.076">
  <g id="Grupo_150173" data-name="Grupo 150173" transform="translate(-3671 8318.047)">
    <g id="Grupo_150086" data-name="Grupo 150086" transform="translate(3671 -8318.047)">
      <g id="Grupo_149710" data-name="Grupo 149710" transform="translate(1.642 1.641)">
        <g id="Grupo_149709" data-name="Grupo 149709">
          <path id="Trazado_201302" data-name="Trazado 201302" d="M67.073,488.533H25.63a7.253,7.253,0,0,1-7.253-7.253v-7.254H74.039Z" transform="translate(-18.377 -397.872)" fill="#d3dcfb"/>
          <path id="Trazado_201303" data-name="Trazado 201303" d="M112.671,423.869v50.77H25.63a7.253,7.253,0,0,1-7.253-7.254V423.869L69.15,405.737Z" transform="translate(-18.377 -391.231)" fill="#ebf5fc"/>
          <g id="Grupo_149708" data-name="Grupo 149708" transform="translate(7.255 39.891)">
            <path id="Trazado_201304" data-name="Trazado 201304" d="M31.915,441.11H28.164a1.751,1.751,0,0,1-1.75-1.751v-3.751a1.75,1.75,0,0,1,1.75-1.75h3.751a1.751,1.751,0,0,1,1.751,1.75v3.751A1.752,1.752,0,0,1,31.915,441.11Z" transform="translate(-26.414 -433.857)" fill="#3c58a0"/>
            <path id="Trazado_201305" data-name="Trazado 201305" d="M47.983,441.11h-3.75a1.752,1.752,0,0,1-1.751-1.751v-3.751a1.751,1.751,0,0,1,1.751-1.75h3.75a1.75,1.75,0,0,1,1.751,1.75v3.751A1.751,1.751,0,0,1,47.983,441.11Z" transform="translate(-27.977 -433.857)" fill="#3c58a0"/>
            <path id="Trazado_201306" data-name="Trazado 201306" d="M64.052,441.11H60.3a1.752,1.752,0,0,1-1.751-1.751v-3.751a1.751,1.751,0,0,1,1.751-1.75h3.751a1.75,1.75,0,0,1,1.75,1.75v3.751A1.751,1.751,0,0,1,64.052,441.11Z" transform="translate(-29.539 -433.857)" fill="#3c58a0"/>
            <path id="Trazado_201307" data-name="Trazado 201307" d="M80.12,441.11H76.37a1.751,1.751,0,0,1-1.751-1.751v-3.751a1.75,1.75,0,0,1,1.751-1.75h3.75a1.751,1.751,0,0,1,1.751,1.75v3.751A1.752,1.752,0,0,1,80.12,441.11Z" transform="translate(-31.102 -433.857)" fill="#3c58a0"/>
            <path id="Trazado_201308" data-name="Trazado 201308" d="M96.186,441.11h-3.75a1.751,1.751,0,0,1-1.751-1.751v-3.751a1.75,1.75,0,0,1,1.751-1.75h3.75a1.751,1.751,0,0,1,1.751,1.75v3.751A1.752,1.752,0,0,1,96.186,441.11Z" transform="translate(-32.665 -433.857)" fill="#3c58a0"/>
            <path id="Trazado_201309" data-name="Trazado 201309" d="M112.254,441.11H108.5a1.751,1.751,0,0,1-1.751-1.751v-3.751a1.75,1.75,0,0,1,1.751-1.75h3.75a1.751,1.751,0,0,1,1.751,1.75v3.751A1.751,1.751,0,0,1,112.254,441.11Z" transform="translate(-34.227 -433.857)" fill="#3c58a0"/>
            <path id="Trazado_201310" data-name="Trazado 201310" d="M31.915,457.178H28.164a1.751,1.751,0,0,1-1.75-1.751v-3.75a1.75,1.75,0,0,1,1.75-1.751h3.751a1.751,1.751,0,0,1,1.751,1.751v3.75A1.751,1.751,0,0,1,31.915,457.178Z" transform="translate(-26.414 -435.42)" fill="#3c58a0"/>
            <path id="Trazado_201311" data-name="Trazado 201311" d="M47.983,457.178h-3.75a1.752,1.752,0,0,1-1.751-1.751v-3.75a1.751,1.751,0,0,1,1.751-1.751h3.75a1.751,1.751,0,0,1,1.751,1.751v3.75A1.751,1.751,0,0,1,47.983,457.178Z" transform="translate(-27.977 -435.42)" fill="#3c58a0"/>
            <path id="Trazado_201312" data-name="Trazado 201312" d="M64.052,457.178H60.3a1.752,1.752,0,0,1-1.751-1.751v-3.75a1.751,1.751,0,0,1,1.751-1.751h3.751a1.75,1.75,0,0,1,1.75,1.751v3.75A1.75,1.75,0,0,1,64.052,457.178Z" transform="translate(-29.539 -435.42)" fill="#3c58a0"/>
            <path id="Trazado_201313" data-name="Trazado 201313" d="M81.872,457.178v-5.44a1.813,1.813,0,0,0-1.814-1.813H76.432a1.813,1.813,0,0,0-1.813,1.813v3.626a1.813,1.813,0,0,0,1.813,1.814Z" transform="translate(-31.102 -435.42)" fill="#3c58a0"/>
            <path id="Trazado_201314" data-name="Trazado 201314" d="M31.915,473.246H28.164a1.75,1.75,0,0,1-1.75-1.75v-3.751a1.751,1.751,0,0,1,1.75-1.751h3.751a1.752,1.752,0,0,1,1.751,1.751V471.5A1.751,1.751,0,0,1,31.915,473.246Z" transform="translate(-26.414 -436.982)" fill="#3c58a0"/>
            <path id="Trazado_201315" data-name="Trazado 201315" d="M47.983,473.246h-3.75a1.751,1.751,0,0,1-1.751-1.75v-3.751a1.752,1.752,0,0,1,1.751-1.751h3.75a1.751,1.751,0,0,1,1.751,1.751V471.5A1.75,1.75,0,0,1,47.983,473.246Z" transform="translate(-27.977 -436.982)" fill="#3c58a0"/>
            <path id="Trazado_201316" data-name="Trazado 201316" d="M64.052,473.246H60.3a1.751,1.751,0,0,1-1.751-1.75v-3.751a1.752,1.752,0,0,1,1.751-1.751h3.751a1.751,1.751,0,0,1,1.75,1.751V471.5A1.75,1.75,0,0,1,64.052,473.246Z" transform="translate(-29.539 -436.982)" fill="#3c58a0"/>
          </g>
          <path id="Trazado_201317" data-name="Trazado 201317" d="M112.374,433.856h-3.75a1.739,1.739,0,0,0-.642.124,1.75,1.75,0,0,1,1.109,1.628v3.751a1.749,1.749,0,0,1-1.109,1.628,1.743,1.743,0,0,0,.642.124h3.75a1.752,1.752,0,0,0,1.751-1.751v-3.751A1.751,1.751,0,0,0,112.374,433.856Z" transform="translate(-27.092 -393.966)" fill="#2a428c"/>
          <path id="Trazado_201318" data-name="Trazado 201318" d="M96.306,433.856h-3.75a1.748,1.748,0,0,0-.643.124,1.75,1.75,0,0,1,1.109,1.628v3.751a1.748,1.748,0,0,1-1.109,1.628,1.748,1.748,0,0,0,.643.124h3.75a1.752,1.752,0,0,0,1.751-1.751v-3.751A1.752,1.752,0,0,0,96.306,433.856Z" transform="translate(-25.529 -393.966)" fill="#2a428c"/>
          <path id="Trazado_201319" data-name="Trazado 201319" d="M80.24,433.856H76.49a1.748,1.748,0,0,0-.643.124,1.75,1.75,0,0,1,1.109,1.628v3.751a1.748,1.748,0,0,1-1.109,1.628,1.748,1.748,0,0,0,.643.124h3.75a1.752,1.752,0,0,0,1.751-1.751v-3.751A1.752,1.752,0,0,0,80.24,433.856Z" transform="translate(-23.966 -393.966)" fill="#2a428c"/>
          <path id="Trazado_201320" data-name="Trazado 201320" d="M64.172,433.856H60.421a1.743,1.743,0,0,0-.642.124,1.75,1.75,0,0,1,1.109,1.628v3.751a1.75,1.75,0,0,1-1.109,1.628,1.743,1.743,0,0,0,.642.124h3.751a1.751,1.751,0,0,0,1.75-1.751v-3.751A1.751,1.751,0,0,0,64.172,433.856Z" transform="translate(-22.404 -393.966)" fill="#2a428c"/>
          <path id="Trazado_201321" data-name="Trazado 201321" d="M48.1,433.856h-3.75a1.739,1.739,0,0,0-.642.124,1.75,1.75,0,0,1,1.109,1.628v3.751a1.749,1.749,0,0,1-1.109,1.628,1.739,1.739,0,0,0,.642.124H48.1a1.751,1.751,0,0,0,1.751-1.751v-3.751A1.751,1.751,0,0,0,48.1,433.856Z" transform="translate(-20.841 -393.966)" fill="#2a428c"/>
          <path id="Trazado_201322" data-name="Trazado 201322" d="M32.035,433.856H28.284a1.747,1.747,0,0,0-.642.124,1.75,1.75,0,0,1,1.109,1.628v3.751a1.75,1.75,0,0,1-1.109,1.628,1.747,1.747,0,0,0,.642.124h3.751a1.752,1.752,0,0,0,1.751-1.751v-3.751A1.752,1.752,0,0,0,32.035,433.856Z" transform="translate(-19.278 -393.966)" fill="#2a428c"/>
          <path id="Trazado_201323" data-name="Trazado 201323" d="M32.035,449.925H28.284a1.746,1.746,0,0,0-.642.123,1.752,1.752,0,0,1,1.109,1.629v3.75a1.752,1.752,0,0,1-1.109,1.629,1.746,1.746,0,0,0,.642.123h3.751a1.751,1.751,0,0,0,1.751-1.751v-3.75a1.751,1.751,0,0,0-1.751-1.751Z" transform="translate(-19.278 -395.528)" fill="#2a428c"/>
          <path id="Trazado_201324" data-name="Trazado 201324" d="M32.035,465.993H28.284a1.747,1.747,0,0,0-.642.124,1.75,1.75,0,0,1,1.109,1.628V471.5a1.75,1.75,0,0,1-1.109,1.628,1.746,1.746,0,0,0,.642.123h3.751a1.751,1.751,0,0,0,1.751-1.75v-3.751a1.752,1.752,0,0,0-1.751-1.751Z" transform="translate(-19.278 -397.091)" fill="#2a428c"/>
          <path id="Trazado_201325" data-name="Trazado 201325" d="M48.1,449.925h-3.75a1.739,1.739,0,0,0-.642.123,1.751,1.751,0,0,1,1.109,1.629v3.75a1.751,1.751,0,0,1-1.109,1.629,1.739,1.739,0,0,0,.642.123H48.1a1.751,1.751,0,0,0,1.751-1.751v-3.75a1.751,1.751,0,0,0-1.751-1.751Z" transform="translate(-20.841 -395.528)" fill="#2a428c"/>
          <path id="Trazado_201326" data-name="Trazado 201326" d="M48.1,465.993h-3.75a1.739,1.739,0,0,0-.642.124,1.75,1.75,0,0,1,1.109,1.628V471.5a1.75,1.75,0,0,1-1.109,1.628,1.739,1.739,0,0,0,.642.123H48.1a1.75,1.75,0,0,0,1.751-1.75v-3.751a1.751,1.751,0,0,0-1.751-1.751Z" transform="translate(-20.841 -397.091)" fill="#2a428c"/>
          <path id="Trazado_201327" data-name="Trazado 201327" d="M64.172,449.925H60.421a1.742,1.742,0,0,0-.642.123,1.752,1.752,0,0,1,1.109,1.629v3.75a1.752,1.752,0,0,1-1.109,1.629,1.742,1.742,0,0,0,.642.123h3.751a1.75,1.75,0,0,0,1.75-1.751v-3.75a1.75,1.75,0,0,0-1.75-1.751Z" transform="translate(-22.404 -395.528)" fill="#2a428c"/>
          <path id="Trazado_201328" data-name="Trazado 201328" d="M81.991,457.178v-5.5a1.751,1.751,0,0,0-1.751-1.751H76.49a1.747,1.747,0,0,0-.643.123,1.752,1.752,0,0,1,1.109,1.629v3.75a1.75,1.75,0,0,1-1.109,1.629,1.747,1.747,0,0,0,.643.123Z" transform="translate(-23.966 -395.528)" fill="#2a428c"/>
          <path id="Trazado_201329" data-name="Trazado 201329" d="M64.172,465.993H60.421a1.743,1.743,0,0,0-.642.124,1.75,1.75,0,0,1,1.109,1.628V471.5a1.75,1.75,0,0,1-1.109,1.628,1.742,1.742,0,0,0,.642.123h3.751a1.75,1.75,0,0,0,1.75-1.75v-3.751a1.751,1.751,0,0,0-1.75-1.751Z" transform="translate(-22.404 -397.091)" fill="#2a428c"/>
          <path id="Trazado_201330" data-name="Trazado 201330" d="M117.248,423.5v52.869h5.038V425.6Z" transform="translate(-27.993 -392.958)" fill="#d3dcfb"/>
          <path id="Trazado_201331" data-name="Trazado 201331" d="M112.671,423.087V404.956a7.252,7.252,0,0,0-7.253-7.253H25.63a7.253,7.253,0,0,0-7.253,7.253v18.132Z" transform="translate(-18.377 -390.449)" fill="#75b62f"/>
          <path id="Trazado_201332" data-name="Trazado 201332" d="M51.545,403.267a4.533,4.533,0,1,1-9.066,0V394.2a4.533,4.533,0,1,1,9.066,0Z" transform="translate(-20.721 -389.668)" fill="#ebf5fc"/>
          <path id="Trazado_201333" data-name="Trazado 201333" d="M97.744,403.267a4.533,4.533,0,1,1-9.065,0V394.2a4.533,4.533,0,1,1,9.065,0Z" transform="translate(-25.214 -389.668)" fill="#ebf5fc"/>
          <path id="Trazado_201334" data-name="Trazado 201334" d="M93.429,389.668a4.509,4.509,0,0,0-2.515.763,4.525,4.525,0,0,1,2.018,3.771v9.065a4.525,4.525,0,0,1-2.018,3.771,4.531,4.531,0,0,0,7.048-3.771V394.2A4.533,4.533,0,0,0,93.429,389.668Z" transform="translate(-25.432 -389.668)" fill="#d3dcfb"/>
          <path id="Trazado_201335" data-name="Trazado 201335" d="M47.23,389.668a4.509,4.509,0,0,0-2.515.763,4.527,4.527,0,0,1,2.018,3.771v9.065a4.527,4.527,0,0,1-2.018,3.771,4.531,4.531,0,0,0,7.048-3.771V394.2a4.533,4.533,0,0,0-4.533-4.534Z" transform="translate(-20.939 -389.668)" fill="#d3dcfb"/>
          <path id="Trazado_201336" data-name="Trazado 201336" d="M114.252,397.7h-5.036a7.253,7.253,0,0,1,7.253,7.253v18.133h5.036V404.956A7.253,7.253,0,0,0,114.252,397.7Z" transform="translate(-27.212 -390.449)" fill="#dce736"/>
        </g>
        <circle id="Elipse_12664" data-name="Elipse 12664" cx="27.198" cy="27.198" r="27.198" transform="translate(47.147 54.397)" fill="#75b62f"/>
        <circle id="Elipse_12665" data-name="Elipse 12665" cx="19.945" cy="19.945" r="19.945" transform="translate(54.399 61.649)" fill="#ebf5fc"/>
        <path id="Trazado_201337" data-name="Trazado 201337" d="M100.46,449.925c-.849,0-1.688.041-2.517.117a27.2,27.2,0,0,1,0,54.162c.829.076,1.668.116,2.517.116a27.2,27.2,0,0,0,0-54.4Z" transform="translate(-26.115 -395.528)" fill="#dce736"/>
        <path id="Trazado_201338" data-name="Trazado 201338" d="M100.46,457.959a20.279,20.279,0,0,0-2.515.157,19.947,19.947,0,0,1,0,39.575,19.946,19.946,0,1,0,2.515-39.732Z" transform="translate(-26.115 -396.31)" fill="#d3dcfb"/>
        <circle id="Elipse_12666" data-name="Elipse 12666" cx="3.626" cy="3.626" r="3.626" transform="translate(70.718 77.968)" fill="#ffdd40"/>
      </g>
      <g id="Grupo_149711" data-name="Grupo 149711">
        <path id="Trazado_201339" data-name="Trazado 201339" d="M27.988,442.574h3.751a3.4,3.4,0,0,0,3.393-3.393V435.43a3.4,3.4,0,0,0-3.393-3.393H27.988a3.4,3.4,0,0,0-3.393,3.393v3.751A3.4,3.4,0,0,0,27.988,442.574Zm-.109-7.143a.11.11,0,0,1,.109-.109h3.751a.109.109,0,0,1,.109.109v3.751a.109.109,0,0,1-.109.109H27.988a.11.11,0,0,1-.109-.109Z" transform="translate(-17.34 -392.147)"/>
        <path id="Trazado_201340" data-name="Trazado 201340" d="M44.056,442.574h3.75a3.4,3.4,0,0,0,3.393-3.393V435.43a3.4,3.4,0,0,0-3.393-3.393h-3.75a3.4,3.4,0,0,0-3.393,3.393v3.751A3.4,3.4,0,0,0,44.056,442.574Zm-.109-7.143a.109.109,0,0,1,.109-.109h3.75a.11.11,0,0,1,.11.109v3.751a.11.11,0,0,1-.11.109h-3.75a.109.109,0,0,1-.109-.109Z" transform="translate(-18.902 -392.147)"/>
        <path id="Trazado_201341" data-name="Trazado 201341" d="M60.125,442.574h3.751a3.4,3.4,0,0,0,3.393-3.393V435.43a3.4,3.4,0,0,0-3.393-3.393H60.125a3.4,3.4,0,0,0-3.393,3.393v3.751A3.4,3.4,0,0,0,60.125,442.574Zm-.109-7.143a.11.11,0,0,1,.109-.109h3.751a.11.11,0,0,1,.109.109v3.751a.11.11,0,0,1-.109.109H60.125a.11.11,0,0,1-.109-.109Z" transform="translate(-20.465 -392.147)"/>
        <path id="Trazado_201342" data-name="Trazado 201342" d="M79.943,442.574a3.4,3.4,0,0,0,3.393-3.393V435.43a3.4,3.4,0,0,0-3.393-3.393h-3.75A3.4,3.4,0,0,0,72.8,435.43v3.751a3.4,3.4,0,0,0,3.393,3.393Zm-3.86-3.393V435.43a.11.11,0,0,1,.11-.109h3.75a.11.11,0,0,1,.109.109v3.751a.109.109,0,0,1-.109.109h-3.75A.11.11,0,0,1,76.083,439.181Z" transform="translate(-22.028 -392.147)"/>
        <path id="Trazado_201343" data-name="Trazado 201343" d="M96.009,442.574a3.4,3.4,0,0,0,3.393-3.393V435.43a3.4,3.4,0,0,0-3.393-3.393h-3.75a3.4,3.4,0,0,0-3.393,3.393v3.751a3.4,3.4,0,0,0,3.393,3.393Zm-3.86-3.393V435.43a.11.11,0,0,1,.11-.109h3.75a.11.11,0,0,1,.109.109v3.751a.109.109,0,0,1-.109.109h-3.75A.11.11,0,0,1,92.149,439.181Z" transform="translate(-23.59 -392.147)"/>
        <path id="Trazado_201344" data-name="Trazado 201344" d="M112.077,442.574a3.4,3.4,0,0,0,3.393-3.393V435.43a3.4,3.4,0,0,0-3.393-3.393h-3.75a3.4,3.4,0,0,0-3.393,3.393v3.751a3.4,3.4,0,0,0,3.393,3.393Zm-3.859-3.393V435.43a.11.11,0,0,1,.109-.109h3.75a.11.11,0,0,1,.109.109v3.751a.109.109,0,0,1-.109.109h-3.75A.109.109,0,0,1,108.218,439.181Z" transform="translate(-25.153 -392.147)"/>
        <path id="Trazado_201345" data-name="Trazado 201345" d="M24.595,455.249a3.4,3.4,0,0,0,3.393,3.393h3.751a3.4,3.4,0,0,0,3.393-3.393V451.5a3.4,3.4,0,0,0-3.393-3.393H27.988a3.4,3.4,0,0,0-3.393,3.393Zm3.283-3.75a.11.11,0,0,1,.109-.11h3.751a.11.11,0,0,1,.109.11v3.75a.109.109,0,0,1-.109.109H27.988a.11.11,0,0,1-.109-.109Z" transform="translate(-17.34 -393.71)"/>
        <path id="Trazado_201346" data-name="Trazado 201346" d="M40.663,455.249a3.4,3.4,0,0,0,3.393,3.393h3.75a3.4,3.4,0,0,0,3.393-3.393V451.5a3.4,3.4,0,0,0-3.393-3.393h-3.75a3.4,3.4,0,0,0-3.393,3.393Zm3.284-3.75a.11.11,0,0,1,.109-.11h3.75a.111.111,0,0,1,.11.11v3.75a.11.11,0,0,1-.11.109h-3.75a.109.109,0,0,1-.109-.109Z" transform="translate(-18.902 -393.71)"/>
        <path id="Trazado_201347" data-name="Trazado 201347" d="M56.732,455.249a3.4,3.4,0,0,0,3.393,3.393h3.751a3.4,3.4,0,0,0,3.393-3.393V451.5a3.4,3.4,0,0,0-3.393-3.393H60.125a3.4,3.4,0,0,0-3.393,3.393Zm3.283-3.75a.11.11,0,0,1,.109-.11h3.751a.11.11,0,0,1,.109.11v3.75a.11.11,0,0,1-.109.109H60.125a.11.11,0,0,1-.109-.109Z" transform="translate(-20.465 -393.71)"/>
        <path id="Trazado_201348" data-name="Trazado 201348" d="M24.595,471.318a3.4,3.4,0,0,0,3.393,3.393h3.751a3.4,3.4,0,0,0,3.393-3.393v-3.751a3.4,3.4,0,0,0-3.393-3.393H27.988a3.4,3.4,0,0,0-3.393,3.393Zm3.283-3.751a.11.11,0,0,1,.109-.109h3.751a.109.109,0,0,1,.109.109v3.751a.109.109,0,0,1-.109.109H27.988a.11.11,0,0,1-.109-.109Z" transform="translate(-17.34 -395.273)"/>
        <path id="Trazado_201349" data-name="Trazado 201349" d="M40.663,471.318a3.4,3.4,0,0,0,3.393,3.393h3.75a3.4,3.4,0,0,0,3.393-3.393v-3.751a3.4,3.4,0,0,0-3.393-3.393h-3.75a3.4,3.4,0,0,0-3.393,3.393Zm3.284-3.751a.109.109,0,0,1,.109-.109h3.75a.11.11,0,0,1,.11.109v3.751a.11.11,0,0,1-.11.109h-3.75a.109.109,0,0,1-.109-.109Z" transform="translate(-18.902 -395.273)"/>
        <path id="Trazado_201350" data-name="Trazado 201350" d="M56.732,471.318a3.4,3.4,0,0,0,3.393,3.393h3.751a3.4,3.4,0,0,0,3.393-3.393v-3.751a3.4,3.4,0,0,0-3.393-3.393H60.125a3.4,3.4,0,0,0-3.393,3.393Zm3.283-3.751a.11.11,0,0,1,.109-.109h3.751a.11.11,0,0,1,.109.109v3.751a.11.11,0,0,1-.109.109H60.125a.11.11,0,0,1-.109-.109Z" transform="translate(-20.465 -395.273)"/>
        <path id="Trazado_201351" data-name="Trazado 201351" d="M114.136,451.988V404a8.9,8.9,0,0,0-8.895-8.895H92.372v-1.078a6.175,6.175,0,0,0-12.35,0V395.1H50.666v-1.078a6.175,6.175,0,0,0-12.35,0V395.1H25.453A8.9,8.9,0,0,0,16.558,404v25.728a1.642,1.642,0,1,0,3.283,0v-5.954h91.011v25.047a28.784,28.784,0,0,0-32.986-2.548v-.57a3.458,3.458,0,0,0-3.455-3.455H70.785A3.459,3.459,0,0,0,67.33,445.7v3.627a3.456,3.456,0,0,0,2.975,3.417,28.709,28.709,0,0,0-6.6,18.341c0,.058,0,.114,0,.172H25.453a5.617,5.617,0,0,1-5.611-5.611V436.292a1.642,1.642,0,1,0-3.283,0V472.9a8.9,8.9,0,0,0,8.895,8.894h3.972a1.642,1.642,0,0,0,0-3.283H25.453a5.617,5.617,0,0,1-5.611-5.611v-.358a8.85,8.85,0,0,0,5.611,2h38.46a28.653,28.653,0,0,0,.763,3.969H35.991a1.642,1.642,0,1,0,0,3.284H65.768a28.835,28.835,0,1,0,48.368-29.806Zm-30.83-57.963a2.891,2.891,0,0,1,5.783,0v9.065a2.891,2.891,0,0,1-5.783,0Zm-41.706,0a2.891,2.891,0,1,1,5.782,0v9.065a2.891,2.891,0,1,1-5.782,0Zm-16.147,4.361H38.317v3.969H36.332a1.642,1.642,0,0,0,0,3.283h2.538a6.171,6.171,0,0,0,11.244,0h2.538a1.642,1.642,0,1,0,0-3.283H50.666v-3.969H80.023v3.969H78.038a1.642,1.642,0,0,0,0,3.283h2.538a6.172,6.172,0,0,0,11.245,0h2.537a1.642,1.642,0,1,0,0-3.283H92.372v-3.969h12.869A5.618,5.618,0,0,1,110.852,404v9.238H19.841V404a5.618,5.618,0,0,1,5.611-5.611Zm-5.611,22.1v-3.969h91.011v3.969ZM70.613,445.7a.173.173,0,0,1,.172-.172h3.626a.172.172,0,0,1,.172.172v2.839Q74,449,73.444,449.5H70.785a.171.171,0,0,1-.172-.171V445.7Zm21.931,50.942A25.557,25.557,0,1,1,118.1,471.086,25.586,25.586,0,0,1,92.545,496.643Z" transform="translate(-16.558 -387.85)"/>
        <path id="Trazado_201352" data-name="Trazado 201352" d="M98.405,456.14a21.587,21.587,0,1,0,21.587,21.587A21.611,21.611,0,0,0,98.405,456.14Zm0,39.891a18.3,18.3,0,1,1,18.3-18.3A18.324,18.324,0,0,1,98.405,496.031Z" transform="translate(-22.419 -394.492)"/>
        <path id="Trazado_201353" data-name="Trazado 201353" d="M109.23,476.868h-4.061a5.29,5.29,0,0,0-3.363-3.364v-7.688a1.642,1.642,0,0,0-3.283,0V473.5a5.268,5.268,0,1,0,6.646,6.647h4.061a1.642,1.642,0,1,0,0-3.283Zm-9.066,3.626a1.985,1.985,0,1,1,1.984-1.985A1.987,1.987,0,0,1,100.164,480.494Z" transform="translate(-24.177 -395.273)"/>
      </g>
    </g>
  </g>
</svg>
