<svg xmlns="http://www.w3.org/2000/svg" width="99.572" height="99.572" viewBox="0 0 99.572 99.572">
  <g id="Grupo_150162" data-name="Grupo 150162" transform="translate(-2707.965 8674.705)">
    <g id="Grupo_150096" data-name="Grupo 150096" transform="translate(-4782.367 -7942.706)">
      <g id="Grupo_150051" data-name="Grupo 150051" transform="translate(7490.333 -1068)">
        <path id="Trazado_201089" data-name="Trazado 201089" d="M116.074,446.968v22.484a6.424,6.424,0,0,1-12.848,0V446.968Z" transform="translate(-38.986 -41.91)" fill="#75b62f"/>
        <path id="Trazado_201090" data-name="Trazado 201090" d="M114.811,436.335v6.617h-6.424v-6.617a26.836,26.836,0,0,0,6.424,0Z" transform="translate(-40.935 -37.894)" fill="#aab2bd"/>
        <path id="Trazado_201091" data-name="Trazado 201091" d="M63.609,464.977H9a6.422,6.422,0,0,1-6.424-6.424v-6.424h54.6v6.424A6.422,6.422,0,0,0,63.609,464.977Z" transform="translate(-0.975 -43.859)" fill="#75b62f"/>
        <path id="Trazado_201092" data-name="Trazado 201092" d="M123.816,347.429A27.066,27.066,0,0,0,112.574,345c-.53,0-1.075.016-1.606.048V345a6.424,6.424,0,1,1,12.848,0Z" transform="translate(-41.91 -0.975)" fill="#f85316"/>
        <path id="Trazado_201093" data-name="Trazado 201093" d="M29.65,338.581A6.422,6.422,0,0,0,23.226,345v64.24H64.982v6.424a6.422,6.422,0,0,0,6.424,6.424,6.887,6.887,0,0,0,1.3-.128h.3V406.033h3.212v-6.617a27.257,27.257,0,0,1-21.665-15.867,25.753,25.753,0,0,1-1.991-6.424,26.464,26.464,0,0,1-.434-4.818c0-.53.016-1.076.048-1.606a27.478,27.478,0,0,1,1.141-6.424H29.65V345H71.406v1.189a27.476,27.476,0,0,1,6.424-1.141V345a6.422,6.422,0,0,1,6.424-6.424Z" transform="translate(-8.772 -0.975)" fill="#fff"/>
        <path id="Trazado_201094" data-name="Trazado 201094" d="M75.3,348.9v1.189a27.384,27.384,0,0,0-18.083,18.083H33.548V348.9Z" transform="translate(-12.67 -4.873)" fill="#dce736"/>
        <path id="Trazado_201095" data-name="Trazado 201095" d="M88.949,350.092a27.479,27.479,0,0,1,6.424-1.141c.53-.032,1.076-.048,1.606-.048a27.3,27.3,0,0,1,3.212,54.411,26.836,26.836,0,0,1-6.424,0A27.257,27.257,0,0,1,72.1,387.447a25.753,25.753,0,0,1-1.991-6.424,26.464,26.464,0,0,1-.434-4.818c0-.53.016-1.076.048-1.606a27.2,27.2,0,0,1,19.224-24.507Z" transform="translate(-26.315 -4.873)" fill="#ccd1d9"/>
        <path id="Trazado_201096" data-name="Trazado 201096" d="M112.574,359.226a20.878,20.878,0,1,1,0,41.756c-.546,0-1.075-.016-1.606-.065V359.29C111.5,359.242,112.028,359.226,112.574,359.226Z" transform="translate(-41.91 -8.772)" fill="#dce736"/>
        <path id="Trazado_201097" data-name="Trazado 201097" d="M80.08,378.547a20.433,20.433,0,0,1,1.526-6.424H92.848V360.88a20.454,20.454,0,0,1,6.424-1.526v41.612a20.837,20.837,0,0,1-15.98-9.571A20.78,20.78,0,0,1,80,380.152c0-.546.016-1.076.064-1.606Z" transform="translate(-30.214 -8.82)" fill="#ffeaa7"/>
        <path id="Trazado_201098" data-name="Trazado 201098" d="M93.823,361.806v11.242H82.581A20.839,20.839,0,0,1,93.823,361.806Z" transform="translate(-31.189 -9.746)" fill="#b4dd7f"/>
        <path id="Trazado_201099" data-name="Trazado 201099" d="M77.419,379.129A22.484,22.484,0,1,0,99.9,356.645,22.508,22.508,0,0,0,77.419,379.129Zm12.849-16.664v7.028H83.24A19.373,19.373,0,0,1,90.268,362.465ZM85.58,391.977h7.9v-3.212H83.24a19.223,19.223,0,0,1-1.484-3.212H93.479v-3.212H80.922a19.167,19.167,0,0,1-.291-3.212H93.479v-3.212H80.922a19.072,19.072,0,0,1,.834-3.212H93.479V360.981a18.95,18.95,0,0,1,3.212-.833v37.964A19.244,19.244,0,0,1,85.58,391.977Zm33.6-12.848A19.293,19.293,0,0,1,99.9,398.4V359.857A19.293,19.293,0,0,1,119.175,379.129Z" transform="translate(-29.239 -7.797)"/>
        <path id="Trazado_201100" data-name="Trazado 201100" d="M99.572,371.332a28.916,28.916,0,0,0-16.06-25.858V344.03A8.04,8.04,0,0,0,75.482,336h-54.6a8.04,8.04,0,0,0-8.03,8.03v62.634H0v8.031a8.04,8.04,0,0,0,8.03,8.03h54.6v4.818a8.03,8.03,0,0,0,16.06,0v-24.09H75.482V399.8A28.931,28.931,0,0,0,99.572,371.332Zm-3.212,0a25.7,25.7,0,1,1-25.7-25.7A25.727,25.727,0,0,1,96.36,371.332ZM43.442,361.7H22.484v-16.06h35A29.025,29.025,0,0,0,43.442,361.7ZM80.3,344.03v.08a28.708,28.708,0,0,0-9.345-1.672A4.806,4.806,0,0,1,80.3,344.03ZM62.634,403.452v16.06a4.825,4.825,0,0,1-4.818-4.818v-8.031H19.272v3.212H54.6v4.818a7.952,7.952,0,0,0,1.647,4.818H8.03a4.825,4.825,0,0,1-4.818-4.818v-4.818H16.06V344.03a4.824,4.824,0,0,1,4.818-4.818H69.1a7.964,7.964,0,0,0-1.5,3.379,28.321,28.321,0,0,0-3.357.578v-.745H19.272v22.484H42.5a28.841,28.841,0,0,0-.555,3.212H25.7v3.212h16.06a28.966,28.966,0,0,0,.19,3.212H19.272v3.212H42.5a28.536,28.536,0,0,0,.942,3.212H19.272v3.212H44.806A28.946,28.946,0,0,0,65.846,399.8v3.647Zm12.848,24.09a4.818,4.818,0,0,1-9.636,0V406.664h9.636Zm-3.212-24.09H69.058v-3.293c.535.03,1.063.082,1.606.082s1.072-.052,1.606-.082Z"/>
        <path id="Trazado_201101" data-name="Trazado 201101" d="M30.968,387.613H34.18v3.212H30.968Z" transform="translate(-11.696 -19.493)"/>
        <path id="Trazado_201102" data-name="Trazado 201102" d="M30.968,418.581h24.09v3.212H30.968Z" transform="translate(-11.696 -31.189)"/>
        <path id="Trazado_201103" data-name="Trazado 201103" d="M30.968,428.9h27.3v3.212h-27.3Z" transform="translate(-11.696 -35.087)"/>
        <path id="Trazado_201104" data-name="Trazado 201104" d="M85.161,439.226h3.212v3.212H85.161Z" transform="translate(-32.163 -38.986)"/>
        <path id="Trazado_201105" data-name="Trazado 201105" d="M30.968,439.226H61.482v3.212H30.968Z" transform="translate(-11.696 -38.986)"/>
      </g>
    </g>
  </g>
</svg>
