<svg xmlns="http://www.w3.org/2000/svg" width="150" height="150" viewBox="0 0 150 150">
  <g id="Grupo_150158" data-name="Grupo 150158" transform="translate(-2976 9219.706)">
    <g id="Grupo_150043" data-name="Grupo 150043" transform="translate(2385 -12224.706)">
      <g id="Elipse_5972" data-name="Elipse 5972" transform="translate(591 3005)" fill="#fff" stroke="#77b43a" stroke-width="4">
        <circle cx="75" cy="75" r="75" stroke="none"/>
        <circle cx="75" cy="75" r="73" fill="none"/>
      </g>
      <g id="Grupo_149658" data-name="Grupo 149658" transform="translate(619.728 2806.635)">
        <g id="Grupo_149656" data-name="Grupo 149656" transform="translate(24.073 260.178)">
          <path id="Trazado_201041" data-name="Trazado 201041" d="M108.093,437.547h10.088v-23.31c0-4.941-4.4-7.746-9.407-8.988a51.411,51.411,0,0,0-25.587,0c-5,1.285-9.407,4.044-9.407,8.988v23.31Z" transform="translate(-73.78 -378.255)" fill="#dce736" fill-rule="evenodd"/>
          <path id="Trazado_201042" data-name="Trazado 201042" d="M141.815,437.548h22.2v-23.31c0-4.941-4.4-7.746-9.407-8.988a53.494,53.494,0,0,0-12.794-1.617v33.915Z" transform="translate(-119.615 -378.256)" fill="#75b62f" fill-rule="evenodd"/>
          <path id="Trazado_201043" data-name="Trazado 201043" d="M121.19,325.861c5.517,0,9.99,3.144,9.99,10.4s-4.473,13.13-9.99,13.13-9.99-5.879-9.99-13.13,4.473-10.4,9.99-10.4Z" transform="translate(-98.99 -325.861)" fill="#f6dccd" fill-rule="evenodd"/>
          <path id="Trazado_201044" data-name="Trazado 201044" d="M141.817,325.861c5.517,0,9.99,3.144,9.99,10.4s-4.473,13.13-9.99,13.13Z" transform="translate(-119.616 -325.861)" fill="#f1cbbc" fill-rule="evenodd"/>
        </g>
        <g id="Grupo_149657" data-name="Grupo 149657" transform="translate(1.443 229.811)">
          <path id="Trazado_201045" data-name="Trazado 201045" d="M56.63,240.307a37.819,37.819,0,0,1,13.8,5.721l1.66-.737,5.7-2.531,3.168,3.168,3.168,3.168-2.531,5.7-.736,1.658a37.815,37.815,0,0,1,5.721,13.8l1.689.65,5.82,2.24v8.96l-5.82,2.24-1.69.651a37.829,37.829,0,0,1-5.721,13.8l-5.7-9.636a28.344,28.344,0,1,0-51.793,0h0l-5.7,9.638A37.821,37.821,0,0,1,11.939,285l-1.689-.65-5.82-2.24v-8.96l5.82-2.24,1.69-.65a37.814,37.814,0,0,1,5.721-13.8l-.737-1.66-2.531-5.7,3.168-3.168,3.168-3.168,5.7,2.531,1.66.737a37.824,37.824,0,0,1,13.8-5.721l.651-1.691,2.24-5.82h8.96l2.24,5.82Z" transform="translate(-4.43 -232.797)" fill="#eceff1" fill-rule="evenodd"/>
          <path id="Trazado_201046" data-name="Trazado 201046" d="M149.187,240.307a37.819,37.819,0,0,1,13.8,5.721l1.66-.737,5.7-2.531,3.168,3.168,3.168,3.168-2.531,5.7-.736,1.658a37.815,37.815,0,0,1,5.721,13.8l1.689.65,5.82,2.24v8.96l-5.82,2.24-1.69.651a37.829,37.829,0,0,1-5.721,13.8l-5.7-9.636a28.356,28.356,0,0,0-25.9-39.879V232.8h4.48l2.24,5.82Z" transform="translate(-96.987 -232.797)" fill="#c4cccf" fill-rule="evenodd"/>
        </g>
        <path id="Trazado_201047" data-name="Trazado 201047" d="M75.99,274.641a29.482,29.482,0,0,1-2.565,12.094,1.25,1.25,0,1,1-2.284-1.019,27.216,27.216,0,1,0-49.737,0,1.251,1.251,0,1,1-2.284,1.02,29.721,29.721,0,1,1,56.869-12.1Zm15.756-5.667-6.9-2.657a39.027,39.027,0,0,0-5.414-13.06l3-6.764a1.25,1.25,0,0,0-.258-1.392l-6.364-6.364a1.25,1.25,0,0,0-1.392-.258l-6.767,3.006A39.036,39.036,0,0,0,54.6,236.072l-2.658-6.9a1.251,1.251,0,0,0-1.167-.8h-9a1.251,1.251,0,0,0-1.167.8l-2.658,6.9a39.025,39.025,0,0,0-13.056,5.413l-6.767-3.006a1.25,1.25,0,0,0-1.392.259L10.369,245.1a1.251,1.251,0,0,0-.259,1.392l3.005,6.766A39.012,39.012,0,0,0,7.7,266.316L.8,268.974a1.252,1.252,0,0,0-.8,1.167v9a1.251,1.251,0,0,0,.8,1.167l6.9,2.658a39.047,39.047,0,0,0,5.414,13.06l-3,6.765A1.251,1.251,0,1,0,12.4,303.8l3.281-7.388a1.25,1.25,0,0,0-.1-1.205A36.581,36.581,0,0,1,10.016,281.8a1.25,1.25,0,0,0-.778-.926L2.5,278.281V271l6.741-2.595a1.251,1.251,0,0,0,.778-.926,36.578,36.578,0,0,1,5.558-13.405,1.251,1.251,0,0,0,.1-1.205l-2.934-6.606,5.149-5.149,6.606,2.934a1.248,1.248,0,0,0,1.205-.1,36.571,36.571,0,0,1,13.405-5.557,1.251,1.251,0,0,0,.926-.778l2.6-6.742h7.282l2.594,6.741a1.252,1.252,0,0,0,.926.778,36.582,36.582,0,0,1,13.405,5.557,1.25,1.25,0,0,0,1.2.1l6.607-2.934,5.149,5.149-2.933,6.6a1.25,1.25,0,0,0,.1,1.2,36.58,36.58,0,0,1,5.558,13.408,1.25,1.25,0,0,0,.778.926L90.047,271v7.281l-6.742,2.6a1.249,1.249,0,0,0-.778.926,36.574,36.574,0,0,1-5.557,13.405,1.25,1.25,0,0,0-.1,1.205l3.283,7.391a1.251,1.251,0,1,0,2.286-1.015l-3.006-6.767a39.024,39.024,0,0,0,5.413-13.056l6.9-2.659a1.25,1.25,0,0,0,.8-1.167v-9a1.252,1.252,0,0,0-.8-1.167ZM69.82,296.255c0-4.869-3.79-8.6-10.4-10.242a55.913,55.913,0,0,0-9.574-1.518c4.473-1.919,7.708-7.322,7.708-13.682,0-7.212-4.324-11.692-11.284-11.692s-11.284,4.48-11.284,11.692c0,6.346,3.221,11.737,7.678,13.668a52.307,52.307,0,0,0-9.554,1.535c-6.7,1.724-10.387,5.359-10.387,10.239v23.411a1.251,1.251,0,1,0,2.5,0V296.255c0-4.9,5.331-7,8.509-7.816a50.673,50.673,0,0,1,25.086,0c3.174.787,8.5,2.849,8.5,7.814v23.411a1.251,1.251,0,1,0,2.5,0V296.255ZM46.272,282.749c4.843,0,8.783-5.355,8.783-11.937,0-5.841-3.2-9.19-8.783-9.19s-8.783,3.35-8.783,9.19C37.489,277.394,41.429,282.749,46.272,282.749Zm-12.165,16.91a1.251,1.251,0,0,1,1.251,1.251v18.755a1.251,1.251,0,1,1-2.5,0V300.91a1.251,1.251,0,0,1,1.251-1.251Zm24.33,0a1.251,1.251,0,0,1,1.251,1.251v18.755a1.251,1.251,0,1,1-2.5,0V300.91a1.251,1.251,0,0,1,1.251-1.251Z" fill-rule="evenodd"/>
      </g>
    </g>
  </g>
</svg>
