<svg xmlns="http://www.w3.org/2000/svg" width="100" height="100" viewBox="0 0 100 100">
  <g id="Grupo_150174" data-name="Grupo 150174" transform="translate(-2700.769 8067.444)">
    <g id="Grupo_150094" data-name="Grupo 150094" transform="translate(2700.769 -8067.444)">
      <g id="Grupo_149727" data-name="Grupo 149727" transform="translate(1.548 1.548)">
        <g id="Grupo_149712" data-name="Grupo 149712" transform="translate(0 78.323)">
          <path id="Trazado_201354" data-name="Trazado 201354" d="M9.29,487.226H27.871v18.581H9.29Z" transform="translate(-9.29 -487.226)" fill="#dce736"/>
        </g>
        <g id="Grupo_149713" data-name="Grupo 149713" transform="translate(0 19.672)">
          <path id="Trazado_201355" data-name="Trazado 201355" d="M37.161,440.774v9.29H35.613l-4.645,3.1,4.645,3.1h1.548v9.29H9.29V440.774Z" transform="translate(-9.29 -440.774)" fill="#e6e9ed"/>
        </g>
        <g id="Grupo_149714" data-name="Grupo 149714" transform="translate(0 52.216)">
          <path id="Trazado_201356" data-name="Trazado 201356" d="M9.29,466.581H27.871v18.581H9.29Z" transform="translate(-9.29 -466.581)" fill="#dce736"/>
        </g>
        <g id="Grupo_149715" data-name="Grupo 149715" transform="translate(62.84 78.323)">
          <path id="Trazado_201357" data-name="Trazado 201357" d="M58.323,487.226H83.1v18.581H58.323Z" transform="translate(-58.323 -487.226)" fill="#d3a06c"/>
        </g>
        <g id="Grupo_149716" data-name="Grupo 149716" transform="translate(69.766 50.696)">
          <path id="Trazado_201358" data-name="Trazado 201358" d="M71.308,467.18l2.756,15.143-4.645,4.645-4.645-4.645L67.53,467.18l1.889-1.89Z" transform="translate(-64.774 -465.29)" fill="#e6e9ed"/>
        </g>
        <g id="Grupo_149717" data-name="Grupo 149717" transform="translate(75.226 45.082)">
          <path id="Trazado_201359" data-name="Trazado 201359" d="M81.033,489.466v3.1H68.645v-4.645l4.645-4.645L70.534,468.13l4.3,4.3,1.316-11.892A18.692,18.692,0,0,1,90.323,478.7v10.762Z" transform="translate(-68.645 -460.542)" fill="#75b62f"/>
        </g>
        <g id="Grupo_149718" data-name="Grupo 149718" transform="translate(39.688 41.412)">
          <path id="Trazado_201360" data-name="Trazado 201360" d="M61.936,476.129l-2.06,2.741a8.64,8.64,0,0,1-15.22-2.818l-4.4-15.407,9.29-3.1,3.9,15.624a23.052,23.052,0,0,1,13.393-11.737l1.285,11.6,4.3-4.3-2.756,15.143,4.645,4.645v4.645H61.936Z" transform="translate(-40.258 -457.548)" fill="#75b62f"/>
        </g>
        <g id="Grupo_149719" data-name="Grupo 149719" transform="translate(74.562 43.884)">
          <path id="Trazado_201361" data-name="Trazado 201361" d="M76.155,460.609v.016l-1.316,11.892-4.3-4.3-1.889-1.89,4.645-6.193A19.261,19.261,0,0,1,76.155,460.609Z" transform="translate(-68.645 -460.129)" fill="#a0d468"/>
        </g>
        <g id="Grupo_149720" data-name="Grupo 149720" transform="translate(66.733 43.884)">
          <path id="Trazado_201362" data-name="Trazado 201362" d="M65.246,460.129l4.645,6.193L68,468.212l-4.3,4.3-1.285-11.6c.572-.2,1.162-.372,1.765-.527Z" transform="translate(-62.413 -460.129)" fill="#a0d468"/>
        </g>
        <g id="Grupo_149721" data-name="Grupo 149721" transform="translate(47.052 29.157)">
          <path id="Trazado_201363" data-name="Trazado 201363" d="M52.9,448.516a3.106,3.106,0,0,1,3.1,3.1,3.12,3.12,0,0,1-3.1,3.1H46.71v-6.193Z" transform="translate(-46.71 -448.516)" fill="#aab2bd"/>
        </g>
        <g id="Grupo_149722" data-name="Grupo 149722" transform="translate(22.922 29.157)">
          <path id="Trazado_201364" data-name="Trazado 201364" d="M33.548,448.516H50.581v6.193H32l-4.645-3.1,4.645-3.1Z" transform="translate(-27.355 -448.516)" fill="#ff826e"/>
        </g>
        <g id="Grupo_149723" data-name="Grupo 149723" transform="translate(56.645)">
          <path id="Trazado_201365" data-name="Trazado 201365" d="M71.742,437.678H59.34a6.194,6.194,0,0,1,.016-12.388H70.6a18.187,18.187,0,0,1,8.13,34.452L76.387,460.9v-6.194l.325-.169a5,5,0,0,0,0-8.951l-.325-.169v-3.1a4.639,4.639,0,0,0-4.645-4.645Z" transform="translate(-53.161 -425.29)" fill="#656d78"/>
        </g>
        <g id="Grupo_149724" data-name="Grupo 149724" transform="translate(87.614 75.226)">
          <path id="Trazado_201366" data-name="Trazado 201366" d="M88.258,484.645v3.1a6.192,6.192,0,0,1-6.194,6.193h-3.1v-9.29Z" transform="translate(-78.968 -484.645)" fill="#f0d0b4"/>
        </g>
        <g id="Grupo_149725" data-name="Grupo 149725" transform="translate(59.742 12.388)">
          <path id="Trazado_201367" data-name="Trazado 201367" d="M75.871,458.839v6.193l-4.645,6.193-4.645-6.193v-6.193h-.913a5.287,5.287,0,0,1-5.28-5.28v-4.01L58.2,448.82a3.594,3.594,0,0,1-2.462-3.406,3.5,3.5,0,0,1,.139-.991l1.873-6.581a7.626,7.626,0,0,1,1.069-2.23h12.4a4.639,4.639,0,0,1,4.645,4.645v3.1l.325.169a5,5,0,0,1,0,8.951l-.325.169Z" transform="translate(-55.742 -435.613)" fill="#f0d0b4"/>
        </g>
        <g id="Grupo_149726" data-name="Grupo 149726" transform="translate(34.183 35.664)">
          <path id="Trazado_201368" data-name="Trazado 201368" d="M51.251,453.677l-.929,4.645-9.29,3.1-3.592-4.8a5.2,5.2,0,0,1-1.054-2.942H51.251Z" transform="translate(-36.387 -453.677)" fill="#f0d0b4"/>
        </g>
      </g>
      <g id="Grupo_149728" data-name="Grupo 149728">
        <path id="Trazado_201369" data-name="Trazado 201369" d="M90.257,467.739v-4.032l1.543-.771A20.552,20.552,0,0,0,82.607,424H70.9a8.041,8.041,0,0,0-2.419,15.717c-.085.229-.191.449-.257.684l-1.956,6.845a5.361,5.361,0,0,0,3.46,6.559l1.173.39V457.2a7.051,7.051,0,0,0,6.451,7.054V467.9a25.612,25.612,0,0,0-14.661,10.155l-3.04-12.16.636-3.186h2.549a4.839,4.839,0,1,0,0-9.677H40.257v-9.678H8v29.032H40.257V462.71h1.871a7.029,7.029,0,0,0,1.159,2.425l3.566,4.755,4.5,15.765a10.608,10.608,0,0,0,17.932,4.356V524H98.322V511.1h1.612A8.073,8.073,0,0,0,108,503.033V488.589a21.008,21.008,0,0,0-17.743-20.85Zm-3.351,25.073-3.1,3.1-3.1-3.1,2.626-14.444.474-.474.475.474Zm-8.664-21.8.079-.019,3.356,4.475-3.09,3.089-.823-7.4c.161-.045.314-.109.478-.149Zm7.692,4.455,3.431-4.574c.167.023.337.041.5.069l-.842,7.594Zm-19.87-43.4a4.843,4.843,0,0,1,4.839-4.839h11.7a17.327,17.327,0,0,1,7.75,32.824l-.1.05v-2.878a6.832,6.832,0,0,0,0-11.606v-2.261a6.457,6.457,0,0,0-6.451-6.451h-.3a4.793,4.793,0,0,0-4.542-6.453H75.742v3.226h3.225a1.613,1.613,0,1,1,0,3.226H70.9A4.844,4.844,0,0,1,66.065,432.065ZM74.129,457.2v-5.332l-3.377-1.126a2.134,2.134,0,0,1-1.379-2.612l1.955-6.844a6.191,6.191,0,0,1,.479-1.16h12a3.23,3.23,0,0,1,3.226,3.226v4.223l1.232.616a3.607,3.607,0,0,1,0,6.451l-1.232.616v13.362l-3.226,4.3-3.225-4.3v-4.3h3.225V461.1H78.021a3.866,3.866,0,0,1-2.753-1.14,3.921,3.921,0,0,1-1.14-2.753Zm-39.027.668,2.42-1.614H54.774v3.226H37.521Zm29.35,0a1.615,1.615,0,0,1-1.612,1.613H58v-3.226h4.839A1.616,1.616,0,0,1,64.451,457.871Zm-27.419,11.29H11.226v-22.58H37.032v6.451h-.489l-7.259,4.839,7.259,4.839h.489ZM45.6,462.71H57l-.4,1.991-7.686,2.564L45.867,463.2A3.928,3.928,0,0,1,45.6,462.71Zm21.871,24.464a7.39,7.39,0,0,1-13.016-2.4L50.3,470.2l6.56-2.188,4.416,17.665L64.4,484.9l-.617-2.469a22.388,22.388,0,0,1,10.859-10.163l1.476,13.309,3.2-3.2-2.1,11.523,6.58,6.577,6.577-6.575-2.095-11.523,3.2,3.2,1.533-13.794a17.782,17.782,0,0,1,11.751,16.8v9.605H98.322V482.065H95.1v19.354H72.516V482.065H69.29v2.689Zm17.942,33.6V510.429l-3.7-3.7-2.281,2.28,2.754,2.754v9.009H72.516V504.645H95.1v16.129Zm14.516-12.9H98.322v-6.452h6.451v1.614A4.844,4.844,0,0,1,99.935,507.871Z" transform="translate(-8 -424)"/>
        <path id="Trazado_201370" data-name="Trazado 201370" d="M30.83,443.733,16.441,458.122l-2-2-2.19,2.19,4.192,4.192,16.578-16.579Z" transform="translate(-7.15 -418.827)"/>
        <path id="Trazado_201371" data-name="Trazado 201371" d="M8,486.968H29.678V465.29H8Zm3.1-18.581H26.581v15.484H11.1Z" transform="translate(-8 -413.075)"/>
        <path id="Trazado_201372" data-name="Trazado 201372" d="M8,507.613H29.678V485.935H8Zm3.1-18.581H26.581v15.484H11.1Z" transform="translate(-8 -407.613)"/>
        <path id="Trazado_201373" data-name="Trazado 201373" d="M28.645,485.935H53.419v3.1H28.645Z" transform="translate(-2.48 -408.413)"/>
        <path id="Trazado_201374" data-name="Trazado 201374" d="M28.645,491.1H53.419v3.1H28.645Z" transform="translate(-2.48 -406.581)"/>
        <path id="Trazado_201375" data-name="Trazado 201375" d="M28.645,496.258h3.1v3.1h-3.1Z" transform="translate(-2.804 -405.548)"/>
        <path id="Trazado_201376" data-name="Trazado 201376" d="M33.806,496.258H52.387v3.1H33.806Z" transform="translate(-1.239 -405.548)"/>
        <path id="Trazado_201377" data-name="Trazado 201377" d="M28.645,501.419H53.419v3.1H28.645Z" transform="translate(-2.48 -404.516)"/>
        <path id="Trazado_201378" data-name="Trazado 201378" d="M28.645,480.774H41.033v3.1H28.645Z" transform="translate(-2.686 -409.712)"/>
        <path id="Trazado_201379" data-name="Trazado 201379" d="M28.645,475.613H41.033v3.1H28.645Z" transform="translate(-2.686 -411.011)"/>
        <path id="Trazado_201380" data-name="Trazado 201380" d="M28.645,470.452H41.033v3.1H28.645Z" transform="translate(-2.686 -412.31)"/>
        <path id="Trazado_201381" data-name="Trazado 201381" d="M28.645,465.29H41.033v3.1H28.645Z" transform="translate(-2.686 -413.609)"/>
      </g>
    </g>
  </g>
</svg>
