<svg xmlns="http://www.w3.org/2000/svg" width="150" height="150" viewBox="0 0 150 150">
  <g id="Grupo_150159" data-name="Grupo 150159" transform="translate(-3247 9225.706)">
    <g id="Grupo_150044" data-name="Grupo 150044" transform="translate(2732 -16360.706)">
      <g id="Elipse_5971" data-name="Elipse 5971" transform="translate(515 7135)" fill="#fff" stroke="#77b43a" stroke-width="4">
        <circle cx="75" cy="75" r="75" stroke="none"/>
        <circle cx="75" cy="75" r="73" fill="none"/>
      </g>
      <g id="Grupo_149664" data-name="Grupo 149664" transform="translate(552.292 6824.037)">
        <path id="Trazado_201060" data-name="Trazado 201060" d="M108.307,457.173V468H90.71V461.68a3.552,3.552,0,0,0,1.082-1.746l1.449-5.293a18.14,18.14,0,0,1,3.466.8l2.288.758a18.794,18.794,0,0,0,6,.975,17.451,17.451,0,0,0,3.262-.3Z" transform="translate(-40.625 -49.551)" fill="#fff"/>
        <path id="Trazado_201061" data-name="Trazado 201061" d="M103.334,433.056a2.709,2.709,0,0,1-1.922,4.617H98.677l1.462-5.415h1.273A2.7,2.7,0,0,1,103.334,433.056Z" transform="translate(-44.193 -39.527)" fill="#ccd1d9"/>
        <path id="Trazado_201062" data-name="Trazado 201062" d="M79.094,432.339l-1.435,5.334H73.368a5.448,5.448,0,0,0-3.831,1.584l-.23-.23,5.185-5.185a5.421,5.421,0,0,1,3.831-1.584h.46Z" transform="translate(-31.039 -39.527)" fill="#e6e9ed"/>
        <path id="Trazado_201063" data-name="Trazado 201063" d="M75.4,420.2l-1.8,6.647-.311-.081h-.46A5.421,5.421,0,0,0,69,428.352l-5.185,5.185L61.963,435.4a2.869,2.869,0,0,1-2.03.839,2.922,2.922,0,0,1-2.044-.839,2.86,2.86,0,0,1,.013-4.061l9.746-9.76A5.42,5.42,0,0,1,71.479,420h3.167Z" transform="translate(-25.55 -34.037)" fill="#f0d0b4"/>
        <path id="Trazado_201064" data-name="Trazado 201064" d="M65.457,385.707V354.574H34.323v-8.122H83.054v44.67l-.095.135-4.941-3.29a5.373,5.373,0,0,0-3-.907H73.146l2.612-9.651,1.449-5.387,2.031-7.513a3.69,3.69,0,0,0,.121-.934,3.582,3.582,0,0,0-3.574-3.587h-.447a3.575,3.575,0,0,0-3.451,2.653L70,369.627,68.543,375l-2.91,10.762Z" transform="translate(-15.372 -1.098)" fill="#fff"/>
        <path id="Trazado_201065" data-name="Trazado 201065" d="M51.183,392.295l.176.055-.406,1.5-.758-.2H47.028a5.42,5.42,0,0,0-3.831,1.584l-9.746,9.76a2.86,2.86,0,0,0-.013,4.061,2.922,2.922,0,0,0,2.044.839,2.869,2.869,0,0,0,2.03-.839l1.855-1.868.23.23a5.448,5.448,0,0,0-1.584,3.831,1.358,1.358,0,0,0,1.353,1.354H45.89l-.974,3.6a3.712,3.712,0,0,0-.135.934,3.593,3.593,0,0,0,3.587,3.587h.447a3.562,3.562,0,0,0,2.369-.907v14.443H2.452v-73.1H51.183Z" transform="translate(-1.098 -7.686)" fill="#fff"/>
        <path id="Trazado_201066" data-name="Trazado 201066" d="M12.258,370.968H44.746V381.8H12.258Z" transform="translate(-5.49 -12.078)" fill="#dce736"/>
        <path id="Trazado_201067" data-name="Trazado 201067" d="M21.733,451.871h4.061v13.536H12.258V451.871Z" transform="translate(-5.49 -48.31)" fill="#f85316"/>
        <path id="Trazado_201068" data-name="Trazado 201068" d="M21.733,410.194h4.061V423.73H12.258V410.194Z" transform="translate(-5.49 -29.645)" fill="#f85316"/>
        <path id="Trazado_201069" data-name="Trazado 201069" d="M108.3,374.555a3.691,3.691,0,0,1-.121.934L106.149,383l-7.2-2.4,1.882-6.985a3.575,3.575,0,0,1,3.451-2.653h.447A3.582,3.582,0,0,1,108.3,374.555Z" transform="translate(-44.314 -12.078)" fill="#ffeaa7"/>
        <path id="Trazado_201070" data-name="Trazado 201070" d="M104.963,390.82l-1.449,5.387L96.3,393.8l1.462-5.374Z" transform="translate(-43.128 -19.895)" fill="#e6e9ed"/>
        <path id="Trazado_201071" data-name="Trazado 201071" d="M85.517,461.538a3.562,3.562,0,0,1-2.369.907H82.7a3.593,3.593,0,0,1-3.587-3.587,3.713,3.713,0,0,1,.135-.934l.974-3.6h5.293a17.6,17.6,0,0,1,2.531.176L86.6,459.791A3.552,3.552,0,0,1,85.517,461.538Z" transform="translate(-35.431 -49.409)" fill="#75b62f"/>
        <path id="Trazado_201072" data-name="Trazado 201072" d="M95.587,410.217,92.3,422.4H84.433l1.435-5.334,1.8-6.647.406-1.5,2.91-10.762,7.215,2.41Z" transform="translate(-37.814 -24.254)" fill="#75b62f"/>
        <path id="Trazado_201073" data-name="Trazado 201073" d="M82.558,439.127a17.6,17.6,0,0,0-2.531-.176H68.209a1.358,1.358,0,0,1-1.353-1.354,5.407,5.407,0,0,1,5.414-5.414h14.89a2.707,2.707,0,1,0,0-5.415H85.888L87.716,420h1.868a5.373,5.373,0,0,1,3,.907l4.941,3.29,4.521,3.019a5.375,5.375,0,0,0,3.006.907h8.812v10.829h-4.061a18.807,18.807,0,0,0-4.6.568l-6.294,1.57c-.447.109-.893.2-1.341.271a17.452,17.452,0,0,1-3.262.3,18.794,18.794,0,0,1-6-.975l-2.288-.758A18.14,18.14,0,0,0,82.558,439.127Z" transform="translate(-29.942 -34.037)" fill="#f0d0b4"/>
        <path id="Trazado_201074" data-name="Trazado 201074" d="M59.646,387.317A4.047,4.047,0,0,1,61.9,388l9.454,6.3a6.758,6.758,0,0,0,3.755,1.137h8.819v-2.707H75.108a4.052,4.052,0,0,1-2.254-.682L69.036,389.5V344H17.6v8.122H0v75.8H51.439V419.8h17.6V408.416c.086-.02.173-.027.258-.049l6.3-1.574a17.7,17.7,0,0,1,4.275-.526h4.061v-2.707H79.865a20.358,20.358,0,0,0-4.93.607l-6.3,1.574a17.7,17.7,0,0,1-9.845-.377l-2.281-.761a20.273,20.273,0,0,0-6.427-1.042H38.273a4.066,4.066,0,0,1,4.061-4.061h14.89a4.05,4.05,0,0,0,.475-8.074l1.111-4.109Zm-1.709,20.614a20.257,20.257,0,0,0,6.428,1.044c.657,0,1.312-.057,1.965-.12V417.1H51.439v-4.428a4.884,4.884,0,0,0,1.041-1.93l1.108-4.106a17.538,17.538,0,0,1,2.068.539ZM50.875,406.3l-1.008,3.734a2.237,2.237,0,0,1-2.155,1.65h-.439a2.231,2.231,0,0,1-2.153-2.813l.7-2.6h4.263C50.349,406.268,50.612,406.288,50.875,406.3Zm-7.858-.031-.511,1.894a4.906,4.906,0,0,0,2.325,5.555l-.425,1.7,2.626.657.421-1.681h.26a4.915,4.915,0,0,0,1.019-.119v10.948H2.707v-70.39H20.3v-8.122H66.329V387.7L63.4,385.746a6.76,6.76,0,0,0-3.755-1.137h-.1l5.634-20.845a4.941,4.941,0,0,0-4.767-6.228h-.439a4.948,4.948,0,0,0-4.768,3.651l-3.763,13.923V352.122H23.012v2.707h25.72v29.78h-2.8a6.7,6.7,0,0,0-4.022,1.354H28.427v2.707H39.066l-2.707,2.707H28.427v2.708h5.226l-2.262,2.262a4.2,4.2,0,0,0,4.2,7.017c0,.066-.02.129-.02.2a2.71,2.71,0,0,0,2.707,2.707Zm10.427-9.475H48.383L54.1,375.643l4.643,1.547ZM43.06,388.505a4.037,4.037,0,0,1,2.872-1.188H48.14l-1.1,4.085a6.7,6.7,0,0,0-4.536,1.957l-7.049,7.049a1.518,1.518,0,0,1-2.592-1.072,1.51,1.51,0,0,1,.446-1.073Zm1.354,6.768a4.016,4.016,0,0,1,1.859-1.046l-.693,2.565H42.9Zm18.148-32.215L60.9,369.191l-4.643-1.547,1.554-5.75a2.238,2.238,0,0,1,2.155-1.65h.439a2.232,2.232,0,0,1,2.153,2.815Zm-7.008,7.2,4.644,1.548-.748,2.763-4.644-1.548Zm1.67,23.823a1.354,1.354,0,1,1,0,2.707h-.976l.733-2.707Z"/>
        <path id="Trazado_201075" data-name="Trazado 201075" d="M45,368.516H9.806v13.536H45Zm-2.707,10.829H12.514v-8.122h29.78Z" transform="translate(-4.392 -10.98)"/>
        <path id="Trazado_201076" data-name="Trazado 201076" d="M19.613,378.323H22.32v2.707H19.613Z" transform="translate(-8.784 -15.372)"/>
        <path id="Trazado_201077" data-name="Trazado 201077" d="M29.419,378.323h2.708v2.707H29.419Z" transform="translate(-13.175 -15.372)"/>
        <path id="Trazado_201078" data-name="Trazado 201078" d="M39.226,378.323h2.707v2.707H39.226Z" transform="translate(-17.568 -15.372)"/>
        <path id="Trazado_201079" data-name="Trazado 201079" d="M49.032,378.323h2.707v2.707H49.032Z" transform="translate(-21.959 -15.372)"/>
        <path id="Trazado_201080" data-name="Trazado 201080" d="M58.839,378.323h2.707v2.707H58.839Z" transform="translate(-26.351 -15.372)"/>
        <path id="Trazado_201081" data-name="Trazado 201081" d="M26.05,415.864H23.343v5.414H12.514V410.449h8.122v-2.707H9.806v16.244H26.05Z" transform="translate(-4.392 -28.547)"/>
        <path id="Trazado_201082" data-name="Trazado 201082" d="M34.124,398.654l-12.58,12.579-1.75-1.75L17.88,411.4l3.664,3.665,14.494-14.494Z" transform="translate(-8.008 -24.477)"/>
        <path id="Trazado_201083" data-name="Trazado 201083" d="M23.343,462.955H12.514V452.127h8.122v-2.708H9.806v16.244H26.05v-8.122H23.343Z" transform="translate(-4.392 -47.212)"/>
        <path id="Trazado_201084" data-name="Trazado 201084" d="M19.794,451.16l-1.914,1.914,3.664,3.664,14.494-14.493-1.914-1.914-12.58,12.58Z" transform="translate(-8.008 -43.142)"/>
        <path id="Trazado_201085" data-name="Trazado 201085" d="M78.452,478.839h2.707v2.707H78.452Z" transform="translate(-35.135 -60.388)"/>
        <path id="Trazado_201086" data-name="Trazado 201086" d="M46.581,478.839h14.89v2.707H46.581Z" transform="translate(-20.861 -60.388)"/>
        <path id="Trazado_201087" data-name="Trazado 201087" d="M51.484,410.194h17.6V412.9h-17.6Z" transform="translate(-23.057 -29.645)"/>
      </g>
    </g>
  </g>
</svg>
