<svg xmlns="http://www.w3.org/2000/svg" width="128.027" height="31.688" viewBox="0 0 128.027 31.688">
  <g id="Grupo_149988" data-name="Grupo 149988" transform="translate(-315.879 -1936.469)">
    <path id="Trazado_201746" data-name="Trazado 201746" d="M-26.754,0h-1.453V-9.633l-2.914,1.07V-9.875l4.141-1.555h.227ZM-14.27-6.1H-11.1v1.367H-14.27v3.594h-1.453V-4.734h-3.172V-6.1h3.172v-3.32h1.453ZM1.926,0H-5.527V-1.039L-1.59-5.414A9.354,9.354,0,0,0-.383-7.027,2.693,2.693,0,0,0-.051-8.312,2.041,2.041,0,0,0-.59-9.773a1.885,1.885,0,0,0-1.437-.57A2.232,2.232,0,0,0-3.7-9.73a2.343,2.343,0,0,0-.6,1.707H-5.746a3.355,3.355,0,0,1,1.012-2.539,3.751,3.751,0,0,1,2.707-.969A3.6,3.6,0,0,1,.48-10.7,2.838,2.838,0,0,1,1.4-8.484q0,1.68-2.141,4l-3.047,3.3H1.926Zm9.781-6.1h3.172v1.367H11.707v3.594H10.254V-4.734H7.082V-6.1h3.172v-3.32h1.453Zm10.844-.289h1.086a2.387,2.387,0,0,0,1.609-.539,1.8,1.8,0,0,0,.586-1.414,1.764,1.764,0,0,0-1.992-2,2.072,2.072,0,0,0-1.5.535,1.873,1.873,0,0,0-.559,1.418H20.34a2.9,2.9,0,0,1,.988-2.246,3.6,3.6,0,0,1,2.512-.895,3.558,3.558,0,0,1,2.523.852,3.076,3.076,0,0,1,.914,2.367,2.5,2.5,0,0,1-.48,1.438,2.9,2.9,0,0,1-1.309,1.039,2.8,2.8,0,0,1,1.449.984,2.734,2.734,0,0,1,.512,1.68,3.1,3.1,0,0,1-1,2.43,3.745,3.745,0,0,1-2.6.9,3.844,3.844,0,0,1-2.605-.867,2.877,2.877,0,0,1-1-2.289h1.453a1.859,1.859,0,0,0,.586,1.438,2.229,2.229,0,0,0,1.57.539,2.187,2.187,0,0,0,1.6-.547A2.108,2.108,0,0,0,26-3.141a1.912,1.912,0,0,0-.609-1.523,2.655,2.655,0,0,0-1.758-.547H22.551Zm-24,20H-.359A2.387,2.387,0,0,0,1.25,13.07a1.8,1.8,0,0,0,.586-1.414,1.764,1.764,0,0,0-1.992-2,2.072,2.072,0,0,0-1.5.535,1.873,1.873,0,0,0-.559,1.418H-3.656a2.9,2.9,0,0,1,.988-2.246A3.6,3.6,0,0,1-.156,8.469a3.558,3.558,0,0,1,2.523.852,3.076,3.076,0,0,1,.914,2.367,2.5,2.5,0,0,1-.48,1.438,2.9,2.9,0,0,1-1.309,1.039,2.8,2.8,0,0,1,1.449.984,2.734,2.734,0,0,1,.512,1.68,3.1,3.1,0,0,1-1,2.43,3.745,3.745,0,0,1-2.6.9,3.844,3.844,0,0,1-2.605-.867,2.877,2.877,0,0,1-1-2.289H-2.3a1.859,1.859,0,0,0,.586,1.438,2.229,2.229,0,0,0,1.57.539,2.187,2.187,0,0,0,1.6-.547,2.108,2.108,0,0,0,.555-1.57A1.912,1.912,0,0,0,1.4,15.336a2.655,2.655,0,0,0-1.758-.547H-1.445Z" transform="translate(347 1948)" fill="#12263f"/>
    <path id="Trazado_201747" data-name="Trazado 201747" d="M0,0H56" transform="translate(319 1952.5)" fill="none" stroke="#707070" stroke-width="1"/>
    <path id="Trazado_201748" data-name="Trazado 201748" d="M3.313-6.359H-3.2V-7.617H3.313Zm0,3.242H-3.2v-1.25H3.313Z" transform="translate(384 1958)" fill="#12263f"/>
    <path id="Trazado_201749" data-name="Trazado 201749" d="M2.125-11.383v1.227H1.859a3.805,3.805,0,0,0-2.687,1A4.161,4.161,0,0,0-1.984-6.43,3.085,3.085,0,0,1,.469-7.461,2.95,2.95,0,0,1,2.84-6.414a4.038,4.038,0,0,1,.887,2.7A4.025,4.025,0,0,1,2.77-.9,3.3,3.3,0,0,1,.2.156,3.247,3.247,0,0,1-2.445-1.1a4.97,4.97,0,0,1-1.016-3.23v-.555a7.488,7.488,0,0,1,1.34-4.8,4.921,4.921,0,0,1,3.988-1.7ZM.227-6.258a2.306,2.306,0,0,0-1.367.445A2.32,2.32,0,0,0-2.008-4.7v.531A3.731,3.731,0,0,0-1.375-1.9,1.9,1.9,0,0,0,.2-1.039a1.838,1.838,0,0,0,1.535-.719A2.982,2.982,0,0,0,2.3-3.641,2.983,2.983,0,0,0,1.73-5.535,1.816,1.816,0,0,0,.227-6.258ZM-1.445,13.609H-.359A2.387,2.387,0,0,0,1.25,13.07a1.8,1.8,0,0,0,.586-1.414,1.764,1.764,0,0,0-1.992-2,2.072,2.072,0,0,0-1.5.535,1.873,1.873,0,0,0-.559,1.418H-3.656a2.9,2.9,0,0,1,.988-2.246A3.6,3.6,0,0,1-.156,8.469a3.558,3.558,0,0,1,2.523.852,3.076,3.076,0,0,1,.914,2.367,2.5,2.5,0,0,1-.48,1.438,2.9,2.9,0,0,1-1.309,1.039,2.8,2.8,0,0,1,1.449.984,2.734,2.734,0,0,1,.512,1.68,3.1,3.1,0,0,1-1,2.43,3.745,3.745,0,0,1-2.6.9,3.844,3.844,0,0,1-2.605-.867,2.877,2.877,0,0,1-1-2.289H-2.3a1.859,1.859,0,0,0,.586,1.438,2.229,2.229,0,0,0,1.57.539,2.187,2.187,0,0,0,1.6-.547,2.108,2.108,0,0,0,.555-1.57A1.912,1.912,0,0,0,1.4,15.336a2.655,2.655,0,0,0-1.758-.547H-1.445Z" transform="translate(406 1948)" fill="#12263f"/>
    <path id="Trazado_201750" data-name="Trazado 201750" d="M0,0H19.5" transform="translate(396 1952.5)" fill="none" stroke="#707070" stroke-width="1"/>
    <path id="Trazado_201751" data-name="Trazado 201751" d="M3.313-6.359H-3.2V-7.617H3.313Zm0,3.242H-3.2v-1.25H3.313Z" transform="translate(427 1958)" fill="#12263f"/>
    <path id="Trazado_201752" data-name="Trazado 201752" d="M3.906,0H-3.547V-1.039L.391-5.414A9.354,9.354,0,0,0,1.6-7.027,2.693,2.693,0,0,0,1.93-8.312a2.041,2.041,0,0,0-.539-1.461,1.885,1.885,0,0,0-1.437-.57,2.232,2.232,0,0,0-1.676.613,2.343,2.343,0,0,0-.6,1.707H-3.766a3.355,3.355,0,0,1,1.012-2.539,3.751,3.751,0,0,1,2.707-.969,3.6,3.6,0,0,1,2.508.832,2.838,2.838,0,0,1,.922,2.215q0,1.68-2.141,4L-1.8-1.18H3.906Z" transform="translate(440 1958)" fill="#12263f"/>
  </g>
</svg>
