<svg xmlns="http://www.w3.org/2000/svg" width="325.37" height="218.459" viewBox="0 0 325.37 218.459">
  <g id="Grupo_150130" data-name="Grupo 150130" transform="translate(6415.185 9575.95)">
    <path id="Trazado_201895" data-name="Trazado 201895" d="M24,0H301.37a24,24,0,0,1,24,24V194.459a24,24,0,0,1-24,24H24a24,24,0,0,1-24-24V24A24,24,0,0,1,24,0Z" transform="translate(-6415.185 -9575.95)" fill="#eaf086"/>
    <path id="Trazado_201896" data-name="Trazado 201896" d="M28,0H240a28,28,0,0,1,28,28v85a28,28,0,0,1-28,28H28A28,28,0,0,1,0,113V28A28,28,0,0,1,28,0Z" transform="translate(-6386.185 -9536.95)" fill="#f3f9ff"/>
    <path id="Trazado_201897" data-name="Trazado 201897" d="M7.874,19.494H4.968L3.833,26H.256L3.345,8.227l5.884.012A6.7,6.7,0,0,1,13.776,9.63a4.4,4.4,0,0,1,1.41,3.87,5.584,5.584,0,0,1-3.906,5.09l2.5,7.214V26H9.973ZM5.481,16.527l2.661.024a3.728,3.728,0,0,0,2.338-.763,3.02,3.02,0,0,0,1.1-2.008,2.3,2.3,0,0,0-.378-1.855,2.253,2.253,0,0,0-1.746-.72l-3.052-.012ZM23.279,26a3.563,3.563,0,0,1-.134-1.2,4.473,4.473,0,0,1-3.369,1.44A4.054,4.054,0,0,1,16.9,25.115a3.416,3.416,0,0,1-1.068-2.728,3.949,3.949,0,0,1,1.813-3.314,8.228,8.228,0,0,1,4.633-1.154l1.611.024.171-.793a2.756,2.756,0,0,0,.037-.769,1.322,1.322,0,0,0-.433-.9,1.493,1.493,0,0,0-.983-.336,2.1,2.1,0,0,0-1.367.4,1.923,1.923,0,0,0-.72,1.215l-3.455.012a3.839,3.839,0,0,1,1.74-3.07,6.737,6.737,0,0,1,4.083-1.154,4.87,4.87,0,0,1,3.516,1.337A3.91,3.91,0,0,1,27.539,17.2l-1.013,6.323-.061.781a3.769,3.769,0,0,0,.208,1.465L26.66,26ZM20.63,23.571a3.152,3.152,0,0,0,2.6-1.294l.427-2.283-1.2-.012a3.342,3.342,0,0,0-2.747,1.16,2.019,2.019,0,0,0-.378.989,1.172,1.172,0,0,0,.275,1.044A1.392,1.392,0,0,0,20.63,23.571ZM34.2,12.78l-.293,1.563a4.753,4.753,0,0,1,3.845-1.794,3.168,3.168,0,0,1,2.759,1.367,5.509,5.509,0,0,1,.647,3.687L39.771,26H36.328l1.416-8.435a3.95,3.95,0,0,0,.024-.867,1.4,1.4,0,0,0-1.562-1.282,2.963,2.963,0,0,0-2.429,1.257L32.129,26H28.687l2.295-13.208Zm8.923,6.6a9.139,9.139,0,0,1,2-4.974,5.065,5.065,0,0,1,4.108-1.874,3.7,3.7,0,0,1,3.149,1.526l.452-1.282,3.162.012L53.833,25.548a6.224,6.224,0,0,1-2.246,4.175A6.986,6.986,0,0,1,46.9,31.212a6.513,6.513,0,0,1-2.612-.592,5.586,5.586,0,0,1-2.051-1.556l1.709-2.1a3.67,3.67,0,0,0,2.881,1.5,3.384,3.384,0,0,0,2.295-.7,3.756,3.756,0,0,0,1.294-2.118l.2-.793a4.3,4.3,0,0,1-3.235,1.392,3.794,3.794,0,0,1-3.064-1.434,6.167,6.167,0,0,1-1.245-3.668A12.328,12.328,0,0,1,43.127,19.384Zm3.381,1.449a3.157,3.157,0,0,0,.482,1.84,1.687,1.687,0,0,0,1.4.727,3.082,3.082,0,0,0,2.49-1.2L51.9,16.6a2.025,2.025,0,0,0-1.941-1.2,2.7,2.7,0,0,0-2.234,1.064,5.564,5.564,0,0,0-1.147,2.922A12.835,12.835,0,0,0,46.509,20.832Zm17.48-8.285a5.3,5.3,0,0,1,3.009.9,5.053,5.053,0,0,1,1.855,2.4,7.44,7.44,0,0,1,.421,3.4,8.037,8.037,0,0,1-2.191,5.1,6.187,6.187,0,0,1-4.718,1.9,5.282,5.282,0,0,1-2.979-.885,5.034,5.034,0,0,1-1.855-2.386A7.276,7.276,0,0,1,57.1,19.6a8.274,8.274,0,0,1,2.222-5.2A6.059,6.059,0,0,1,63.989,12.548Zm-3.479,8.3A3.048,3.048,0,0,0,61.06,22.7a1.826,1.826,0,0,0,1.477.7,2.676,2.676,0,0,0,2.49-1.456,7.26,7.26,0,0,0,.842-3.955,3.315,3.315,0,0,0-.568-1.871,1.8,1.8,0,0,0-1.483-.725,2.679,2.679,0,0,0-2.46,1.444A7.185,7.185,0,0,0,60.51,20.852Zm22.229-3.959H72.131l.513-2.881H83.252Zm-.916,5.286H71.216l.513-2.881H82.336Zm3.894-3.357a20.629,20.629,0,0,1,2.606-7.794A11.211,11.211,0,0,1,93.4,6.237L93.982,8.2Q89.807,11.388,88.7,18.444a30.274,30.274,0,0,0-.4,4.3q-.061,5.017,2.295,6.97l-.769,1.843a8.016,8.016,0,0,1-3.687-5.066,16.984,16.984,0,0,1-.623-5.176,20.5,20.5,0,0,1,.159-2.2Zm15.076-10.6,2.185,12.854,6.628-12.854h4.761L111.279,26H107.69l.879-5.066,1.733-7.91L103.491,26h-2.454l-2.38-13.428L97.51,21.325,96.692,26H93.115L96.2,8.227ZM121.9,26a3.563,3.563,0,0,1-.134-1.2,4.473,4.473,0,0,1-3.369,1.44,4.054,4.054,0,0,1-2.875-1.129,3.416,3.416,0,0,1-1.068-2.728,3.949,3.949,0,0,1,1.813-3.314,8.228,8.228,0,0,1,4.633-1.154l1.611.024.171-.793a2.756,2.756,0,0,0,.037-.769,1.322,1.322,0,0,0-.433-.9,1.493,1.493,0,0,0-.983-.336,2.1,2.1,0,0,0-1.367.4,1.923,1.923,0,0,0-.72,1.215l-3.455.012a3.839,3.839,0,0,1,1.74-3.07,6.737,6.737,0,0,1,4.083-1.154,4.87,4.87,0,0,1,3.516,1.337A3.91,3.91,0,0,1,126.16,17.2l-1.013,6.323-.061.781a3.769,3.769,0,0,0,.208,1.465l-.012.232Zm-2.649-2.429a3.152,3.152,0,0,0,2.6-1.294l.427-2.283-1.2-.012a3.342,3.342,0,0,0-2.747,1.16,2.019,2.019,0,0,0-.378.989,1.172,1.172,0,0,0,.275,1.044A1.392,1.392,0,0,0,119.25,23.571Zm14.49-6.86,2.771-3.918h3.87L135.6,19.433,138.269,26h-3.491l-1.624-4.126L130.237,26h-3.894l4.98-6.909-2.551-6.3h3.491Zm5.383,14.88-.586-1.929q4.187-3.235,5.286-10.352A30.118,30.118,0,0,0,144.2,15.1q.061-5.017-2.271-6.982l.769-1.843a7.133,7.133,0,0,1,2.472,2.277,10.508,10.508,0,0,1,1.526,3.607,18.126,18.126,0,0,1,.47,4.346A21.664,21.664,0,0,1,146,23.1a17.248,17.248,0,0,1-2.875,5.377A10.437,10.437,0,0,1,139.124,31.591Zm17.139-11.78h-6.689l.488-2.844h6.7Zm3.223-.989a20.629,20.629,0,0,1,2.606-7.794,11.211,11.211,0,0,1,5.072-4.791l.586,1.965q-4.175,3.186-5.286,10.242a30.277,30.277,0,0,0-.4,4.3q-.061,5.017,2.295,6.97l-.769,1.843a8.016,8.016,0,0,1-3.687-5.066,16.984,16.984,0,0,1-.623-5.176,20.5,20.5,0,0,1,.159-2.2Zm15.076-10.6,2.185,12.854,6.628-12.854h4.761L185.046,26h-3.589l.879-5.066,1.733-7.91L177.258,26H174.8l-2.38-13.428-1.147,8.752L170.459,26h-3.577l3.088-17.773ZM191.663,26H188.2l2.295-13.208h3.467Zm-.769-16.565a1.719,1.719,0,0,1,.537-1.355,2.067,2.067,0,0,1,2.71-.061,1.712,1.712,0,0,1,.6,1.294,1.768,1.768,0,0,1-.507,1.318,1.9,1.9,0,0,1-1.385.586,1.93,1.93,0,0,1-1.349-.464A1.7,1.7,0,0,1,190.894,9.435Zm9.131,3.345-.293,1.563a4.753,4.753,0,0,1,3.845-1.794,3.168,3.168,0,0,1,2.759,1.367,5.509,5.509,0,0,1,.647,3.687L205.591,26h-3.442l1.416-8.435a3.949,3.949,0,0,0,.024-.867,1.4,1.4,0,0,0-1.562-1.282,2.963,2.963,0,0,0-2.429,1.257L197.949,26h-3.442L196.8,12.792Zm7.544,18.811-.586-1.929q4.187-3.235,5.286-10.352a30.118,30.118,0,0,0,.378-4.211q.061-5.017-2.271-6.982l.769-1.843a7.133,7.133,0,0,1,2.472,2.277,10.508,10.508,0,0,1,1.526,3.607,18.126,18.126,0,0,1,.47,4.346,21.664,21.664,0,0,1-1.172,6.6,17.248,17.248,0,0,1-2.875,5.377A10.437,10.437,0,0,1,207.568,31.591Z" transform="translate(-6360.685 -9484.849)" fill="#75b62f"/>
  </g>
</svg>
