<svg xmlns="http://www.w3.org/2000/svg" width="325.37" height="218.459" viewBox="0 0 325.37 218.459">
  <g id="Grupo_150131" data-name="Grupo 150131" transform="translate(6063.185 9575.578)">
    <path id="Trazado_201898" data-name="Trazado 201898" d="M24,0H301.37a24,24,0,0,1,24,24V194.459a24,24,0,0,1-24,24H24a24,24,0,0,1-24-24V24A24,24,0,0,1,24,0Z" transform="translate(-6063.185 -9575.578)" fill="#eaf086"/>
    <path id="Trazado_201899" data-name="Trazado 201899" d="M28,0H240a28,28,0,0,1,28,28v85a28,28,0,0,1-28,28H28A28,28,0,0,1,0,113V28A28,28,0,0,1,28,0Z" transform="translate(-6035.185 -9536.95)" fill="#f3f9ff"/>
    <path id="Trazado_201900" data-name="Trazado 201900" d="M.256,26,3.345,8.227l5.1.012a6.989,6.989,0,0,1,3.229.812A6.1,6.1,0,0,1,14,11.278a7.629,7.629,0,0,1,1.074,3.271,10.8,10.8,0,0,1-.024,2.173l-.085.647a10.152,10.152,0,0,1-3.07,6.268A8.685,8.685,0,0,1,5.75,26ZM6.409,11.193,4.346,23.058l1.489.012A4.886,4.886,0,0,0,9.8,21.264a9.337,9.337,0,0,0,1.715-5.457l.024-.391a4.923,4.923,0,0,0-.769-3.088,2.936,2.936,0,0,0-2.4-1.123Z" transform="translate(-6026.185 -9484.822)" fill="#75b62f"/>
    <path id="Trazado_201901" data-name="Trazado 201901" d="M5.629,14.825l2.438-3.448h3.405L7.262,17.221,9.614,23H6.542L5.113,19.369,2.546,23H-.881L3.5,16.92,1.257,11.377H4.329ZM16.962,6.017H7.444l.43-2.428h9.507Z" transform="translate(-6011.685 -9468.778)" fill="#75b62f"/>
    <path id="Trazado_201902" data-name="Trazado 201902" d="M12.512,16.894H1.9l.513-2.881H13.025ZM11.6,22.179H.989L1.5,19.3H12.109Z" transform="translate(-5958.685 -9484.822)" fill="#75b62f"/>
    <path id="Trazado_201903" data-name="Trazado 201903" d="M11.011,18.9,4.1,26.415l9.2.024-.5,2.844H-1.172l.354-2.014,8.264-8.759L2.185,9.875l.293-1.648H16.052l-.5,2.844H6.6l4.443,7.4Z" transform="translate(-5927.685 -9503.322)" fill="#75b62f"/>
    <path id="Trazado_201904" data-name="Trazado 201904" d="M14.307,26H10.84L5.9,14.147,3.833,26H.256L3.345,8.227H6.8L11.755,20.1,13.818,8.227h3.564Z" transform="translate(-5867.435 -9454.322)" fill="#75b62f"/>
    <path id="Trazado_201905" data-name="Trazado 201905" d="M8.289,14.33l4.187-6.1h4.3l-6.531,8.984L13.928,26H9.973L7.642,19.8,3.357,26H-.989l6.677-9.131L2.112,8.227H6.018ZM17.732,26h-2.08l1.377-7.925h2.08Zm-.461-9.939a1.032,1.032,0,0,1,.322-.813,1.24,1.24,0,0,1,1.626-.037,1.027,1.027,0,0,1,.359.776,1.061,1.061,0,0,1-.3.791,1.139,1.139,0,0,1-.831.352,1.158,1.158,0,0,1-.809-.278A1.023,1.023,0,0,1,17.271,16.061Z" transform="translate(-5862.185 -9503.322)" fill="#75b62f"/>
    <path id="Trazado_201906" data-name="Trazado 201906" d="M8.643,29.3h-2.1l3.3-21.069h2.1Z" transform="translate(-5882.185 -9503.322)" fill="#75b62f"/>
    <path id="Trazado_201907" data-name="Trazado 201907" d="M6.4,16.71l2.771-3.918h3.87L8.252,19.433,10.925,26H7.434L5.811,21.874,2.893,26H-1l4.98-6.909-2.551-6.3H4.919ZM19.275,6.7H8.459l.488-2.759h10.8Zm8,22.6h-2.1l3.3-21.069h2.1Z" transform="translate(-5820.185 -9503.322)" fill="#75b62f"/>
    <path id="Trazado_201908" data-name="Trazado 201908" d="M9.07,28.759H-1.746L-1.257,26h10.8Z" transform="translate(-5833.685 -9510.322)" fill="#75b62f"/>
    <path id="Trazado_201909" data-name="Trazado 201909" d="M12.59,23H9.539L5.188,12.569,3.373,23H.226L2.943,7.359h3.04l4.361,10.452L12.16,7.359H15.3Z" transform="translate(-5906.685 -9515.95)" fill="#75b62f"/>
    <path id="Trazado_201910" data-name="Trazado 201910" d="M8.658,23H5.607l2.02-11.623h3.051ZM7.981,8.423A1.513,1.513,0,0,1,8.454,7.23a1.663,1.663,0,0,1,1.192-.473,1.671,1.671,0,0,1,1.192.419,1.507,1.507,0,0,1,.526,1.139,1.556,1.556,0,0,1-.446,1.16A1.671,1.671,0,0,1,9.7,9.991a1.7,1.7,0,0,1-1.187-.408A1.5,1.5,0,0,1,7.981,8.423ZM22.2,14.986H12.869l.451-2.535h9.335ZM21.4,19.638H12.063l.451-2.535H21.85ZM30.755,23H27.726l2.063-11.9-3.8,1.149.473-2.653,6.531-2.256.4-.011Z" transform="translate(-5914.685 -9484.822)" fill="#75b62f"/>
    <path id="Trazado_201911" data-name="Trazado 201911" d="M162.5,0H0" transform="translate(-5938.685 -9454.322)" fill="none" stroke="#75b62f" stroke-width="3"/>
  </g>
</svg>
