<svg xmlns="http://www.w3.org/2000/svg" width="482" height="218" viewBox="0 0 482 218">
  <g id="Grupo_150125" data-name="Grupo 150125" transform="translate(5277 10485.111)">
    <g id="Grupo_149994" data-name="Grupo 149994" transform="translate(-5547.5 -11280.543)">
      <g id="Rectángulo_295751" data-name="Rectángulo 295751" transform="translate(270.5 795.432)" fill="#f6f6f6" stroke="#707070" stroke-width="1">
        <rect width="482" height="218" rx="29" stroke="none"/>
        <rect x="0.5" y="0.5" width="481" height="217" rx="28.5" fill="none"/>
      </g>
      <g id="Grupo_149248" data-name="Grupo 149248" transform="translate(220.352 788.107)">
        <path id="Trazado_200598" data-name="Trazado 200598" d="M167.627,36.305q-14.844-.022-29.689-.043c-3.871,0-3.871,0-3.851-3.916H216.5c-.154,3.916-.154,3.911-4.183,3.917q-15.185.021-30.369.049c-1.091-.065-2.181-.177-3.273-.184-3.519-.024-3.519-.009-2.849,3.566-.041.714-.119,1.429-.119,2.143q-.007,67.277,0,134.551c0,.715.076,1.429.116,2.144a9.064,9.064,0,0,0-.035,4.545c.018,5.19-.027,10.382.09,15.57.04,1.788-.983,1.59-2.133,1.649-1.267.064-1.859-.227-1.836-1.685.082-5.19.036-10.382.039-15.573a9.535,9.535,0,0,0-.025-4.45c.034-.8.1-1.592.1-2.388q.007-66.913,0-133.827c0-.8-.061-1.592-.094-2.388.635-3.9.461-4.1-3.357-3.834C168.25,36.173,167.94,36.252,167.627,36.305Z" fill="#dad124"/>
        <path id="Trazado_200599" data-name="Trazado 200599" d="M175.823,39.694c-.67-3.575-.67-3.59,2.849-3.566,1.092.007,2.182.119,3.273.184,8.869,2.9,15.995,8.476,23.007,14.432a382.9,382.9,0,0,0,35.329,26.631c14.678,9.8,29.369,19.618,44.86,28.1,14.684,8.043,29.355,16.149,44.637,23.025,14.971,6.737,29.934,13.516,45.378,19.122,15.053,5.465,30.135,10.853,45.541,15.272a560.56,560.56,0,0,0,63.278,14.7c2.511.414,5.034.842,7.568,1,2.123.134,1.255,1.563,1.381,2.576.131,1.049.035,1.95-1.432,1.753a12.655,12.655,0,0,0-1.676-.012q-155.469,0-310.938.007c-1.031,0-2.062.1-3.093.153a9.053,9.053,0,0,1,.036-4.545,5.685,5.685,0,0,0,2.6.229q142.03.012,284.061,0a4.685,4.685,0,0,0,2.694-.335c-.464-.14-.739-.245-1.023-.3-14.476-3.051-28.77-6.83-43.01-10.819-16-4.483-31.643-10.077-47.254-15.734-14.8-5.364-29.167-11.819-43.533-18.231-15.477-6.908-30.349-15.047-45.228-23.14C269.655,101.78,255,92.012,240.282,82.379,231.341,76.527,222.865,70,214.329,63.567c-7.634-5.754-14.639-12.3-22.469-17.794C187.049,42.4,181.861,39.89,175.823,39.694Z" fill="#111112"/>
        <path id="Trazado_200600" data-name="Trazado 200600" d="M167.627,36.305c.313-.053.623-.132.938-.154,3.818-.263,3.992-.061,3.357,3.834a11.069,11.069,0,0,0-6.539,1.867,38.724,38.724,0,0,0-18.19,23.57c-6.17,22.748-12.7,45.339-21.684,67.152-6.658,16.158-14.161,31.846-25.873,45.108-.223.251-.648.543-.222,1.029.282.017.6.054.916.054q34.969,0,69.94,0a15.649,15.649,0,0,0,1.65-.173,9.535,9.535,0,0,1,.025,4.45c-.873-.04-1.746-.116-2.62-.116q-39.981-.009-79.975,0c-.253-.883.513-1.094.927-1.479A98.368,98.368,0,0,0,103.9,165.147c12.667-18.269,20.088-38.924,27.27-59.678,4.775-13.8,8.528-27.9,12.187-42.033a33.68,33.68,0,0,1,8.432-14.955c.606-.628,1.085-1.378,1.646-2.052A33.293,33.293,0,0,1,167.627,36.305Z" fill="#111112"/>
        <path id="Trazado_200601" data-name="Trazado 200601" d="M175.823,39.694c6.038.2,11.226,2.7,16.037,6.079,7.83,5.494,14.835,12.04,22.469,17.794,8.536,6.434,17.012,12.96,25.953,18.812,14.72,9.633,29.373,19.4,44.841,27.814,14.879,8.093,29.751,16.232,45.228,23.14,14.366,6.412,28.732,12.867,43.533,18.231,15.611,5.657,31.252,11.251,47.254,15.734,14.24,3.989,28.534,7.768,43.01,10.819.284.06.559.165,1.023.3a4.685,4.685,0,0,1-2.694.335q-142.03.018-284.061,0a5.685,5.685,0,0,1-2.6-.229c-.041-.715-.117-1.429-.117-2.144q-.007-67.275,0-134.551C175.7,41.123,175.782,40.408,175.823,39.694Z" fill="#75b62f"/>
        <path id="Trazado_200602" data-name="Trazado 200602" d="M171.92,178.588a15.649,15.649,0,0,1-1.65.173q-34.97.012-69.94,0c-.317,0-.634-.037-.916-.054-.426-.486,0-.778.222-1.029,11.712-13.262,19.215-28.95,25.873-45.108,8.988-21.813,15.514-44.4,21.684-67.152a38.724,38.724,0,0,1,18.19-23.57,11.069,11.069,0,0,1,6.539-1.867c.033.8.094,1.592.094,2.388q.007,66.914,0,133.827C172.016,177,171.954,177.792,171.92,178.588Z" fill="#75b62f"/>
      </g>
    </g>
  </g>
</svg>
