<svg xmlns="http://www.w3.org/2000/svg" width="100" height="100" viewBox="0 0 100 100">
  <g id="Grupo_150164" data-name="Grupo 150164" transform="translate(-3071.41 8674.705)">
    <g id="Grupo_150098" data-name="Grupo 150098" transform="translate(-4414.189 -8285.036)">
      <g id="Grupo_150053" data-name="Grupo 150053" transform="translate(7485.598 -763.78)">
        <g id="Grupo_149676" data-name="Grupo 149676" transform="translate(1.951 376.061)">
          <path id="Trazado_201110" data-name="Trazado 201110" d="M59.551,388.7l-9.222,5.911-5.407,4.038v-3.2A30.247,30.247,0,0,0,22,424.789q0,.963.059,1.908l-5.91-9.223-7.767,9.1q-.036-.887-.035-1.781a43.9,43.9,0,0,1,36.574-43.28v-4.7l5.533,4.131Z" transform="translate(-4.253 -376.804)" fill="#75b62f"/>
          <path id="Trazado_201111" data-name="Trazado 201111" d="M116.2,419.033l-4.131,5.534-7.768,9.1-5.91-9.222-4.038-5.407h3.2a30.248,30.248,0,0,0-29.342-22.919q-.963,0-1.908.059l9.222-5.911-9.1-7.767q.887-.035,1.781-.035a43.9,43.9,0,0,1,43.28,36.573Z" transform="translate(-20.104 -378.364)" fill="#dce736"/>
          <path id="Trazado_201112" data-name="Trazado 201112" d="M110.048,442.33a43.9,43.9,0,0,1-36.574,43.28v4.7l-5.533-4.131-9.1-7.767,9.222-5.91,5.407-4.038v3.2a30.247,30.247,0,0,0,22.92-29.342q0-.963-.059-1.908l5.91,9.222,7.768-9.1Q110.048,441.435,110.048,442.33Z" transform="translate(-18.046 -394.215)" fill="#75b62f"/>
          <path id="Trazado_201113" data-name="Trazado 201113" d="M43.363,476.357l9.1,7.767q-.887.036-1.781.035A43.9,43.9,0,0,1,7.4,447.586h-4.7l4.131-5.533,7.767-9.1,5.91,9.223,4.038,5.407h-3.2a30.247,30.247,0,0,0,29.342,22.92q.963,0,1.908-.059Z" transform="translate(-2.694 -392.156)" fill="#dce736"/>
        </g>
        <g id="Grupo_149677" data-name="Grupo 149677" transform="translate(0.001 374.111)">
          <path id="Trazado_201114" data-name="Trazado 201114" d="M99.793,415.913a1.952,1.952,0,0,0-1.746-1.078H94.958A45.92,45.92,0,0,0,50,378.2c-.386,0-.774.007-1.16.016l-5-3.731a1.977,1.977,0,0,0-3.122,1.566v3.089A45.924,45.924,0,0,0,4.093,424.115c0,.384.006.772.016,1.16l-3.731,5a1.978,1.978,0,0,0,1.566,3.122H5.033A45.92,45.92,0,0,0,50,470.026c.387,0,.777-.007,1.166-.016l4.991,3.73a1.982,1.982,0,0,0,3.121-1.565v-3.089A45.83,45.83,0,0,0,82.128,456.9a1.956,1.956,0,0,0,.028-2.762,1.988,1.988,0,0,0-2.762-.029A41.726,41.726,0,0,1,57,465.537a1.948,1.948,0,0,0-1.63,1.927v.817l-9.427-7.8,9.526-6.365a2,2,0,0,0,2.324,1.284,32.4,32.4,0,0,0,21.4-17.615,32.045,32.045,0,0,0,2.738-9.285l2.559,3.994a1.983,1.983,0,0,0,3.13.215l4.216-4.939h0A41.73,41.73,0,0,1,88.762,440.3a1.956,1.956,0,0,0,1.049,2.557,2,2,0,0,0,2.555-1.049,45.748,45.748,0,0,0,2.622-8.54,46.346,46.346,0,0,0,.9-10.313l3.731-5a1.957,1.957,0,0,0,.18-2.045Zm-8.384,1.2a1.953,1.953,0,0,0,1.926,1.631h.815l-7.795,9.428s-6.276-9.4-6.364-9.527a1.953,1.953,0,0,0,1.282-2.326,32.407,32.407,0,0,0-11.28-17.482,31.826,31.826,0,0,0-15.609-6.662l3.988-2.557a1.983,1.983,0,0,0,.215-3.13l-4.938-4.219A41.826,41.826,0,0,1,91.41,417.111ZM42.993,382.693a1.953,1.953,0,0,0,1.63-1.926v-.816l9.426,7.8-9.525,6.365A1.953,1.953,0,0,0,42.2,392.83a32.4,32.4,0,0,0-17.479,11.282,31.836,31.836,0,0,0-6.661,15.613L15.5,415.734a1.984,1.984,0,0,0-3.13-.215l-4.217,4.939a41.827,41.827,0,0,1,34.837-37.766Zm3.348,83.268a41.824,41.824,0,0,1-37.76-34.843,1.953,1.953,0,0,0-1.926-1.631H5.84l7.795-9.428L20,429.587a1.953,1.953,0,0,0-1.282,2.326A32.4,32.4,0,0,0,30,449.394,31.824,31.824,0,0,0,45.6,456.057l-3.989,2.556a1.982,1.982,0,0,0-.212,3.13Zm12.933-15.074v-.594a1.968,1.968,0,0,0-3.121-1.564l-4.937,3.686c-.4.017-.812.028-1.22.028a28.265,28.265,0,0,1-26.771-19.049h.6a1.975,1.975,0,0,0,1.565-3.122L21.7,425.337c-.017-.405-.028-.813-.028-1.222a28.269,28.269,0,0,1,19.045-26.776v.6A1.975,1.975,0,0,0,43.84,399.5l4.934-3.686c.405-.017.814-.029,1.221-.029a28.265,28.265,0,0,1,26.771,19.049h-.6a1.976,1.976,0,0,0-1.565,3.123l3.686,4.936c.017.405.028.813.028,1.221A28.341,28.341,0,0,1,59.274,450.888Z" transform="translate(-0.001 -374.111)"/>
          <circle id="Elipse_12658" data-name="Elipse 12658" cx="1.951" cy="1.951" r="1.951" transform="translate(84.452 72.699)"/>
        </g>
      </g>
    </g>
  </g>
</svg>
