<svg xmlns="http://www.w3.org/2000/svg" width="400" height="416.43" viewBox="0 0 400 416.43">
  <g id="Grupo_150138" data-name="Grupo 150138" transform="translate(1213.414 9816.84)">
    <g id="Trazado_200446" data-name="Trazado 200446" transform="translate(-1213.414 -9816.291)" fill="#edf6e4">
      <path d="M 398.5000915527344 413.3811340332031 L 1.500030517578125 413.3811340332031 L 1.500030517578125 1.499988079071045 L 398.5000915527344 1.499988079071045 L 398.5000915527344 413.3811340332031 Z" stroke="none"/>
      <path d="M 2.999969482421875 3 L 2.999969482421875 411.8811340332031 L 397.0000305175781 411.8811340332031 L 397.0000305175781 3 L 2.999969482421875 3 M -3.0517578125e-05 0 L 400.0000305175781 0 L 400.0000305175781 414.8811340332031 L -3.0517578125e-05 414.8811340332031 L -3.0517578125e-05 0 Z" stroke="none" fill="#dce736"/>
    </g>
    <path id="Trazado_201749" data-name="Trazado 201749" d="M15.222,0H1.713V-1.883L8.85-9.813a16.955,16.955,0,0,0,2.188-2.924,4.88,4.88,0,0,0,.6-2.329,3.7,3.7,0,0,0-.977-2.648,3.416,3.416,0,0,0-2.605-1.034A4.046,4.046,0,0,0,5.02-17.636a4.246,4.246,0,0,0-1.083,3.094H1.317a6.081,6.081,0,0,1,1.834-4.6A6.8,6.8,0,0,1,8.057-20.9,6.532,6.532,0,0,1,12.6-19.392a5.144,5.144,0,0,1,1.671,4.014q0,3.044-3.88,7.25L4.871-2.138H15.222Z" transform="translate(-1174.833 -9764.402)" fill="#12263f"/>
    <path id="Trazado_201750" data-name="Trazado 201750" d="M5.522-11.583H7.491a4.326,4.326,0,0,0,2.917-.977,3.264,3.264,0,0,0,1.062-2.563q0-3.625-3.611-3.625a3.756,3.756,0,0,0-2.712.97,3.4,3.4,0,0,0-1.012,2.57H1.515a5.259,5.259,0,0,1,1.791-4.071A6.525,6.525,0,0,1,7.859-20.9a6.448,6.448,0,0,1,4.574,1.543,5.576,5.576,0,0,1,1.657,4.291,4.526,4.526,0,0,1-.871,2.605,5.258,5.258,0,0,1-2.372,1.883,5.067,5.067,0,0,1,2.627,1.784A4.955,4.955,0,0,1,14.4-5.749a5.624,5.624,0,0,1-1.812,4.4A6.787,6.787,0,0,1,7.873.283,6.967,6.967,0,0,1,3.151-1.289a5.214,5.214,0,0,1-1.82-4.149H3.965A3.37,3.37,0,0,0,5.027-2.832a4.039,4.039,0,0,0,2.846.977,3.964,3.964,0,0,0,2.9-.991,3.82,3.82,0,0,0,1.005-2.846,3.466,3.466,0,0,0-1.1-2.761,4.812,4.812,0,0,0-3.186-.991H5.522Z" transform="translate(-1174.833 -9683.567)" fill="#12263f"/>
    <path id="Trazado_201751" data-name="Trazado 201751" d="M15.222,0H1.713V-1.883L8.85-9.813a16.955,16.955,0,0,0,2.188-2.924,4.88,4.88,0,0,0,.6-2.329,3.7,3.7,0,0,0-.977-2.648,3.416,3.416,0,0,0-2.605-1.034A4.046,4.046,0,0,0,5.02-17.636a4.246,4.246,0,0,0-1.083,3.094H1.317a6.081,6.081,0,0,1,1.834-4.6A6.8,6.8,0,0,1,8.057-20.9,6.532,6.532,0,0,1,12.6-19.392a5.144,5.144,0,0,1,1.671,4.014q0,3.044-3.88,7.25L4.871-2.138H15.222Z" transform="translate(-1175.293 -9603.65)" fill="#12263f"/>
    <path id="Trazado_201752" data-name="Trazado 201752" d="M15.222,0H1.713V-1.883L8.85-9.813a16.955,16.955,0,0,0,2.188-2.924,4.88,4.88,0,0,0,.6-2.329,3.7,3.7,0,0,0-.977-2.648,3.416,3.416,0,0,0-2.605-1.034A4.046,4.046,0,0,0,5.02-17.636a4.246,4.246,0,0,0-1.083,3.094H1.317a6.081,6.081,0,0,1,1.834-4.6A6.8,6.8,0,0,1,8.057-20.9,6.532,6.532,0,0,1,12.6-19.392a5.144,5.144,0,0,1,1.671,4.014q0,3.044-3.88,7.25L4.871-2.138H15.222Z" transform="translate(-1178.508 -9523.354)" fill="#12263f"/>
    <path id="Trazado_201753" data-name="Trazado 201753" d="M12.772-6.924h2.86v2.138h-2.86V0H10.139V-4.786H.75V-6.33L9.983-20.617h2.79Zm-9.048,0h6.415v-10.11l-.312.566Z" transform="translate(-1175.293 -9437.008)" fill="#12263f"/>
    <path id="Trazado_201754" data-name="Trazado 201754" d="M5.522-11.583H7.491a4.326,4.326,0,0,0,2.917-.977,3.264,3.264,0,0,0,1.062-2.563q0-3.625-3.611-3.625a3.756,3.756,0,0,0-2.712.97,3.4,3.4,0,0,0-1.012,2.57H1.515a5.259,5.259,0,0,1,1.791-4.071A6.525,6.525,0,0,1,7.859-20.9a6.448,6.448,0,0,1,4.574,1.543,5.576,5.576,0,0,1,1.657,4.291,4.526,4.526,0,0,1-.871,2.605,5.258,5.258,0,0,1-2.372,1.883,5.067,5.067,0,0,1,2.627,1.784A4.955,4.955,0,0,1,14.4-5.749a5.624,5.624,0,0,1-1.812,4.4A6.787,6.787,0,0,1,7.873.283,6.967,6.967,0,0,1,3.151-1.289a5.214,5.214,0,0,1-1.82-4.149H3.965A3.37,3.37,0,0,0,5.027-2.832a4.039,4.039,0,0,0,2.846.977,3.964,3.964,0,0,0,2.9-.991,3.82,3.82,0,0,0,1.005-2.846,3.466,3.466,0,0,0-1.1-2.761,4.812,4.812,0,0,0-3.186-.991H5.522Z" transform="translate(-1100.305 -9764.402)" fill="#12263f"/>
    <path id="Trazado_201755" data-name="Trazado 201755" d="M15.222,0H1.713V-1.883L8.85-9.813a16.955,16.955,0,0,0,2.188-2.924,4.88,4.88,0,0,0,.6-2.329,3.7,3.7,0,0,0-.977-2.648,3.416,3.416,0,0,0-2.605-1.034A4.046,4.046,0,0,0,5.02-17.636a4.246,4.246,0,0,0-1.083,3.094H1.317a6.081,6.081,0,0,1,1.834-4.6A6.8,6.8,0,0,1,8.057-20.9,6.532,6.532,0,0,1,12.6-19.392a5.144,5.144,0,0,1,1.671,4.014q0,3.044-3.88,7.25L4.871-2.138H15.222Z" transform="translate(-1100.305 -9683.567)" fill="#12263f"/>
    <path id="Trazado_201756" data-name="Trazado 201756" d="M10.323,0H7.689V-17.459L2.407-15.52V-17.9l7.5-2.818h.411Z" transform="translate(-1100.305 -9603.65)" fill="#12263f"/>
    <path id="Trazado_201757" data-name="Trazado 201757" d="M10.323,0H7.689V-17.459L2.407-15.52V-17.9l7.5-2.818h.411Z" transform="translate(-1100.305 -9523.354)" fill="#12263f"/>
    <path id="Trazado_201758" data-name="Trazado 201758" d="M14.642-8.793q0,4.6-1.572,6.839A5.59,5.59,0,0,1,8.156.283,5.631,5.631,0,0,1,3.271-1.9Q1.685-4.092,1.628-8.439v-3.5q0-4.545,1.572-6.754A5.633,5.633,0,0,1,8.128-20.9a5.684,5.684,0,0,1,4.9,2.131q1.572,2.131,1.614,6.577Zm-2.62-3.583a9.6,9.6,0,0,0-.935-4.85,3.217,3.217,0,0,0-2.959-1.522A3.174,3.174,0,0,0,5.2-17.233a9.372,9.372,0,0,0-.949,4.659v4.191a9.753,9.753,0,0,0,.97,4.935A3.211,3.211,0,0,0,8.156-1.855a3.167,3.167,0,0,0,2.882-1.5,9.4,9.4,0,0,0,.984-4.729Z" transform="translate(-1100.305 -9437.008)" fill="#12263f"/>
    <path id="Trazado_201759" data-name="Trazado 201759" d="M14.642-8.793q0,4.6-1.572,6.839A5.59,5.59,0,0,1,8.156.283,5.631,5.631,0,0,1,3.271-1.9Q1.685-4.092,1.628-8.439v-3.5q0-4.545,1.572-6.754A5.633,5.633,0,0,1,8.128-20.9a5.684,5.684,0,0,1,4.9,2.131q1.572,2.131,1.614,6.577Zm-2.62-3.583a9.6,9.6,0,0,0-.935-4.85,3.217,3.217,0,0,0-2.959-1.522A3.174,3.174,0,0,0,5.2-17.233a9.372,9.372,0,0,0-.949,4.659v4.191a9.753,9.753,0,0,0,.97,4.935A3.211,3.211,0,0,0,8.156-1.855a3.167,3.167,0,0,0,2.882-1.5,9.4,9.4,0,0,0,.984-4.729Z" transform="translate(-1026.568 -9764.402)" fill="#12263f"/>
    <path id="Trazado_201760" data-name="Trazado 201760" d="M5.522-11.583H7.491a4.326,4.326,0,0,0,2.917-.977,3.264,3.264,0,0,0,1.062-2.563q0-3.625-3.611-3.625a3.756,3.756,0,0,0-2.712.97,3.4,3.4,0,0,0-1.012,2.57H1.515a5.259,5.259,0,0,1,1.791-4.071A6.525,6.525,0,0,1,7.859-20.9a6.448,6.448,0,0,1,4.574,1.543,5.576,5.576,0,0,1,1.657,4.291,4.526,4.526,0,0,1-.871,2.605,5.258,5.258,0,0,1-2.372,1.883,5.067,5.067,0,0,1,2.627,1.784A4.955,4.955,0,0,1,14.4-5.749a5.624,5.624,0,0,1-1.812,4.4A6.787,6.787,0,0,1,7.873.283,6.967,6.967,0,0,1,3.151-1.289a5.214,5.214,0,0,1-1.82-4.149H3.965A3.37,3.37,0,0,0,5.027-2.832a4.039,4.039,0,0,0,2.846.977,3.964,3.964,0,0,0,2.9-.991,3.82,3.82,0,0,0,1.005-2.846,3.466,3.466,0,0,0-1.1-2.761,4.812,4.812,0,0,0-3.186-.991H5.522Z" transform="translate(-1026.568 -9683.567)" fill="#12263f"/>
    <path id="Trazado_201761" data-name="Trazado 201761" d="M15.222,0H1.713V-1.883L8.85-9.813a16.955,16.955,0,0,0,2.188-2.924,4.88,4.88,0,0,0,.6-2.329,3.7,3.7,0,0,0-.977-2.648,3.416,3.416,0,0,0-2.605-1.034A4.046,4.046,0,0,0,5.02-17.636a4.246,4.246,0,0,0-1.083,3.094H1.317a6.081,6.081,0,0,1,1.834-4.6A6.8,6.8,0,0,1,8.057-20.9,6.532,6.532,0,0,1,12.6-19.392a5.144,5.144,0,0,1,1.671,4.014q0,3.044-3.88,7.25L4.871-2.138H15.222Z" transform="translate(-1027.005 -9603.65)" fill="#12263f"/>
    <path id="Trazado_201762" data-name="Trazado 201762" d="M10.323,0H7.689V-17.459L2.407-15.52V-17.9l7.5-2.818h.411Z" transform="translate(-1030.061 -9523.354)" fill="#12263f"/>
    <path id="Trazado_201763" data-name="Trazado 201763" d="M14.642-8.793q0,4.6-1.572,6.839A5.59,5.59,0,0,1,8.156.283,5.631,5.631,0,0,1,3.271-1.9Q1.685-4.092,1.628-8.439v-3.5q0-4.545,1.572-6.754A5.633,5.633,0,0,1,8.128-20.9a5.684,5.684,0,0,1,4.9,2.131q1.572,2.131,1.614,6.577Zm-2.62-3.583a9.6,9.6,0,0,0-.935-4.85,3.217,3.217,0,0,0-2.959-1.522A3.174,3.174,0,0,0,5.2-17.233a9.372,9.372,0,0,0-.949,4.659v4.191a9.753,9.753,0,0,0,.97,4.935A3.211,3.211,0,0,0,8.156-1.855a3.167,3.167,0,0,0,2.882-1.5,9.4,9.4,0,0,0,.984-4.729Z" transform="translate(-1027.005 -9437.008)" fill="#12263f"/>
    <path id="Trazado_201764" data-name="Trazado 201764" d="M10.323,0H7.689V-17.459L2.407-15.52V-17.9l7.5-2.818h.411Z" transform="translate(-941.003 -9764.402)" fill="#12263f"/>
    <path id="Trazado_201765" data-name="Trazado 201765" d="M14.642-8.793q0,4.6-1.572,6.839A5.59,5.59,0,0,1,8.156.283,5.631,5.631,0,0,1,3.271-1.9Q1.685-4.092,1.628-8.439v-3.5q0-4.545,1.572-6.754A5.633,5.633,0,0,1,8.128-20.9a5.684,5.684,0,0,1,4.9,2.131q1.572,2.131,1.614,6.577Zm-2.62-3.583a9.6,9.6,0,0,0-.935-4.85,3.217,3.217,0,0,0-2.959-1.522A3.174,3.174,0,0,0,5.2-17.233a9.372,9.372,0,0,0-.949,4.659v4.191a9.753,9.753,0,0,0,.97,4.935A3.211,3.211,0,0,0,8.156-1.855a3.167,3.167,0,0,0,2.882-1.5,9.4,9.4,0,0,0,.984-4.729Z" transform="translate(-941.003 -9683.567)" fill="#12263f"/>
    <path id="Trazado_201766" data-name="Trazado 201766" d="M10.323,0H7.689V-17.459L2.407-15.52V-17.9l7.5-2.818h.411Z" transform="translate(-941.44 -9603.65)" fill="#12263f"/>
    <path id="Trazado_201767" data-name="Trazado 201767" d="M10.323,0H7.689V-17.459L2.407-15.52V-17.9l7.5-2.818h.411Z" transform="translate(-944.496 -9523.354)" fill="#12263f"/>
    <path id="Trazado_201768" data-name="Trazado 201768" d="M15.222,0H1.713V-1.883L8.85-9.813a16.955,16.955,0,0,0,2.188-2.924,4.88,4.88,0,0,0,.6-2.329,3.7,3.7,0,0,0-.977-2.648,3.416,3.416,0,0,0-2.605-1.034A4.046,4.046,0,0,0,5.02-17.636a4.246,4.246,0,0,0-1.083,3.094H1.317a6.081,6.081,0,0,1,1.834-4.6A6.8,6.8,0,0,1,8.057-20.9,6.532,6.532,0,0,1,12.6-19.392a5.144,5.144,0,0,1,1.671,4.014q0,3.044-3.88,7.25L4.871-2.138H15.222Z" transform="translate(-941.44 -9437.008)" fill="#12263f"/>
    <path id="Trazado_201769" data-name="Trazado 201769" d="M2.917-10.337l1.048-10.28H14.528V-18.2H6.188l-.623,5.622a6.653,6.653,0,0,1,3.441-.892A5.688,5.688,0,0,1,13.48-11.6,7.3,7.3,0,0,1,15.137-6.57a7.044,7.044,0,0,1-1.72,5.02A6.271,6.271,0,0,1,8.609.283a6.517,6.517,0,0,1-4.46-1.515A6.048,6.048,0,0,1,2.181-5.423H4.659a4.16,4.16,0,0,0,1.26,2.669,3.919,3.919,0,0,0,2.69.9A3.535,3.535,0,0,0,11.477-3.1a5.209,5.209,0,0,0,1.041-3.441,4.781,4.781,0,0,0-1.126-3.321A3.829,3.829,0,0,0,8.4-11.116a4.319,4.319,0,0,0-2.69.75L5.013-9.8Z" transform="translate(-871.492 -9764.402)" fill="#12263f"/>
    <path id="Trazado_201770" data-name="Trazado 201770" d="M14.642-8.793q0,4.6-1.572,6.839A5.59,5.59,0,0,1,8.156.283,5.631,5.631,0,0,1,3.271-1.9Q1.685-4.092,1.628-8.439v-3.5q0-4.545,1.572-6.754A5.633,5.633,0,0,1,8.128-20.9a5.684,5.684,0,0,1,4.9,2.131q1.572,2.131,1.614,6.577Zm-2.62-3.583a9.6,9.6,0,0,0-.935-4.85,3.217,3.217,0,0,0-2.959-1.522A3.174,3.174,0,0,0,5.2-17.233a9.372,9.372,0,0,0-.949,4.659v4.191a9.753,9.753,0,0,0,.97,4.935A3.211,3.211,0,0,0,8.156-1.855a3.167,3.167,0,0,0,2.882-1.5,9.4,9.4,0,0,0,.984-4.729Z" transform="translate(-871.492 -9683.567)" fill="#12263f"/>
    <path id="Trazado_201771" data-name="Trazado 201771" d="M14.642-8.793q0,4.6-1.572,6.839A5.59,5.59,0,0,1,8.156.283,5.631,5.631,0,0,1,3.271-1.9Q1.685-4.092,1.628-8.439v-3.5q0-4.545,1.572-6.754A5.633,5.633,0,0,1,8.128-20.9a5.684,5.684,0,0,1,4.9,2.131q1.572,2.131,1.614,6.577Zm-2.62-3.583a9.6,9.6,0,0,0-.935-4.85,3.217,3.217,0,0,0-2.959-1.522A3.174,3.174,0,0,0,5.2-17.233a9.372,9.372,0,0,0-.949,4.659v4.191a9.753,9.753,0,0,0,.97,4.935A3.211,3.211,0,0,0,8.156-1.855a3.167,3.167,0,0,0,2.882-1.5,9.4,9.4,0,0,0,.984-4.729Z" transform="translate(-871.951 -9603.65)" fill="#12263f"/>
    <path id="Trazado_201772" data-name="Trazado 201772" d="M5.522-11.583H7.491a4.326,4.326,0,0,0,2.917-.977,3.264,3.264,0,0,0,1.062-2.563q0-3.625-3.611-3.625a3.756,3.756,0,0,0-2.712.97,3.4,3.4,0,0,0-1.012,2.57H1.515a5.259,5.259,0,0,1,1.791-4.071A6.525,6.525,0,0,1,7.859-20.9a6.448,6.448,0,0,1,4.574,1.543,5.576,5.576,0,0,1,1.657,4.291,4.526,4.526,0,0,1-.871,2.605,5.258,5.258,0,0,1-2.372,1.883,5.067,5.067,0,0,1,2.627,1.784A4.955,4.955,0,0,1,14.4-5.749a5.624,5.624,0,0,1-1.812,4.4A6.787,6.787,0,0,1,7.873.283,6.967,6.967,0,0,1,3.151-1.289a5.214,5.214,0,0,1-1.82-4.149H3.965A3.37,3.37,0,0,0,5.027-2.832a4.039,4.039,0,0,0,2.846.977,3.964,3.964,0,0,0,2.9-.991,3.82,3.82,0,0,0,1.005-2.846,3.466,3.466,0,0,0-1.1-2.761,4.812,4.812,0,0,0-3.186-.991H5.522Z" transform="translate(-875.166 -9523.354)" fill="#12263f"/>
    <path id="Trazado_201773" data-name="Trazado 201773" d="M10.323,0H7.689V-17.459L2.407-15.52V-17.9l7.5-2.818h.411Z" transform="translate(-871.951 -9437.008)" fill="#12263f"/>
    <path id="Trazado_201024" data-name="Trazado 201024" d="M0,0V409.18" transform="translate(-1132.929 -9813.192)" fill="none" stroke="#75b62f" stroke-linecap="round" stroke-width="2"/>
    <path id="Trazado_201026" data-name="Trazado 201026" d="M0,0V409.18" transform="translate(-1054.192 -9810.59)" fill="none" stroke="#75b62f" stroke-linecap="round" stroke-width="2"/>
    <path id="Trazado_201027" data-name="Trazado 201027" d="M0,0V409.18" transform="translate(-975.457 -9810.59)" fill="none" stroke="#75b62f" stroke-linecap="round" stroke-width="2"/>
    <path id="Trazado_201028" data-name="Trazado 201028" d="M0,0V409.18" transform="translate(-896.721 -9810.59)" fill="none" stroke="#75b62f" stroke-linecap="round" stroke-width="2"/>
    <path id="Trazado_201029" data-name="Trazado 201029" d="M0,0V409.18" transform="translate(-818.213 -9816.291)" fill="none" stroke="#dce736" stroke-linecap="round" stroke-width="1.098"/>
    <path id="Trazado_201774" data-name="Trazado 201774" d="M0,0H391.526" transform="translate(-1209.74 -9574.482)" fill="none" stroke="#75b62f" stroke-width="2"/>
    <path id="Trazado_201775" data-name="Trazado 201775" d="M0,0H389.689" transform="translate(-1208.821 -9734.695)" fill="none" stroke="#75b62f" stroke-width="2"/>
    <path id="Trazado_201776" data-name="Trazado 201776" d="M0,0H392.445" transform="translate(-1210.658 -9494.565)" fill="none" stroke="#75b62f" stroke-width="2"/>
    <path id="Trazado_201777" data-name="Trazado 201777" d="M0,0H392.445" transform="translate(-1211.577 -9401.41)" fill="none" stroke="#707070" stroke-width="1"/>
    <path id="Trazado_201778" data-name="Trazado 201778" d="M0,0H391.526" transform="translate(-1209.74 -9654.778)" fill="none" stroke="#75b62f" stroke-width="2"/>
    <path id="Trazado_201025" data-name="Trazado 201025" d="M0,0V409.18" transform="translate(-1211.577 -9813.192)" fill="none" stroke="#afafaf" stroke-linecap="round" stroke-width="1.098"/>
  </g>
</svg>
