<svg xmlns="http://www.w3.org/2000/svg" width="303.468" height="260.147" viewBox="0 0 303.468 260.147">
  <g id="Grupo_150145" data-name="Grupo 150145" transform="translate(852.414 8786.933)">
    <g id="Grupo_149441" data-name="Grupo 149441" transform="translate(-809.65 -8594.115)">
      <path id="Trazado_200728" data-name="Trazado 200728" d="M745.821,416.127H487.869a1.176,1.176,0,0,1,0-2.352H745.821a1.176,1.176,0,0,1,0,2.352Z" transform="translate(-486.693 -413.775)" fill="#c4c4c4"/>
    </g>
    <g id="Grupo_149443" data-name="Grupo 149443" transform="translate(-809.65 -8632.441)">
      <path id="Trazado_200729" data-name="Trazado 200729" d="M745.821,399.829H487.869a1.176,1.176,0,0,1,0-2.352H745.821a1.176,1.176,0,0,1,0,2.352Z" transform="translate(-486.693 -397.477)" fill="#c4c4c4"/>
    </g>
    <g id="Grupo_149445" data-name="Grupo 149445" transform="translate(-809.65 -8670.771)">
      <path id="Trazado_200730" data-name="Trazado 200730" d="M745.821,383.53H487.869a1.176,1.176,0,0,1,0-2.352H745.821a1.176,1.176,0,0,1,0,2.352Z" transform="translate(-486.693 -381.178)" fill="#c4c4c4"/>
    </g>
    <g id="Grupo_149447" data-name="Grupo 149447" transform="translate(-809.65 -8709.099)">
      <path id="Trazado_200731" data-name="Trazado 200731" d="M745.821,367.231H487.869a1.176,1.176,0,0,1,0-2.352H745.821a1.176,1.176,0,0,1,0,2.352Z" transform="translate(-486.693 -364.879)" fill="#c4c4c4"/>
    </g>
    <g id="Grupo_149449" data-name="Grupo 149449" transform="translate(-809.65 -8747.428)">
      <path id="Trazado_200732" data-name="Trazado 200732" d="M745.821,350.932H487.869a1.176,1.176,0,0,1,0-2.352H745.821a1.176,1.176,0,0,1,0,2.352Z" transform="translate(-486.693 -348.58)" fill="#c4c4c4"/>
    </g>
    <g id="Grupo_149451" data-name="Grupo 149451" transform="translate(-809.65 -8785.757)">
      <path id="Trazado_200733" data-name="Trazado 200733" d="M745.821,334.633H487.869a1.176,1.176,0,0,1,0-2.352H745.821a1.176,1.176,0,0,1,0,2.352Z" transform="translate(-486.693 -332.281)" fill="#c4c4c4"/>
    </g>
    <path id="Trazado_200734" data-name="Trazado 200734" d="M752.156,566.455H483.784a2.349,2.349,0,0,1-2.352-2.352V334.133a2.352,2.352,0,1,1,4.7,0V561.752H752.156a2.352,2.352,0,1,1,0,4.7Z" transform="translate(-1303.454 -9118.714)" fill="#75b62f"/>
    <g id="Grupo_149458" data-name="Grupo 149458" transform="translate(-849.87 -8580.349)">
      <g id="Grupo_149455" data-name="Grupo 149455" transform="translate(0 0.174)">
        <path id="Trazado_200735" data-name="Trazado 200735" d="M474.592,431.325h-1.6v-9.917l-2.709,1.648-.694-1.131,3.6-2.222h1.406Z" transform="translate(-469.59 -419.703)" fill="#c4c4c4"/>
      </g>
      <g id="Grupo_149456" data-name="Grupo 149456" transform="translate(7.869)">
        <path id="Trazado_200736" data-name="Trazado 200736" d="M480.715,425.623c0,3.852-1.282,6.006-3.89,6.006s-3.89-2.154-3.89-6.006,1.284-5.994,3.89-5.994S480.715,421.783,480.715,425.623Zm-6.112,0c0,3.422.767,4.738,2.222,4.738s2.222-1.317,2.222-4.738c0-3.405-.781-4.727-2.222-4.727S474.6,422.218,474.6,425.623Z" transform="translate(-472.936 -419.629)" fill="#c4c4c4"/>
      </g>
      <g id="Grupo_149457" data-name="Grupo 149457" transform="translate(17.564)">
        <path id="Trazado_200737" data-name="Trazado 200737" d="M484.838,425.623c0,3.852-1.286,6.006-3.89,6.006s-3.89-2.154-3.89-6.006,1.282-5.994,3.89-5.994S484.838,421.783,484.838,425.623Zm-6.112,0c0,3.422.762,4.738,2.222,4.738,1.437,0,2.222-1.317,2.222-4.738,0-3.405-.785-4.727-2.222-4.727C479.488,420.9,478.726,422.218,478.726,425.623Z" transform="translate(-477.059 -419.629)" fill="#c4c4c4"/>
      </g>
    </g>
    <g id="Grupo_149464" data-name="Grupo 149464" transform="translate(-852.203 -8618.731)">
      <g id="Grupo_149461" data-name="Grupo 149461">
        <path id="Trazado_200738" data-name="Trazado 200738" d="M475.615,406.484c0,2.173-1.392,3.716-4.95,7.276h5.225l-.193,1.34H468.84v-1.268c4.1-4.275,5.1-5.388,5.1-7.278a1.79,1.79,0,0,0-1.9-1.926,2.858,2.858,0,0,0-2.366,1.268l-1.075-.835a4.3,4.3,0,0,1,3.523-1.754A3.2,3.2,0,0,1,475.615,406.484Z" transform="translate(-468.598 -403.307)" fill="#c4c4c4"/>
      </g>
      <g id="Grupo_149462" data-name="Grupo 149462" transform="translate(9.117)">
        <path id="Trazado_200739" data-name="Trazado 200739" d="M480.254,409.3c0,3.854-1.282,6.008-3.89,6.008s-3.89-2.154-3.89-6.008,1.284-5.992,3.89-5.992S480.254,405.461,480.254,409.3Zm-6.112,0c0,3.422.767,4.741,2.222,4.741s2.222-1.319,2.222-4.741c0-3.4-.781-4.724-2.222-4.724S474.142,405.9,474.142,409.3Z" transform="translate(-472.475 -403.307)" fill="#c4c4c4"/>
      </g>
      <g id="Grupo_149463" data-name="Grupo 149463" transform="translate(18.813)">
        <path id="Trazado_200740" data-name="Trazado 200740" d="M484.377,409.3c0,3.854-1.286,6.008-3.89,6.008s-3.89-2.154-3.89-6.008,1.282-5.992,3.89-5.992S484.377,405.461,484.377,409.3Zm-6.112,0c0,3.422.762,4.741,2.222,4.741,1.437,0,2.222-1.319,2.222-4.741,0-3.4-.785-4.724-2.222-4.724C479.027,404.574,478.265,405.9,478.265,409.3Z" transform="translate(-476.598 -403.307)" fill="#c4c4c4"/>
      </g>
    </g>
    <g id="Grupo_149470" data-name="Grupo 149470" transform="translate(-852.414 -8657.107)">
      <g id="Grupo_149467" data-name="Grupo 149467">
        <path id="Trazado_200741" data-name="Trazado 200741" d="M475.593,389.937a2.668,2.668,0,0,1-2.255,2.679,2.676,2.676,0,0,1,2.624,2.81c0,2.034-1.547,3.565-3.965,3.565a4.378,4.378,0,0,1-3.49-1.566l.959-.886a3.258,3.258,0,0,0,2.481,1.148,2.155,2.155,0,0,0,2.347-2.274c0-1.6-.905-2.084-2.312-2.084h-.868l.188-1.237h.593a1.952,1.952,0,0,0,2.1-2.048,1.732,1.732,0,0,0-1.926-1.773,3.282,3.282,0,0,0-2.4,1.044l-.837-.957a4.715,4.715,0,0,1,3.323-1.369C474.378,386.988,475.593,388.375,475.593,389.937Z" transform="translate(-468.508 -386.988)" fill="#c4c4c4"/>
      </g>
      <g id="Grupo_149468" data-name="Grupo 149468" transform="translate(9.364)">
        <path id="Trazado_200742" data-name="Trazado 200742" d="M480.271,392.978c0,3.859-1.286,6.013-3.89,6.013s-3.892-2.154-3.892-6.013,1.286-5.99,3.892-5.99S480.271,389.142,480.271,392.978Zm-6.114,0c0,3.422.762,4.741,2.225,4.741,1.442,0,2.222-1.319,2.222-4.741,0-3.4-.781-4.722-2.222-4.722C474.919,388.255,474.157,389.575,474.157,392.978Z" transform="translate(-472.49 -386.988)" fill="#c4c4c4"/>
      </g>
      <g id="Grupo_149469" data-name="Grupo 149469" transform="translate(19.055)">
        <path id="Trazado_200743" data-name="Trazado 200743" d="M484.392,392.978c0,3.859-1.286,6.013-3.89,6.013s-3.892-2.154-3.892-6.013,1.286-5.99,3.892-5.99S484.392,389.142,484.392,392.978Zm-6.114,0c0,3.422.764,4.741,2.225,4.741,1.442,0,2.222-1.319,2.222-4.741,0-3.4-.781-4.722-2.222-4.722C479.042,388.255,478.278,389.575,478.278,392.978Z" transform="translate(-476.611 -386.988)" fill="#c4c4c4"/>
      </g>
    </g>
    <g id="Grupo_149476" data-name="Grupo 149476" transform="translate(-852.268 -8695.486)">
      <g id="Grupo_149473" data-name="Grupo 149473">
        <path id="Trazado_200744" data-name="Trazado 200744" d="M476.594,379.592h-1.51v2.867h-1.543v-2.867H468.57v-1.143l3.492-7.781,1.34.555-3.146,7.1h3.3l.139-3.123h1.387v3.123h1.51Z" transform="translate(-468.57 -370.668)" fill="#c4c4c4"/>
      </g>
      <g id="Grupo_149474" data-name="Grupo 149474" transform="translate(9.503)">
        <path id="Trazado_200745" data-name="Trazado 200745" d="M480.392,376.658c0,3.857-1.282,6.011-3.89,6.011s-3.892-2.154-3.892-6.011,1.286-5.99,3.892-5.99S480.392,372.822,480.392,376.658Zm-6.114,0c0,3.422.767,4.739,2.225,4.739,1.442,0,2.222-1.317,2.222-4.739,0-3.405-.781-4.722-2.222-4.722C475.045,371.936,474.278,373.252,474.278,376.658Z" transform="translate(-472.611 -370.668)" fill="#c4c4c4"/>
      </g>
      <g id="Grupo_149475" data-name="Grupo 149475" transform="translate(19.199)">
        <path id="Trazado_200746" data-name="Trazado 200746" d="M484.515,376.658c0,3.857-1.286,6.011-3.89,6.011s-3.892-2.154-3.892-6.011,1.281-5.99,3.892-5.99S484.515,372.822,484.515,376.658Zm-6.114,0c0,3.422.764,4.739,2.225,4.739,1.437,0,2.222-1.317,2.222-4.739,0-3.405-.786-4.722-2.222-4.722C479.166,371.936,478.4,373.252,478.4,376.658Z" transform="translate(-476.734 -370.668)" fill="#c4c4c4"/>
      </g>
    </g>
    <g id="Grupo_149482" data-name="Grupo 149482" transform="translate(-852.24 -8733.864)">
      <g id="Grupo_149479" data-name="Grupo 149479" transform="translate(0 0.174)">
        <path id="Trazado_200747" data-name="Trazado 200747" d="M475.425,355.671h-4.534v3.422a4.034,4.034,0,0,1,1.86-.449c1.961,0,3.3,1.373,3.3,3.678a3.786,3.786,0,0,1-4.028,3.927,4.556,4.556,0,0,1-3.44-1.474l.974-.941a3.124,3.124,0,0,0,2.448,1.11c1.46,0,2.38-.955,2.38-2.655,0-1.79-.92-2.415-2.119-2.415a3.673,3.673,0,0,0-1.648.4h-1.249v-5.851h6.284Z" transform="translate(-468.582 -354.422)" fill="#c4c4c4"/>
      </g>
      <g id="Grupo_149480" data-name="Grupo 149480" transform="translate(9.209)">
        <path id="Trazado_200748" data-name="Trazado 200748" d="M480.279,360.34c0,3.854-1.286,6.008-3.892,6.008s-3.89-2.154-3.89-6.008,1.286-5.992,3.89-5.992S480.279,356.5,480.279,360.34Zm-6.114,0c0,3.424.762,4.741,2.222,4.741,1.444,0,2.225-1.317,2.225-4.741,0-3.4-.781-4.724-2.225-4.724C474.927,355.615,474.165,356.937,474.165,360.34Z" transform="translate(-472.498 -354.348)" fill="#c4c4c4"/>
      </g>
      <g id="Grupo_149481" data-name="Grupo 149481" transform="translate(18.9)">
        <path id="Trazado_200749" data-name="Trazado 200749" d="M484.4,360.34c0,3.854-1.286,6.008-3.892,6.008s-3.89-2.154-3.89-6.008,1.286-5.992,3.89-5.992S484.4,356.5,484.4,360.34Zm-6.114,0c0,3.424.762,4.741,2.222,4.741,1.444,0,2.225-1.317,2.225-4.741,0-3.4-.781-4.724-2.225-4.724C479.048,355.615,478.286,356.937,478.286,360.34Z" transform="translate(-476.619 -354.348)" fill="#c4c4c4"/>
      </g>
    </g>
    <g id="Grupo_149488" data-name="Grupo 149488" transform="translate(-852.014 -8772.249)">
      <g id="Grupo_149485" data-name="Grupo 149485">
        <path id="Trazado_200750" data-name="Trazado 200750" d="M476.288,345.879c0,2.535-1.653,4.148-3.7,4.148-2.829,0-3.908-2.323-3.908-5.658,0-3.81,1.653-6.345,4.4-6.345a4.226,4.226,0,0,1,2.4.713l-.623,1.061a3.427,3.427,0,0,0-1.792-.506c-1.681,0-2.69,1.754-2.78,4.414a3.272,3.272,0,0,1,2.8-1.529C474.776,342.178,476.288,343.4,476.288,345.879Zm-1.616.052c0-1.844-.781-2.486-1.879-2.486a3,3,0,0,0-2.5,1.6c.071,2.535.75,3.716,2.293,3.716C473.96,348.76,474.672,347.629,474.672,345.931Z" transform="translate(-468.678 -338.025)" fill="#c4c4c4"/>
      </g>
      <g id="Grupo_149486" data-name="Grupo 149486" transform="translate(9.258)">
        <path id="Trazado_200751" data-name="Trazado 200751" d="M480.4,344.019c0,3.854-1.282,6.008-3.89,6.008s-3.892-2.154-3.892-6.008,1.286-5.994,3.892-5.994S480.4,340.179,480.4,344.019Zm-6.114,0c0,3.422.767,4.741,2.225,4.741,1.442,0,2.222-1.319,2.222-4.741,0-3.4-.781-4.727-2.222-4.727C475.049,339.292,474.282,340.617,474.282,344.019Z" transform="translate(-472.615 -338.025)" fill="#c4c4c4"/>
      </g>
      <g id="Grupo_149487" data-name="Grupo 149487" transform="translate(18.954)">
        <path id="Trazado_200752" data-name="Trazado 200752" d="M484.519,344.019c0,3.854-1.286,6.008-3.89,6.008s-3.892-2.154-3.892-6.008,1.281-5.994,3.892-5.994S484.519,340.179,484.519,344.019Zm-6.114,0c0,3.422.762,4.741,2.225,4.741,1.437,0,2.222-1.319,2.222-4.741,0-3.4-.785-4.727-2.222-4.727C479.167,339.292,478.405,340.617,478.405,344.019Z" transform="translate(-476.738 -338.025)" fill="#c4c4c4"/>
      </g>
    </g>
    <g id="Grupo_149492" data-name="Grupo 149492" transform="translate(-786.738 -8538.819)">
      <g id="Grupo_149491" data-name="Grupo 149491">
        <path id="Trazado_200753" data-name="Trazado 200753" d="M502.842,449.028h-2.69v-9.066l-2.519,1.547-1.2-1.823,3.958-2.4h2.448Z" transform="translate(-496.436 -437.289)" fill="#c4c4c4"/>
      </g>
    </g>
    <g id="Grupo_149496" data-name="Grupo 149496" transform="translate(-735.589 -8539.063)">
      <g id="Grupo_149495" data-name="Grupo 149495">
        <path id="Trazado_200754" data-name="Trazado 200754" d="M526.262,440.538c0,1.825-.9,3.193-4.564,6.528h4.809l-.277,2.1h-7.643v-1.947c3.941-3.89,4.865-4.945,4.865-6.408a1.411,1.411,0,0,0-1.512-1.528,2.61,2.61,0,0,0-2.121,1.218l-1.632-1.286a4.894,4.894,0,0,1,4.028-2.032C524.84,437.185,526.262,438.716,526.262,440.538Z" transform="translate(-518.187 -437.185)" fill="#c4c4c4"/>
      </g>
    </g>
    <g id="Grupo_149500" data-name="Grupo 149500" transform="translate(-686.4 -8539.063)">
      <g id="Grupo_149499" data-name="Grupo 149499">
        <path id="Trazado_200755" data-name="Trazado 200755" d="M547.229,440.171a2.818,2.818,0,0,1-2.293,2.8,2.725,2.725,0,0,1,2.674,2.883c0,1.961-1.58,3.61-4.48,3.61a4.974,4.974,0,0,1-4.026-1.773l1.472-1.437a3.184,3.184,0,0,0,2.4,1.126,1.648,1.648,0,0,0,1.823-1.7c0-1.237-.68-1.686-1.91-1.686h-.974l.294-1.893h.68a1.48,1.48,0,0,0,1.686-1.529c0-.849-.611-1.354-1.566-1.354a3.183,3.183,0,0,0-2.293,1.023l-1.354-1.474a5.519,5.519,0,0,1,3.958-1.58C545.855,437.185,547.229,438.523,547.229,440.171Z" transform="translate(-539.104 -437.185)" fill="#c4c4c4"/>
      </g>
    </g>
    <g id="Grupo_149504" data-name="Grupo 149504" transform="translate(-641.555 -8539.118)">
      <g id="Grupo_149503" data-name="Grupo 149503">
        <path id="Trazado_200756" data-name="Trazado 200756" d="M567.134,446.665h-1.322V449.2h-2.674l-.019-2.535h-4.945v-1.823l3.334-7.68,2.323.872L561,444.617h2.154l.294-2.78h2.361v2.78h1.322Z" transform="translate(-558.174 -437.162)" fill="#c4c4c4"/>
      </g>
    </g>
    <g id="Grupo_149508" data-name="Grupo 149508" transform="translate(-589.833 -8538.819)">
      <g id="Grupo_149507" data-name="Grupo 149507">
        <path id="Trazado_200757" data-name="Trazado 200757" d="M587.83,439.25h-4.259v2.467a4.031,4.031,0,0,1,1.74-.381c1.926,0,3.368,1.387,3.368,3.821,0,2.479-1.8,4.165-4.6,4.165a4.912,4.912,0,0,1-3.908-1.773l1.547-1.423a2.8,2.8,0,0,0,2.255,1.129c1.185,0,1.9-.729,1.9-2.084,0-1.458-.68-1.961-1.653-1.961a2.766,2.766,0,0,0-1.406.416h-1.86v-6.338h7.194Z" transform="translate(-580.168 -437.289)" fill="#c4c4c4"/>
      </g>
    </g>
    <g id="Trazado_201989" data-name="Trazado 201989" transform="translate(-780.414 -8646.859)" fill="#dce736">
      <path d="M 77.5 14.5 L 0.5 14.5 L 0.5 0.5 L 77.5 0.5 L 77.5 14.5 Z" stroke="none"/>
      <path d="M 1 1 L 1 14 L 77 14 L 77 1 L 1 1 M 0 0 L 78 0 L 78 15 L 0 15 L 0 0 Z" stroke="none" fill="#707070"/>
    </g>
    <g id="Trazado_201990" data-name="Trazado 201990" transform="translate(-780.414 -8631.859)" fill="#dce736">
      <path d="M 77.5 14.5 L 0.5 14.5 L 0.5 0.5 L 77.5 0.5 L 77.5 14.5 Z" stroke="none"/>
      <path d="M 1 1 L 1 14 L 77 14 L 77 1 L 1 1 M 0 0 L 78 0 L 78 15 L 0 15 L 0 0 Z" stroke="none" fill="#707070"/>
    </g>
    <g id="Trazado_201991" data-name="Trazado 201991" transform="translate(-731.414 -8722.859)" fill="#dce736">
      <path d="M 77.5 26.5 L 0.5 26.5 L 0.5 0.5 L 77.5 0.5 L 77.5 26.5 Z" stroke="none"/>
      <path d="M 1 1 L 1 26 L 77 26 L 77 1 L 1 1 M 0 0 L 78 0 L 78 27 L 0 27 L 0 0 Z" stroke="none" fill="#707070"/>
    </g>
    <g id="Trazado_201992" data-name="Trazado 201992" transform="translate(-731.414 -8695.859)" fill="#dce736">
      <path d="M 77.5 24.5 L 0.5 24.5 L 0.5 0.5 L 77.5 0.5 L 77.5 24.5 Z" stroke="none"/>
      <path d="M 1 1 L 1 24 L 77 24 L 77 1 L 1 1 M 0 0 L 78 0 L 78 25 L 0 25 L 0 0 Z" stroke="none" fill="#707070"/>
    </g>
    <g id="Trazado_201993" data-name="Trazado 201993" transform="translate(-641.414 -8750.859)" fill="#75b62f">
      <path d="M 77.5 34.5 L 0.5 34.5 L 0.5 0.5 L 77.5 0.5 L 77.5 34.5 Z" stroke="none"/>
      <path d="M 1 1 L 1 34 L 77 34 L 77 1 L 1 1 M 0 0 L 78 0 L 78 35 L 0 35 L 0 0 Z" stroke="none" fill="#707070"/>
    </g>
    <g id="Trazado_201994" data-name="Trazado 201994" transform="translate(-641.414 -8715.859)" fill="#75b62f">
      <path d="M 77.5 35.5 L 0.5 35.5 L 0.5 0.5 L 77.5 0.5 L 77.5 35.5 Z" stroke="none"/>
      <path d="M 1 1 L 1 35 L 77 35 L 77 1 L 1 1 M 0 0 L 78 0 L 78 36 L 0 36 L 0 0 Z" stroke="none" fill="#707070"/>
    </g>
    <path id="Trazado_200758" data-name="Trazado 200758" d="M-680-4908.006v0" transform="translate(76.586 -3736.859)" fill="none" stroke="#707070" stroke-width="1"/>
    <path id="Trazado_200759" data-name="Trazado 200759" d="M-680-4908.006v0" transform="translate(76.586 -3842.859)" fill="none" stroke="#707070" stroke-width="1"/>
    <path id="Trazado_200760" data-name="Trazado 200760" d="M-680-4918.006v0" transform="translate(-11.414 -3726.859)" fill="none" stroke="#707070" stroke-width="1"/>
    <path id="Trazado_200761" data-name="Trazado 200761" d="M-680-4911.8v0" transform="translate(-11.414 -3811.065)" fill="none" stroke="#707070" stroke-width="1"/>
    <path id="Trazado_200762" data-name="Trazado 200762" d="M-680-4925.642v0" transform="translate(-62.414 -3672.859)" fill="none" stroke="#707070" stroke-width="1"/>
    <path id="Trazado_200763" data-name="Trazado 200763" d="M-680-4912.29v0" transform="translate(-62.414 -3734.575)" fill="none" stroke="#707070" stroke-width="1"/>
  </g>
</svg>
