<svg xmlns="http://www.w3.org/2000/svg" width="150" height="150" viewBox="0 0 150 150">
  <g id="Grupo_150160" data-name="Grupo 150160" transform="translate(-3523 9225.706)">
    <g id="Grupo_150061" data-name="Grupo 150061" transform="translate(2588 -16360.706)">
      <g id="Elipse_5972" data-name="Elipse 5972" transform="translate(935 7135)" fill="#fff" stroke="#77b43a" stroke-width="4">
        <circle cx="75" cy="75" r="75" stroke="none"/>
        <circle cx="75" cy="75" r="73" fill="none"/>
      </g>
      <g id="Grupo_149661" data-name="Grupo 149661" transform="translate(876.785 6827.531)">
        <g id="Grupo_149659" data-name="Grupo 149659" transform="translate(104.294 369.245)">
          <path id="Trazado_201048" data-name="Trazado 201048" d="M138.581,386.984l2.885,5.836,5.037,2.086,6.167-2.087c2.424,2.424,2.823,2.822,5.245,5.246l-2.086,6.167,2.086,5.036,5.836,2.885v7.42l-5.837,2.883-2.086,5.036,2.088,6.167-5.246,5.246-6.167-2.088-5.037,2.087-2.885,5.836h-7.415l-2.885-5.836-5.035-2.087-6.167,2.088-5.246-5.246,2.088-6.167-2.087-5.036-5.84-2.883v-7.42l5.836-2.885,2.086-5.036-2.087-6.167c2.423-2.424,2.822-2.823,5.246-5.246l6.167,2.087,5.036-2.086,2.889-5.836Z" transform="translate(-105.994 -386.984)" fill="#75b62f"/>
          <circle id="Elipse_12656" data-name="Elipse 12656" cx="17.128" cy="17.128" r="17.128" transform="translate(11.75 11.75)" fill="#dce736"/>
          <path id="Trazado_201049" data-name="Trazado 201049" d="M152.554,429.874a4.289,4.289,0,1,1-4.289-4.288h0A4.289,4.289,0,0,1,152.554,429.874Z" transform="translate(-119.337 -400.545)" fill="#3d46c2"/>
        </g>
        <g id="Grupo_149660" data-name="Grupo 149660" transform="translate(101.154 336.487)">
          <path id="Trazado_201050" data-name="Trazado 201050" d="M184.813,423.086l-2.3-1.134a1.448,1.448,0,0,0-1.281,2.6l1.489.736v5.622l-5.026,2.483a1.453,1.453,0,0,0-.7.745l-2.086,5.04a1.436,1.436,0,0,0-.033,1.017l1.8,5.313-3.973,3.972-5.314-1.8a1.446,1.446,0,0,0-1.021.035l-1.36.56a1.448,1.448,0,0,0,1.1,2.678l.865-.355,5.652,1.912a1.478,1.478,0,0,0,.463.076,1.447,1.447,0,0,0,1.026-.421l5.247-5.247a1.448,1.448,0,0,0,.347-1.49l-1.911-5.65,1.669-4.034,5.345-2.638a1.448,1.448,0,0,0,.808-1.3v-7.424a1.447,1.447,0,0,0-.808-1.3Z" transform="translate(-123.279 -366.462)"/>
          <path id="Trazado_201051" data-name="Trazado 201051" d="M182.136,399.416l-5.247-5.247a1.447,1.447,0,0,0-1.489-.348l-2.384.8a1.449,1.449,0,1,0,.928,2.746l1.534-.516,3.972,3.973-1.794,5.315a1.441,1.441,0,0,0,.033,1.018c.166.406.366.881.54,1.316a1.448,1.448,0,1,0,2.69-1.076c-.108-.27-.223-.549-.345-.845l1.911-5.65a1.447,1.447,0,0,0-.347-1.489Z" transform="translate(-126.053 -356.602)"/>
          <path id="Trazado_201052" data-name="Trazado 201052" d="M139.548,440.422a1.45,1.45,0,0,0-1.942.653l-.709,1.43H131.27l-2.483-5.027a1.45,1.45,0,0,0-.745-.7L123,434.7a1.45,1.45,0,0,0-1.018-.034l-5.314,1.8-3.972-3.973,1.8-5.314a1.442,1.442,0,0,0-.032-1.012c-.5-1.233-.894-2.169-1.317-3.188l-.771-1.857a1.444,1.444,0,0,0-.7-.745l-5.027-2.483v-5.627l5.027-2.483a1.444,1.444,0,0,0,.7-.745l.771-1.857c.423-1.018.813-1.955,1.317-3.188a1.442,1.442,0,0,0,.032-1.012l-1.8-5.314,3.972-3.973,5.314,1.8a1.453,1.453,0,0,0,1.018-.034l5.04-2.085a1.451,1.451,0,0,0,.745-.7l2.483-5.027H136.9l2.489,5.029a1.444,1.444,0,0,0,.753.7c.083.036,1.1.459,1.364.56a1.448,1.448,0,0,0,1.059-2.7h0c-.234-.091-.473-.191-.723-.3l-.1-.041-2.648-5.347a1.449,1.449,0,0,0-1.3-.805h-7.423a1.447,1.447,0,0,0-1.3.807l-2.639,5.346L122.4,392.57l-5.651-1.912a1.45,1.45,0,0,0-1.489.348l-5.246,5.247a1.447,1.447,0,0,0-.347,1.489l1.911,5.653c-.406.989-.745,1.8-1.106,2.673l-.563,1.357-5.346,2.638a1.449,1.449,0,0,0-.808,1.3v7.423a1.45,1.45,0,0,0,.808,1.3l5.346,2.638.563,1.357c.363.873.7,1.684,1.106,2.673l-1.911,5.653a1.447,1.447,0,0,0,.347,1.489l5.248,5.248a1.45,1.45,0,0,0,1.489.348l5.651-1.912,4.034,1.669,2.639,5.345a1.447,1.447,0,0,0,1.3.808H137.8a1.447,1.447,0,0,0,1.3-.8l1.109-2.234a1.449,1.449,0,0,0-.651-1.942Z" transform="translate(-102.068 -353.441)"/>
          <path id="Trazado_201053" data-name="Trazado 201053" d="M140.45,402.864a18.577,18.577,0,1,0,18.576,18.577,18.577,18.577,0,0,0-18.576-18.577Zm0,34.257a15.68,15.68,0,1,1,15.68-15.68h0a15.7,15.7,0,0,1-15.68,15.68Z" transform="translate(-108.433 -359.805)"/>
          <path id="Trazado_201054" data-name="Trazado 201054" d="M144.429,342.9l1.639-1.572V362.69a1.448,1.448,0,1,0,2.9,0v-21.41l1.688,1.616a1.449,1.449,0,0,0,2-2.094l-4.088-3.912a1.511,1.511,0,0,0-2.052,0l-4.089,3.912a1.449,1.449,0,0,0,2,2.094Z" transform="translate(-115.504 -336.488)"/>
          <path id="Trazado_201055" data-name="Trazado 201055" d="M164.843,350.2l1.637-1.567v21.36a1.448,1.448,0,0,0,2.9,0h0V348.586l1.689,1.615a1.448,1.448,0,1,0,2-2.093l-4.087-3.913a1.514,1.514,0,0,0-2.053,0l-4.087,3.913a1.448,1.448,0,1,0,2,2.093Z" transform="translate(-122.667 -339.054)"/>
          <path id="Trazado_201056" data-name="Trazado 201056" d="M124,350.2l1.639-1.567V370a1.448,1.448,0,0,0,2.9,0h0V348.587l1.688,1.615a1.448,1.448,0,1,0,2-2.093l-4.089-3.913a1.515,1.515,0,0,0-2.052,0L122,348.109a1.448,1.448,0,0,0,2,2.093Z" transform="translate(-108.324 -339.055)"/>
          <path id="Trazado_201057" data-name="Trazado 201057" d="M105.219,360.406v21.361a1.448,1.448,0,1,0,2.9,0V360.358l1.688,1.615a1.449,1.449,0,1,0,2.052-2.047c-.016-.016-.032-.032-.049-.047l-4.087-3.911a1.515,1.515,0,0,0-2.053,0l-4.088,3.911a1.449,1.449,0,0,0,2,2.093Z" transform="translate(-101.154 -343.19)"/>
          <path id="Trazado_201058" data-name="Trazado 201058" d="M193.5,359.88l-4.087-3.911a1.513,1.513,0,0,0-2.053,0l-4.087,3.911a1.449,1.449,0,0,0,2,2.093l1.637-1.567v21.361a1.448,1.448,0,1,0,2.9,0V360.358l1.689,1.615a1.449,1.449,0,1,0,2.052-2.047c-.016-.016-.032-.032-.049-.047Z" transform="translate(-129.855 -343.19)"/>
          <path id="Trazado_201059" data-name="Trazado 201059" d="M154.733,429.923l-2.024-1.618a5.715,5.715,0,0,0-2.076-7.113l1.63-4.79a1.447,1.447,0,1,0-2.741-.932l-1.631,4.79c-.139-.01-.277-.022-.418-.022a5.738,5.738,0,1,0,3.425,10.329l2.028,1.62a1.448,1.448,0,1,0,1.808-2.263Zm-10.1-3.947a2.84,2.84,0,1,1,2.84,2.84h0A2.842,2.842,0,0,1,144.632,425.976Z" transform="translate(-115.404 -363.889)"/>
        </g>
      </g>
    </g>
  </g>
</svg>
