<svg xmlns="http://www.w3.org/2000/svg" width="74.895" height="107.714" viewBox="0 0 74.895 107.714">
  <g id="Grupo_150165" data-name="Grupo 150165" transform="translate(-3252.955 8674.706)">
    <g id="Grupo_150100" data-name="Grupo 150100" transform="translate(-4692.272 -8437.991)">
      <g id="Grupo_150054" data-name="Grupo 150054" transform="translate(7867.228 -650.917)">
        <path id="Trazado_201115" data-name="Trazado 201115" d="M91.371,427.87v-6.311a2.1,2.1,0,0,1,2.1-2.1h41.34a2.1,2.1,0,0,1,2.1,2.1v6.311Z" transform="translate(1.356 0.533)" fill="#604837"/>
        <path id="Trazado_201116" data-name="Trazado 201116" d="M133.5,421.559v6.311h-6.311v-6.311a2.1,2.1,0,0,0-2.1-2.1H131.4A2.1,2.1,0,0,1,133.5,421.559Z" transform="translate(4.774 0.533)" fill="#423733"/>
        <path id="Trazado_201117" data-name="Trazado 201117" d="M79.433,501.208v6.1a4.207,4.207,0,0,0,4.207,4.207h63.324a4.207,4.207,0,0,0,4.207-4.207v-6.1Z" transform="translate(0.145 8.822)" fill="#ccc"/>
        <path id="Trazado_201118" data-name="Trazado 201118" d="M83.64,425.185a4.208,4.208,0,0,0-4.207,4.208v79.313a4.207,4.207,0,0,0,4.207,4.207h63.324a4.207,4.207,0,0,0,4.207-4.207V429.393a4.208,4.208,0,0,0-4.207-4.208Z" transform="translate(0.145 1.114)" fill="#fff"/>
        <path id="Trazado_201119" data-name="Trazado 201119" d="M116.8,437.3h-7.578a4.209,4.209,0,0,1-4.131-3.405l-3.059-15.759a2.1,2.1,0,0,1,2.065-2.5h17.827a2.1,2.1,0,0,1,2.065,2.5L120.934,433.9A4.209,4.209,0,0,1,116.8,437.3Z" transform="translate(2.433 0.145)" fill="#dce736"/>
        <path id="Trazado_201120" data-name="Trazado 201120" d="M99.024,456.43H91.66a2.1,2.1,0,0,1-2.1-2.1v-7.363a2.1,2.1,0,0,1,2.1-2.1h7.364a2.1,2.1,0,0,1,2.1,2.1v7.363A2.1,2.1,0,0,1,99.024,456.43Z" transform="translate(1.172 3.109)" fill="#75b62f"/>
        <path id="Trazado_201121" data-name="Trazado 201121" d="M99.024,475.531H91.66a2.1,2.1,0,0,1-2.1-2.1v-7.363a2.1,2.1,0,0,1,2.1-2.1h7.364a2.1,2.1,0,0,1,2.1,2.1v7.363A2.1,2.1,0,0,1,99.024,475.531Z" transform="translate(1.172 5.045)" fill="#75b62f"/>
        <path id="Trazado_201122" data-name="Trazado 201122" d="M99.024,494.632H91.66a2.1,2.1,0,0,1-2.1-2.1v-7.363a2.1,2.1,0,0,1,2.1-2.1h7.364a2.1,2.1,0,0,1,2.1,2.1v7.363A2.1,2.1,0,0,1,99.024,494.632Z" transform="translate(1.172 6.982)" fill="#75b62f"/>
        <path id="Trazado_201123" data-name="Trazado 201123" d="M145.535,501.208v6.1a4.206,4.206,0,0,1-4.207,4.207l-6.311-.006a4.207,4.207,0,0,0,4.207-4.207v-2.1h2.1a4.206,4.206,0,0,0,4.2-4Z" transform="translate(5.781 8.822)" fill="#a0a0a0"/>
        <path id="Trazado_201124" data-name="Trazado 201124" d="M145.515,429.393v79.313c0,.069,0,.141-.007.21a4.206,4.206,0,0,1-4.2,4h-2.1v-4H139.2c0-.07.007-.142.007-.21V429.387a4.206,4.206,0,0,0-3.99-4.2h6.094A4.206,4.206,0,0,1,145.515,429.393Z" transform="translate(5.801 1.114)" fill="#ccc"/>
        <path id="Trazado_201125" data-name="Trazado 201125" d="M151.317,445.128a1.579,1.579,0,0,0,1.578-1.578V430.507a5.792,5.792,0,0,0-5.786-5.786h-7.258v-2.63a3.686,3.686,0,0,0-3.681-3.682H128a3.673,3.673,0,0,0-3.639-4.207H106.534a3.674,3.674,0,0,0-3.639,4.207H94.83a3.687,3.687,0,0,0-3.682,3.682v2.63H83.786A5.792,5.792,0,0,0,78,430.507v85.624a5.792,5.792,0,0,0,5.786,5.786h6.942a1.578,1.578,0,1,0,0-3.155H83.786a2.633,2.633,0,0,1-2.63-2.63V514.97a5.742,5.742,0,0,0,2.63.636h63.324a5.742,5.742,0,0,0,2.63-.636v1.161a2.633,2.633,0,0,1-2.63,2.63H98.092a1.578,1.578,0,1,0,0,3.155h49.018a5.792,5.792,0,0,0,5.786-5.786V450.914a1.578,1.578,0,1,0-3.156,0V509.82a2.632,2.632,0,0,1-2.63,2.629H83.786a2.632,2.632,0,0,1-2.63-2.629V430.507a2.633,2.633,0,0,1,2.63-2.63h20.938l1.256,6.467a5.8,5.8,0,0,0,5.68,4.683h7.578a5.8,5.8,0,0,0,5.68-4.683l1.256-6.467h20.938a2.633,2.633,0,0,1,2.63,2.63V443.55A1.579,1.579,0,0,0,151.317,445.128ZM94.3,424.721v-2.63a.527.527,0,0,1,.526-.525H103.5l.613,3.155Zm27.514,9.022a2.634,2.634,0,0,1-2.582,2.128h-7.578a2.634,2.634,0,0,1-2.582-2.128l-3.06-15.759a.526.526,0,0,1,.517-.627h17.827a.526.526,0,0,1,.517.627Zm4.966-9.022.613-3.155h8.773a.526.526,0,0,1,.525.525v2.63Z"/>
        <path id="Trazado_201126" data-name="Trazado 201126" d="M102.85,447.109a3.686,3.686,0,0,0-3.681-3.682H91.8a3.686,3.686,0,0,0-3.681,3.682v7.363a3.686,3.686,0,0,0,3.681,3.682h7.364a3.686,3.686,0,0,0,3.681-3.682Zm-3.156,7.363a.527.527,0,0,1-.525.526H91.8a.527.527,0,0,1-.525-.526v-7.363a.526.526,0,0,1,.525-.526h7.364a.526.526,0,0,1,.525.526Z" transform="translate(1.027 2.963)"/>
        <path id="Trazado_201127" data-name="Trazado 201127" d="M137.493,446.1h-30.5a1.578,1.578,0,1,0,0,3.155h30.5a1.578,1.578,0,1,0,0-3.155Z" transform="translate(2.779 3.234)"/>
        <path id="Trazado_201128" data-name="Trazado 201128" d="M106.988,454.8H115.4a1.578,1.578,0,1,0,0-3.157h-8.415a1.578,1.578,0,1,0,0,3.157Z" transform="translate(2.779 3.796)"/>
        <path id="Trazado_201129" data-name="Trazado 201129" d="M129.729,454.8a1.578,1.578,0,1,0,0-3.157h-8.415a1.578,1.578,0,1,0,0,3.157Z" transform="translate(4.232 3.796)"/>
        <path id="Trazado_201130" data-name="Trazado 201130" d="M102.85,466.21a3.686,3.686,0,0,0-3.681-3.682H91.8a3.686,3.686,0,0,0-3.681,3.682v7.363a3.686,3.686,0,0,0,3.681,3.682h7.364a3.686,3.686,0,0,0,3.681-3.682Zm-3.156,7.363a.526.526,0,0,1-.525.526H91.8a.526.526,0,0,1-.525-.526V466.21a.526.526,0,0,1,.525-.526h7.364a.526.526,0,0,1,.525.526Z" transform="translate(1.027 4.9)"/>
        <path id="Trazado_201131" data-name="Trazado 201131" d="M137.493,465.011h-30.5a1.578,1.578,0,1,0,0,3.156h30.5a1.578,1.578,0,1,0,0-3.156Z" transform="translate(2.779 5.152)"/>
        <path id="Trazado_201132" data-name="Trazado 201132" d="M106.988,473.9H115.4a1.578,1.578,0,1,0,0-3.155h-8.415a1.578,1.578,0,1,0,0,3.155Z" transform="translate(2.779 5.733)"/>
        <path id="Trazado_201133" data-name="Trazado 201133" d="M129.729,473.9a1.578,1.578,0,1,0,0-3.155h-8.415a1.578,1.578,0,1,0,0,3.155Z" transform="translate(4.232 5.733)"/>
        <path id="Trazado_201134" data-name="Trazado 201134" d="M99.169,481.629H91.8a3.686,3.686,0,0,0-3.681,3.682v7.363a3.686,3.686,0,0,0,3.681,3.682h7.364a3.686,3.686,0,0,0,3.681-3.682v-7.363A3.686,3.686,0,0,0,99.169,481.629Zm.525,11.045a.526.526,0,0,1-.525.526H91.8a.526.526,0,0,1-.525-.526v-7.363a.527.527,0,0,1,.525-.526h7.364a.527.527,0,0,1,.525.526Z" transform="translate(1.027 6.837)"/>
        <path id="Trazado_201135" data-name="Trazado 201135" d="M139.071,485.69a1.579,1.579,0,0,0-1.578-1.578h-30.5a1.578,1.578,0,1,0,0,3.157h30.5A1.579,1.579,0,0,0,139.071,485.69Z" transform="translate(2.779 7.089)"/>
        <path id="Trazado_201136" data-name="Trazado 201136" d="M106.988,489.843a1.578,1.578,0,1,0,0,3.156H115.4a1.578,1.578,0,1,0,0-3.156Z" transform="translate(2.779 7.67)"/>
        <path id="Trazado_201137" data-name="Trazado 201137" d="M121.314,489.843a1.578,1.578,0,1,0,0,3.156h8.415a1.578,1.578,0,1,0,0-3.156Z" transform="translate(4.232 7.67)"/>
        <path id="Trazado_201138" data-name="Trazado 201138" d="M114.1,420.888h-3.577a1.577,1.577,0,0,0-1.56,1.814l1.052,6.942a1.578,1.578,0,0,0,1.56,1.341h1.474a1.578,1.578,0,0,0,1.56-1.341l1.052-6.942a1.577,1.577,0,0,0-1.56-1.814Z" transform="translate(3.138 0.678)"/>
      </g>
    </g>
  </g>
</svg>
