<svg xmlns="http://www.w3.org/2000/svg" width="90.596" height="105.92" viewBox="0 0 90.596 105.92">
  <g id="Grupo_150161" data-name="Grupo 150161" transform="translate(-2723.334 8896.705)">
    <g id="_50_Target" data-name="50 Target" transform="translate(2682.61 -9230.74)">
      <g id="Grupo_149700" data-name="Grupo 149700" transform="translate(41.295 334.703)">
        <path id="Trazado_201196" data-name="Trazado 201196" d="M115.488,483.987a3.313,3.313,0,0,1-3.224-2.569l-6.32-27.5H82.654l-6.32,27.5a3.311,3.311,0,0,1-6.454-1.485l6.911-30.064a3.312,3.312,0,0,1,3.227-2.569h28.561a3.312,3.312,0,0,1,3.227,2.569l6.911,30.064a3.313,3.313,0,0,1-3.23,4.054Z" transform="translate(-53.465 -380.506)" fill="#474747"/>
        <path id="Trazado_201197" data-name="Trazado 201197" d="M122.044,390.594c0,22.824-17.612,41.332-39.345,41.332s-39.346-18.507-39.346-41.332S60.966,349.25,82.7,349.25,122.044,367.757,122.044,390.594Z" transform="translate(-42.25 -340.228)" fill="#f14f4a"/>
        <path id="Trazado_201198" data-name="Trazado 201198" d="M126.145,394.7c0,22.823-17.532,41.335-39.157,41.335a38.617,38.617,0,0,1-32.34-18.022,37.59,37.59,0,0,0,22.088,7.2c21.625,0,39.156-18.512,39.156-41.335a42.774,42.774,0,0,0-6.806-23.3A41.953,41.953,0,0,1,126.145,394.7Z" transform="translate(-46.351 -344.339)" opacity="0.12" style="isolation: isolate"/>
        <path id="Trazado_201199" data-name="Trazado 201199" d="M90.4,427.622A31.327,31.327,0,1,1,121.738,396.3,31.363,31.363,0,0,1,90.4,427.622Z" transform="translate(-47.958 -347.844)" fill="#e8f1f8"/>
        <path id="Trazado_201200" data-name="Trazado 201200" d="M124.52,399.084a31.328,31.328,0,0,1-57.788,16.768,31.315,31.315,0,0,0,43.231-43.211,31.314,31.314,0,0,1,14.557,26.443Z" transform="translate(-52.532 -350.893)" opacity="0.12" style="isolation: isolate"/>
        <path id="Trazado_201201" data-name="Trazado 201201" d="M96.112,423.32a21.316,21.316,0,1,1,21.323-21.31A21.341,21.341,0,0,1,96.112,423.32Z" transform="translate(-55.328 -353.681)" fill="#f14f4a"/>
        <path id="Trazado_201202" data-name="Trazado 201202" d="M118.846,403.414a21.324,21.324,0,0,1-40.174,9.959,21.315,21.315,0,0,0,28.818-28.808,21.358,21.358,0,0,1,11.356,18.848Z" transform="translate(-56.846 -355.183)" opacity="0.12" style="isolation: isolate"/>
        <path id="Trazado_201203" data-name="Trazado 201203" d="M101.82,419.017a11.305,11.305,0,1,1,11.313-11.3A11.319,11.319,0,0,1,101.82,419.017Z" transform="translate(-61.13 -359.458)" fill="#e8f1f8"/>
        <path id="Trazado_201204" data-name="Trazado 201204" d="M113.869,408.453a11.313,11.313,0,0,1-21.335,5.24,11.3,11.3,0,0,0,15.28-15.25,11.324,11.324,0,0,1,6.055,10.01Z" transform="translate(-61.906 -360.235)" opacity="0.12" style="isolation: isolate"/>
        <path id="Trazado_201205" data-name="Trazado 201205" d="M170.582,343.523l6.706,1.48L169.1,353.19,162.4,351.71,160.915,345l8.187-8.186Z" transform="translate(-88.937 -335.713)" fill="#fdcf17"/>
        <path id="Trazado_201206" data-name="Trazado 201206" d="M61.018,439.559a4.236,4.236,0,0,0,5.067-3.17l3.346-14.558a40.477,40.477,0,0,0,25.647,0l3.346,14.559a4.226,4.226,0,0,0,8.239-1.889l-3.739-16.253A40.56,40.56,0,0,0,112,355.655l4.1-4.1,5.854,1.292a1.057,1.057,0,0,0,.975-.285l7.836-7.836a1.057,1.057,0,0,0-.519-1.778l-4.538-1,1.139-1.139a1.056,1.056,0,1,0-1.494-1.494l-1.138,1.139-1-4.537a1.057,1.057,0,0,0-1.778-.519L113.6,343.23a1.057,1.057,0,0,0-.285.974l1.292,5.855-4.088,4.088a40.608,40.608,0,1,0-48.942,64.1L57.846,434.5a4.223,4.223,0,0,0,3.171,5.059Zm62.919-95.842,3.973.876-6.064,6.063-3.972-.876Zm-2.37-5.467.877,3.972-6.064,6.064-.877-3.972ZM104.6,434.973a2.113,2.113,0,0,1-4.12.942l-3.4-14.812A40.387,40.387,0,0,0,101,419.316ZM43.733,383.3a38.491,38.491,0,0,1,65.292-27.655l-5.279,5.28a30.784,30.784,0,1,0,1.479,1.508l5.279-5.279A38.506,38.506,0,1,1,43.733,383.3Zm38.39.741a1.057,1.057,0,0,0,1.494,0l6.507-6.507a9.8,9.8,0,1,1-1.427-1.561l-6.574,6.574a1.056,1.056,0,0,0,0,1.494Zm.129-12.625a11.927,11.927,0,1,0,9.379,4.611l5.3-5.3a19.55,19.55,0,1,1-1.465-1.523l-5.279,5.279a11.823,11.823,0,0,0-7.939-3.065Zm0-9.582a21.538,21.538,0,1,0,16.175,7.4l5.3-5.3a29.18,29.18,0,1,1-1.476-1.512l-5.29,5.29a21.369,21.369,0,0,0-14.71-5.874ZM59.906,434.973,63.5,419.312A40.432,40.432,0,0,0,67.43,421.1l-3.4,14.811a2.113,2.113,0,0,1-4.12-.942Z" transform="translate(-41.621 -335.083)"/>
      </g>
      <g id="Grupo_149701" data-name="Grupo 149701" transform="translate(40.724 334.035)">
        <path id="Trazado_201207" data-name="Trazado 201207" d="M115.494,484.758a3.352,3.352,0,0,1-3.263-2.6l-6.4-27.832H82.259l-6.4,27.832a3.351,3.351,0,0,1-6.532-1.5l7-30.432a3.352,3.352,0,0,1,3.266-2.6H108.5a3.352,3.352,0,0,1,3.267,2.6l7,30.432a3.352,3.352,0,0,1-3.27,4.1Z" transform="translate(-52.694 -379.956)" fill="#474747"/>
        <path id="Trazado_201208" data-name="Trazado 201208" d="M122.179,390.224c0,23.1-17.839,41.837-39.851,41.837s-39.85-18.734-39.85-41.837,17.838-41.849,39.85-41.849S122.179,367.108,122.179,390.224Z" transform="translate(-41.361 -339.242)" fill="#75b62f"/>
        <path id="Trazado_201209" data-name="Trazado 201209" d="M126.33,394.382c0,23.1-17.758,41.84-39.662,41.84-13.6,0-25.61-7.234-32.758-18.242a38.093,38.093,0,0,0,22.373,7.284c21.9,0,39.662-18.738,39.662-41.84a43.274,43.274,0,0,0-6.894-23.588A42.456,42.456,0,0,1,126.33,394.382Z" transform="translate(-45.512 -343.404)" opacity="0.12" style="isolation: isolate"/>
        <path id="Trazado_201210" data-name="Trazado 201210" d="M90.1,427.7A31.709,31.709,0,1,1,121.82,396,31.746,31.746,0,0,1,90.1,427.7Z" transform="translate(-47.138 -346.929)" fill="#e8f1f8"/>
        <path id="Trazado_201211" data-name="Trazado 201211" d="M124.637,398.818a31.711,31.711,0,0,1-58.495,16.973,31.7,31.7,0,0,0,43.76-43.739,31.7,31.7,0,0,1,14.735,26.766Z" transform="translate(-51.746 -350.011)" opacity="0.12" style="isolation: isolate"/>
        <path id="Trazado_201212" data-name="Trazado 201212" d="M95.882,423.35a21.576,21.576,0,1,1,21.584-21.571A21.6,21.6,0,0,1,95.882,423.35Z" transform="translate(-54.578 -352.835)" fill="#dce736"/>
        <path id="Trazado_201213" data-name="Trazado 201213" d="M118.893,403.2a21.584,21.584,0,0,1-40.664,10.08A21.575,21.575,0,0,0,107.4,384.122,21.619,21.619,0,0,1,118.893,403.2Z" transform="translate(-56.114 -354.355)" opacity="0.12" style="isolation: isolate"/>
        <path id="Trazado_201214" data-name="Trazado 201214" d="M101.659,418.994a11.444,11.444,0,1,1,11.45-11.438,11.457,11.457,0,0,1-11.45,11.438Z" transform="translate(-60.451 -358.682)" fill="#e8f1f8"/>
        <path id="Trazado_201215" data-name="Trazado 201215" d="M113.855,408.3a11.451,11.451,0,0,1-21.6,5.3,11.441,11.441,0,0,0,15.467-15.436,11.463,11.463,0,0,1,6.129,10.133Z" transform="translate(-61.235 -359.468)" opacity="0.12" style="isolation: isolate"/>
        <path id="Trazado_201216" data-name="Trazado 201216" d="M171.261,342.578l6.788,1.5-8.286,8.286-6.788-1.5-1.5-6.788,8.287-8.287Z" transform="translate(-88.57 -334.672)" fill="#fdcf17"/>
        <path id="Trazado_201217" data-name="Trazado 201217" d="M60.369,439.845a4.289,4.289,0,0,0,5.132-3.211l3.388-14.744a41,41,0,0,0,25.974,0l3.388,14.744a4.28,4.28,0,0,0,8.344-1.913l-3.788-16.46A41.078,41.078,0,0,0,112,354.869l4.155-4.154,5.929,1.308a1.07,1.07,0,0,0,.987-.289l7.937-7.936a1.07,1.07,0,0,0-.526-1.8l-4.6-1.014,1.153-1.153a1.07,1.07,0,1,0-1.513-1.513l-1.153,1.153-1.014-4.6a1.07,1.07,0,0,0-1.8-.526l-7.937,7.936a1.072,1.072,0,0,0-.288.987l1.308,5.929-4.14,4.14a41.126,41.126,0,1,0-49.566,64.914l-3.777,16.465a4.276,4.276,0,0,0,3.212,5.124Zm63.722-97.066,4.023.888-6.141,6.141-4.023-.887Zm-2.4-5.536.887,4.023-6.142,6.142-.887-4.023ZM104.51,435.2a2.14,2.14,0,0,1-4.173.954l-3.447-15a40.823,40.823,0,0,0,3.971-1.81ZM42.864,382.862a38.982,38.982,0,0,1,66.126-28.008l-5.348,5.347a31.166,31.166,0,1,0,1.5,1.528l5.347-5.347a39,39,0,1,1-67.624,26.48Zm38.879.751a1.07,1.07,0,0,0,1.513,0l6.59-6.591a9.932,9.932,0,1,1-1.446-1.58L81.743,382.1a1.07,1.07,0,0,0,0,1.513Zm.131-12.787a12.077,12.077,0,1,0,9.5,4.67l5.37-5.371a19.8,19.8,0,1,1-1.483-1.542l-5.347,5.346a11.975,11.975,0,0,0-8.039-3.1Zm0-9.7a21.814,21.814,0,1,0,16.382,7.492l5.369-5.369a29.564,29.564,0,1,1-1.5-1.531l-5.357,5.358a21.642,21.642,0,0,0-14.9-5.949ZM59.242,435.2l3.639-15.861a40.983,40.983,0,0,0,3.981,1.815l-3.447,15a2.14,2.14,0,0,1-4.173-.955Z" transform="translate(-40.724 -334.035)"/>
      </g>
    </g>
  </g>
</svg>
