<svg xmlns="http://www.w3.org/2000/svg" width="325.37" height="218.459" viewBox="0 0 325.37 218.459">
  <g id="Grupo_150132" data-name="Grupo 150132" transform="translate(5710.185 9575.578)">
    <path id="Trazado_201912" data-name="Trazado 201912" d="M24,0H301.37a24,24,0,0,1,24,24V194.459a24,24,0,0,1-24,24H24a24,24,0,0,1-24-24V24A24,24,0,0,1,24,0Z" transform="translate(-5710.185 -9575.578)" fill="#eaf086"/>
    <path id="Trazado_201913" data-name="Trazado 201913" d="M28,0H240a28,28,0,0,1,28,28v85a28,28,0,0,1-28,28H28A28,28,0,0,1,0,113V28A28,28,0,0,1,28,0Z" transform="translate(-5681.185 -9536.95)" fill="#f3f9ff"/>
    <path id="Trazado_201914" data-name="Trazado 201914" d="M12.512,16.894H1.9l.513-2.881H13.025ZM11.6,22.179H.989L1.5,19.3H12.109Z" transform="translate(-5598.685 -9472.822)" fill="#75b62f"/>
    <path id="Trazado_201915" data-name="Trazado 201915" d="M6.4,16.71l2.771-3.918h3.87L8.252,19.433,10.925,26H7.434L5.811,21.874,2.893,26H-1l4.98-6.909-2.551-6.3H4.919ZM19.275,6.7H8.459l.488-2.759h10.8Z" transform="translate(-5620.185 -9472.821)" fill="#75b62f"/>
    <path id="Trazado_201916" data-name="Trazado 201916" d="M13.213,22.482,4.922,31.5l11.045.029-.6,3.413H-1.406l.425-2.417,9.917-10.51L2.622,11.649l.352-1.978H19.263l-.6,3.413H7.925l5.332,8.884Z" transform="translate(-5571.185 -9503.322)" fill="#75b62f"/>
    <path id="Trazado_201917" data-name="Trazado 201917" d="M5.481,12.78l-.293,1.563a4.753,4.753,0,0,1,3.845-1.794,3.168,3.168,0,0,1,2.759,1.367,5.509,5.509,0,0,1,.647,3.687L11.047,26H7.6l1.416-8.435a3.95,3.95,0,0,0,.024-.867,1.4,1.4,0,0,0-1.562-1.282,2.963,2.963,0,0,0-2.429,1.257L3.406,26H-.037L2.258,12.792Z" transform="translate(-5541.185 -9454.322)" fill="#75b62f"/>
    <path id="Trazado_201918" data-name="Trazado 201918" d="M8.289,14.33l4.187-6.1h4.3l-6.531,8.984L13.928,26H9.973L7.642,19.8,3.357,26H-.989l6.677-9.131L2.112,8.227H6.018ZM17.732,26h-2.08l1.377-7.925h2.08Zm-.461-9.939a1.032,1.032,0,0,1,.322-.813,1.24,1.24,0,0,1,1.626-.037,1.027,1.027,0,0,1,.359.776,1.061,1.061,0,0,1-.3.791,1.139,1.139,0,0,1-.831.352,1.158,1.158,0,0,1-.809-.278A1.023,1.023,0,0,1,17.271,16.061Z" transform="translate(-5505.685 -9491.323)" fill="#75b62f"/>
    <path id="Trazado_201919" data-name="Trazado 201919" d="M4.823,11.366l-.258,1.375a4.182,4.182,0,0,1,3.384-1.579,2.788,2.788,0,0,1,2.428,1.2,4.848,4.848,0,0,1,.569,3.244L9.722,23H6.692l1.246-7.423a3.476,3.476,0,0,0,.021-.763,1.23,1.23,0,0,0-1.375-1.128,2.607,2.607,0,0,0-2.138,1.106L3,23H-.032l2.02-11.623Z" transform="translate(-5546.685 -9515.95)" fill="#75b62f"/>
    <path id="Trazado_201920" data-name="Trazado 201920" d="M8.658,23H5.607l2.02-11.623h3.051ZM7.981,8.423A1.513,1.513,0,0,1,8.454,7.23a1.663,1.663,0,0,1,1.192-.473,1.671,1.671,0,0,1,1.192.419,1.507,1.507,0,0,1,.526,1.139,1.556,1.556,0,0,1-.446,1.16A1.671,1.671,0,0,1,9.7,9.991a1.7,1.7,0,0,1-1.187-.408A1.5,1.5,0,0,1,7.981,8.423ZM22.2,14.986H12.869l.451-2.535h9.335ZM21.4,19.638H12.063l.451-2.535H21.85ZM30.755,23H27.726l2.063-11.9-3.8,1.149.473-2.653,6.531-2.256.4-.011Z" transform="translate(-5554.685 -9484.822)" fill="#75b62f"/>
    <path id="Trazado_201921" data-name="Trazado 201921" d="M104,0H0" transform="translate(-5578.685 -9454.321)" fill="none" stroke="#75b62f" stroke-width="3"/>
  </g>
</svg>
