<svg xmlns="http://www.w3.org/2000/svg" width="101.853" height="101.853" viewBox="0 0 101.853 101.853">
  <g id="Grupo_150169" data-name="Grupo 150169" transform="translate(-2889.083 8319.439)">
    <g id="Grupo_150070" data-name="Grupo 150070" transform="translate(2889.083 -8319.439)">
      <g id="Grupo_149704" data-name="Grupo 149704" transform="translate(1.643 1.643)">
        <g id="Grupo_149703" data-name="Grupo 149703" transform="translate(0)">
          <circle id="Elipse_12659" data-name="Elipse 12659" cx="11.499" cy="11.499" r="11.499" transform="translate(37.784)" fill="#dce736"/>
          <circle id="Elipse_12660" data-name="Elipse 12660" cx="11.499" cy="11.499" r="11.499" transform="translate(75.568 3.286)" fill="#dce736"/>
          <circle id="Elipse_12661" data-name="Elipse 12661" cx="11.499" cy="11.499" r="11.499" transform="translate(0 3.286)" fill="#dce736"/>
        </g>
        <path id="Trazado_201230" data-name="Trazado 201230" d="M85.551,493.738v3.286a3.3,3.3,0,0,1-3.286,3.286H46.125a3.3,3.3,0,0,1-3.286-3.286v-3.286a3.3,3.3,0,0,1,3.286-3.286H52.7v1.642a1.8,1.8,0,0,0,1.922,1.643H73.772a1.8,1.8,0,0,0,1.922-1.643v-1.642h6.571A3.3,3.3,0,0,1,85.551,493.738Z" transform="translate(-14.911 -401.741)" fill="#75b62f"/>
        <path id="Trazado_201231" data-name="Trazado 201231" d="M77.45,489.281v1.642a1.8,1.8,0,0,1-1.922,1.643H56.374a1.8,1.8,0,0,1-1.922-1.643V482.71h23Z" transform="translate(-16.668 -400.571)" fill="#75b62f"/>
        <path id="Trazado_201232" data-name="Trazado 201232" d="M89.78,424.645H33.926a6.569,6.569,0,0,0-6.571,6.571v36.142a6.569,6.569,0,0,0,6.571,6.571H70.067v-6.571h-34.5a1.648,1.648,0,0,1-1.642-1.643V432.859a1.648,1.648,0,0,1,1.642-1.643H88.138a1.648,1.648,0,0,1,1.642,1.643v27.927h6.571v-29.57A6.569,6.569,0,0,0,89.78,424.645Z" transform="translate(-12.57 -391.789)" fill="#e6e9ed"/>
        <path id="Trazado_201233" data-name="Trazado 201233" d="M103.962,467.226V473.8a6.569,6.569,0,0,1-6.571,6.571H77.677v-11.5a1.648,1.648,0,0,1,1.643-1.642h24.642Z" transform="translate(-20.18 -398.229)" fill="#fcd770"/>
        <path id="Trazado_201234" data-name="Trazado 201234" d="M89.309,432.387H36.739A1.648,1.648,0,0,0,35.1,434.03v32.855a1.648,1.648,0,0,0,1.642,1.643h4.929V448.815l3.286-3.286,6.571-6.571H84.38v23h6.571V434.03A1.648,1.648,0,0,0,89.309,432.387Z" transform="translate(-13.741 -392.96)" fill="#69d6f4"/>
        <path id="Trazado_201235" data-name="Trazado 201235" d="M82.265,440.129H52.7v9.857H42.839V469.7H72.408v-4.929a1.648,1.648,0,0,1,1.643-1.642h11.5v-23Z" transform="translate(-14.911 -394.131)" fill="#ffeaa7"/>
        <path id="Trazado_201236" data-name="Trazado 201236" d="M52.7,440.129v9.857H42.839l3.286-3.286Z" transform="translate(-14.911 -394.131)" fill="#fc6e51"/>
      </g>
      <g id="Grupo_149705" data-name="Grupo 149705">
        <path id="Trazado_201237" data-name="Trazado 201237" d="M96.71,387.286a13.155,13.155,0,0,0-13.029,11.5h-3.4a4.935,4.935,0,0,0-4.928,4.929V430H60.569V410.171a13.142,13.142,0,1,0-3.285,0V430H46.746L42.5,434.246V403.714a4.935,4.935,0,0,0-4.928-4.929h-3.4a13.143,13.143,0,1,0,0,3.286h3.4a1.644,1.644,0,0,1,1.642,1.643v33.818l-3.286,3.286v18.75H32.642V426.713h3.286v-3.286H32.642a3.289,3.289,0,0,0-3.286,3.286v32.855a3.289,3.289,0,0,0,3.286,3.286H65.5v3.286H31a4.934,4.934,0,0,1-4.929-4.928V425.069A4.934,4.934,0,0,1,31,420.142h4.928v-3.286H31a8.224,8.224,0,0,0-8.214,8.214v36.142A8.224,8.224,0,0,0,31,469.425H45.784v3.286H40.856a4.934,4.934,0,0,0-4.929,4.929v3.286a4.934,4.934,0,0,0,4.929,4.928H77a4.934,4.934,0,0,0,4.929-4.928v-3.286A4.934,4.934,0,0,0,77,472.71H72.069v-3.286H86.853a8.224,8.224,0,0,0,8.214-8.214V425.069a8.224,8.224,0,0,0-8.214-8.214H81.925v3.286h4.928a4.934,4.934,0,0,1,4.929,4.928V453H88.5V426.713a3.289,3.289,0,0,0-3.286-3.286H81.925v3.286h3.286V453H81.925V430H78.64V403.714a1.644,1.644,0,0,1,1.642-1.643h3.4A13.137,13.137,0,1,0,96.71,387.286Zm-47.641,9.857a9.807,9.807,0,0,1,.575-3.286h3.08a14.771,14.771,0,0,0,0,6.571h-3.08A9.811,9.811,0,0,1,49.069,397.142Zm6.571,0a12.386,12.386,0,0,1,.463-3.286h5.651a11.984,11.984,0,0,1-.005,6.571H56.1a12.5,12.5,0,0,1-.458-3.286Zm1.784-6.571a18.92,18.92,0,0,1,1.5-2.367,18.591,18.591,0,0,1,1.507,2.367Zm11.358,6.571a9.811,9.811,0,0,1-.575,3.286h-3.1a14.37,14.37,0,0,0,.021-6.571h3.08A9.807,9.807,0,0,1,68.783,397.142Zm-8.355,6.571a18.979,18.979,0,0,1-1.5,2.367,18.655,18.655,0,0,1-1.507-2.367Zm2.364,2.494a20.854,20.854,0,0,0,1.268-2.494h2.192A9.868,9.868,0,0,1,62.792,406.207Zm3.461-15.636H64.072a21.074,21.074,0,0,0-1.273-2.492A9.9,9.9,0,0,1,66.253,390.571Zm-11.2-2.492a20.821,20.821,0,0,0-1.275,2.492H51.6a9.892,9.892,0,0,1,3.456-2.492ZM51.6,403.714h2.181a21.081,21.081,0,0,0,1.273,2.492,9.913,9.913,0,0,1-3.454-2.492Zm-23.131-9.857H26.288a21.2,21.2,0,0,0-1.273-2.492A9.9,9.9,0,0,1,28.469,393.857ZM31,400.428a9.811,9.811,0,0,1-.575,3.286h-3.08a14.771,14.771,0,0,0,0-6.571h3.08A9.807,9.807,0,0,1,31,400.428Zm-12.684,3.286a11.942,11.942,0,0,1,.005-6.571h5.651a11.984,11.984,0,0,1-.005,6.571ZM22.644,407a18.973,18.973,0,0,1-1.5,2.367A18.648,18.648,0,0,1,19.632,407Zm-11.358-6.571a9.828,9.828,0,0,1,.575-3.286h3.08a14.8,14.8,0,0,0,0,6.571H11.86A9.832,9.832,0,0,1,11.286,400.428Zm8.355-6.571a18.916,18.916,0,0,1,1.5-2.367,18.594,18.594,0,0,1,1.507,2.367Zm-2.369-2.492A20.7,20.7,0,0,0,16,393.857H13.816A9.892,9.892,0,0,1,17.272,391.365ZM13.816,407H16a20.949,20.949,0,0,0,1.273,2.492A9.912,9.912,0,0,1,13.816,407Zm11.2,2.492A20.819,20.819,0,0,0,26.286,407h2.181A9.881,9.881,0,0,1,25.013,409.491Zm20.771,26.115v4.248H41.536ZM77,476a1.643,1.643,0,0,1,1.643,1.643v3.286A1.643,1.643,0,0,1,77,482.567H40.856a1.643,1.643,0,0,1-1.643-1.642v-3.286A1.643,1.643,0,0,1,40.856,476h4.928a3.434,3.434,0,0,0,3.56,3.286H68.509A3.434,3.434,0,0,0,72.069,476Zm-8.187-.1a.421.421,0,0,1-.3.1H49.344c-.167,0-.261-.061-.274-.02v-6.552H68.788Zm22.973-14.686a4.934,4.934,0,0,1-4.929,4.928H68.783v-9.857h23Zm-23-8.214a3.289,3.289,0,0,0-3.286,3.286v3.286H39.213V443.14h9.857v-9.856H78.64V453Zm35.254-59.14h-2.181a20.947,20.947,0,0,0-1.273-2.492A9.9,9.9,0,0,1,104.037,393.857Zm2.53,6.571a9.832,9.832,0,0,1-.575,3.286h-3.08a14.8,14.8,0,0,0,0-6.571h3.08A9.828,9.828,0,0,1,106.567,400.428Zm-12.684,3.286a11.942,11.942,0,0,1,.005-6.571h5.651a11.984,11.984,0,0,1-.005,6.571ZM98.212,407a18.973,18.973,0,0,1-1.5,2.367A18.649,18.649,0,0,1,95.2,407Zm-11.358-6.571a9.807,9.807,0,0,1,.575-3.286h3.08a14.771,14.771,0,0,0,0,6.571h-3.08A9.811,9.811,0,0,1,86.853,400.428Zm8.355-6.571a18.915,18.915,0,0,1,1.5-2.367,18.593,18.593,0,0,1,1.507,2.367Zm-2.369-2.492a20.944,20.944,0,0,0-1.275,2.492H89.384A9.892,9.892,0,0,1,92.84,391.365ZM89.384,407h2.181a21.2,21.2,0,0,0,1.273,2.492A9.912,9.912,0,0,1,89.384,407Zm11.2,2.492A20.7,20.7,0,0,0,101.854,407h2.181A9.881,9.881,0,0,1,100.581,409.491Z" transform="translate(-8 -384)"/>
        <path id="Trazado_201238" data-name="Trazado 201238" d="M52.516,422.71H60.73V426H52.516Z" transform="translate(-14.732 -389.854)"/>
        <path id="Trazado_201239" data-name="Trazado 201239" d="M73.806,422.71H82.02V426H73.806Z" transform="translate(-17.952 -389.854)"/>
        <path id="Trazado_201240" data-name="Trazado 201240" d="M73.806,430.452H82.02v3.286H73.806Z" transform="translate(-17.952 -391.025)"/>
        <path id="Trazado_201241" data-name="Trazado 201241" d="M52.516,430.452H60.73v3.286H52.516Z" transform="translate(-14.732 -391.025)"/>
        <path id="Trazado_201242" data-name="Trazado 201242" d="M98.968,473.032h3.286v3.286H98.968Z" transform="translate(-21.757 -397.464)"/>
        <path id="Trazado_201243" data-name="Trazado 201243" d="M91.226,473.032h3.286v3.286H91.226Z" transform="translate(-20.586 -397.464)"/>
        <path id="Trazado_201244" data-name="Trazado 201244" d="M83.484,473.032H86.77v3.286H83.484Z" transform="translate(-19.415 -397.464)"/>
        <path id="Trazado_201245" data-name="Trazado 201245" d="M60.258,449.806h23v3.286h-23Z" transform="translate(-15.903 -393.952)"/>
        <path id="Trazado_201246" data-name="Trazado 201246" d="M48.645,457.548H81.5v3.286H48.645Z" transform="translate(-14.147 -395.123)"/>
        <path id="Trazado_201247" data-name="Trazado 201247" d="M48.645,465.29h3.286v3.286H48.645Z" transform="translate(-14.147 -396.293)"/>
        <path id="Trazado_201248" data-name="Trazado 201248" d="M56.387,465.29h3.286v3.286H56.387Z" transform="translate(-15.318 -396.293)"/>
        <path id="Trazado_201249" data-name="Trazado 201249" d="M64.129,465.29h3.286v3.286H64.129Z" transform="translate(-16.488 -396.293)"/>
      </g>
    </g>
  </g>
</svg>
