<svg xmlns="http://www.w3.org/2000/svg" width="482" height="218" viewBox="0 0 482 218">
  <g id="Grupo_150124" data-name="Grupo 150124" transform="translate(5900 10485.111)">
    <g id="Grupo_149992" data-name="Grupo 149992" transform="translate(-6170.5 -10733.543)">
      <g id="Rectángulo_295749" data-name="Rectángulo 295749" transform="translate(270.5 248.432)" fill="#f6f6f6" stroke="#707070" stroke-width="1">
        <rect width="482" height="218" rx="29" stroke="none"/>
        <rect x="0.5" y="0.5" width="481" height="217" rx="28.5" fill="none"/>
      </g>
      <g id="Grupo_149247" data-name="Grupo 149247" transform="translate(217.64 -16.978)">
        <path id="Trazado_200462" data-name="Trazado 200462" d="M215.015,437.228c-.875-.033-1.75-.1-2.625-.1q-60.244-.008-120.488,0H89.318l-.591-.7a9.97,9.97,0,0,0,1.761-1.038c5.736-5.166,10.163-11.38,14.541-17.7,9.678-13.965,15.783-29.619,21.711-45.332a502.146,502.146,0,0,0,16.607-54.63,35.6,35.6,0,0,1,8.382-15c2.516-2.79,4.852-5.723,7.922-7.942,9.088-6.571,18.645-6.388,28.376-1.745A67.783,67.783,0,0,1,202.873,303.3a371.539,371.539,0,0,0,29.921,23.066c16.9,11.786,34.078,23.161,52.089,33.183,14.987,8.339,30.058,16.565,45.71,23.61,14.74,6.636,29.5,13.267,44.7,18.8,14.737,5.362,29.508,10.659,44.591,14.986,21.908,6.285,44.008,11.761,66.55,15.294a23.847,23.847,0,0,0,4.5.543c2.3-.087,1.93,1.329,2.049,2.8.155,1.925-1.058,1.548-2.119,1.548q-27.067.006-54.135,0-107.435,0-214.867.005c-.954,0-1.907.077-2.861.119a6.742,6.742,0,0,1,.053-4.345c3.3.537,6.617.227,9.929.171a26.792,26.792,0,0,0,6.136-.01l10.5.025a26.558,26.558,0,0,0,5.878-.019l10,.017a26.645,26.645,0,0,0,5.847-.011l8.078,0a26.3,26.3,0,0,0,5.856,0l10.474-.006a26.792,26.792,0,0,0,6.136-.01l10.084.023a26.645,26.645,0,0,0,5.847-.011l8.047.011a26.654,26.654,0,0,0,5.848-.011l10.513,0a26.792,26.792,0,0,0,6.136-.01l10.021.025a26.548,26.548,0,0,0,5.877-.019l10,.017a26.654,26.654,0,0,0,5.848-.011l10.513,0a26.793,26.793,0,0,0,6.136-.01l10.021.025a26.54,26.54,0,0,0,5.876-.019l8.081.017a31.249,31.249,0,0,0,6.326-.011l10,.005a26.514,26.514,0,0,0,5.853,0l12.257.009a26.633,26.633,0,0,0,5.873-.018l9.954.067-.1-.254-8.338-1.621a23.528,23.528,0,0,0-4.847-1.217l-5.76-1.428-18.19-4.511.029.024-.445-.177a5.329,5.329,0,0,0-2.817-.8c-3.426-1.324-7.034-2.006-10.552-3.005l-8.224-2.607-4.385-1.42-7.665-2.464a14.773,14.773,0,0,0-4.593-1.576,45.082,45.082,0,0,0-6.824-2.469,19.411,19.411,0,0,0-4.811-1.723l-7.65-2.8a18.259,18.259,0,0,0-4.325-1.577,101.632,101.632,0,0,0-9.779-4.007l-1.169-.5-5.734-2.367a16.816,16.816,0,0,0-4.376-1.865l-7.173-3.184-3.926-1.834-7.6-3.328a14.965,14.965,0,0,0-3.809-1.706,27.539,27.539,0,0,0-6.143-2.928l-.051.033c-.042-.386-.371-.4-.637-.487a6.387,6.387,0,0,0-2.712-1.311l-9.557-4.956a72.217,72.217,0,0,0-8.2-4.276l-.036.056c-.139-.468-.53-.541-.932-.6l.037.083-.671-.442-1.368-.815c-2.5-1.382-4.815-3.141-7.623-3.936a17.2,17.2,0,0,0-3.883-2.273l-6.83-3.925a10.549,10.549,0,0,0-3.221-1.933l-3.8-2.339a11.963,11.963,0,0,0-3.421-2.079l-6.127-3.859a15.126,15.126,0,0,0-3.808-2.437q-2.436-1.6-4.871-3.193a14.032,14.032,0,0,0-3.744-2.453c-2.6-2.332-5.861-3.657-8.677-5.663L234,332.393l-6.992-4.984-2.24-1.587a27.623,27.623,0,0,0-5.727-4.148c-.533-.779-.27-1.664-.32-2.5-.067-1.128.3-2.473-1.326-2.827-1.594-.347-1.932.9-2.368,1.99-6.682-5.356-13.327-10.759-20.065-16.044-2.383-1.869-4.669-3.991-7.786-4.675-2.273-2.1-5.2-2.61-8.045-3.3a18.635,18.635,0,0,0-10.8.558A11.807,11.807,0,0,0,164.2,296.8a14.645,14.645,0,0,0-4.592,3.492,8.981,8.981,0,0,0-2.748,2.909,26.921,26.921,0,0,0-4.486,6.248c-.874,1.193-2.25,2.047-2.471,3.679-1.37,2.211-2.706,4.434-2.853,7.135a17.354,17.354,0,0,0-1.215,4.486q-.825,3.285-1.648,6.57-.671,2.254-1.342,4.509L140.7,343.7a14.475,14.475,0,0,0-1.369,4.6,43.732,43.732,0,0,0-2.4,7.682,14.586,14.586,0,0,0-1.431,4.38q-1.357,3.766-2.716,7.532-.751,2.2-1.5,4.392-1.461,3.945-2.924,7.89a11.8,11.8,0,0,0-1.429,3.649,46.9,46.9,0,0,0-2.965,7.121,15.078,15.078,0,0,0-1.781,4.023,32.635,32.635,0,0,0-2.569,5.6,14.114,14.114,0,0,0-1.892,3.907l-3.586,6.649-2.055,3.8-3.612,5.826-1.767,2.745c-1.937.972-2.611,3-3.82,4.579L100.2,431.4c-.487.476-1.184.817-1.09,1.792l2.594-.129a36.573,36.573,0,0,0,6.493,0l8.092,0a28.635,28.635,0,0,0,5.8,0h8.165a28.669,28.669,0,0,0,5.8,0l10.106,0a32.913,32.913,0,0,0,6.246,0,59.215,59.215,0,0,0,8.286-.009,28.018,28.018,0,0,0,5.718.02l10.246-.012a28.635,28.635,0,0,0,5.8,0h10.082a34,34,0,0,0,6.34,0l10.145.006c1.106.038,2.213.1,3.319.11,3.04.016,3.045.007,2.885,3.14A4.858,4.858,0,0,1,215.015,437.228Z" fill="#75b62f"/>
        <path id="Trazado_200463" data-name="Trazado 200463" d="M179.128,294.317c2.85.687,5.772,1.2,8.045,3.3,4.861,5.59,10.668,10.211,15.823,15.5,3.389,3.478,6.846,6.89,10.3,10.3.461.455.767,1.238,1.726,1.124v-6.208c.436-1.087.774-2.337,2.368-1.99,1.622.354,1.259,1.7,1.326,2.827.05.84-.213,1.725.319,2.5q.031,4.857.065,9.714a21.352,21.352,0,0,0-.084,6.147v10.139a25.2,25.2,0,0,0,.021,6.081q.012,6.816.025,13.633a23.625,23.625,0,0,0-.045,6.116q.027,3.932.055,7.863a23.008,23.008,0,0,0-.023,6.425l-.006,9.785a22.993,22.993,0,0,0-.006,6.056q.022,2.789.043,5.578a23.177,23.177,0,0,0-.043,6.411q.009,4.895.018,9.787a24.108,24.108,0,0,0-.038,6.126l.055.812a.307.307,0,0,0,.025.363l-.048.2a6.739,6.739,0,0,0-.053,4.344q.024,9.563.053,19.126c.007,1.409-.306,2.7-1.941,2.746-1.774.055-2.134-1.218-2.124-2.769.041-6.376.025-12.752.03-19.128a4.858,4.858,0,0,0,.219-.91c.16-3.133.155-3.124-2.885-3.14-1.106-.006-2.213-.072-3.32-.11-7.118-7.873-15.161-14.8-22.694-22.245A17.459,17.459,0,0,1,188.5,406.9c1.314,1.326,2.4,2.893,4.082,3.829l-.026-.023.5.756c.933.23,1.143,1.207,1.787,1.735,6.231,5.683,12.027,11.809,18.038,17.716.591.581,1.027,1.4,2.175,1.657,0-3.262.006-6.421-.009-9.58,0-.362.062-.738-.356-1.028-4.677-3.242-8.1-7.8-12.225-11.636a16.929,16.929,0,0,0,.691-4.874l11.9,11.655c0-2.955-.087-5.4.031-7.838a4.533,4.533,0,0,0-1.557-3.763q-13.273-12.932-26.445-25.965c-14.709-14.61-29.179-29.462-44.244-43.711q.671-2.254,1.342-4.507c23.957,22.7,46.518,46.824,70.873,69.546a41.743,41.743,0,0,1,.032-4.706c.282-2.371-.658-4.005-2.338-5.62-6.324-6.078-12.51-12.3-18.82-18.4-10.8-10.435-21.3-21.172-31.883-31.833-5.28-5.321-10.664-10.529-16.216-15.564a17.336,17.336,0,0,1,1.215-4.485c23.019,21.726,44.573,44.949,68.01,66.662,0-2.8-.073-5.406.028-8.008a4.072,4.072,0,0,0-1.423-3.34c-6.474-6.268-12.844-12.642-19.3-18.927-13.854-13.482-27.391-27.29-41.041-40.982a11.9,11.9,0,0,0-3.418-2.541c.221-1.632,1.6-2.486,2.471-3.679.9.082,1.343.81,1.9,1.361,18.956,18.933,37.8,37.981,57.045,56.622,1.124,1.088,2.171,2.255,3.746,3.9,0-3.2-.08-5.636.028-8.066a4.474,4.474,0,0,0-1.526-3.773c-6.027-5.681-11.8-11.626-17.749-17.387-13.185-12.76-25.992-25.911-38.953-38.9a8.988,8.988,0,0,1,2.747-2.909c18.349,18.217,36.438,36.7,55.453,54.662a45.061,45.061,0,0,1,.029-4.646,6.061,6.061,0,0,0-2.2-5.427c-6.382-6.12-12.6-12.409-18.978-18.539-10.068-9.677-19.826-19.678-29.715-29.542a11.794,11.794,0,0,1,4.123-1.928c3.926,3.968,7.822,7.968,11.79,11.895q16.822,16.653,33.7,33.25c.306.3.525.852,1.247.611,0-2.2-.149-4.442.041-6.653a6,6,0,0,0-2.165-5.2q-16.431-16.025-32.69-32.225C179.681,295.994,178.357,295.622,179.128,294.317Z" fill="#dce736"/>
        <path id="Trazado_200464" data-name="Trazado 200464" d="M142.846,335.832c15.065,14.249,29.535,29.1,44.244,43.711q13.147,13.059,26.445,25.965a4.533,4.533,0,0,1,1.557,3.763c-.118,2.437-.031,4.883-.031,7.838l-11.9-11.655c-.926-4.261-1.966-5.3-5.775-5.788a14.659,14.659,0,0,1-3.1-2.863c.781-2.208,2.4-3.929,3.679-5.91-1.686-.642-2.571-.092-3.215,1.275-.533,1.134-1.269,2.172-1.916,3.253-17.352-17.264-34.5-34.734-52.129-51.718Z" fill="#b1b1b1"/>
        <path id="Trazado_200465" data-name="Trazado 200465" d="M149.9,313.132a11.9,11.9,0,0,1,3.418,2.541c13.65,13.692,27.187,27.5,41.041,40.982,6.459,6.285,12.829,12.659,19.3,18.927a4.072,4.072,0,0,1,1.423,3.34c-.1,2.6-.028,5.211-.028,8.008-23.437-21.713-44.991-44.936-68.01-66.662C147.2,317.566,148.534,315.343,149.9,313.132Z" fill="#b1b1b1"/>
        <path id="Trazado_200466" data-name="Trazado 200466" d="M186.335,410.821c7.533,7.448,15.576,14.374,22.694,22.247l-10.145-.006c-10.563-9.656-20.288-20.163-30.553-30.121-.079-1.347-.1-2.7-.249-4.041-.687-6.187-4.82-10.218-10.89-7.225q-7.628-7.359-15.251-14.724c-3.08-2.993-6.111-6.036-9.164-9.057q1.358-3.765,2.716-7.531c6.121,5.546,11.678,11.667,17.771,17.254,6.211,5.7,11.968,11.886,17.946,17.837,2.195,2.184,4.456,4.3,6.688,6.447a2.493,2.493,0,0,0,1.162,1.235l.474.485,5.383,5.464c-.511,1.04-1.051,2.067-1.517,3.127-.178.406-.943.93-.07,1.309a1.147,1.147,0,0,0,1.474-.362C185.317,412.382,185.825,411.6,186.335,410.821Z" fill="#b1b1b1"/>
        <path id="Trazado_200467" data-name="Trazado 200467" d="M156.861,303.2c12.961,12.992,25.768,26.143,38.953,38.9,5.952,5.761,11.722,11.706,17.749,17.387a4.474,4.474,0,0,1,1.526,3.773c-.108,2.43-.028,4.869-.028,8.066-1.575-1.643-2.622-2.81-3.746-3.9-19.245-18.641-38.089-37.689-57.045-56.622-.552-.551-1-1.279-1.9-1.361A26.921,26.921,0,0,1,156.861,303.2Z" fill="#b1b1b1"/>
        <path id="Trazado_200468" data-name="Trazado 200468" d="M145.836,324.753c5.552,5.035,10.936,10.243,16.216,15.564,10.578,10.661,21.086,21.4,31.883,31.833,6.31,6.1,12.5,12.317,18.82,18.4,1.68,1.615,2.62,3.249,2.338,5.62a41.743,41.743,0,0,0-.032,4.706c-24.355-22.722-46.916-46.847-70.873-69.546Q145.011,328.037,145.836,324.753Z" fill="#b1b1b1"/>
        <path id="Trazado_200469" data-name="Trazado 200469" d="M261.489,433.092l-10-.017c3.695-3.729,7.371-7.478,11.09-11.183q9.042-9.008,18.129-17.969a6.1,6.1,0,0,0,5.383-.724c2.763-1.813,2.631-4.571,2.729-7.3q7.488-7.4,14.974-14.791c2.716-2.692,2.705-2.7.692-5.676l.332-.347,9.555,4.956a4.863,4.863,0,0,1-1.705,2.238c-5.211,5.232-10.443,10.444-15.641,15.689-.633.64-1.634,1.1-1.467,2.285l.017-.036a.737.737,0,0,0-.975.728l-.03.193-.192.03c-.593.053-.81.4-.749.962l.014-.018a.434.434,0,0,0-.468.52l.057-.012-1.634-.122q3.148-5.811,6.3-11.629c-1.752-.775-2.214.492-2.78,1.518-3.538,6.417-7.2,12.757-11.289,18.845a.741.741,0,0,0-.714.987l.064-.01c-.983-.228-1.428.556-1.966,1.1Q271.343,423.182,261.489,433.092Z" fill="#b1b1b1"/>
        <path id="Trazado_200470" data-name="Trazado 200470" d="M327.73,386.435l7.6,3.328c-1.3,1.748-3.183,2.866-4.693,4.373q-19.479,19.436-38.889,38.943l-10.475.006c2.251-2.582,4.96-4.688,7.38-7.085q18.848-18.669,37.525-37.511C326.78,387.881,327.569,387.39,327.73,386.435Z" fill="#b1b1b1"/>
        <path id="Trazado_200471" data-name="Trazado 200471" d="M179.128,294.317c-.771,1.305.553,1.677,1.119,2.238q16.293,16.166,32.69,32.225a6,6,0,0,1,2.165,5.2c-.19,2.211-.041,4.452-.041,6.653-.722.241-.941-.309-1.247-.611q-16.863-16.612-33.7-33.25c-3.968-3.927-7.864-7.927-11.79-11.895A18.634,18.634,0,0,1,179.128,294.317Z" fill="#b1b1b1"/>
        <path id="Trazado_200472" data-name="Trazado 200472" d="M164.2,296.8c9.889,9.864,19.647,19.865,29.715,29.542,6.378,6.13,12.6,12.419,18.978,18.539a6.061,6.061,0,0,1,2.2,5.427,45.061,45.061,0,0,0-.029,4.646c-19.015-17.963-37.1-36.445-55.453-54.662A14.66,14.66,0,0,1,164.2,296.8Z" fill="#b1b1b1"/>
        <path id="Trazado_200473" data-name="Trazado 200473" d="M219.044,397.576q0-4.891,0-9.784,19.212-18.99,38.429-37.974c.394-.39.849-.717,1.275-1.073l6.129,3.86q-19.9,19.612-39.818,39.216C223.085,393.766,221.323,395.944,219.044,397.576Z" fill="#b1b1b1"/>
        <path id="Trazado_200474" data-name="Trazado 200474" d="M307.964,433.092l-10.083-.023a13.391,13.391,0,0,1,1.138-1.507c10.54-10.571,21.021-21.2,31.692-31.641,2.84-2.778,5.852-5.385,8.541-8.324l7.172,3.184c-5.032,5.326-10.269,10.435-15.591,15.477C323.015,417.664,315.568,425.462,307.964,433.092Z" fill="#b1b1b1"/>
        <path id="Trazado_200475" data-name="Trazado 200475" d="M136.924,355.983a43.732,43.732,0,0,1,2.4-7.682c4.617,4.018,8.8,8.5,13.212,12.727,10.056,9.646,19.72,19.7,29.542,29.59-2.555.9-3.8,2.882-4.445,5.364-.36-.31-.741-.6-1.078-.933q-19.119-18.885-38.231-37.776C137.877,356.827,137.393,356.412,136.924,355.983Z" fill="#b1b1b1"/>
        <path id="Trazado_200476" data-name="Trazado 200476" d="M275.318,358.954l6.831,3.926c-2.223,2.272-4.431,4.559-6.671,6.814q-14.88,14.98-29.773,29.947a9.7,9.7,0,0,0-3.991-.485c-1.852.279-1.957-.634-1.641-2.012a5.7,5.7,0,0,0,.32-1.634c-.131-1.649.672-2.03,2.149-1.947,1.825.1,3.661.009,5.492.029.872.01,1.513-.048,1.523-1.236.01-1.127-.483-1.326-1.436-1.3-1.27.034-2.543-.036-3.816-.061.592-.645,1.162-1.312,1.779-1.931q13.88-13.906,27.756-27.815C274.478,360.608,275.5,360.148,275.318,358.954Z" fill="#b1b1b1"/>
        <path id="Trazado_200477" data-name="Trazado 200477" d="M219.063,367.387q-.012-6.816-.025-13.632L237.655,335c2.815,2.006,6.073,3.331,8.675,5.662a21.551,21.551,0,0,1-1.752,1.948c-6.529,5.737-12.42,12.126-18.64,18.18C223.663,363,221.634,365.48,219.063,367.387Z" fill="#b1b1b1"/>
        <path id="Trazado_200478" data-name="Trazado 200478" d="M219.082,409.21q-.022-2.788-.044-5.578c8.015-7.666,15.616-15.744,23.7-23.351,8.778-8.259,17.063-17.043,25.563-25.6l3.8,2.339c-9.841,9.916-19.651,19.863-29.56,29.71-1.392,1.383-3.171,2.375-4.122,4.2a4.65,4.65,0,0,0-2.046,1.593c-5.082,5.07-10.143,10.162-15.238,15.218C220.542,408.327,220.137,409.247,219.082,409.21Z" fill="#b1b1b1"/>
        <path id="Trazado_200479" data-name="Trazado 200479" d="M338.219,433.079l-10.513,0c1.833-2.342,4.337-3.971,6.417-6.049,7.738-7.732,15.407-15.534,23.243-23.165,1.648-1.605,1.962-2.767.336-4.36a102.234,102.234,0,0,1,9.781,4.008c-.636.71-1.239,1.45-1.91,2.124Q351.9,419.367,338.219,433.079Z" fill="#b1b1b1"/>
        <path id="Trazado_200480" data-name="Trazado 200480" d="M160.7,433.053a59.258,59.258,0,0,1-8.289.009,27.336,27.336,0,0,1-2.2-1.8q-15.318-15.33-30.606-30.691a32.635,32.635,0,0,1,2.569-5.6c5.115,4.971,10.3,9.871,15.043,15.209-1.262-.389-1.162.663-1.4,1.334-.325.929.451.985,1,1.219a18.091,18.091,0,0,0,4.347.95q1.639,1.716,3.277,3.431C149.673,422.62,155.689,427.321,160.7,433.053Z" fill="#b1b1b1"/>
        <path id="Trazado_200481" data-name="Trazado 200481" d="M296.625,370.8a72.217,72.217,0,0,1,8.2,4.276l-.33.345c-1.213-.446-1.714.574-2.351,1.207q-6.774,6.728-13.506,13.5a4.231,4.231,0,0,1-2.3,1.607c-4.339-2.159-7.951-.358-8.517,4.252a14.116,14.116,0,0,0,.19,4.515q-4.761,4.657-9.528,9.308c-.715.693-1.287,1.7-2.547,1.449,2.439-3.485,2.516-7.461,2.39-11.479q4.925-4.859,9.85-9.718c2.83-2.794,5.513-5.759,8.523-8.342,3.269-2.8,6.09-6.039,9.237-8.948C296.546,372.209,296.42,371.467,296.625,370.8Z" fill="#b1b1b1"/>
        <path id="Trazado_200482" data-name="Trazado 200482" d="M321.858,433.092l-8.047-.011c11.8-12.344,24.491-23.789,36.4-36.019a3.908,3.908,0,0,1,.585-.416l5.735,2.368Z" fill="#75b62f"/>
        <path id="Trazado_200483" data-name="Trazado 200483" d="M182.084,390.618c-9.823-9.889-19.487-19.944-29.543-29.59-4.412-4.231-8.6-8.709-13.212-12.727a14.475,14.475,0,0,1,1.369-4.6c17.63,16.984,34.777,34.454,52.129,51.719a15.752,15.752,0,0,1-2.123,3.6q-1.192-1.087-2.387-2.172C187.675,392.212,186.233,390.772,182.084,390.618Z" fill="#dce736"/>
        <path id="Trazado_200484" data-name="Trazado 200484" d="M286.033,365.153c2.807.795,5.118,2.554,7.622,3.936-3.341,4.069-7.592,7.2-11.267,10.926-4.966,5.037-10.047,9.96-15.078,14.931a7.442,7.442,0,0,0-6.309-4.4c1.04-1.1,2.06-2.217,3.124-3.292Q275.07,376.2,286.033,365.153Z" fill="#b1b1b1"/>
        <path id="Trazado_200485" data-name="Trazado 200485" d="M219.073,381.367q-.028-3.932-.055-7.863a6.522,6.522,0,0,0,2.19-1.816c6.263-6.255,12.421-12.618,18.809-18.742,3.386-3.245,6.916-6.337,10.058-9.831q2.435,1.6,4.871,3.193c-.632.711-1.224,1.462-1.9,2.127q-11.139,10.938-22.3,21.859c-3.289,3.236-6.516,6.535-9.8,9.777C220.414,380.6,220.038,381.434,219.073,381.367Z" fill="#b1b1b1"/>
        <path id="Trazado_200486" data-name="Trazado 200486" d="M268.3,354.683c-8.5,8.555-16.785,17.339-25.563,25.6-8.085,7.607-15.686,15.685-23.7,23.351a22.985,22.985,0,0,1,.006-6.055c2.279-1.633,4.041-3.811,6.02-5.756Q245,372.236,264.882,352.605A11.946,11.946,0,0,1,268.3,354.683Z" fill="#75b62f"/>
        <path id="Trazado_200487" data-name="Trazado 200487" d="M219.073,432.347q-.027-.406-.055-.813c6.544-5.779,12.506-12.147,18.583-18.4.623.091,1.247.176,1.87.272,3.4.526,6.522-.041,8.826-2.78,2.166-2.576,2.089-5.492.721-8.447,1.746-1.142,2.767-3.111,4.655-4.089a23.145,23.145,0,0,0,.571,10.242l-25.265,24.745c-3.312.056-6.628.366-9.929-.171l.048-.2A.218.218,0,0,0,219.073,432.347Z" fill="#b1b1b1"/>
        <path id="Trazado_200488" data-name="Trazado 200488" d="M354.375,433.094l-10.019-.025a5.877,5.877,0,0,1,1.812-2.185q12.809-12.906,25.64-25.791l7.649,2.8c-.9,1.586-2.6,2.307-3.827,3.538q-10.056,10.077-20.113,20.152A13.514,13.514,0,0,0,354.375,433.094Z" fill="#b1b1b1"/>
        <path id="Trazado_200489" data-name="Trazado 200489" d="M114.129,411.128l3.586-6.649q11,10.944,21.993,21.894c2.191,2.19,4.306,4.457,6.456,6.688l-10.107,0Z" fill="#b1b1b1"/>
        <path id="Trazado_200490" data-name="Trazado 200490" d="M327.73,386.435c-.161.955-.95,1.446-1.556,2.054q-18.74,18.78-37.525,37.511c-2.42,2.4-5.129,4.5-7.38,7.085a26.29,26.29,0,0,1-5.855,0c3.435-3.451,6.725-7.062,10.344-10.306a125.625,125.625,0,0,0,9.849-9.7c4.618.682,6.589-.7,7.412-5.257.139-.773.151-1.568.222-2.353,7.058-6.747,13.99-13.62,20.68-20.735A14.965,14.965,0,0,1,327.73,386.435Z" fill="#75b62f"/>
        <path id="Trazado_200491" data-name="Trazado 200491" d="M339.252,391.6c-2.689,2.939-5.7,5.546-8.541,8.324-10.671,10.437-21.152,21.07-31.692,31.641a13.391,13.391,0,0,0-1.138,1.507,26.8,26.8,0,0,1-6.137.01q19.436-19.48,38.889-38.943c1.51-1.507,3.4-2.625,4.693-4.373Z" fill="#75b62f"/>
        <path id="Trazado_200492" data-name="Trazado 200492" d="M176.66,433.061l-10.247.012c-.579-.65-1.133-1.325-1.739-1.949-6.185-6.371-12.618-12.488-19.078-18.577a8.759,8.759,0,0,0,3.88-6.131c2.07,1.224,3.4,3.431,5.707,4.337l-.02-.027c-.235.549.073.8.531.967l-.031-.034.505.51-.033-.03c.166.458.422.754.963.536l-.033-.01c-.161,1.1.814,1.477,1.384,2.055Q167.525,423.919,176.66,433.061Z" fill="#b1b1b1"/>
        <path id="Trazado_200493" data-name="Trazado 200493" d="M136.924,355.983c.469.429.953.844,1.4,1.29q19.118,18.887,38.231,37.776c.337.333.718.623,1.078.932a15.147,15.147,0,0,0,.721,5.487l-.462.435c-2.231-2.148-4.492-4.265-6.687-6.449-5.978-5.951-11.735-12.142-17.946-17.837-6.093-5.587-11.65-11.708-17.771-17.254A14.586,14.586,0,0,1,136.924,355.983Z" fill="#dce736"/>
        <path id="Trazado_200494" data-name="Trazado 200494" d="M370.25,433.092l-10-.017c7.751-8.079,15.8-15.849,24.016-23.455a44.981,44.981,0,0,1,6.822,2.469,5.555,5.555,0,0,1-1.874,2.432Q379.743,423.816,370.25,433.092Z" fill="#b1b1b1"/>
        <path id="Trazado_200495" data-name="Trazado 200495" d="M192.545,433.062H182.463q-9.834-9.9-19.669-19.807c2.5-.887,3.68-3,4.783-5.175Z" fill="#b1b1b1"/>
        <path id="Trazado_200496" data-name="Trazado 200496" d="M128.351,380.178q1.463-3.947,2.924-7.891c7.913,7.38,15.1,15.513,23.287,22.607a21.791,21.791,0,0,0-1.387,8.646c-3.9-2.825-7.031-6.453-10.4-9.839,1.579-.039,3.158-.116,4.737-.1.959.009,1.415-.237,1.424-1.327.009-1.2-.645-1.21-1.5-1.212-2.53,0-5.06-.044-7.59-.07q-5.031-5.107-10.061-10.215C129.389,380.373,129.005,379.956,128.351,380.178Z" fill="#b1b1b1"/>
        <path id="Trazado_200497" data-name="Trazado 200497" d="M219.073,381.367c.965.067,1.341-.766,1.878-1.3,3.282-3.242,6.509-6.541,9.8-9.777q11.132-10.947,22.3-21.859c.677-.665,1.269-1.416,1.9-2.127a15.126,15.126,0,0,1,3.808,2.437c-.427.356-.882.683-1.276,1.073q-19.22,18.981-38.429,37.974A23.046,23.046,0,0,1,219.073,381.367Z" fill="#75b62f"/>
        <path id="Trazado_200498" data-name="Trazado 200498" d="M350.8,396.646a3.908,3.908,0,0,0-.585.416c-11.914,12.23-24.6,23.675-36.4,36.019a26.645,26.645,0,0,1-5.847.011c7.6-7.63,15.051-15.428,22.869-22.834,5.322-5.042,10.559-10.151,15.591-15.477A16.808,16.808,0,0,1,350.8,396.646Z" fill="#75b62f"/>
        <path id="Trazado_200499" data-name="Trazado 200499" d="M253.674,398.09c-1.889.98-2.91,2.949-4.657,4.091a12.966,12.966,0,0,0-3.312-2.54q14.888-14.973,29.773-29.947c2.24-2.255,4.448-4.542,6.671-6.814a17.2,17.2,0,0,1,3.883,2.273q-10.955,11.049-21.907,22.1c-1.064,1.075-2.084,2.193-3.123,3.292C256.529,391.084,254.675,394.172,253.674,398.09Z" fill="#75b62f"/>
        <path id="Trazado_200500" data-name="Trazado 200500" d="M245.614,433.094l-10.5-.025a5.024,5.024,0,0,1,1.641-2.014q7.608-7.41,15.246-14.79c1.486-1.437,3-2.846,4.5-4.268,3.012,2.23,5.975,2.027,8.9-.18.239,1.268-.769,1.841-1.469,2.546-5.1,5.133-10.233,10.232-15.321,15.375C247.558,430.8,246.275,431.675,245.614,433.094Z" fill="#b1b1b1"/>
        <path id="Trazado_200501" data-name="Trazado 200501" d="M245.614,433.094c.661-1.419,1.944-2.292,3-3.356,5.088-5.143,10.222-10.242,15.321-15.375.7-.705,1.708-1.278,1.468-2.544l.536-.558c1.261.244,1.833-.758,2.548-1.451q4.782-4.637,9.529-9.307a8.115,8.115,0,0,0,2.7,3.419q-9.066,8.984-18.128,17.97c-3.719,3.7-7.4,7.454-11.09,11.183A26.558,26.558,0,0,1,245.614,433.094Z" fill="#75b62f"/>
        <path id="Trazado_200502" data-name="Trazado 200502" d="M321.858,433.092l34.678-34.078,1.168.495c1.624,1.591,1.31,2.753-.338,4.358-7.836,7.631-15.505,15.433-23.243,23.165-2.08,2.078-4.584,3.707-6.417,6.049A26.654,26.654,0,0,1,321.858,433.092Z" fill="#75b62f"/>
        <path id="Trazado_200503" data-name="Trazado 200503" d="M238.415,390.929c.952-1.822,2.731-2.814,4.123-4.2,9.909-9.847,19.719-19.794,29.56-29.71a10.549,10.549,0,0,1,3.221,1.933c.178,1.193-.841,1.653-1.479,2.293q-13.858,13.926-27.756,27.815c-.617.619-1.187,1.286-1.779,1.931l-5.758.1Z" fill="#75b62f"/>
        <path id="Trazado_200504" data-name="Trazado 200504" d="M386.61,433.079l-10.512,0c6.859-6.138,13.193-12.808,19.588-19.416l7.664,2.464Z" fill="#b1b1b1"/>
        <path id="Trazado_200505" data-name="Trazado 200505" d="M295.607,413.074a125.625,125.625,0,0,1-9.849,9.7c-3.619,3.244-6.909,6.855-10.344,10.306l-8.078,0c8.234-8.439,16.519-16.827,25.26-24.747A7.212,7.212,0,0,0,295.607,413.074Z" fill="#b1b1b1"/>
        <path id="Trazado_200506" data-name="Trazado 200506" d="M250.075,343.115c-3.142,3.494-6.672,6.586-10.058,9.831-6.388,6.124-12.546,12.487-18.809,18.742a6.522,6.522,0,0,1-2.19,1.816,23.625,23.625,0,0,1,.045-6.116c2.571-1.908,4.6-4.384,6.875-6.6,6.22-6.054,12.111-12.443,18.64-18.18a21.551,21.551,0,0,0,1.752-1.948A14.049,14.049,0,0,1,250.075,343.115Z" fill="#75b62f"/>
        <path id="Trazado_200507" data-name="Trazado 200507" d="M123.957,390.947a46.9,46.9,0,0,1,2.965-7.121l10.863,10.653c-.1.7-.2,1.4-.284,2.105-.178,1.49-.935,3.28-.37,4.4.767,1.519,2.832.051,4.268.573.362.131.8.038,1.17.158,1.926.628,3.416,1.71,3.59,3.921.169,2.132-.352,3.936-2.618,4.75Z" fill="#b1b1b1"/>
        <path id="Trazado_200508" data-name="Trazado 200508" d="M371.808,405.093q-12.824,12.893-25.64,25.791a5.877,5.877,0,0,0-1.812,2.185,26.8,26.8,0,0,1-6.137.01q13.68-13.718,27.354-27.44c.671-.674,1.274-1.414,1.91-2.124A18.3,18.3,0,0,1,371.808,405.093Z" fill="#75b62f"/>
        <path id="Trazado_200509" data-name="Trazado 200509" d="M146.164,433.061c-2.15-2.231-4.265-4.5-6.456-6.688q-10.974-10.968-21.993-21.894a14.114,14.114,0,0,1,1.892-3.907q15.3,15.35,30.606,30.691a27.336,27.336,0,0,0,2.2,1.8A32.9,32.9,0,0,1,146.164,433.061Z" fill="#dce736"/>
        <path id="Trazado_200510" data-name="Trazado 200510" d="M192.545,433.062l-24.968-24.981q.377-2.569.754-5.14c10.265,9.958,19.99,20.465,30.553,30.121A33.985,33.985,0,0,1,192.545,433.062Z" fill="#dce736"/>
        <path id="Trazado_200511" data-name="Trazado 200511" d="M267.31,394.946c5.031-4.971,10.112-9.894,15.078-14.931,3.675-3.728,7.926-6.857,11.267-10.926l1.369.815.67.442-.037-.082c.057.6.406.736.932.6l.036-.056c-.2.663-.079,1.405-.689,1.968-3.147,2.909-5.968,6.143-9.237,8.948-3.01,2.583-5.693,5.548-8.523,8.342q-4.923,4.861-9.85,9.717Q267.818,397.363,267.31,394.946Z" fill="#75b62f"/>
        <path id="Trazado_200512" data-name="Trazado 200512" d="M323.921,384.729c-6.69,7.115-13.622,13.988-20.68,20.735-.474-1.913-.965-3.817-2.7-5.054q8.023-8.123,16.05-16.241c.661-.668,1.444-1.25,1.188-2.368A27.539,27.539,0,0,1,323.921,384.729Z" fill="#b1b1b1"/>
        <path id="Trazado_200513" data-name="Trazado 200513" d="M384.269,409.62C376.057,417.226,368,425,360.253,433.075a26.548,26.548,0,0,1-5.877.019,13.385,13.385,0,0,1,1.141-1.507q10.044-10.089,20.113-20.152c1.229-1.231,2.927-1.952,3.827-3.538A19.4,19.4,0,0,1,384.269,409.62Z" fill="#75b62f"/>
        <path id="Trazado_200514" data-name="Trazado 200514" d="M292.6,408.334c-8.741,7.92-17.026,16.308-25.26,24.747a26.645,26.645,0,0,1-5.847.011q9.862-9.9,19.731-19.793c.538-.539.983-1.323,1.966-1.1.265.419-.73,1.109.257,1.347.8.193,1.282-.223,1.717-.918,1.815-2.9,3.7-5.764,5.554-8.64a.885.885,0,0,0,.537-.94l-.02.035.442-.579-.071-.016,1.635.122A18.279,18.279,0,0,0,292.6,408.334Z" fill="#75b62f"/>
        <path id="Trazado_200515" data-name="Trazado 200515" d="M407.736,417.549l8.224,2.607c-.056.071-.114.141-.171.212-4.953,3.614-8.944,8.214-13.022,12.726l-10.02-.025a5.174,5.174,0,0,1,1.629-2Q401.045,424.3,407.736,417.549Z" fill="#b1b1b1"/>
        <path id="Trazado_200516" data-name="Trazado 200516" d="M429.745,424.112l18.19,4.511,5.76,1.428c-.716,1.122-2.029,1.746-2.537,3.043l-12.257-.009a19.826,19.826,0,0,1,2.132-2.209c1.346-1.036.729-1.72-.177-2.587-.923-.883-1.611-1.682-2.834-.278-1.554,1.783-3.307,3.392-4.974,5.075l-10-.005c2.175-2.21,4.294-4.479,6.552-6.6A1.47,1.47,0,0,0,429.745,424.112Z" fill="#b1b1b1"/>
        <path id="Trazado_200517" data-name="Trazado 200517" d="M154.562,394.894c-8.191-7.094-15.374-15.227-23.287-22.607q.752-2.2,1.5-4.392c3.053,3.02,6.084,6.063,9.164,9.056q7.6,7.388,15.251,14.724Z" fill="#dce736"/>
        <path id="Trazado_200518" data-name="Trazado 200518" d="M256.5,412c-1.5,1.422-3.014,2.831-4.5,4.268q-7.634,7.384-15.246,14.79a5.024,5.024,0,0,0-1.641,2.014,26.8,26.8,0,0,1-6.137.01l25.265-24.745Z" fill="#75b62f"/>
        <path id="Trazado_200519" data-name="Trazado 200519" d="M130.259,433.062h-8.165c-3.731-3.746-7.471-7.482-11.182-11.247a2.572,2.572,0,0,0-2.45-1.062l3.612-5.826Z" fill="#b1b1b1"/>
        <path id="Trazado_200520" data-name="Trazado 200520" d="M219.017,347.674q0-5.07,0-10.14c2.813-1.979,4.857-4.771,7.421-7.007a2.228,2.228,0,0,0,.566-3.118L234,332.392C229.531,338,224.228,342.794,219.017,347.674Z" fill="#b1b1b1"/>
        <path id="Trazado_200521" data-name="Trazado 200521" d="M395.686,413.665c-6.4,6.608-12.729,13.278-19.588,19.416a26.654,26.654,0,0,1-5.848.011q9.486-9.283,18.967-18.571a5.555,5.555,0,0,0,1.874-2.432A14.767,14.767,0,0,1,395.686,413.665Z" fill="#75b62f"/>
        <path id="Trazado_200522" data-name="Trazado 200522" d="M145.6,412.547c6.46,6.089,12.893,12.206,19.078,18.577.606.624,1.16,1.3,1.739,1.949a28.009,28.009,0,0,1-5.717-.02c-5.007-5.732-11.023-10.433-16.252-15.94q-1.634-1.721-3.276-3.431Z" fill="#dce736"/>
        <path id="Trazado_200523" data-name="Trazado 200523" d="M130.259,433.062l-18.185-18.134,2.055-3.8,21.928,21.935A28.659,28.659,0,0,1,130.259,433.062Z" fill="#dce736"/>
        <path id="Trazado_200524" data-name="Trazado 200524" d="M162.794,413.256q9.834,9.9,19.669,19.807a28.635,28.635,0,0,1-5.8,0q-9.112-9.164-18.211-18.341c-.57-.578-1.545-.957-1.384-2.055C158.922,413.376,160.79,413.971,162.794,413.256Z" fill="#dce736"/>
        <path id="Trazado_200525" data-name="Trazado 200525" d="M215.024,318.333v6.208c-.959.114-1.265-.669-1.726-1.124-3.456-3.412-6.913-6.824-10.3-10.3-5.155-5.29-10.962-9.911-15.823-15.5,3.117.684,5.4,2.806,7.786,4.675C201.7,307.574,208.342,312.977,215.024,318.333Z" fill="#b1b1b1"/>
        <path id="Trazado_200526" data-name="Trazado 200526" d="M317.778,381.8c.256,1.118-.527,1.7-1.188,2.368q-8.034,8.112-16.049,16.243a6.468,6.468,0,0,0-4.978-.164c-.167-1.18.834-1.645,1.467-2.285,5.2-5.245,10.43-10.457,15.641-15.689a4.863,4.863,0,0,0,1.705-2.238,6.373,6.373,0,0,1,2.714,1.312c.1.316.273.524.637.486Z" fill="#75b62f"/>
        <path id="Trazado_200527" data-name="Trazado 200527" d="M123.957,390.947l19.585,19.437c-2.149,1.244-4.239.668-6.32-.2-4.744-5.339-9.931-10.239-15.046-15.21A15.078,15.078,0,0,1,123.957,390.947Z" fill="#dce736"/>
        <path id="Trazado_200528" data-name="Trazado 200528" d="M219.017,347.674c5.211-4.88,10.514-9.67,14.979-15.282L237.654,335l-18.616,18.756A25.2,25.2,0,0,1,219.017,347.674Z" fill="#75b62f"/>
        <path id="Trazado_200529" data-name="Trazado 200529" d="M416.725,433.092l-8.081-.017c2.288-2.32,4.568-4.647,6.865-6.958,2.759-2.777,2.765-2.771.28-5.749.057-.071.115-.141.171-.212,3.518,1,7.126,1.681,10.55,3a4.167,4.167,0,0,1-1.526,2.078C422.2,427.828,419.245,430.228,416.725,433.092Z" fill="#b1b1b1"/>
        <path id="Trazado_200530" data-name="Trazado 200530" d="M407.736,417.548q-6.682,6.756-13.36,13.517a5.174,5.174,0,0,0-1.629,2,26.793,26.793,0,0,1-6.136.01l16.739-16.95Z" fill="#75b62f"/>
        <path id="Trazado_200531" data-name="Trazado 200531" d="M415.789,420.368c2.485,2.978,2.479,2.972-.28,5.749-2.3,2.311-4.577,4.638-6.865,6.958a26.54,26.54,0,0,1-5.876.019C406.845,428.582,410.836,423.982,415.789,420.368Z" fill="#75b62f"/>
        <path id="Trazado_200532" data-name="Trazado 200532" d="M108.462,420.754a2.572,2.572,0,0,1,2.45,1.062c3.711,3.765,7.451,7.5,11.182,11.247a28.635,28.635,0,0,1-5.8,0l-9.6-9.562Z" fill="#dce736"/>
        <path id="Trazado_200533" data-name="Trazado 200533" d="M106.695,423.5l9.6,9.562-8.092,0c-1.669-1.775-3.87-2.98-5.324-4.985C104.084,426.5,104.758,424.471,106.695,423.5Z" fill="#b1b1b1"/>
        <path id="Trazado_200534" data-name="Trazado 200534" d="M137.785,394.479l-10.863-10.653a11.8,11.8,0,0,1,1.429-3.649c.654-.221,1.038.2,1.435.6q5.03,5.109,10.061,10.215C137.261,391.029,138.332,393.233,137.785,394.479Z" fill="#dce736"/>
        <path id="Trazado_200535" data-name="Trazado 200535" d="M416.725,433.092c2.52-2.864,5.479-5.264,8.259-7.854a4.167,4.167,0,0,0,1.526-2.078,5.343,5.343,0,0,1,2.818.8l.446.178-.029-.024a1.47,1.47,0,0,1-.142,2.367c-2.258,2.123-4.377,4.392-6.552,6.6A31.249,31.249,0,0,1,416.725,433.092Z" fill="#75b62f"/>
        <path id="Trazado_200536" data-name="Trazado 200536" d="M227.006,327.409a2.23,2.23,0,0,1-.567,3.118c-2.564,2.236-4.608,5.028-7.421,7.007a21.374,21.374,0,0,1,.083-6.145,37.409,37.409,0,0,0,5.664-5.567Z" fill="#75b62f"/>
        <path id="Trazado_200537" data-name="Trazado 200537" d="M224.765,325.822a37.409,37.409,0,0,1-5.664,5.567q-.031-4.859-.064-9.715A27.6,27.6,0,0,1,224.765,325.822Z" fill="#b1b1b1"/>
        <path id="Trazado_200538" data-name="Trazado 200538" d="M433.048,433.086c1.667-1.683,3.42-3.292,4.974-5.075,1.223-1.4,1.911-.6,2.834.278.906.867,1.523,1.551.177,2.587a19.826,19.826,0,0,0-2.132,2.209A26.514,26.514,0,0,1,433.048,433.086Z" fill="#75b62f"/>
        <path id="Trazado_200539" data-name="Trazado 200539" d="M102.875,428.078c1.454,2.005,3.655,3.21,5.324,4.985a36.584,36.584,0,0,1-6.494,0q-.753-.831-1.5-1.663Z" fill="#dce736"/>
        <path id="Trazado_200540" data-name="Trazado 200540" d="M451.158,433.094c.508-1.3,1.821-1.921,2.537-3.043a23.59,23.59,0,0,1,4.847,1.216l-1.511,1.809A26.633,26.633,0,0,1,451.158,433.094Z" fill="#75b62f"/>
        <path id="Trazado_200541" data-name="Trazado 200541" d="M457.031,433.076l1.511-1.809,8.338,1.622.1.254Z" fill="#b1b1b1"/>
        <path id="Trazado_200542" data-name="Trazado 200542" d="M100.2,431.4q.75.833,1.5,1.663l-2.593.129C99.018,432.221,99.715,431.88,100.2,431.4Z" fill="#b1b1b1"/>
        <path id="Trazado_200543" data-name="Trazado 200543" d="M296.589,370.86c-.526.14-.875,0-.932-.6C296.059,370.319,296.45,370.392,296.589,370.86Z" fill="#b1b1b1"/>
        <path id="Trazado_200544" data-name="Trazado 200544" d="M429.774,424.136l-.446-.178Z" fill="#b1b1b1"/>
        <path id="Trazado_200545" data-name="Trazado 200545" d="M295.694,370.346l-.67-.442Z" fill="#b1b1b1"/>
        <path id="Trazado_200546" data-name="Trazado 200546" d="M317.727,381.834c-.364.038-.542-.17-.637-.486C317.356,381.439,317.685,381.448,317.727,381.834Z" fill="#b1b1b1"/>
        <path id="Trazado_200547" data-name="Trazado 200547" d="M219.056,425.409q-.009-4.893-.018-9.787,7.984-7.979,15.981-15.944c.625-.619,1.093-1.676,2.313-1.264-.29,3.037-.289,3.007,2.89,3.086,1.078.027,2.151.242,3.227.371-5.779,4.557-10.5,10.211-15.822,15.244C224.739,419.848,222.181,422.922,219.056,425.409Z" fill="#b1b1b1"/>
        <path id="Trazado_200548" data-name="Trazado 200548" d="M202.467,410.328c4.122,3.831,7.548,8.394,12.225,11.636.418.29.355.666.356,1.028.015,3.159.009,6.318.009,9.58-1.148-.26-1.584-1.076-2.175-1.657-6.011-5.907-11.807-12.033-18.038-17.716C197.9,413.62,200.8,413.6,202.467,410.328Z" fill="#b1b1b1"/>
        <path id="Trazado_200549" data-name="Trazado 200549" d="M219.056,425.409c3.125-2.487,5.683-5.561,8.571-8.294,5.32-5.033,10.043-10.687,15.823-15.243a3.889,3.889,0,0,1,3.159,3.071l-6.312,5.918a5.99,5.99,0,0,1-2.721-.515c-.558-.252-1.245-.463-1.43.527-.122.652-.566,1.357.432,1.738a10.287,10.287,0,0,1,1.023.525c-6.077,6.251-12.039,12.619-18.583,18.4A24.1,24.1,0,0,1,219.056,425.409Z" fill="#75b62f"/>
        <path id="Trazado_200550" data-name="Trazado 200550" d="M237.333,398.413c-1.221-.411-1.689.646-2.314,1.265q-8.018,7.945-15.981,15.944a23.177,23.177,0,0,1,.043-6.411c1.056.036,1.461-.884,2.051-1.47,5.1-5.056,10.156-10.148,15.238-15.218a4.65,4.65,0,0,1,2.046-1.593l.131.162-1.043,6.25a.71.71,0,0,0-.283,1.013Z" fill="#75b62f"/>
        <path id="Trazado_200551" data-name="Trazado 200551" d="M202.467,410.328c-1.671,3.269-4.563,3.292-7.623,2.871-.644-.528-.854-1.505-1.787-1.735.02-.377-.005-.724-.5-.756l.026.023c-.69-3.1-.978-6.165.868-9.022a7.325,7.325,0,0,1,3.935-2.043c3.809.485,4.849,1.527,5.775,5.788A16.929,16.929,0,0,1,202.467,410.328Zm-7.313-6.817a7.019,7.019,0,0,0-.575,4.654c.282,1.758.99,3.336,3.058,3.367,2.019.03,2.618-1.467,2.8-3.2a7.524,7.524,0,0,0-.159-4.439c-.364-1.146-.935-2.084-2.184-2.211A2.462,2.462,0,0,0,195.154,403.511Z" fill="#111112"/>
        <path id="Trazado_200552" data-name="Trazado 200552" d="M190.7,399.02a15.72,15.72,0,0,0,2.124-3.6c.647-1.082,1.383-2.12,1.916-3.254.644-1.367,1.529-1.917,3.215-1.275-1.274,1.981-2.9,3.7-3.679,5.909a15.8,15.8,0,0,0-2.166,3.828L188.5,406.9a17.459,17.459,0,0,0-2.163,3.921c-.51.778-1.018,1.559-1.531,2.336a1.147,1.147,0,0,1-1.474.362c-.873-.379-.108-.9.07-1.309.466-1.06,1.006-2.087,1.517-3.127a13.526,13.526,0,0,0,2.149-3.5Z" fill="#111112"/>
        <path id="Trazado_200553" data-name="Trazado 200553" d="M188.5,406.9l3.615-6.271,1.335,1.078c-1.846,2.857-1.558,5.92-.868,9.022C190.9,409.8,189.812,408.228,188.5,406.9Z" fill="#b1b1b1"/>
        <path id="Trazado_200554" data-name="Trazado 200554" d="M219.073,432.347a.218.218,0,0,1,.025.365A.31.31,0,0,1,219.073,432.347Z" fill="#4bb5c1"/>
        <path id="Trazado_200555" data-name="Trazado 200555" d="M192.554,410.708c.5.032.523.379.5.756Z" fill="#b1b1b1"/>
        <path id="Trazado_200556" data-name="Trazado 200556" d="M193.448,401.709l-1.335-1.078a15.784,15.784,0,0,1,2.166-3.829,14.637,14.637,0,0,0,3.1,2.864A7.325,7.325,0,0,0,193.448,401.709Z" fill="#dad124"/>
        <path id="Trazado_200557" data-name="Trazado 200557" d="M162.794,413.256c-2,.715-3.872.12-5.729-.591l.033.01c-.2-.392-.435-.73-.963-.536l.033.03c.089-.425-.024-.649-.505-.51l.031.034c.249-.557-.135-.765-.531-.967l.02.027a22.63,22.63,0,0,1-2.008-7.213,21.791,21.791,0,0,1,1.387-8.646l2.63-3.219c6.07-2.993,10.2,1.038,10.89,7.225.149,1.34.17,2.694.249,4.041q-.376,2.569-.754,5.14C166.474,410.26,165.294,412.369,162.794,413.256Zm1.958-14.527.02.029a4.887,4.887,0,0,0-.46-2.735c-1.14-2.815-2.71-3.537-5.217-2.374a4.769,4.769,0,0,0-2.115,3.713c-1.1,3.008-.818,6.074-.3,9.125.374,2.188,2.816,4.765,4.3,4.715,1.823-.06,3.322-1.978,3.784-4.864.062-.388.057-.787.083-1.181a12.609,12.609,0,0,0,.14-5.858C165.067,399.044,165.05,398.827,164.752,398.729Z" fill="#111112"/>
        <path id="Trazado_200558" data-name="Trazado 200558" d="M187.066,405.581a13.526,13.526,0,0,1-2.149,3.5l-5.383-5.464.329-.37a5.3,5.3,0,0,0,5.4.529Z" fill="#dad124"/>
        <path id="Trazado_200559" data-name="Trazado 200559" d="M179.059,403.137A2.5,2.5,0,0,1,177.9,401.9l.461-.433.951,1.433C179.225,402.978,179.142,403.057,179.059,403.137Z" fill="#dad124"/>
        <path id="Trazado_200560" data-name="Trazado 200560" d="M179.534,403.621l-.474-.485c.082-.079.165-.158.25-.235l.553.35Z" fill="#dad124"/>
        <path id="Trazado_200561" data-name="Trazado 200561" d="M286.338,391.735a4.231,4.231,0,0,0,2.3-1.607q6.753-6.748,13.506-13.5c.637-.633,1.138-1.653,2.351-1.207,2.011,2.975,2.022,2.986-.694,5.678q-7.476,7.407-14.974,14.791C288.221,394.372,287.969,392.64,286.338,391.735Z" fill="#75b62f"/>
        <path id="Trazado_200562" data-name="Trazado 200562" d="M286.338,391.735c1.631.905,1.883,2.637,2.485,4.159-.1,2.734.034,5.492-2.729,7.3a6.1,6.1,0,0,1-5.383.724,8.119,8.119,0,0,1-2.7-3.42,14.1,14.1,0,0,1-.191-4.516C278.387,391.377,282,389.576,286.338,391.735Zm-6.063,6.108a4.322,4.322,0,0,0,.719,3.4c1.178,1.65,3.163,1.62,4.01-.194,1.185-2.536,1.444-5.149-.358-7.6-1.751-1.258-2.988-1.031-3.874.755A5.8,5.8,0,0,0,280.275,397.843Z" fill="#111112"/>
        <path id="Trazado_200563" data-name="Trazado 200563" d="M295.563,400.248a6.468,6.468,0,0,1,4.978.164c1.735,1.235,2.226,3.139,2.7,5.052-.071.785-.083,1.58-.222,2.353-.823,4.553-2.794,5.939-7.412,5.257a7.212,7.212,0,0,1-3.011-4.74,18.279,18.279,0,0,1,.641-5.719l-.057.012c.387.035.426-.245.468-.52l-.014.018a1.286,1.286,0,0,0,.749-.962l.192-.03.03-.193c.421-.114.832-.241.975-.728Zm-.417,5.2a7.227,7.227,0,0,0,.557,4.629c.685,1.217,1.675,1.69,2.92.8,2.733-1.954,2.832-6.565.221-8.818C296.5,401.382,295.561,402.24,295.146,405.449Z" fill="#111112"/>
        <path id="Trazado_200564" data-name="Trazado 200564" d="M290.714,403.993c-1.857,2.876-3.739,5.737-5.554,8.64-.435.7-.916,1.111-1.717.918-.987-.238.008-.928-.257-1.347l-.064.01c.539-.111.549-.6.714-.987,4.086-6.088,7.751-12.428,11.289-18.845.566-1.026,1.028-2.293,2.78-1.518q-3.156,5.821-6.3,11.629l.07.016c-.366.026-.416.293-.442.579l.02-.035A1.052,1.052,0,0,0,290.714,403.993Z" fill="#111112"/>
        <path id="Trazado_200565" data-name="Trazado 200565" d="M295.58,400.212c-.143.487-.554.614-.975.728A.737.737,0,0,1,295.58,400.212Z" fill="#4bb5c1"/>
        <path id="Trazado_200566" data-name="Trazado 200566" d="M294.383,401.163a1.286,1.286,0,0,1-.749.962C293.573,401.562,293.79,401.216,294.383,401.163Z" fill="#4bb5c1"/>
        <path id="Trazado_200567" data-name="Trazado 200567" d="M283.836,411.227c-.165.382-.175.876-.714.987A.741.741,0,0,1,283.836,411.227Z" fill="#4bb5c1"/>
        <path id="Trazado_200568" data-name="Trazado 200568" d="M293.648,402.107c-.042.275-.081.555-.468.52A.434.434,0,0,1,293.648,402.107Z" fill="#4bb5c1"/>
        <path id="Trazado_200569" data-name="Trazado 200569" d="M179.863,403.251l-.553-.35-.951-1.433a15.147,15.147,0,0,1-.721-5.487c.646-2.481,1.89-4.466,4.445-5.363,4.15.154,5.592,1.594,6.234,6.23-.081,2.723-.553,5.275-3.051,6.932A5.3,5.3,0,0,1,179.863,403.251Zm3.7-1.059c2.577-1.482,3.145-7.311.843-9.09-1.5-1.158-2.718-.52-3.523.922a6.861,6.861,0,0,0-.653,4.835C180.586,400.728,180.854,402.685,183.565,402.192Z" fill="#111112"/>
        <path id="Trazado_200570" data-name="Trazado 200570" d="M237.5,397.342l1.043-6.25,5.758-.1c1.273.025,2.546.1,3.816.061.953-.025,1.446.174,1.436,1.3-.01,1.188-.651,1.246-1.523,1.236-1.831-.02-3.667.073-5.492-.029-1.477-.083-2.28.3-2.149,1.947a5.7,5.7,0,0,1-.32,1.634c-.316,1.378-.211,2.291,1.641,2.012a9.7,9.7,0,0,1,3.991.485,12.966,12.966,0,0,1,3.312,2.54c1.369,2.955,1.446,5.871-.72,8.447-2.3,2.739-5.426,3.306-8.826,2.78-.623-.1-1.247-.181-1.87-.272a10.287,10.287,0,0,0-1.023-.525c-1-.381-.554-1.086-.432-1.738.185-.99.872-.779,1.43-.527a5.992,5.992,0,0,0,2.722.515c4.441.737,6.925-1.593,6.311-5.918a3.889,3.889,0,0,0-3.159-3.071c-1.077-.13-2.15-.345-3.228-.372-3.179-.079-3.18-.049-2.89-3.086l-.112-.059C237.7,398.127,237.528,397.713,237.5,397.342Z" fill="#111112"/>
        <path id="Trazado_200571" data-name="Trazado 200571" d="M137.785,394.479c.547-1.246-.524-3.45,2.062-3.488,2.53.026,5.06.067,7.59.07.859,0,1.513.014,1.5,1.212-.009,1.09-.465,1.336-1.424,1.327-1.579-.015-3.158.062-4.737.1-3.176-.841-2.328,1.673-2.664,3.2-1.018,2.342.27,2.475,2.046,2.141,5.085.866,6.691,2.486,7.314,7.373a8.759,8.759,0,0,1-3.88,6.131l-4.428,1.135a18.089,18.089,0,0,1-4.348-.95c-.547-.234-1.323-.29-1-1.219.235-.671.135-1.723,1.4-1.334,2.084.873,4.174,1.449,6.323.205,2.265-.814,2.786-2.618,2.617-4.75-.174-2.211-1.664-3.293-3.59-3.921-.368-.12-.808-.027-1.17-.158-1.436-.522-3.5.946-4.268-.573-.565-1.118.192-2.908.37-4.4C137.585,395.881,137.69,395.181,137.785,394.479Z" fill="#111112"/>
        <path id="Trazado_200572" data-name="Trazado 200572" d="M256.5,412l-2.259-3.663a23.145,23.145,0,0,1-.571-10.242c1-3.92,2.856-7.008,7.329-7.546a7.441,7.441,0,0,1,6.308,4.4q.508,2.416,1.016,4.833c.126,4.019.049,7.995-2.39,11.48l-.537.56C262.478,414.024,259.515,414.227,256.5,412Zm8.78-8.853a11.938,11.938,0,0,0-.442-5.365c-.556-3.08-1.817-4.789-3.761-4.734-2.652.076-3.534,2.117-4.064,4.249a15.714,15.714,0,0,0-.229,8.193,6.075,6.075,0,0,0,1.6,4.379c2.269,2,4.426,1.677,5.718-.955A12.368,12.368,0,0,0,265.283,403.144Z" fill="#111112"/>
        <path id="Trazado_200573" data-name="Trazado 200573" d="M185.266,403.78c2.5-1.657,2.97-4.209,3.051-6.932q1.194,1.086,2.387,2.172l-3.638,6.561Z" fill="#b1b1b1"/>
        <path id="Trazado_200574" data-name="Trazado 200574" d="M149.476,406.416c-.623-4.887-2.229-6.507-7.314-7.373l-2.046-2.141c.336-1.528-.512-4.042,2.664-3.2,3.364,3.386,6.5,7.014,10.4,9.839a22.63,22.63,0,0,0,2.008,7.213C152.872,409.847,151.546,407.64,149.476,406.416Z" fill="#dce736"/>
        <path id="Trazado_200575" data-name="Trazado 200575" d="M156.135,412.139c.528-.194.76.144.963.536C156.557,412.893,156.3,412.6,156.135,412.139Z" fill="#dad124"/>
        <path id="Trazado_200576" data-name="Trazado 200576" d="M155.163,410.726c.4.2.78.41.531.967C155.236,411.526,154.928,411.275,155.163,410.726Z" fill="#dad124"/>
        <path id="Trazado_200577" data-name="Trazado 200577" d="M155.663,411.659c.481-.139.594.085.505.51Z" fill="#dad124"/>
        <path id="Trazado_200578" data-name="Trazado 200578" d="M290.714,403.993a1.052,1.052,0,0,1,.537-.94A.885.885,0,0,1,290.714,403.993Z" fill="#b1b1b1"/>
        <path id="Trazado_200579" data-name="Trazado 200579" d="M291.231,403.088c.026-.286.076-.553.442-.579Z" fill="#b1b1b1"/>
        <path id="Trazado_200580" data-name="Trazado 200580" d="M246.609,404.943c.614,4.325-1.87,6.655-6.311,5.918Z" fill="#b1b1b1"/>
        <path id="Trazado_200581" data-name="Trazado 200581" d="M237.5,397.342c.024.371.2.785-.284,1.013A.711.711,0,0,1,237.5,397.342Z" fill="#b1b1b1"/>
        <path id="Trazado_200582" data-name="Trazado 200582" d="M200.437,408.335c-.182,1.73-.781,3.227-2.8,3.2-2.068-.031-2.776-1.609-3.058-3.367a7.014,7.014,0,0,1,.576-4.654Z" fill="#b1b1b1"/>
        <path id="Trazado_200583" data-name="Trazado 200583" d="M200.437,408.335l-5.282-4.824a2.461,2.461,0,0,1,2.939-1.826c1.249.127,1.82,1.065,2.184,2.211A7.524,7.524,0,0,1,200.437,408.335Z" fill="#dad124"/>
        <path id="Trazado_200584" data-name="Trazado 200584" d="M164.855,405.157c-.026.394-.021.793-.083,1.181-.462,2.886-1.961,4.8-3.784,4.864-1.488.05-3.93-2.527-4.3-4.715-.522-3.051-.807-6.117.3-9.126Z" fill="#b1b1b1"/>
        <path id="Trazado_200585" data-name="Trazado 200585" d="M164.855,405.157l-7.875-7.8a4.769,4.769,0,0,1,2.113-3.711c1.954,1.634,3.29,3.958,5.679,5.108l-.02-.029.243.57A12.609,12.609,0,0,1,164.855,405.157Z" fill="#dce736"/>
        <path id="Trazado_200586" data-name="Trazado 200586" d="M164.772,398.758c-2.389-1.15-3.725-3.474-5.679-5.108,2.509-1.164,4.079-.442,5.219,2.373A4.887,4.887,0,0,1,164.772,398.758Z" fill="#b1b1b1"/>
        <path id="Trazado_200587" data-name="Trazado 200587" d="M164.995,399.3l-.243-.57C165.05,398.827,165.067,399.044,164.995,399.3Z" fill="#b1b1b1"/>
        <path id="Trazado_200588" data-name="Trazado 200588" d="M284.646,393.443c1.8,2.453,1.543,5.066.358,7.6-.847,1.814-2.832,1.844-4.01.194a4.322,4.322,0,0,1-.719-3.4A29.565,29.565,0,0,0,284.646,393.443Z" fill="#75b62f"/>
        <path id="Trazado_200589" data-name="Trazado 200589" d="M284.646,393.443a29.565,29.565,0,0,1-4.371,4.4,5.8,5.8,0,0,1,.5-3.645C281.658,392.412,282.895,392.185,284.646,393.443Z" fill="#b1b1b1"/>
        <path id="Trazado_200590" data-name="Trazado 200590" d="M298.844,402.058c2.611,2.253,2.512,6.864-.221,8.818-1.245.892-2.235.419-2.92-.8a7.227,7.227,0,0,1-.557-4.629Z" fill="#b1b1b1"/>
        <path id="Trazado_200591" data-name="Trazado 200591" d="M298.844,402.058l-3.7,3.391C295.561,402.24,296.5,401.382,298.844,402.058Z" fill="#4bb5c1"/>
        <path id="Trazado_200592" data-name="Trazado 200592" d="M180.232,398.859a6.861,6.861,0,0,1,.653-4.835c.805-1.442,2.024-2.08,3.523-.922,2.3,1.779,1.734,7.608-.843,9.09Z" fill="#b1b1b1"/>
        <path id="Trazado_200593" data-name="Trazado 200593" d="M180.232,398.859l3.333,3.333C180.854,402.685,180.586,400.728,180.232,398.859Z" fill="#dad124"/>
        <path id="Trazado_200594" data-name="Trazado 200594" d="M140.116,396.9l2.046,2.141C140.386,399.377,139.1,399.244,140.116,396.9Z" fill="#b1b1b1"/>
        <path id="Trazado_200595" data-name="Trazado 200595" d="M256.787,405.487a15.714,15.714,0,0,1,.229-8.193c.53-2.132,1.412-4.173,4.064-4.249,1.944-.055,3.205,1.654,3.761,4.735Z" fill="#b1b1b1"/>
        <path id="Trazado_200596" data-name="Trazado 200596" d="M256.787,405.487l8.054-7.707a11.929,11.929,0,0,1,.442,5.363l-6.893,6.723A6.075,6.075,0,0,1,256.787,405.487Z" fill="#75b62f"/>
        <path id="Trazado_200597" data-name="Trazado 200597" d="M258.39,409.866l6.893-6.723a12.37,12.37,0,0,1-1.175,5.768C262.816,411.543,260.659,411.863,258.39,409.866Z" fill="#b1b1b1"/>
      </g>
    </g>
  </g>
</svg>
