<svg xmlns="http://www.w3.org/2000/svg" width="99.339" height="110.386" viewBox="0 0 99.339 110.386">
  <g id="Grupo_150172" data-name="Grupo 150172" transform="translate(-3458.064 8327.973)">
    <g id="Grupo_150079" data-name="Grupo 150079" transform="translate(3458.064 -8327.973)">
      <path id="Trazado_201291" data-name="Trazado 201291" d="M55.83,507.3H34.816v-7.413a3.9,3.9,0,0,1,3.905-3.9h13.2a3.9,3.9,0,0,1,3.905,3.9Z" transform="translate(-27.696 -398.534)" fill="#dce736"/>
      <path id="Trazado_201292" data-name="Trazado 201292" d="M81.851,504.993H60.835V487.886a3.9,3.9,0,0,1,3.905-3.905H77.946a3.9,3.9,0,0,1,3.905,3.905Z" transform="translate(-32.7 -396.225)" fill="#dce736"/>
      <path id="Trazado_201293" data-name="Trazado 201293" d="M107.871,502.513H86.856V474.991a3.9,3.9,0,0,1,3.905-3.905h13.205a3.906,3.906,0,0,1,3.905,3.905Z" transform="translate(-37.705 -393.745)" fill="#dce736"/>
      <path id="Trazado_201294" data-name="Trazado 201294" d="M133.891,498.751H112.876V455.433a3.905,3.905,0,0,1,3.905-3.906h13.205a3.905,3.905,0,0,1,3.905,3.906Z" transform="translate(-42.71 -389.983)" fill="#dce736"/>
      <path id="Trazado_201295" data-name="Trazado 201295" d="M119.939,393.594h21.137a.71.71,0,0,0,.469-1.244l-5.49-4.835a.71.71,0,0,1,0-1.066l5.49-4.835a.71.71,0,0,0-.469-1.243H119.939Z" transform="translate(-44.068 -376.297)" fill="#75b62f"/>
      <path id="Trazado_201296" data-name="Trazado 201296" d="M114.7,404.4,91.8,416.839c-2.043,1.109-2.6,3.059-3.315,5.572l-4.554,16.1,11.159-4.572,4.331-13.093,11.524-7A8.432,8.432,0,0,0,114.7,404.4Z" transform="translate(-37.142 -380.919)" fill="#83d9ff"/>
      <path id="Trazado_201297" data-name="Trazado 201297" d="M114.7,404.4l-2.642,1.434a8.43,8.43,0,0,1-3.9,5.589l-10.5,6.379a3.262,3.262,0,0,0-1.4,1.76l-1.5,4.533a16.992,16.992,0,0,1-9.689,10.387l-1.139,4.027,11.159-4.573,4.331-13.092,11.524-7A8.434,8.434,0,0,0,114.7,404.4Z" transform="translate(-37.142 -380.919)" fill="#5fc9ed"/>
      <path id="Trazado_201298" data-name="Trazado 201298" d="M95.089,440.974l6.6,7.792c1.092,1.447,2.043,2.464,1.845,4.056l-1.543,12.465H97.963l-1.052-10.717a1.793,1.793,0,0,0-1.073-1.468L83.93,445.547Z" transform="translate(-37.142 -387.953)" fill="#38627c"/>
      <path id="Trazado_201299" data-name="Trazado 201299" d="M81.9,445.547l-.644,11.814a5.2,5.2,0,0,1-.287,2.371l-7.594,15.976h4.269l11.417-15.166a6.17,6.17,0,0,0,.969-2.8l3.028-16.766Z" transform="translate(-35.112 -387.953)" fill="#4f7693"/>
      <path id="Trazado_201300" data-name="Trazado 201300" d="M94.815,407.108l1.873,3.655a3.5,3.5,0,0,1-1.518,4.7l-1.448.741a3.5,3.5,0,0,1-4.7-1.518l-1.873-3.655a3.5,3.5,0,0,1,1.518-4.7l1.448-.741A3.5,3.5,0,0,1,94.815,407.108Z" transform="translate(-37.687 -381.073)" fill="#fecbaa"/>
      <path id="Trazado_201301" data-name="Trazado 201301" d="M124.546,390.165l-4.717-4.154,4.717-4.152a2.328,2.328,0,0,0-1.539-4.076H103.488v-.839a1.618,1.618,0,0,0-3.235,0v21.82l-13.288,7.215a5.11,5.11,0,0,0-.525-1.7l-1.872-3.655a5.12,5.12,0,0,0-6.881-2.22l-1.447.741a5.111,5.111,0,0,0-2.22,6.881l1.872,3.656a5.084,5.084,0,0,0,1.843,2,14.158,14.158,0,0,0-1.95,4.693l-.349,1.235a1.617,1.617,0,0,0,1.117,2,1.566,1.566,0,0,0,.44.061,1.618,1.618,0,0,0,1.556-1.178l.349-1.232c.709-2.5,1.144-3.84,2.53-4.592l2.485-1.35.307-.157c.1-.052.2-.111.294-.17l17.713-9.618a6.848,6.848,0,0,1-3.266,5.5l-11.519,7-.04.023-3.584,2.178a1.618,1.618,0,0,0,1.546,2.838l-2.72,8.223-1.988.816-5.406,2.215,1.558-5.508a1.618,1.618,0,1,0-3.114-.88L71.23,432.48a1.514,1.514,0,0,0-.058.351l-.645,11.835a5.41,5.41,0,0,1-.132,1.745L63.24,461.463h-5.2a5.53,5.53,0,0,0-5.524,5.524v4.67a5.482,5.482,0,0,0-2.287-.5h-13.2a5.529,5.529,0,0,0-5.523,5.524v5.794H27.619a1.618,1.618,0,1,0,0,3.235h95.388a1.618,1.618,0,0,0,0-3.235H118.8v-41.7a5.53,5.53,0,0,0-5.523-5.524h-9.788V407.029a10.087,10.087,0,0,0,1.625-8.647,1.617,1.617,0,0,0-1.625-1.187v-2.954h19.519a2.328,2.328,0,0,0,1.539-4.076ZM76.784,403.12a1.86,1.86,0,0,1,.93-1.1l1.447-.741a1.877,1.877,0,0,1,2.526.815l1.874,3.655a1.881,1.881,0,0,1-.624,2.412l-.527.285-1.112.57a1.88,1.88,0,0,1-2.526-.815L76.9,404.551A1.865,1.865,0,0,1,76.784,403.12Zm-3.251,58.842a5.492,5.492,0,0,0-1.777-.473l1.777-2.359Zm7.681-13.036a6.093,6.093,0,0,0,1.167-2.9c.044-.209.842-4.57.842-4.57s.756.471.835.5a.172.172,0,0,1,.1.141l.88,8.946H79.615ZM90.781,440l-1.366,11.046H88.287l-.91-9.256a3.409,3.409,0,0,0-1.906-2.736l-1.627-1.031,1.084-6.007s4.566,5.424,4.672,5.562C90.546,438.8,90.869,439.295,90.781,440Zm-17.475,7.829a8.765,8.765,0,0,0,.453-3l.588-10.794,7.483-3.066L80.47,438.5a.543.543,0,0,0-.011.061l-1.125,6.229a6.164,6.164,0,0,1-.677,2.156l-10.932,14.52h-.9ZM34.738,476.681a2.289,2.289,0,0,1,2.287-2.286h13.2a2.29,2.29,0,0,1,2.288,2.286v5.795H34.738Zm21.014,0v-9.694a2.29,2.29,0,0,1,2.288-2.287H71.246a2.289,2.289,0,0,1,2.287,2.287v15.489H55.753v-5.795Zm59.811-35.905v41.7H97.784v-9.7a1.618,1.618,0,1,0-3.236,0v9.7H76.769v-25.9a2.289,2.289,0,0,1,2.287-2.286h13.2a2.289,2.289,0,0,1,2.287,2.286v8.11a1.618,1.618,0,0,0,3.235,0V440.776a2.291,2.291,0,0,1,2.288-2.288h1.782l.017,0,.016,0h11.388A2.292,2.292,0,0,1,115.564,440.776Zm-15.492-5.524a5.53,5.53,0,0,0-5.523,5.524v10.771a5.471,5.471,0,0,0-1.875-.481l1.32-10.672c.259-2.08-.8-3.458-1.828-4.793-.108-.141-6.4-7.608-6.4-7.608l3.857-11.664,10.627-6.456v25.38Zm3.417-44.247v-9.986H120.6l-3.686,3.246a2.328,2.328,0,0,0,0,3.495l3.686,3.246H103.488Z" transform="translate(-26 -375.326)"/>
    </g>
  </g>
</svg>
