<svg xmlns="http://www.w3.org/2000/svg" width="113.538" height="113.469" viewBox="0 0 113.538 113.469">
  <g id="Grupo_150168" data-name="Grupo 150168" transform="translate(-2694 8319.439)">
    <g id="ejercicio" transform="translate(2694 -8319.439)">
      <g id="Grupo_149702" data-name="Grupo 149702" transform="translate(0 0)">
        <path id="Trazado_201218" data-name="Trazado 201218" d="M122.18,418.446V352.267l-93.113,49.21v16.969Z" transform="translate(-22.279 -313.461)" fill="#75b62f"/>
        <path id="Trazado_201219" data-name="Trazado 201219" d="M146.667,443.733h5.091v3.394h-5.091Z" transform="translate(-70.612 -360.228)"/>
        <path id="Trazado_201220" data-name="Trazado 201220" d="M127.067,443.733h5.091v3.394h-5.091Z" transform="translate(-62.42 -360.228)"/>
        <path id="Trazado_201221" data-name="Trazado 201221" d="M107.467,443.733h5.091v3.394h-5.091Z" transform="translate(-54.229 -360.228)"/>
        <path id="Trazado_201222" data-name="Trazado 201222" d="M87.867,443.733h5.091v3.394H87.867Z" transform="translate(-46.037 -360.228)"/>
        <path id="Trazado_201223" data-name="Trazado 201223" d="M68.267,443.733h5.091v3.394H68.267Z" transform="translate(-37.845 -360.228)"/>
        <path id="Trazado_201224" data-name="Trazado 201224" d="M128.915,402.908l-5.673-5.686-2.675,2.681,2.445,2.45h-6.781V330.327a1.891,1.891,0,0,0-2.869-1.623l-87.906,53.23V306.471l2.445,2.451,2.675-2.681L24.9,300.555a1.889,1.889,0,0,0-2.675,0l-5.673,5.686,2.675,2.681,2.445-2.451v16.274H16v3.791h5.673V339.8H16v3.791h5.673v13.268H16v3.791h5.673v13.268H16v3.791h5.673V390.98H16v3.791h5.673v9.477a1.893,1.893,0,0,0,1.891,1.9h99.447l-2.445,2.451,2.675,2.681,5.673-5.686a1.848,1.848,0,0,0,.131-2.635A.119.119,0,0,0,128.915,402.908ZM25.456,387.19h15.13V383.4H30.352l82.1-49.712V383.4h-9.456v3.791h9.456v15.163H25.456Z" transform="translate(-16 -300)"/>
        <path id="Trazado_201225" data-name="Trazado 201225" d="M38.867,489.467h6.787v3.394H38.867Z" transform="translate(-26.989 -379.392)"/>
        <path id="Trazado_201226" data-name="Trazado 201226" d="M68.267,489.467h6.787v3.394H68.267Z" transform="translate(-37.787 -379.392)"/>
        <path id="Trazado_201227" data-name="Trazado 201227" d="M97.667,489.467h6.787v3.394H97.667Z" transform="translate(-50.042 -379.392)"/>
        <path id="Trazado_201228" data-name="Trazado 201228" d="M127.067,489.467h6.787v3.394h-6.787Z" transform="translate(-62.296 -379.392)"/>
        <path id="Trazado_201229" data-name="Trazado 201229" d="M156.467,489.467h6.787v3.394h-6.787Z" transform="translate(-74.551 -379.392)"/>
      </g>
    </g>
  </g>
</svg>
