<svg xmlns="http://www.w3.org/2000/svg" width="100" height="99.922" viewBox="0 0 100 99.922">
  <g id="Grupo_150167" data-name="Grupo 150167" transform="translate(-3600.308 8674.666)">
    <g id="Grupo_150101" data-name="Grupo 150101" transform="translate(-4332.367 -8793.666)">
      <g id="Grupo_150056" data-name="Grupo 150056" transform="translate(7932.675 -179.967)">
        <path id="Trazado_201154" data-name="Trazado 201154" d="M25.951,349.335H7.032a1.488,1.488,0,0,1-1.488-1.488V343.67a10.948,10.948,0,0,1,10.948-10.948h0A10.949,10.949,0,0,1,27.44,343.67v4.176A1.489,1.489,0,0,1,25.951,349.335Z" transform="translate(-2.993 -17.843)" fill="#c3da40"/>
        <path id="Trazado_201155" data-name="Trazado 201155" d="M62.388,421.7a9.385,9.385,0,0,1-4.05-4.771,9.754,9.754,0,0,1-5.874-9.049,9.645,9.645,0,0,1,9.477-9.784H74a9.789,9.789,0,0,1,0,19.567H64.65a9.389,9.389,0,0,0,.1,2.5l.433,2.557a.408.408,0,0,1-.628.409Z" transform="translate(-27.605 -52.269)" fill="#f85316"/>
        <path id="Trazado_201156" data-name="Trazado 201156" d="M90.114,407.881a9.645,9.645,0,0,0-9.477-9.784H68.575a9.169,9.169,0,0,0-3.824.835,15.55,15.55,0,0,0,15.584,14.426h8.15A9.951,9.951,0,0,0,90.114,407.881Z" transform="translate(-34.139 -52.418)" fill="#f85316"/>
        <path id="Trazado_201157" data-name="Trazado 201157" d="M100.351,401.634a11.472,11.472,0,0,0,.262-3.792H88.9a12,12,0,1,1-.182-24h15.138A12.109,12.109,0,0,1,116.026,385.7a11.955,11.955,0,0,1-7.449,11.248c-.984,2.98-3.784,5.1-5.965,6.364l-2.247,1.3a.408.408,0,0,1-.6-.446Z" transform="translate(-40.219 -39.399)" fill="#75b62f"/>
        <path id="Trazado_201158" data-name="Trazado 201158" d="M86.53,389.287a12.013,12.013,0,0,1,12-12.187h13.649a12.234,12.234,0,0,0-8.32-3.26H88.72a12,12,0,1,0,.182,24h1.48A11.861,11.861,0,0,1,86.53,389.287Z" transform="translate(-40.293 -39.494)" fill="#dce736"/>
        <path id="Trazado_201159" data-name="Trazado 201159" d="M180.077,349.335H161.159a1.489,1.489,0,0,1-1.489-1.488V343.67a10.949,10.949,0,0,1,10.948-10.948h0a10.949,10.949,0,0,1,10.948,10.948v4.176A1.489,1.489,0,0,1,180.077,349.335Z" transform="translate(-84.207 -17.843)" fill="#75b62f"/>
        <path id="Trazado_201160" data-name="Trazado 201160" d="M25.951,476.44H7.032a1.489,1.489,0,0,1-1.488-1.489v-4.176a10.948,10.948,0,0,1,10.948-10.948h0A10.949,10.949,0,0,1,27.44,470.774v4.176A1.489,1.489,0,0,1,25.951,476.44Z" transform="translate(-2.993 -84.85)" fill="#dce736"/>
        <path id="Trazado_201161" data-name="Trazado 201161" d="M180.077,476.44H161.159a1.489,1.489,0,0,1-1.489-1.489v-4.176a10.949,10.949,0,0,1,10.948-10.948h0a10.949,10.949,0,0,1,10.948,10.948v4.176A1.49,1.49,0,0,1,180.077,476.44Z" transform="translate(-84.207 -84.85)" fill="#75b62f"/>
        <path id="Trazado_201162" data-name="Trazado 201162" d="M13.956,347.847V343.67a10.95,10.95,0,0,1,6.742-10.11,10.911,10.911,0,0,0-4.207-.839h0A10.949,10.949,0,0,0,5.543,343.67v4.176a1.489,1.489,0,0,0,1.489,1.488h8.413A1.488,1.488,0,0,1,13.956,347.847Z" transform="translate(-2.993 -17.843)" fill="#adbc15"/>
        <path id="Trazado_201163" data-name="Trazado 201163" d="M168.082,347.847V343.67a10.95,10.95,0,0,1,6.742-10.11,10.911,10.911,0,0,0-4.207-.839h0a10.949,10.949,0,0,0-10.948,10.948v4.176a1.489,1.489,0,0,0,1.489,1.488h8.413A1.488,1.488,0,0,1,168.082,347.847Z" transform="translate(-84.206 -17.843)" fill="#dce736"/>
        <path id="Trazado_201164" data-name="Trazado 201164" d="M13.956,474.951v-4.176a10.95,10.95,0,0,1,6.742-10.11,10.919,10.919,0,0,0-4.207-.839h0A10.949,10.949,0,0,0,5.543,470.774v4.176a1.489,1.489,0,0,0,1.489,1.489h8.413A1.489,1.489,0,0,1,13.956,474.951Z" transform="translate(-2.993 -84.85)" fill="#75b62f"/>
        <path id="Trazado_201165" data-name="Trazado 201165" d="M168.082,474.951v-4.176a10.95,10.95,0,0,1,6.742-10.11,10.919,10.919,0,0,0-4.207-.839h0a10.949,10.949,0,0,0-10.948,10.948v4.176a1.489,1.489,0,0,0,1.489,1.489h8.413A1.489,1.489,0,0,1,168.082,474.951Z" transform="translate(-84.206 -84.85)" fill="#dce736"/>
        <g id="Grupo_149685" data-name="Grupo 149685" transform="translate(6.31 306.541)">
          <path id="Trazado_201166" data-name="Trazado 201166" d="M20.809,329.618a7.095,7.095,0,1,1,7.095-7.095A7.1,7.1,0,0,1,20.809,329.618Z" transform="translate(-13.714 -315.428)" fill="#fad393"/>
          <path id="Trazado_201167" data-name="Trazado 201167" d="M174.935,329.618a7.095,7.095,0,1,1,7.095-7.095A7.1,7.1,0,0,1,174.935,329.618Z" transform="translate(-94.928 -315.428)" fill="#fad393"/>
          <path id="Trazado_201168" data-name="Trazado 201168" d="M20.809,456.723a7.095,7.095,0,1,1,7.095-7.1A7.1,7.1,0,0,1,20.809,456.723Z" transform="translate(-13.714 -384.053)" fill="#fad393"/>
          <path id="Trazado_201169" data-name="Trazado 201169" d="M174.935,456.723a7.095,7.095,0,1,1,7.095-7.1A7.1,7.1,0,0,1,174.935,456.723Z" transform="translate(-94.928 -384.053)" fill="#fad393"/>
        </g>
        <g id="Grupo_149686" data-name="Grupo 149686" transform="translate(6.309 306.541)">
          <path id="Trazado_201170" data-name="Trazado 201170" d="M20.414,322.523a7.1,7.1,0,0,1,3.744-6.252,7.095,7.095,0,1,0,0,12.5A7.1,7.1,0,0,1,20.414,322.523Z" transform="translate(-13.713 -315.428)" fill="#edb769"/>
          <path id="Trazado_201171" data-name="Trazado 201171" d="M174.54,322.523a7.1,7.1,0,0,1,3.744-6.252,7.095,7.095,0,1,0,0,12.5A7.1,7.1,0,0,1,174.54,322.523Z" transform="translate(-94.927 -315.428)" fill="#edb769"/>
          <path id="Trazado_201172" data-name="Trazado 201172" d="M20.414,449.628a7.1,7.1,0,0,1,3.744-6.252,7.095,7.095,0,1,0,0,12.5A7.1,7.1,0,0,1,20.414,449.628Z" transform="translate(-13.713 -384.053)" fill="#edb769"/>
          <path id="Trazado_201173" data-name="Trazado 201173" d="M174.54,449.628a7.1,7.1,0,0,1,3.744-6.252,7.095,7.095,0,1,0,0,12.5A7.1,7.1,0,0,1,174.54,449.628Z" transform="translate(-94.927 -384.053)" fill="#edb769"/>
        </g>
        <path id="Trazado_201174" data-name="Trazado 201174" d="M52.987,313.1a1.584,1.584,0,0,0,.8-.216,45.841,45.841,0,0,1,4.751-2.4,1.594,1.594,0,1,0-1.268-2.926,49.014,49.014,0,0,0-5.084,2.567,1.594,1.594,0,0,0,.8,2.973Z" transform="translate(-27.22 -4.568)"/>
        <path id="Trazado_201175" data-name="Trazado 201175" d="M122.083,303.651a45.642,45.642,0,0,1,5.184,1.215,1.594,1.594,0,0,0,.908-3.057,48.929,48.929,0,0,0-5.548-1.3,1.594,1.594,0,0,0-.545,3.142Z" transform="translate(-63.957 -0.82)"/>
        <path id="Trazado_201176" data-name="Trazado 201176" d="M98.474,302.239l.1,0c.9-.053,1.824-.081,2.732-.081h.005c.863,0,1.735.024,2.591.072a1.594,1.594,0,0,0,.178-3.184c-.916-.051-1.847-.077-2.769-.077H101.3c-.97,0-1.953.029-2.92.086a1.594,1.594,0,0,0,.092,3.186Z" transform="translate(-51.309)"/>
        <path id="Trazado_201177" data-name="Trazado 201177" d="M204.491,378.075A1.6,1.6,0,0,0,203.31,380a45.864,45.864,0,0,1,.929,5.243,1.6,1.6,0,0,0,1.581,1.408,1.633,1.633,0,0,0,.189-.011,1.6,1.6,0,0,0,1.4-1.77,49.046,49.046,0,0,0-.995-5.609A1.594,1.594,0,0,0,204.491,378.075Z" transform="translate(-107.744 -41.873)"/>
        <path id="Trazado_201178" data-name="Trazado 201178" d="M199.98,432.091a1.594,1.594,0,1,0,3,1.09,48.922,48.922,0,0,0,1.633-5.463,1.595,1.595,0,0,0-3.1-.732A45.679,45.679,0,0,1,199.98,432.091Z" transform="translate(-105.918 -67.152)"/>
        <path id="Trazado_201179" data-name="Trazado 201179" d="M144.656,310.358a45.919,45.919,0,0,1,4.763,2.386,1.594,1.594,0,0,0,1.592-2.762,48.863,48.863,0,0,0-5.1-2.553,1.594,1.594,0,1,0-1.259,2.929Z" transform="translate(-76.109 -4.498)"/>
        <path id="Trazado_201180" data-name="Trazado 201180" d="M4,425.908a1.6,1.6,0,0,0-1.183,1.919,48.774,48.774,0,0,0,1.637,5.458,1.594,1.594,0,0,0,3-1.094,45.511,45.511,0,0,1-1.53-5.1A1.594,1.594,0,0,0,4,425.908Z" transform="translate(-1.499 -67.209)"/>
        <path id="Trazado_201181" data-name="Trazado 201181" d="M74.923,305.007a1.6,1.6,0,0,0,.46-.068,45.6,45.6,0,0,1,5.18-1.232,1.594,1.594,0,0,0-.555-3.14,48.83,48.83,0,0,0-5.544,1.318,1.595,1.595,0,0,0,.458,3.122Z" transform="translate(-38.837 -0.851)"/>
        <path id="Trazado_201182" data-name="Trazado 201182" d="M207.293,401.783a1.594,1.594,0,0,0-1.594,1.594v.1a46.554,46.554,0,0,1-.305,5.319,1.594,1.594,0,0,0,1.4,1.767,1.577,1.577,0,0,0,.185.011,1.6,1.6,0,0,0,1.582-1.411,49.692,49.692,0,0,0,.327-5.685v-.1A1.6,1.6,0,0,0,207.293,401.783Z" transform="translate(-108.887 -54.45)"/>
        <path id="Trazado_201183" data-name="Trazado 201183" d="M115.871,503.5a46.207,46.207,0,0,1-5.291.615,1.594,1.594,0,0,0,.091,3.186l.093,0a49.2,49.2,0,0,0,5.658-.658,1.594,1.594,0,0,0-.552-3.14Z" transform="translate(-57.768 -108.419)"/>
        <path id="Trazado_201184" data-name="Trazado 201184" d="M92.359,504.131a46.1,46.1,0,0,1-5.291-.609,1.594,1.594,0,1,0-.548,3.141,49.283,49.283,0,0,0,5.659.652l.092,0a1.594,1.594,0,0,0,.089-3.186Z" transform="translate(-45.122 -108.429)"/>
        <path id="Trazado_201185" data-name="Trazado 201185" d="M69.508,498.61a45.619,45.619,0,0,1-5.007-1.819,1.594,1.594,0,1,0-1.262,2.928,48.7,48.7,0,0,0,5.358,1.947,1.594,1.594,0,1,0,.911-3.055Z" transform="translate(-32.983 -104.737)"/>
        <path id="Trazado_201186" data-name="Trazado 201186" d="M2.086,386.959a1.651,1.651,0,0,0,.184.011,1.594,1.594,0,0,0,1.582-1.413,45.776,45.776,0,0,1,.913-5.246,1.595,1.595,0,0,0-3.1-.729,49.068,49.068,0,0,0-.976,5.613A1.594,1.594,0,0,0,2.086,386.959Z" transform="translate(-0.363 -42.043)"/>
        <path id="Trazado_201187" data-name="Trazado 201187" d="M138.773,496.75a45.623,45.623,0,0,1-5,1.824,1.594,1.594,0,1,0,.915,3.055,48.874,48.874,0,0,0,5.354-1.951,1.595,1.595,0,0,0-1.266-2.927Z" transform="translate(-70.248 -104.715)"/>
        <path id="Trazado_201188" data-name="Trazado 201188" d="M2.1,410.791a1.594,1.594,0,0,0,1.4-1.768,46.448,46.448,0,0,1-.311-5.319,1.594,1.594,0,0,0-1.594-1.593h0A1.594,1.594,0,0,0,0,403.707a49.693,49.693,0,0,0,.332,5.685,1.592,1.592,0,0,0,1.768,1.4Z" transform="translate(0 -54.625)"/>
        <path id="Trazado_201189" data-name="Trazado 201189" d="M5.345,339.695h18.42a3.392,3.392,0,0,0,3.389-3.389v-3.842a11.517,11.517,0,0,0-.616-3.727,1.438,1.438,0,0,0-2.723.929,8.647,8.647,0,0,1,.462,2.8v3.841a.512.512,0,0,1-.512.512H5.344a.512.512,0,0,1-.512-.512v-3.841a8.675,8.675,0,0,1,2.884-6.452,8.415,8.415,0,1,0-1.334-2.63,11.553,11.553,0,0,0-4.426,9.082v3.842A3.392,3.392,0,0,0,5.345,339.695Zm9.116-24.307A5.561,5.561,0,1,1,8.9,320.948,5.567,5.567,0,0,1,14.46,315.388Z" transform="translate(-1.056 -7.312)"/>
        <path id="Trazado_201190" data-name="Trazado 201190" d="M156.277,332.465v3.841a3.392,3.392,0,0,0,3.389,3.389h18.42a3.393,3.393,0,0,0,3.389-3.389v-3.841a11.52,11.52,0,0,0-.616-3.728,1.439,1.439,0,1,0-2.723.929,8.644,8.644,0,0,1,.462,2.8v3.842a.512.512,0,0,1-.512.512h-18.42a.512.512,0,0,1-.512-.512v-3.842a8.674,8.674,0,0,1,2.884-6.451,8.422,8.422,0,1,0-1.334-2.631A11.55,11.55,0,0,0,156.277,332.465Zm12.5-17.077a5.561,5.561,0,1,1-5.561,5.561A5.567,5.567,0,0,1,168.781,315.388Z" transform="translate(-82.375 -7.312)"/>
        <path id="Trazado_201191" data-name="Trazado 201191" d="M179.033,454.67a1.438,1.438,0,0,0-.9,1.826,8.647,8.647,0,0,1,.461,2.8v3.841a.512.512,0,0,1-.512.512h-18.42a.512.512,0,0,1-.512-.512v-3.841a8.675,8.675,0,0,1,2.884-6.452,8.415,8.415,0,1,0-1.334-2.63,11.553,11.553,0,0,0-4.426,9.082v3.842a3.392,3.392,0,0,0,3.389,3.389h18.42a3.392,3.392,0,0,0,3.389-3.389v-3.842a11.517,11.517,0,0,0-.616-3.727A1.438,1.438,0,0,0,179.033,454.67Zm-10.252-12.453a5.561,5.561,0,1,1-5.561,5.561A5.567,5.567,0,0,1,168.781,442.217Z" transform="translate(-82.375 -73.79)"/>
        <path id="Trazado_201192" data-name="Trazado 201192" d="M24.712,454.67a1.438,1.438,0,0,0-.9,1.826,8.647,8.647,0,0,1,.462,2.8v3.841a.512.512,0,0,1-.512.512H5.345a.512.512,0,0,1-.512-.512v-3.841a8.677,8.677,0,0,1,2.884-6.452,8.415,8.415,0,1,0-1.334-2.63,11.553,11.553,0,0,0-4.426,9.082v3.842a3.392,3.392,0,0,0,3.389,3.389H23.765a3.392,3.392,0,0,0,3.389-3.389v-3.842a11.505,11.505,0,0,0-.616-3.727A1.438,1.438,0,0,0,24.712,454.67ZM14.46,442.217A5.561,5.561,0,1,1,8.9,447.778,5.567,5.567,0,0,1,14.46,442.217Z" transform="translate(-1.056 -73.79)"/>
        <path id="Trazado_201193" data-name="Trazado 201193" d="M90.853,370.922H74.971a13.724,13.724,0,0,0-13.657,11.16h-.542a11.19,11.19,0,0,0-11.227,11.126,11.075,11.075,0,0,0,6.381,10.037c1.916,4.473,7.894,6.618,8.158,6.711a1.536,1.536,0,0,0,.511.087,1.518,1.518,0,0,0,1.1-.461,1.4,1.4,0,0,0,.264-1.572,10.12,10.12,0,0,1-1.01-3.676h8.343a11.245,11.245,0,0,0,10.31-6.727h2.376a12.134,12.134,0,0,1-1.325,4.967,1.4,1.4,0,0,0,.245,1.576,1.533,1.533,0,0,0,1.6.391c.331-.113,7.866-2.731,10.178-8.169a13.267,13.267,0,0,0,8.023-12.106A13.617,13.617,0,0,0,90.853,370.922Zm4.081,23.042a1.438,1.438,0,0,0-.854.874c-.837,2.52-3.387,4.4-5.491,5.567a12.47,12.47,0,0,0,.3-4.387,1.478,1.478,0,0,0-1.484-1.287H74.971a11.135,11.135,0,0,1-4.044-.755,1.527,1.527,0,0,0-1.609.309l-.021.021a1.4,1.4,0,0,0,.5,2.332,14.2,14.2,0,0,0,5.178.97h5.283a8.238,8.238,0,0,1-6.967,3.851H63.493a1.471,1.471,0,0,0-1.482,1.271,10.461,10.461,0,0,0,.1,3.02,8.248,8.248,0,0,1-3.564-3.96,1.506,1.506,0,0,0-.858-.929,8.251,8.251,0,0,1,3.081-15.9h.373a12.818,12.818,0,0,0,.979,4.274,1.508,1.508,0,0,0,2.422.484l.022-.021a1.389,1.389,0,0,0,.323-1.544,10.072,10.072,0,0,1-.777-4.12c.13-5.713,5.082-10.233,11.011-10.233H90.67c5.993,0,11.062,4.725,11.042,10.5A10.436,10.436,0,0,1,94.934,393.964Z" transform="translate(-26.75 -37.724)"/>
      </g>
    </g>
  </g>
</svg>
