<svg xmlns="http://www.w3.org/2000/svg" width="150" height="150" viewBox="0 0 150 150">
  <g id="Grupo_150137" data-name="Grupo 150137" transform="translate(1163.414 10321.016)">
    <g id="Grupo_150011" data-name="Grupo 150011" transform="translate(319 -296)">
      <g id="Elipse_12654" data-name="Elipse 12654" transform="translate(-1482.414 -10025.016)" fill="#fff" stroke="#77b43a" stroke-width="4">
        <circle cx="75" cy="75" r="75" stroke="none"/>
        <circle cx="75" cy="75" r="73" fill="none"/>
      </g>
      <g id="Grupo_149623" data-name="Grupo 149623" transform="translate(-1457.389 -10300.8)">
        <g id="Grupo_149633" data-name="Grupo 149633" transform="translate(8.566 313.619)">
          <g id="Grupo_149629" data-name="Grupo 149629" transform="translate(0 0)">
            <path id="Trazado_200998" data-name="Trazado 200998" d="M13.913,315.365H89.526a3.613,3.613,0,0,1,3.6,3.6v58.738a3.613,3.613,0,0,1-3.6,3.6H13.913a3.614,3.614,0,0,1-3.6-3.6V318.967A3.613,3.613,0,0,1,13.913,315.365Z" transform="translate(-10.31 -315.365)" fill="#eceff1" fill-rule="evenodd"/>
            <path id="Trazado_200999" data-name="Trazado 200999" d="M182.248,315.365h3.439a3.613,3.613,0,0,1,3.6,3.6v58.738a3.613,3.613,0,0,1-3.6,3.6h-3.439a3.614,3.614,0,0,0,3.6-3.6V318.967A3.613,3.613,0,0,0,182.248,315.365Z" transform="translate(-106.472 -315.365)" fill="#d1d1d6" fill-rule="evenodd"/>
            <path id="Trazado_201000" data-name="Trazado 201000" d="M13.913,315.365H89.526a3.613,3.613,0,0,1,3.6,3.6v9.264H10.31v-9.264A3.613,3.613,0,0,1,13.913,315.365Z" transform="translate(-10.31 -315.365)" fill="#75b62f" fill-rule="evenodd"/>
            <path id="Trazado_201001" data-name="Trazado 201001" d="M182.248,315.365h3.439a3.613,3.613,0,0,1,3.6,3.6v9.264h-3.439v-9.264A3.613,3.613,0,0,0,182.248,315.365Z" transform="translate(-106.472 -315.365)" fill="#837683" fill-rule="evenodd"/>
            <path id="Trazado_201002" data-name="Trazado 201002" d="M29.875,329.4a2.106,2.106,0,1,0-2.106-2.106A2.11,2.11,0,0,0,29.875,329.4Z" transform="translate(-20.074 -320.857)" fill="#fe646f" fill-rule="evenodd"/>
            <path id="Trazado_201003" data-name="Trazado 201003" d="M48.214,329.4a2.106,2.106,0,1,0-2.105-2.106A2.11,2.11,0,0,0,48.214,329.4Z" transform="translate(-30.332 -320.857)" fill="#ffe177" fill-rule="evenodd"/>
            <path id="Trazado_201004" data-name="Trazado 201004" d="M66.553,329.4a2.106,2.106,0,1,0-2.105-2.106A2.11,2.11,0,0,0,66.553,329.4Z" transform="translate(-40.588 -320.857)" fill="#6cf5c2" fill-rule="evenodd"/>
          </g>
          <g id="Grupo_149630" data-name="Grupo 149630" transform="translate(10.068 19.488)">
            <circle id="Elipse_12650" data-name="Elipse 12650" cx="11.697" cy="11.697" r="11.697" transform="translate(0 0.006)" fill="#60b7ff"/>
            <circle id="Elipse_12651" data-name="Elipse 12651" cx="10.244" cy="10.244" r="10.244" transform="translate(1.453 1.46)" fill="#75b62f"/>
            <path id="Trazado_201005" data-name="Trazado 201005" d="M59.741,386.134h11.7a11.7,11.7,0,0,1-5.85,10.135Z" transform="translate(-48.024 -374.432)" fill="#fd4755" fill-rule="evenodd"/>
            <path id="Trazado_201006" data-name="Trazado 201006" d="M59.741,386.134H69.989a10.243,10.243,0,0,1-5.123,8.876Z" transform="translate(-48.024 -374.432)" fill="#dce736" fill-rule="evenodd"/>
            <path id="Trazado_201007" data-name="Trazado 201007" d="M71.443,371.285h-11.7v-11.7A11.7,11.7,0,0,1,71.443,371.285Z" transform="translate(-48.024 -359.583)" fill="#ffd064" fill-rule="evenodd"/>
            <path id="Trazado_201008" data-name="Trazado 201008" d="M69.989,373.13H59.741V362.882A10.248,10.248,0,0,1,69.989,373.13Z" transform="translate(-48.024 -361.428)" fill="#dce736" fill-rule="evenodd"/>
          </g>
          <g id="Grupo_149631" data-name="Grupo 149631" transform="translate(52.404 32.453)">
            <path id="Trazado_201009" data-name="Trazado 201009" d="M130.076,408.6h2.3a.861.861,0,0,1,.859.86v13.616a.861.861,0,0,1-.859.86h-2.3a.861.861,0,0,1-.86-.86V409.459A.862.862,0,0,1,130.076,408.6Z" transform="translate(-129.216 -399.962)" fill="#ffe177" fill-rule="evenodd"/>
            <path id="Trazado_201010" data-name="Trazado 201010" d="M132.494,408.6h1.719a.861.861,0,0,1,.86.86v13.616a.861.861,0,0,1-.86.86h-1.719a.861.861,0,0,0,.859-.86V409.459A.861.861,0,0,0,132.494,408.6Z" transform="translate(-131.049 -399.962)" fill="#ffd064" fill-rule="evenodd"/>
            <path id="Trazado_201011" data-name="Trazado 201011" d="M149.717,398.8h2.3a.861.861,0,0,1,.86.86v17.935a.862.862,0,0,1-.86.86h-2.3a.862.862,0,0,1-.86-.86V399.66A.861.861,0,0,1,149.717,398.8Z" transform="translate(-140.201 -394.481)" fill="#6cf5c2" fill-rule="evenodd"/>
            <path id="Trazado_201012" data-name="Trazado 201012" d="M152.134,398.8h1.72a.862.862,0,0,1,.86.86v17.935a.862.862,0,0,1-.86.86h-1.72a.862.862,0,0,0,.86-.86V399.66A.861.861,0,0,0,152.134,398.8Z" transform="translate(-142.034 -394.481)" fill="#00e499" fill-rule="evenodd"/>
            <path id="Trazado_201013" data-name="Trazado 201013" d="M169.357,389h2.3a.861.861,0,0,1,.86.86v22.253a.862.862,0,0,1-.86.86h-2.3a.862.862,0,0,1-.86-.86V389.861a.862.862,0,0,1,.86-.86Z" transform="translate(-151.185 -389.001)" fill="#8ac9fe" fill-rule="evenodd"/>
            <path id="Trazado_201014" data-name="Trazado 201014" d="M171.775,389h1.72a.861.861,0,0,1,.859.86v22.253a.861.861,0,0,1-.859.86h-1.72a.862.862,0,0,0,.86-.86V389.861a.862.862,0,0,0-.86-.86Z" transform="translate(-153.018 -389.001)" fill="#60b7ff" fill-rule="evenodd"/>
          </g>
          <g id="Grupo_149632" data-name="Grupo 149632" transform="translate(17.197 36.938)">
            <path id="Trazado_201015" data-name="Trazado 201015" d="M120.911,465.513a15.34,15.34,0,0,1-2.587,2.849l7.036,6.9,2.678-2.76Z" transform="translate(-87.917 -436.278)" fill="#a79ba7" fill-rule="evenodd"/>
            <path id="Trazado_201016" data-name="Trazado 201016" d="M123.331,465.406a1.768,1.768,0,0,1-.766,1.027l6.989,6.943.856-.938Z" transform="translate(-90.289 -436.218)" fill="#837683" fill-rule="evenodd"/>
            <path id="Trazado_201017" data-name="Trazado 201017" d="M140.859,490.692l3.022-3.115a1.39,1.39,0,0,0-.03-1.959l-8.372-8.125a1.39,1.39,0,0,0-1.96.03l-3.023,3.115a1.391,1.391,0,0,0,.03,1.96l8.372,8.124A1.391,1.391,0,0,0,140.859,490.692Z" transform="translate(-94.507 -442.76)" fill="#75b62f" fill-rule="evenodd"/>
            <path id="Trazado_201018" data-name="Trazado 201018" d="M139.048,477.493l8.372,8.125a1.39,1.39,0,0,1,.03,1.96l-3.023,3.115a1.364,1.364,0,0,1-.375.275,1.392,1.392,0,0,0,1.614-.274l3.023-3.115a1.39,1.39,0,0,0-.03-1.96l-8.373-8.124a1.391,1.391,0,0,0-1.584-.245,1.381,1.381,0,0,1,.346.245Z" transform="translate(-99.314 -442.76)" fill="#e3a76f" fill-rule="evenodd"/>
            <circle id="Elipse_12652" data-name="Elipse 12652" cx="15.244" cy="15.244" r="15.244" transform="translate(0 21.558) rotate(-45)" fill="#dce736"/>
            <path id="Trazado_201019" data-name="Trazado 201019" d="M97.332,413.505a15.246,15.246,0,1,1,0,30.492q-.372,0-.74-.018a15.246,15.246,0,0,0,0-30.456q.368-.018.74-.018Z" transform="translate(-75.763 -407.191)" fill="#60b7ff" fill-rule="evenodd"/>
            <circle id="Elipse_12653" data-name="Elipse 12653" cx="10.95" cy="10.95" r="10.95" transform="translate(10.643 10.604)" fill="#eceff1"/>
            <path id="Trazado_201020" data-name="Trazado 201020" d="M84.378,423.258c.249,0,.5.009.74.026a10.947,10.947,0,0,0,0,21.844c-.245.016-.491.026-.74.026a10.948,10.948,0,0,1,0-21.9Z" transform="translate(-62.81 -412.646)" fill="#d1d1d6" fill-rule="evenodd"/>
          </g>
        </g>
        <path id="Trazado_201021" data-name="Trazado 201021" d="M47.332,381.689a9.572,9.572,0,1,1,9.571-9.571A9.584,9.584,0,0,1,47.332,381.689Zm0-21.895a12.323,12.323,0,1,0,12.322,12.324,12.338,12.338,0,0,0-12.322-12.324Zm20.2-19.118a1.375,1.375,0,0,1-1.375,1.375H52.723a1.375,1.375,0,1,1,0-2.75H66.156A1.375,1.375,0,0,1,67.532,340.676Zm-16.185-5.814a1.376,1.376,0,0,1,1.376-1.375H79.589a1.376,1.376,0,0,1,0,2.751H52.723A1.375,1.375,0,0,1,51.347,334.862Zm29.584,33.806H79.658V347.448h1.273ZM82.306,344.7H78.283a1.375,1.375,0,0,0-1.376,1.376v23.972a1.376,1.376,0,0,0,1.376,1.376h4.023a1.376,1.376,0,0,0,1.376-1.376V346.072A1.375,1.375,0,0,0,82.306,344.7ZM72.274,368.668H71v-16.9h1.272v16.9Zm1.376-19.654H69.626a1.377,1.377,0,0,0-1.376,1.376v19.654a1.375,1.375,0,0,0,1.376,1.375H73.65a1.375,1.375,0,0,0,1.375-1.375V350.39A1.376,1.376,0,0,0,73.65,349.014ZM24.5,369.927a1.375,1.375,0,0,1-1.375,1.375H18.65a1.375,1.375,0,0,1,0-2.751h4.475A1.375,1.375,0,0,1,24.5,369.927Zm0-6.011a1.375,1.375,0,0,1-1.375,1.376H18.65a1.375,1.375,0,1,1,0-2.751h4.475A1.375,1.375,0,0,1,24.5,363.917Zm12.219-10.989-3.964-6.743,7.827,0a10.323,10.323,0,0,1-3.863,6.739Zm-16.694-8.12a10.325,10.325,0,0,0,14.326,9.52l-5.186-8.821a1.375,1.375,0,0,1-.189-.7v-10.23a10.341,10.341,0,0,0-8.951,10.23Zm20.557-1.37-8.856,0v-8.858A10.343,10.343,0,0,1,40.583,343.438ZM30.351,331.731a13.077,13.077,0,1,0,13.077,13.076,13.091,13.091,0,0,0-13.077-13.076Zm2.074-11.679a2.106,2.106,0,1,1,2.106,2.106A2.11,2.11,0,0,1,32.425,320.052Zm-8.082,0a2.106,2.106,0,1,1,2.1,2.106A2.109,2.109,0,0,1,24.343,320.052Zm-8.083,0a2.105,2.105,0,1,1,2.106,2.106A2.11,2.11,0,0,1,16.26,320.052Zm71.52,58.134a2.23,2.23,0,0,0,2.227-2.227v-48.1H9.942v48.1a2.23,2.23,0,0,0,2.227,2.227H31.857a16.53,16.53,0,0,1-1.146-6.068q0-.411.019-.816H28.388a1.375,1.375,0,1,1,0-2.751H31.1a16.624,16.624,0,0,1,1.079-3.259H28.388a1.375,1.375,0,1,1,0-2.751h5.365a16.6,16.6,0,0,1,25.841-1.634v-6.2a1.375,1.375,0,0,1,1.375-1.375h4.024a1.375,1.375,0,0,1,1.376,1.375v15.335a1.375,1.375,0,0,1-1.376,1.375H63.938c.011.232.015.464.015.7a16.512,16.512,0,0,1-1.147,6.068Zm-22,8.09,8.373,8.141-3.023,3.114h-.016l-8.371-8.139Zm-3.882.035-2.673-2.593c.255-.262.5-.529.74-.809l2.7,2.615Zm1.723-17.643h-.024a16.475,16.475,0,0,0-1.249-3.678v-8.905h1.273v12.583Zm-30.156,3.45a13.87,13.87,0,1,0,13.87-13.872,13.885,13.885,0,0,0-13.87,13.872ZM12.169,314.994a2.23,2.23,0,0,0-2.227,2.227v7.889H90.008v-7.889a2.23,2.23,0,0,0-2.227-2.227Zm75.612-2.751H12.169a4.984,4.984,0,0,0-4.978,4.978v58.738a4.983,4.983,0,0,0,4.978,4.979H33.25a16.6,16.6,0,0,0,23.889,4.591l3.016,2.927a2.767,2.767,0,0,0,.669,2.926l8.373,8.125a2.766,2.766,0,0,0,3.9-.06l3.023-3.114a2.766,2.766,0,0,0-.059-3.906L67.693,384.3a2.76,2.76,0,0,0-2.944-.58l-2.868-2.784h25.9a4.982,4.982,0,0,0,4.978-4.979V317.221a4.983,4.983,0,0,0-4.978-4.978Z" transform="translate(0)" fill-rule="evenodd"/>
      </g>
    </g>
  </g>
</svg>
