<svg xmlns="http://www.w3.org/2000/svg" width="59.121" height="31.688" viewBox="0 0 59.121 31.688">
  <g id="Grupo_149988" data-name="Grupo 149988" transform="translate(-315.879 -1936.469)">
    <path id="Trazado_201746" data-name="Trazado 201746" d="M-26.754,0h-1.453V-9.633l-2.914,1.07V-9.875l4.141-1.555h.227ZM-14.27-6.1H-11.1v1.367H-14.27v3.594h-1.453V-4.734h-3.172V-6.1h3.172v-3.32h1.453ZM1.926,0H-5.527V-1.039L-1.59-5.414A9.354,9.354,0,0,0-.383-7.027,2.693,2.693,0,0,0-.051-8.312,2.041,2.041,0,0,0-.59-9.773a1.885,1.885,0,0,0-1.437-.57A2.232,2.232,0,0,0-3.7-9.73a2.343,2.343,0,0,0-.6,1.707H-5.746a3.355,3.355,0,0,1,1.012-2.539,3.751,3.751,0,0,1,2.707-.969A3.6,3.6,0,0,1,.48-10.7,2.838,2.838,0,0,1,1.4-8.484q0,1.68-2.141,4l-3.047,3.3H1.926Zm9.781-6.1h3.172v1.367H11.707v3.594H10.254V-4.734H7.082V-6.1h3.172v-3.32h1.453Zm10.844-.289h1.086a2.387,2.387,0,0,0,1.609-.539,1.8,1.8,0,0,0,.586-1.414,1.764,1.764,0,0,0-1.992-2,2.072,2.072,0,0,0-1.5.535,1.873,1.873,0,0,0-.559,1.418H20.34a2.9,2.9,0,0,1,.988-2.246,3.6,3.6,0,0,1,2.512-.895,3.558,3.558,0,0,1,2.523.852,3.076,3.076,0,0,1,.914,2.367,2.5,2.5,0,0,1-.48,1.438,2.9,2.9,0,0,1-1.309,1.039,2.8,2.8,0,0,1,1.449.984,2.734,2.734,0,0,1,.512,1.68,3.1,3.1,0,0,1-1,2.43,3.745,3.745,0,0,1-2.6.9,3.844,3.844,0,0,1-2.605-.867,2.877,2.877,0,0,1-1-2.289h1.453a1.859,1.859,0,0,0,.586,1.438,2.229,2.229,0,0,0,1.57.539,2.187,2.187,0,0,0,1.6-.547A2.108,2.108,0,0,0,26-3.141a1.912,1.912,0,0,0-.609-1.523,2.655,2.655,0,0,0-1.758-.547H22.551Zm-24,20H-.359A2.387,2.387,0,0,0,1.25,13.07a1.8,1.8,0,0,0,.586-1.414,1.764,1.764,0,0,0-1.992-2,2.072,2.072,0,0,0-1.5.535,1.873,1.873,0,0,0-.559,1.418H-3.656a2.9,2.9,0,0,1,.988-2.246A3.6,3.6,0,0,1-.156,8.469a3.558,3.558,0,0,1,2.523.852,3.076,3.076,0,0,1,.914,2.367,2.5,2.5,0,0,1-.48,1.438,2.9,2.9,0,0,1-1.309,1.039,2.8,2.8,0,0,1,1.449.984,2.734,2.734,0,0,1,.512,1.68,3.1,3.1,0,0,1-1,2.43,3.745,3.745,0,0,1-2.6.9,3.844,3.844,0,0,1-2.605-.867,2.877,2.877,0,0,1-1-2.289H-2.3a1.859,1.859,0,0,0,.586,1.438,2.229,2.229,0,0,0,1.57.539,2.187,2.187,0,0,0,1.6-.547,2.108,2.108,0,0,0,.555-1.57A1.912,1.912,0,0,0,1.4,15.336a2.655,2.655,0,0,0-1.758-.547H-1.445Z" transform="translate(347 1948)" fill="#12263f"/>
    <path id="Trazado_201747" data-name="Trazado 201747" d="M0,0H56" transform="translate(319 1952.5)" fill="none" stroke="#707070" stroke-width="1"/>
  </g>
</svg>
