<svg xmlns="http://www.w3.org/2000/svg" width="273.076" height="234.674" viewBox="0 0 273.076 234.674">
  <g id="Grupo_150146" data-name="Grupo 150146" transform="translate(1689.681 8392.348)">
    <g id="Grupo_149938" data-name="Grupo 149938" transform="translate(-1689.681 -8392.348)">
      <path id="Trazado_200734" data-name="Trazado 200734" d="M752.156,566.455H483.784a2.349,2.349,0,0,1-2.352-2.352V334.133a2.352,2.352,0,1,1,4.7,0V561.752H752.156a2.352,2.352,0,1,1,0,4.7Z" transform="translate(-481.432 -331.781)" fill="#75b62f"/>
    </g>
    <path id="Trazado_201743" data-name="Trazado 201743" d="M1006.667,2298.583v310.37" transform="matrix(0.656, 0.755, -0.755, 0.656, -377.601, -10633.837)" fill="none" stroke="#75b62f" stroke-width="5"/>
    <g id="Grupo_149939" data-name="Grupo 149939" transform="translate(-2660.142 -11950.5)">
      <circle id="Elipse_12746" data-name="Elipse 12746" cx="7.5" cy="7.5" r="7.5" transform="translate(1020 3745)" fill="#dce736"/>
      <circle id="Elipse_12749" data-name="Elipse 12749" cx="7.5" cy="7.5" r="7.5" transform="translate(1032 3719)" fill="#dce736"/>
      <circle id="Elipse_12750" data-name="Elipse 12750" cx="7.5" cy="7.5" r="7.5" transform="translate(1053 3730)" fill="#dce736"/>
      <circle id="Elipse_12751" data-name="Elipse 12751" cx="7.5" cy="7.5" r="7.5" transform="translate(1137 3675)" fill="#dce736"/>
      <circle id="Elipse_12752" data-name="Elipse 12752" cx="7.5" cy="7.5" r="7.5" transform="translate(1167 3656)" fill="#dce736"/>
      <circle id="Elipse_12757" data-name="Elipse 12757" cx="7.5" cy="7.5" r="7.5" transform="translate(1167 3596)" fill="#dce736"/>
      <circle id="Elipse_12758" data-name="Elipse 12758" cx="7.5" cy="7.5" r="7.5" transform="translate(1175 3621)" fill="#dce736"/>
      <circle id="Elipse_12759" data-name="Elipse 12759" cx="7.5" cy="7.5" r="7.5" transform="translate(1204 3603)" fill="#dce736"/>
      <circle id="Elipse_12748" data-name="Elipse 12748" cx="7.5" cy="7.5" r="7.5" transform="translate(1000 3768)" fill="#dce736"/>
      <circle id="Elipse_12747" data-name="Elipse 12747" cx="7.5" cy="7.5" r="7.5" transform="translate(1060 3701)" fill="#dce736"/>
      <circle id="Elipse_12754" data-name="Elipse 12754" cx="7.5" cy="7.5" r="7.5" transform="translate(1076 3633)" fill="#dce736"/>
      <circle id="Elipse_12755" data-name="Elipse 12755" cx="7.5" cy="7.5" r="7.5" transform="translate(1061 3667)" fill="#dce736"/>
      <circle id="Elipse_12756" data-name="Elipse 12756" cx="7.5" cy="7.5" r="7.5" transform="translate(1013 3686)" fill="#dce736"/>
      <circle id="Elipse_12753" data-name="Elipse 12753" cx="7.5" cy="7.5" r="7.5" transform="translate(1099 3667)" fill="#dce736"/>
    </g>
  </g>
</svg>
