<svg xmlns="http://www.w3.org/2000/svg" width="100.801" height="106.444" viewBox="0 0 100.801 106.444">
  <g id="Grupo_150175" data-name="Grupo 150175" transform="translate(-2912 8067.444)">
    <g id="Grupo_150090" data-name="Grupo 150090" transform="translate(2912 -8067.444)">
      <path id="Trazado_201382" data-name="Trazado 201382" d="M108.227,406.136H102.91a.215.215,0,0,1-.215-.215V402.98a8.336,8.336,0,0,0-8.336-8.336h-.284L91.2,400.39l2.873,2.873h2.873v5.484a3.134,3.134,0,0,0,3.135,3.134h8.357V406.35A.214.214,0,0,0,108.227,406.136Z" transform="translate(-35.057 -373.077)" fill="#fd9468"/>
      <path id="Trazado_201383" data-name="Trazado 201383" d="M71.368,492.253H51.7a.221.221,0,0,1-.221-.221V446.285H71.368a.223.223,0,0,1,.222.222v45.525A.221.221,0,0,1,71.368,492.253Z" transform="translate(-24.062 -387.369)" fill="#dce736"/>
      <path id="Trazado_201384" data-name="Trazado 201384" d="M35.617,499.95H15.948a.221.221,0,0,1-.221-.221V474.314a.221.221,0,0,1,.221-.221H35.617a.221.221,0,0,1,.221.221v25.414a.221.221,0,0,1-.221.221Z" transform="translate(-14.168 -395.065)" fill="#75b62f"/>
      <path id="Trazado_201385" data-name="Trazado 201385" d="M87.452,484.558H107.12a.222.222,0,0,0,.222-.221V418.7a.222.222,0,0,0-.222-.221H87.452a.221.221,0,0,0-.221.221v65.636A.221.221,0,0,0,87.452,484.558Z" transform="translate(-33.957 -379.673)" fill="#dce736"/>
      <path id="Trazado_201386" data-name="Trazado 201386" d="M123.2,476.862h19.668a.221.221,0,0,0,.221-.221V390.893a.221.221,0,0,0-.221-.221H123.2a.221.221,0,0,0-.221.221v85.747A.22.22,0,0,0,123.2,476.862Z" transform="translate(-43.852 -371.977)" fill="#80d261"/>
      <path id="Trazado_201387" data-name="Trazado 201387" d="M71.368,446.285h-8.1v36.546A5.261,5.261,0,0,1,58,488.091H51.479v3.941a.221.221,0,0,0,.221.221H71.368a.222.222,0,0,0,.222-.221V446.507a.222.222,0,0,0-.222-.222Z" transform="translate(-24.062 -387.369)" fill="#75b62f"/>
      <path id="Trazado_201388" data-name="Trazado 201388" d="M35.617,474.092h-8.1v16.434a5.261,5.261,0,0,1-5.261,5.261H15.727v3.941a.221.221,0,0,0,.221.221H35.617a.221.221,0,0,0,.221-.221V474.314A.221.221,0,0,0,35.617,474.092Z" transform="translate(-14.168 -395.065)" fill="#dce736"/>
      <path id="Trazado_201389" data-name="Trazado 201389" d="M107.12,418.478h-8.1v56.656a5.261,5.261,0,0,1-5.261,5.261H87.231v3.941a.221.221,0,0,0,.221.221H107.12a.222.222,0,0,0,.222-.221V418.7a.222.222,0,0,0-.222-.222Z" transform="translate(-33.957 -379.673)" fill="#75b62f"/>
      <path id="Trazado_201390" data-name="Trazado 201390" d="M142.872,390.672h-8.1v76.767a5.261,5.261,0,0,1-5.26,5.261h-6.526v3.941a.221.221,0,0,0,.221.221h19.668a.221.221,0,0,0,.221-.221V390.893a.221.221,0,0,0-.221-.221Z" transform="translate(-43.852 -371.977)" fill="#75b62f"/>
      <path id="Trazado_201391" data-name="Trazado 201391" d="M130.927,378.369V367.2a.217.217,0,0,1,.3-.2l13.569,5.428a.215.215,0,0,1,0,.4Z" transform="translate(-46.051 -365.42)" fill="#fd4755"/>
      <path id="Trazado_201392" data-name="Trazado 201392" d="M78.78,396.285l-1.616.433a1.2,1.2,0,0,1-1.47-.848l-1.177-4.391a2.873,2.873,0,1,1,5.55-1.487l.743,2.775A2.873,2.873,0,0,1,78.78,396.285Z" transform="translate(-30.412 -371.2)" fill="#ffeee6"/>
      <path id="Trazado_201393" data-name="Trazado 201393" d="M70.03,412.186l-3.76-3.759a.216.216,0,0,1,0-.3l12.777-12.777,4.063,4.063L70.333,412.186a.214.214,0,0,1-.3,0Z" transform="translate(-28.139 -373.271)" fill="#017297"/>
      <path id="Trazado_201394" data-name="Trazado 201394" d="M44.33,433.078l-1.177-4.392a2.873,2.873,0,0,0-5.551,1.487l.744,2.775a2.873,2.873,0,0,0,3.519,2.032l1.616-.433a1.2,1.2,0,0,0,.849-1.469Z" transform="translate(-20.195 -381.909)" fill="#fed2a4"/>
      <path id="Trazado_201395" data-name="Trazado 201395" d="M43.534,450.258H49.28v20.111H43.534Z" transform="translate(-21.864 -388.468)" fill="#017297"/>
      <path id="Trazado_201396" data-name="Trazado 201396" d="M59,444.086v-5.531a.215.215,0,0,0-.215-.214H47.506v5.746H59Z" transform="translate(-22.963 -385.17)" fill="#08a9f1"/>
      <path id="Trazado_201397" data-name="Trazado 201397" d="M83.258,394.644v17.024a.214.214,0,0,0,.215.214H89v-8.619h2.873v-8.619Z" transform="translate(-32.858 -373.077)" fill="#0681af"/>
      <path id="Trazado_201398" data-name="Trazado 201398" d="M39.561,449.441a8.336,8.336,0,0,0,8.337,8.336h.283v5.746h5.746v-8.357a3.135,3.135,0,0,0-3.135-3.135H48.181v-2.873l-2.873-2.873-5.746,2.873Z" transform="translate(-20.764 -387.369)" fill="#0681af"/>
      <path id="Trazado_201399" data-name="Trazado 201399" d="M51.205,422.514a.215.215,0,0,0-.3,0L39.622,433.793a.21.21,0,0,0-.061.148v8.622H48.18V433.8a1.057,1.057,0,0,1,.31-.747l6.475-6.474a.215.215,0,0,0,0-.3Z" transform="translate(-20.764 -380.773)" fill="#01c0fa"/>
      <path id="Trazado_201400" data-name="Trazado 201400" d="M142.275,381.959h-2.55a1.559,1.559,0,1,0,0,3.118h1.213v83.072H123.945V385.077h8.5a1.559,1.559,0,1,0,0-3.118h-2.75v-3.132l12.885-5.154a1.774,1.774,0,0,0,0-3.3l-13.569-5.427a1.776,1.776,0,0,0-2.436,1.649v15.359h-3.966a1.783,1.783,0,0,0-1.781,1.781v85.747a1.783,1.783,0,0,0,1.781,1.781h19.668a1.782,1.782,0,0,0,1.781-1.781V383.739a1.782,1.782,0,0,0-1.781-1.781Zm-12.584-13.376,8.607,3.443-8.607,3.443Z" transform="translate(-43.255 -364.824)"/>
      <path id="Trazado_201401" data-name="Trazado 201401" d="M60.877,437.534h-.939a1.559,1.559,0,0,0-.4,3.067v42.9H42.547V457.89h4.187a1.559,1.559,0,0,0,1.559-1.559v-8.357A4.7,4.7,0,0,0,43.6,443.28H42.547v-2.628H52.655a1.559,1.559,0,1,0,0-3.118H51.166v-3.973a1.775,1.775,0,0,0-1.773-1.773H44.17l4.7-4.7a1.774,1.774,0,0,0,0-2.508l-3.759-3.759a1.775,1.775,0,0,0-2.509,0l-4.891,4.891a4.433,4.433,0,0,0-8.242,3.139l.743,2.775a4.453,4.453,0,0,0,.629,1.363,1.807,1.807,0,0,0-.036.361v8.9a9.866,9.866,0,0,0,2.873,6.966v8.43H15.352a1.783,1.783,0,0,0-1.781,1.781v25.415a1.782,1.782,0,0,0,1.781,1.781H35.02a1.783,1.783,0,0,0,1.781-1.781v-21.2h2.628v21.2a1.782,1.782,0,0,0,1.781,1.781H60.877a1.782,1.782,0,0,0,1.781-1.781V439.314a1.782,1.782,0,0,0-1.78-1.781ZM43.6,446.4a1.578,1.578,0,0,1,1.576,1.576v6.8H42.547v-4.187a1.559,1.559,0,0,0-1.559-1.559H40.7a6.788,6.788,0,0,1-6.657-5.5h5.38v1.313a1.559,1.559,0,0,0,1.559,1.559Zm4.449-8.864h-5.5v-2.628h5.5ZM43.86,423.971l1.858,1.858-5.523,5.524a2.6,2.6,0,0,0-.767,1.849v7.2h-5.5v-6.5l.007-.008,4.135-4.135.027-.027Zm-10.446,2.458a1.314,1.314,0,0,1,1.609.929l.22.82L33.1,430.324l-.613-2.286A1.315,1.315,0,0,1,33.414,426.429Zm.268,57.072H16.69V460.763H33.682V483.5ZM36.8,460.518v-9.176a9.827,9.827,0,0,0,2.628.721v8.455Z" transform="translate(-13.571 -380.176)"/>
      <path id="Trazado_201402" data-name="Trazado 201402" d="M100.713,402.1H96.741v-1.6a9.907,9.907,0,0,0-9.9-9.9H79.139l-.433-1.619a4.433,4.433,0,0,0-8.563,2.294l1.177,4.391a2.749,2.749,0,0,0,.7,1.226l-7.45,7.451a1.776,1.776,0,0,0,0,2.507l3.759,3.759a1.774,1.774,0,0,0,2.51,0l5.544-5.544v4.117a1.776,1.776,0,0,0,1.774,1.773h1.1v64.3a1.782,1.782,0,0,0,1.781,1.781h19.668a1.782,1.782,0,0,0,1.781-1.781V452.5a1.559,1.559,0,0,0-3.119,0v21.424H82.375v-62.96H99.367v34.251a1.559,1.559,0,0,0,3.119,0V403.877A1.775,1.775,0,0,0,100.713,402.1Zm-15.464.245h2.628v3.925a4.678,4.678,0,0,0,.272,1.575h-2.9ZM85,399.23H83.689a1.559,1.559,0,0,0-1.559,1.559v7.06H79.5v-14c.009-.04.017-.08.025-.121H85ZM74.084,388.87a1.316,1.316,0,0,1,1.609.929c1.02,3.811.668,2.5.746,2.784a1.314,1.314,0,0,1-.932,1.6l-1.269.34-1.083-4.044A1.314,1.314,0,0,1,74.084,388.87Zm-4.5,18.594-1.858-1.858,8.347-8.347c.275-.074.268-.072.309-.084v3.49Zm22.984.385a1.578,1.578,0,0,1-1.575-1.576v-5.484a1.56,1.56,0,0,0-1.559-1.559H88.121V393.85a6.789,6.789,0,0,1,5.5,6.656v2.941a1.776,1.776,0,0,0,1.773,1.774h3.972v2.628Z" transform="translate(-27.543 -370.603)"/>
    </g>
  </g>
</svg>
