<svg xmlns="http://www.w3.org/2000/svg" width="325.37" height="218.459" viewBox="0 0 325.37 218.459">
  <g id="Grupo_149989" data-name="Grupo 149989" transform="translate(-638 -2899.881)">
    <path id="Trazado_201748" data-name="Trazado 201748" d="M24,0H301.37a24,24,0,0,1,24,24V194.459a24,24,0,0,1-24,24H24a24,24,0,0,1-24-24V24A24,24,0,0,1,24,0Z" transform="translate(638 2899.881)" fill="#eaf086"/>
    <path id="Trazado_201749" data-name="Trazado 201749" d="M28,0H240a28,28,0,0,1,28,28v85a28,28,0,0,1-28,28H28A28,28,0,0,1,0,113V28A28,28,0,0,1,28,0Z" transform="translate(666 2938.509)" fill="#f3f9ff"/>
    <g id="Grupo_149671" data-name="Grupo 149671" transform="translate(251.5 414.765)">
      <text id="D" transform="translate(438.5 2576.872)" fill="#75b62f" font-size="25" font-family="Roboto-BoldItalic, Roboto" font-weight="700" font-style="italic"><tspan x="0" y="26">D</tspan></text>
      <text id="x_̅" data-name="x ̅" transform="translate(450.5 2594.372)" fill="#75b62f" font-size="22" font-family="Roboto-BoldItalic, Roboto" font-weight="700" font-style="italic"><tspan x="0" y="23">x ̅</tspan></text>
      <text id="_" data-name="=" transform="translate(475 2575.872)" fill="#75b62f" font-size="25" font-family="Roboto-BoldItalic, Roboto" font-weight="700" font-style="italic"><tspan x="0" y="26">=</tspan></text>
    </g>
    <path id="Trazado_201750" data-name="Trazado 201750" d="M11.011,18.9,4.1,26.415l9.2.024-.5,2.844H-1.172l.354-2.014,8.264-8.759L2.185,9.875l.293-1.648H16.052l-.5,2.844H6.6l4.443,7.4Z" transform="translate(757.5 2972.137)" fill="#75b62f"/>
    <path id="Trazado_201751" data-name="Trazado 201751" d="M14.307,26H10.84L5.9,14.147,3.833,26H.256L3.345,8.227H6.8L11.755,20.1,13.818,8.227h3.564Z" transform="translate(817.75 3021.137)" fill="#75b62f"/>
    <path id="Trazado_201752" data-name="Trazado 201752" d="M8.289,14.33l4.187-6.1h4.3l-6.531,8.984L13.928,26H9.973L7.642,19.8,3.357,26H-.989l6.677-9.131L2.112,8.227H6.018ZM17.732,26h-2.08l1.377-7.925h2.08Zm-.461-9.939a1.032,1.032,0,0,1,.322-.813,1.24,1.24,0,0,1,1.626-.037,1.027,1.027,0,0,1,.359.776,1.061,1.061,0,0,1-.3.791,1.139,1.139,0,0,1-.831.352,1.158,1.158,0,0,1-.809-.278A1.023,1.023,0,0,1,17.271,16.061Z" transform="translate(823 2972.137)" fill="#75b62f"/>
    <path id="Trazado_201753" data-name="Trazado 201753" d="M8.643,29.3h-2.1l3.3-21.069h2.1Z" transform="translate(803 2972.137)" fill="#75b62f"/>
    <path id="Trazado_201754" data-name="Trazado 201754" d="M6.4,16.71l2.771-3.918h3.87L8.252,19.433,10.925,26H7.434L5.811,21.874,2.893,26H-1l4.98-6.909-2.551-6.3H4.919ZM19.275,6.7H8.459l.488-2.759h10.8Zm8,22.6h-2.1l3.3-21.069h2.1Z" transform="translate(865 2972.137)" fill="#75b62f"/>
    <path id="Trazado_201755" data-name="Trazado 201755" d="M9.07,28.759H-1.746L-1.257,26h10.8Z" transform="translate(851.5 2965.137)" fill="#75b62f"/>
    <path id="Trazado_201756" data-name="Trazado 201756" d="M12.59,23H9.539L5.188,12.569,3.373,23H.226L2.943,7.359h3.04l4.361,10.452L12.16,7.359H15.3Z" transform="translate(778.5 2959.509)" fill="#75b62f"/>
    <path id="Trazado_201757" data-name="Trazado 201757" d="M8.658,23H5.607l2.02-11.623h3.051ZM7.981,8.423A1.513,1.513,0,0,1,8.454,7.23a1.663,1.663,0,0,1,1.192-.473,1.671,1.671,0,0,1,1.192.419,1.507,1.507,0,0,1,.526,1.139,1.556,1.556,0,0,1-.446,1.16A1.671,1.671,0,0,1,9.7,9.991a1.7,1.7,0,0,1-1.187-.408A1.5,1.5,0,0,1,7.981,8.423ZM22.2,14.986H12.869l.451-2.535h9.335ZM21.4,19.638H12.063l.451-2.535H21.85ZM30.755,23H27.726l2.063-11.9-3.8,1.149.473-2.653,6.531-2.256.4-.011Z" transform="translate(770.5 2990.637)" fill="#75b62f"/>
    <path id="Trazado_201758" data-name="Trazado 201758" d="M162.5,0H0" transform="translate(746.5 3021.137)" fill="none" stroke="#75b62f" stroke-width="3"/>
  </g>
</svg>
