<svg xmlns="http://www.w3.org/2000/svg" width="673.765" height="574.819" viewBox="0 0 673.765 574.819">
  <g id="Grupo_150136" data-name="Grupo 150136" transform="translate(1089.093 11081.835)">
    <path id="Trazado_201968" data-name="Trazado 201968" d="M440,0H0" transform="translate(-971.71 -10865.937)" fill="none" stroke="#75b62f" stroke-width="3"/>
    <path id="Trazado_201969" data-name="Trazado 201969" d="M0,0V32.9" transform="translate(-750.909 -10899.237)" fill="none" stroke="#75b62f" stroke-width="5"/>
    <path id="Trazado_201970" data-name="Trazado 201970" d="M0,0V16.763" transform="translate(-532.019 -10865.626)" fill="none" stroke="#75b62f" stroke-width="3"/>
    <path id="Trazado_158597" data-name="Trazado 158597" d="M1188.5,133.31h11.617l-5.808,5.809-5.809-5.809Z" transform="translate(-1726.327 -10982.173)" fill="#75b62f"/>
    <path id="Trazado_201971" data-name="Trazado 201971" d="M0,0V16.763" transform="translate(-971.801 -10866.758)" fill="none" stroke="#75b62f" stroke-width="3"/>
    <path id="Trazado_158597-2" data-name="Trazado 158597" d="M139.07,131.96h11.617l-5.809,5.809-5.809-5.809Z" transform="translate(-1116.679 -10981.954)" fill="#75b62f"/>
    <path id="Trazado_201949" data-name="Trazado 201949" d="M27.47,0h128.9a27.47,27.47,0,0,1,0,54.94H27.47A27.47,27.47,0,0,1,27.47,0Z" transform="translate(-1052.055 -10834.903)" fill="#dce736"/>
    <path id="Trazado_201950" data-name="Trazado 201950" d="M27.47,0h128.9a27.47,27.47,0,0,1,0,54.94H27.47A27.47,27.47,0,0,1,27.47,0Z" transform="translate(-452.365 -10779.964) rotate(180)" fill="#dce736"/>
    <path id="Trazado_201951" data-name="Trazado 201951" d="M27.47,0h128.9a27.47,27.47,0,0,1,0,54.94H27.47A27.47,27.47,0,0,1,27.47,0Z" transform="translate(-1052.055 -10702.903)" fill="#dce736"/>
    <path id="Trazado_201952" data-name="Trazado 201952" d="M27.47,0h128.9a27.47,27.47,0,0,1,0,54.94H27.47A27.47,27.47,0,0,1,27.47,0Z" transform="translate(-1052.055 -10563.903)" fill="#dce736"/>
    <path id="Trazado_201953" data-name="Trazado 201953" d="M27.47,0h128.9a27.47,27.47,0,0,1,0,54.94H27.47A27.47,27.47,0,0,1,27.47,0Z" transform="translate(-636.055 -10702.874)" fill="#dce736"/>
    <path id="Trazado_201954" data-name="Trazado 201954" d="M27.47,0h128.9a27.47,27.47,0,0,1,0,54.94H27.47A27.47,27.47,0,0,1,27.47,0Z" transform="translate(-636.055 -10563.874)" fill="#dce736"/>
    <path id="Trazado_200973" data-name="Trazado 200973" d="M707.656,414.282l15.514-8.957C706,376.751,677.308,360.188,643.976,359.6v17.923A76.685,76.685,0,0,1,707.656,414.282Z" transform="translate(-1393.62 -11441.438)" fill="#75b62f"/>
    <path id="Trazado_200974" data-name="Trazado 200974" d="M759.447,434.212l-15.51,8.955a76.831,76.831,0,0,1,0,73.536l15.51,8.955C775.606,496.5,775.606,463.372,759.447,434.212Z" transform="translate(-1428.061 -11467.145)" fill="#75b62f"/>
    <path id="Trazado_200975" data-name="Trazado 200975" d="M707.656,564.914a76.685,76.685,0,0,1-63.68,36.756v17.923c33.332-.586,62.019-17.148,79.194-45.722Z" transform="translate(-1393.62 -11512.178)" fill="#75b62f"/>
    <path id="Trazado_200976" data-name="Trazado 200976" d="M533.063,564.914l-15.514,8.957c17.174,28.574,45.862,45.136,79.194,45.722V601.67A76.682,76.682,0,0,1,533.063,564.914Z" transform="translate(-1350.059 -11512.178)" fill="#75b62f"/>
    <path id="Trazado_200977" data-name="Trazado 200977" d="M514.519,479.935a76.378,76.378,0,0,1,9.37-36.768l-15.511-8.955c-16.158,29.16-16.158,62.284,0,91.445l15.511-8.955A76.382,76.382,0,0,1,514.519,479.935Z" transform="translate(-1342.724 -11467.145)" fill="#75b62f"/>
    <path id="Trazado_200978" data-name="Trazado 200978" d="M596.743,377.526V359.6c-33.332.585-62.02,17.148-79.194,45.722l15.514,8.957A76.68,76.68,0,0,1,596.743,377.526Z" transform="translate(-1350.059 -11441.438)" fill="#75b62f"/>
    <path id="Trazado_201955" data-name="Trazado 201955" d="M61.572,0A61.572,61.572,0,1,1,0,61.572,61.572,61.572,0,0,1,61.572,0Z" transform="translate(-813.21 -11047.985)" fill="#dce736"/>
    <path id="Trazado_201956" data-name="Trazado 201956" d="M0,0V115.7" transform="translate(-416.006 -10753.335) rotate(90)" fill="none" stroke="#75b62f" stroke-width="3"/>
    <path id="Trazado_201957" data-name="Trazado 201957" d="M225.354,0H0" transform="translate(-416.828 -10753.335) rotate(90)" fill="none" stroke="#75b62f" stroke-width="3"/>
    <path id="Trazado_201958" data-name="Trazado 201958" d="M0,0V16.763" transform="translate(-417.138 -10529.071) rotate(90)" fill="none" stroke="#75b62f" stroke-width="3"/>
    <path id="Trazado_158597-3" data-name="Trazado 158597" d="M1188.5,133.31h11.617l-5.808,5.809-5.809-5.809Z" transform="translate(-300.592 -11723.38) rotate(90)" fill="#75b62f"/>
    <path id="Trazado_201959" data-name="Trazado 201959" d="M0,0V16.763" transform="translate(-417.138 -10675.748) rotate(90)" fill="none" stroke="#75b62f" stroke-width="3"/>
    <path id="Trazado_158597-4" data-name="Trazado 158597" d="M1188.5,133.31h11.617l-5.808,5.809-5.809-5.809Z" transform="translate(-300.592 -11870.057) rotate(90)" fill="#75b62f"/>
    <path id="Trazado_201960" data-name="Trazado 201960" d="M.412,116.7,0,0" transform="translate(-971.71 -10754.335) rotate(90)" fill="none" stroke="#75b62f" stroke-width="3"/>
    <path id="Trazado_201961" data-name="Trazado 201961" d="M225.941,0H0" transform="translate(-1087.593 -10753.923) rotate(90)" fill="none" stroke="#75b62f" stroke-width="3"/>
    <path id="Trazado_201962" data-name="Trazado 201962" d="M0,16.763V0" transform="translate(-1070.519 -10529.071) rotate(90)" fill="none" stroke="#75b62f" stroke-width="3"/>
    <path id="Trazado_158597-5" data-name="Trazado 158597" d="M0,5.809H11.617L5.809,0,0,5.809Z" transform="translate(-1064.71 -10534.88) rotate(90)" fill="#75b62f"/>
    <path id="Trazado_201963" data-name="Trazado 201963" d="M0,16.763V0" transform="translate(-1070.519 -10675.052) rotate(90)" fill="none" stroke="#75b62f" stroke-width="3"/>
    <path id="Trazado_158597-6" data-name="Trazado 158597" d="M0,5.809H11.617L5.809,0,0,5.809Z" transform="translate(-1064.71 -10680.86) rotate(90)" fill="#75b62f"/>
    <path id="Trazado_201964" data-name="Trazado 201964" d="M225.941,0H0" transform="translate(-1087.593 -10753.923) rotate(90)" fill="none" stroke="#75b62f" stroke-width="3"/>
    <path id="Trazado_201744" data-name="Trazado 201744" d="M-26.59-92.5H-.738" transform="translate(-1064.71 -10753.923) rotate(90)" fill="none" stroke="#75b62f" stroke-width="3"/>
    <path id="Trazado_201745" data-name="Trazado 201745" d="M-26.59-92.5H-.738" transform="translate(-624.71 -10751.597) rotate(90)" fill="none" stroke="#75b62f" stroke-width="3"/>
    <path id="Elipse_4758" data-name="Elipse 4758" d="M20.025,0A20.025,20.025,0,1,1,0,20.025,20.025,20.025,0,0,1,20.025,0Z" transform="translate(-1072.235 -10825.263)" fill="#f85316" opacity="0.18"/>
    <path id="Elipse_4759" data-name="Elipse 4759" d="M25,0A25,25,0,1,1,0,25,25,25,0,0,1,25,0Z" transform="translate(-1077.21 -10830.237)" fill="#f85316" opacity="0.154"/>
    <path id="Elipse_4753" data-name="Elipse 4753" d="M15.05,0A15.05,15.05,0,1,1,0,15.05,15.05,15.05,0,0,1,15.05,0Z" transform="translate(-1067.26 -10820.287)" fill="#f85316"/>
    <path id="Elipse_4758-2" data-name="Elipse 4758" d="M20.025,0A20.025,20.025,0,1,1,0,20.025,20.025,20.025,0,0,1,20.025,0Z" transform="translate(-892.235 -10697.082)" fill="#f85316" opacity="0.18"/>
    <path id="Elipse_4759-2" data-name="Elipse 4759" d="M25,0A25,25,0,1,1,0,25,25,25,0,0,1,25,0Z" transform="translate(-897.21 -10702.057)" fill="#f85316" opacity="0.154"/>
    <path id="Elipse_4753-2" data-name="Elipse 4753" d="M15.05,0A15.05,15.05,0,1,1,0,15.05,15.05,15.05,0,0,1,15.05,0Z" transform="translate(-887.26 -10692.106)" fill="#f85316"/>
    <path id="Elipse_4758-3" data-name="Elipse 4758" d="M20.025,0A20.025,20.025,0,1,1,0,20.025,20.025,20.025,0,0,1,20.025,0Z" transform="translate(-892.235 -10552.041)" fill="#f85316" opacity="0.18"/>
    <path id="Elipse_4759-3" data-name="Elipse 4759" d="M25,0A25,25,0,1,1,0,25,25,25,0,0,1,25,0Z" transform="translate(-897.21 -10557.016)" fill="#f85316" opacity="0.154"/>
    <path id="Elipse_4753-3" data-name="Elipse 4753" d="M15.05,0A15.05,15.05,0,1,1,0,15.05,15.05,15.05,0,0,1,15.05,0Z" transform="translate(-887.26 -10547.065)" fill="#f85316"/>
    <path id="Elipse_4758-4" data-name="Elipse 4758" d="M20.025,0A20.025,20.025,0,1,1,0,20.025,20.025,20.025,0,0,1,20.025,0Z" transform="translate(-652.235 -10552.041)" fill="#f85316" opacity="0.18"/>
    <path id="Elipse_4759-4" data-name="Elipse 4759" d="M25,0A25,25,0,1,1,0,25,25,25,0,0,1,25,0Z" transform="translate(-657.21 -10557.016)" fill="#f85316" opacity="0.154"/>
    <path id="Elipse_4753-4" data-name="Elipse 4753" d="M15.05,0A15.05,15.05,0,1,1,0,15.05,15.05,15.05,0,0,1,15.05,0Z" transform="translate(-647.26 -10547.065)" fill="#f85316"/>
    <path id="Elipse_4758-5" data-name="Elipse 4758" d="M20.025,0A20.025,20.025,0,1,1,0,20.025,20.025,20.025,0,0,1,20.025,0Z" transform="translate(-652.235 -10697.082)" fill="#f85316" opacity="0.18"/>
    <path id="Elipse_4759-5" data-name="Elipse 4759" d="M25,0A25,25,0,1,1,0,25,25,25,0,0,1,25,0Z" transform="translate(-657.21 -10702.057)" fill="#f85316" opacity="0.154"/>
    <path id="Elipse_4753-5" data-name="Elipse 4753" d="M15.05,0A15.05,15.05,0,1,1,0,15.05,15.05,15.05,0,0,1,15.05,0Z" transform="translate(-647.26 -10692.106)" fill="#f85316"/>
    <path id="Elipse_4758-6" data-name="Elipse 4758" d="M20.025,0A20.025,20.025,0,1,1,0,20.025,20.025,20.025,0,0,1,20.025,0Z" transform="translate(-472.235 -10825.263)" fill="#f85316" opacity="0.18"/>
    <path id="Elipse_4759-6" data-name="Elipse 4759" d="M25,0A25,25,0,1,1,0,25,25,25,0,0,1,25,0Z" transform="translate(-477.21 -10830.237)" fill="#f85316" opacity="0.154"/>
    <path id="Elipse_4753-6" data-name="Elipse 4753" d="M15.05,0A15.05,15.05,0,1,1,0,15.05,15.05,15.05,0,0,1,15.05,0Z" transform="translate(-467.26 -10820.287)" fill="#f85316"/>
    <path id="Trazado_201973" data-name="Trazado 201973" d="M5.219,14.18,7.8,5.625h2.609L6.445,17H4L.055,5.625h2.6ZM15.867,17a2.507,2.507,0,0,1-.227-.758,2.732,2.732,0,0,1-2.133.914,3,3,0,0,1-2.059-.719,2.312,2.312,0,0,1-.816-1.812,2.389,2.389,0,0,1,1-2.062,4.915,4.915,0,0,1,2.879-.727h1.039v-.484a1.393,1.393,0,0,0-.3-.937,1.183,1.183,0,0,0-.949-.352,1.345,1.345,0,0,0-.895.273.929.929,0,0,0-.324.75H10.82a2.268,2.268,0,0,1,.453-1.359,3,3,0,0,1,1.281-.98,4.669,4.669,0,0,1,1.859-.355,3.689,3.689,0,0,1,2.48.785,2.747,2.747,0,0,1,.918,2.207v3.664a4.041,4.041,0,0,0,.336,1.82V17ZM14,15.43a1.945,1.945,0,0,0,.922-.223,1.462,1.462,0,0,0,.625-.6V13.156H14.7q-1.7,0-1.8,1.172l-.008.133a.9.9,0,0,0,.3.7A1.153,1.153,0,0,0,14,15.43Zm10.3-4.766a6.134,6.134,0,0,0-.812-.062,1.654,1.654,0,0,0-1.68.867V17H19.547V8.547H21.68l.063,1.008a2.092,2.092,0,0,1,1.883-1.164,2.366,2.366,0,0,1,.7.1ZM27.766,17H25.5V8.547h2.266Zm-2.4-10.641a1.112,1.112,0,0,1,.34-.836,1.465,1.465,0,0,1,1.848,0,1.105,1.105,0,0,1,.344.836,1.108,1.108,0,0,1-.348.844,1.448,1.448,0,0,1-1.836,0A1.108,1.108,0,0,1,25.367,6.359ZM34.523,17a2.507,2.507,0,0,1-.227-.758,2.732,2.732,0,0,1-2.133.914,3,3,0,0,1-2.059-.719,2.312,2.312,0,0,1-.816-1.812,2.389,2.389,0,0,1,1-2.062,4.915,4.915,0,0,1,2.879-.727H34.2v-.484a1.393,1.393,0,0,0-.3-.937,1.183,1.183,0,0,0-.949-.352,1.345,1.345,0,0,0-.895.273.929.929,0,0,0-.324.75H29.477a2.268,2.268,0,0,1,.453-1.359,3,3,0,0,1,1.281-.98,4.669,4.669,0,0,1,1.859-.355,3.689,3.689,0,0,1,2.48.785,2.747,2.747,0,0,1,.918,2.207v3.664a4.041,4.041,0,0,0,.336,1.82V17Zm-1.867-1.57a1.945,1.945,0,0,0,.922-.223,1.462,1.462,0,0,0,.625-.6V13.156h-.844q-1.7,0-1.8,1.172l-.008.133a.9.9,0,0,0,.3.7A1.153,1.153,0,0,0,32.656,15.43ZM45.82,12.852a5.119,5.119,0,0,1-.867,3.168,2.872,2.872,0,0,1-2.422,1.137,2.639,2.639,0,0,1-2.2-1.055l-.1.9H38.2V5h2.258V9.3a2.571,2.571,0,0,1,2.055-.914,2.9,2.9,0,0,1,2.426,1.137,5.126,5.126,0,0,1,.879,3.2Zm-2.258-.164a3.363,3.363,0,0,0-.406-1.871,1.374,1.374,0,0,0-1.211-.59,1.489,1.489,0,0,0-1.484.883v3.336a1.509,1.509,0,0,0,1.5.891A1.394,1.394,0,0,0,43.4,14.258,5.562,5.562,0,0,0,43.563,12.688ZM49.594,17H47.328V5h2.266Zm5.75.156a4.15,4.15,0,0,1-3.027-1.141,4.054,4.054,0,0,1-1.168-3.039v-.219a5.106,5.106,0,0,1,.492-2.277,3.612,3.612,0,0,1,1.395-1.547,3.914,3.914,0,0,1,2.059-.543,3.508,3.508,0,0,1,2.73,1.094,4.444,4.444,0,0,1,1,3.1v.922H53.438a2.1,2.1,0,0,0,.66,1.328,2,2,0,0,0,1.395.5,2.437,2.437,0,0,0,2.039-.945l1.109,1.242a3.389,3.389,0,0,1-1.375,1.121A4.511,4.511,0,0,1,55.344,17.156Zm-.258-6.945a1.411,1.411,0,0,0-1.09.455,2.357,2.357,0,0,0-.535,1.3H56.6v-.181a1.681,1.681,0,0,0-.406-1.165A1.456,1.456,0,0,0,55.086,10.211Zm9.594,4.453a.727.727,0,0,0-.41-.652,4.659,4.659,0,0,0-1.316-.426q-3.016-.633-3.016-2.562a2.323,2.323,0,0,1,.934-1.879,3.766,3.766,0,0,1,2.441-.754,4.053,4.053,0,0,1,2.574.758,2.388,2.388,0,0,1,.965,1.969H64.594a1.092,1.092,0,0,0-.312-.8A1.322,1.322,0,0,0,63.3,10a1.351,1.351,0,0,0-.883.258.814.814,0,0,0-.312.656.7.7,0,0,0,.355.605,3.657,3.657,0,0,0,1.2.4,9.8,9.8,0,0,1,1.422.379,2.336,2.336,0,0,1,1.789,2.273,2.2,2.2,0,0,1-.992,1.871,4.28,4.28,0,0,1-2.562.715,4.47,4.47,0,0,1-1.887-.379,3.166,3.166,0,0,1-1.293-1.039,2.414,2.414,0,0,1-.469-1.426h2.141a1.179,1.179,0,0,0,.445.922,1.766,1.766,0,0,0,1.109.32,1.635,1.635,0,0,0,.98-.246A.766.766,0,0,0,64.68,14.664Z" transform="translate(-786.21 -10996.985)" fill="#12263f"/>
    <path id="Trazado_201972" data-name="Trazado 201972" d="M9.688,13.391a4.185,4.185,0,0,1-1.332,2.785,4.365,4.365,0,0,1-2.98.98,4.008,4.008,0,0,1-3.23-1.445A5.815,5.815,0,0,1,.93,11.844V10.75A6.481,6.481,0,0,1,1.5,7.961,4.231,4.231,0,0,1,3.1,6.113a4.47,4.47,0,0,1,2.406-.645A4.11,4.11,0,0,1,8.414,6.48a4.235,4.235,0,0,1,1.273,2.8H8.18a3.268,3.268,0,0,0-.848-1.975A2.565,2.565,0,0,0,5.508,6.7,2.684,2.684,0,0,0,3.254,7.759a4.882,4.882,0,0,0-.816,3.026v1.1a5.018,5.018,0,0,0,.773,2.948A2.5,2.5,0,0,0,5.375,15.93a2.887,2.887,0,0,0,1.918-.566,3.143,3.143,0,0,0,.887-1.973Zm7.039,2.773a3.07,3.07,0,0,1-2.477.992,2.628,2.628,0,0,1-2.059-.785,3.4,3.4,0,0,1-.715-2.324v-5.5h1.445v5.461q0,1.922,1.563,1.922a2.163,2.163,0,0,0,2.2-1.234V8.547h1.445V17H16.758Zm8.82.836a3.036,3.036,0,0,1-.2-.891,3.225,3.225,0,0,1-2.406,1.047,2.984,2.984,0,0,1-2.051-.707,2.287,2.287,0,0,1-.8-1.793,2.39,2.39,0,0,1,1-2.051,4.733,4.733,0,0,1,2.824-.73H25.32v-.664A1.623,1.623,0,0,0,24.867,10a1.821,1.821,0,0,0-1.336-.449,2.107,2.107,0,0,0-1.3.391,1.151,1.151,0,0,0-.523.945H20.258a2,2,0,0,1,.449-1.223,3.066,3.066,0,0,1,1.219-.934,4.1,4.1,0,0,1,1.691-.344,3.342,3.342,0,0,1,2.289.73,2.635,2.635,0,0,1,.859,2.012v3.891a4.757,4.757,0,0,0,.3,1.852V17Zm-2.4-1.1a2.54,2.54,0,0,0,1.289-.352,2.127,2.127,0,0,0,.883-.914V12.9H24.188q-2.656,0-2.656,1.555a1.316,1.316,0,0,0,.453,1.063A1.742,1.742,0,0,0,23.148,15.9ZM30.4,8.547l.047,1.063a3.08,3.08,0,0,1,2.531-1.219q2.68,0,2.7,3.023V17H34.234V11.406a1.946,1.946,0,0,0-.418-1.352,1.675,1.675,0,0,0-1.277-.437,2.086,2.086,0,0,0-1.234.375,2.546,2.546,0,0,0-.828.984V17H29.031V8.547ZM39.82,6.5V8.547H41.4V9.664H39.82v5.249a1.173,1.173,0,0,0,.211.763.888.888,0,0,0,.719.254,3.5,3.5,0,0,0,.688-.094V17a4.215,4.215,0,0,1-1.109.155,1.8,1.8,0,0,1-1.461-.586,2.517,2.517,0,0,1-.492-1.664V9.664H36.836V8.547h1.539V6.5ZM44.656,17H43.211V8.547h1.445ZM43.094,6.3a.863.863,0,0,1,.215-.594.807.807,0,0,1,.637-.242.819.819,0,0,1,.641.242A.854.854,0,0,1,44.8,6.3a.826.826,0,0,1-.219.586.834.834,0,0,1-.641.234.821.821,0,0,1-.637-.234A.834.834,0,0,1,43.094,6.3Zm5.836.2V8.547h1.578V9.664H48.93v5.249a1.173,1.173,0,0,0,.211.763.888.888,0,0,0,.719.254,3.5,3.5,0,0,0,.688-.094V17a4.215,4.215,0,0,1-1.109.155,1.8,1.8,0,0,1-1.461-.586,2.517,2.517,0,0,1-.492-1.664V9.664H45.945V8.547h1.539V6.5ZM57.414,17a3.036,3.036,0,0,1-.2-.891A3.225,3.225,0,0,1,54.8,17.156a2.984,2.984,0,0,1-2.051-.707,2.287,2.287,0,0,1-.8-1.793,2.39,2.39,0,0,1,1-2.051,4.733,4.733,0,0,1,2.824-.73h1.406v-.664A1.623,1.623,0,0,0,56.734,10,1.821,1.821,0,0,0,55.4,9.555a2.107,2.107,0,0,0-1.3.391,1.151,1.151,0,0,0-.523.945H52.125a2,2,0,0,1,.449-1.223,3.066,3.066,0,0,1,1.219-.934,4.1,4.1,0,0,1,1.691-.344,3.342,3.342,0,0,1,2.289.73,2.635,2.635,0,0,1,.859,2.012v3.891a4.757,4.757,0,0,0,.3,1.852V17Zm-2.4-1.1a2.54,2.54,0,0,0,1.289-.352,2.127,2.127,0,0,0,.883-.914V12.9H56.055q-2.656,0-2.656,1.555a1.316,1.316,0,0,0,.453,1.063A1.742,1.742,0,0,0,55.016,15.9Zm7.844-9.4V8.547h1.578V9.664H62.859v5.249a1.173,1.173,0,0,0,.211.763.888.888,0,0,0,.719.254,3.5,3.5,0,0,0,.688-.094V17a4.215,4.215,0,0,1-1.109.155,1.8,1.8,0,0,1-1.461-.586,2.517,2.517,0,0,1-.492-1.664V9.664H59.875V8.547h1.539V6.5ZM67.7,17H66.25V8.547H67.7ZM66.133,6.3a.863.863,0,0,1,.215-.594.807.807,0,0,1,.637-.242.819.819,0,0,1,.641.242.854.854,0,0,1,.219.594.826.826,0,0,1-.219.586.834.834,0,0,1-.641.234.821.821,0,0,1-.637-.234A.834.834,0,0,1,66.133,6.3ZM72.8,15.039l2.094-6.492h1.477L73.336,17h-1.1L69.172,8.547h1.477ZM82.859,17a3.036,3.036,0,0,1-.2-.891,3.225,3.225,0,0,1-2.406,1.047,2.984,2.984,0,0,1-2.051-.707,2.288,2.288,0,0,1-.8-1.793,2.39,2.39,0,0,1,1-2.051,4.733,4.733,0,0,1,2.824-.73h1.406v-.664A1.623,1.623,0,0,0,82.18,10a1.821,1.821,0,0,0-1.336-.449,2.108,2.108,0,0,0-1.3.391,1.151,1.151,0,0,0-.523.945H77.57a2,2,0,0,1,.449-1.223,3.066,3.066,0,0,1,1.219-.934,4.1,4.1,0,0,1,1.691-.344,3.342,3.342,0,0,1,2.289.73,2.635,2.635,0,0,1,.859,2.012v3.891a4.757,4.757,0,0,0,.3,1.852V17Zm-2.4-1.1a2.54,2.54,0,0,0,1.289-.352,2.127,2.127,0,0,0,.883-.914V12.9H81.5q-2.656,0-2.656,1.555a1.316,1.316,0,0,0,.453,1.063A1.742,1.742,0,0,0,80.461,15.9Z" transform="translate(-1007.21 -10816.384)" fill="#12263f"/>
    <path id="Trazado_201974" data-name="Trazado 201974" d="M1.32,17V5.625H4.531a5.169,5.169,0,0,1,2.625.656A4.438,4.438,0,0,1,8.918,8.148a6.078,6.078,0,0,1,.629,2.781v.727a6.1,6.1,0,0,1-.621,2.82,4.369,4.369,0,0,1-1.773,1.859A5.5,5.5,0,0,1,4.469,17ZM2.82,6.852v8.922H4.4a3.434,3.434,0,0,0,2.7-1.079,4.458,4.458,0,0,0,.965-3.073v-.665a4.529,4.529,0,0,0-.91-3.014A3.239,3.239,0,0,0,4.57,6.852ZM13.156,17H11.711V8.547h1.445ZM11.594,6.3a.863.863,0,0,1,.215-.594.807.807,0,0,1,.637-.242.819.819,0,0,1,.641.242A.854.854,0,0,1,13.3,6.3a.826.826,0,0,1-.219.586.834.834,0,0,1-.641.234.821.821,0,0,1-.637-.234A.834.834,0,0,1,11.594,6.3Zm8.8,8.453a1.064,1.064,0,0,0-.441-.91,4.249,4.249,0,0,0-1.539-.559,7.277,7.277,0,0,1-1.742-.562,2.479,2.479,0,0,1-.953-.781,1.869,1.869,0,0,1-.309-1.078,2.193,2.193,0,0,1,.879-1.758,3.432,3.432,0,0,1,2.246-.719,3.532,3.532,0,0,1,2.332.742,2.357,2.357,0,0,1,.895,1.9H20.3a1.3,1.3,0,0,0-.5-1.023,1.888,1.888,0,0,0-1.27-.43,1.976,1.976,0,0,0-1.234.344,1.082,1.082,0,0,0-.445.9.877.877,0,0,0,.414.789,5.1,5.1,0,0,0,1.5.508,7.8,7.8,0,0,1,1.754.578,2.558,2.558,0,0,1,1,.809,1.988,1.988,0,0,1,.324,1.152,2.163,2.163,0,0,1-.906,1.816,3.8,3.8,0,0,1-2.352.684,4.257,4.257,0,0,1-1.8-.359,2.922,2.922,0,0,1-1.223-1,2.42,2.42,0,0,1-.441-1.395h1.445a1.5,1.5,0,0,0,.582,1.152,2.258,2.258,0,0,0,1.434.426,2.331,2.331,0,0,0,1.316-.332A1.02,1.02,0,0,0,20.391,14.758Zm6.719,1.219a2.082,2.082,0,0,0,1.352-.469,1.649,1.649,0,0,0,.641-1.172h1.367a2.621,2.621,0,0,1-.5,1.383,3.293,3.293,0,0,1-1.23,1.047,3.55,3.55,0,0,1-1.629.391A3.482,3.482,0,0,1,24.363,16a4.59,4.59,0,0,1-1.02-3.152v-.242a5.089,5.089,0,0,1,.453-2.2,3.451,3.451,0,0,1,1.3-1.492,3.7,3.7,0,0,1,2-.531,3.39,3.39,0,0,1,2.363.852,3.043,3.043,0,0,1,1,2.211H29.1a1.992,1.992,0,0,0-.621-1.348A1.932,1.932,0,0,0,27.1,9.578a2.023,2.023,0,0,0-1.707.793,3.724,3.724,0,0,0-.605,2.293v.273a3.65,3.65,0,0,0,.6,2.25A2.033,2.033,0,0,0,27.109,15.977Zm9.07-6.133a4.331,4.331,0,0,0-.711-.055A1.9,1.9,0,0,0,33.539,11v6H32.094V8.547H33.5l.023.977a2.251,2.251,0,0,1,2.016-1.133,1.477,1.477,0,0,1,.641.109Zm4.836,7.313a3.693,3.693,0,0,1-2.8-1.129,4.19,4.19,0,0,1-1.078-3.02v-.266a5.073,5.073,0,0,1,.48-2.246,3.748,3.748,0,0,1,1.344-1.547,3.378,3.378,0,0,1,1.871-.559A3.166,3.166,0,0,1,43.4,9.477a4.7,4.7,0,0,1,.914,3.109v.6H38.586a3,3,0,0,0,.73,2.02,2.3,2.3,0,0,0,1.777.77,2.517,2.517,0,0,0,1.3-.312,3.259,3.259,0,0,0,.93-.828l.883.688A3.55,3.55,0,0,1,41.016,17.156Zm-.18-7.578a1.928,1.928,0,0,0-1.469.637A3.1,3.1,0,0,0,38.633,12h4.234v-.109a2.753,2.753,0,0,0-.594-1.707A1.815,1.815,0,0,0,40.836,9.578ZM47.945,6.5V8.547h1.578V9.664H47.945v5.249a1.173,1.173,0,0,0,.211.763.888.888,0,0,0,.719.254,3.5,3.5,0,0,0,.688-.094V17a4.215,4.215,0,0,1-1.109.155,1.8,1.8,0,0,1-1.461-.586,2.517,2.517,0,0,1-.492-1.664V9.664H44.961V8.547H46.5V6.5ZM56.43,17a3.036,3.036,0,0,1-.2-.891,3.225,3.225,0,0,1-2.406,1.047,2.984,2.984,0,0,1-2.051-.707,2.287,2.287,0,0,1-.8-1.793,2.39,2.39,0,0,1,1-2.051,4.733,4.733,0,0,1,2.824-.73H56.2v-.664A1.623,1.623,0,0,0,55.75,10a1.821,1.821,0,0,0-1.336-.449,2.107,2.107,0,0,0-1.3.391,1.151,1.151,0,0,0-.523.945H51.141a2,2,0,0,1,.449-1.223,3.066,3.066,0,0,1,1.219-.934A4.1,4.1,0,0,1,54.5,8.391a3.342,3.342,0,0,1,2.289.73,2.635,2.635,0,0,1,.859,2.012v3.891a4.757,4.757,0,0,0,.3,1.852V17Zm-2.4-1.1a2.54,2.54,0,0,0,1.289-.352,2.127,2.127,0,0,0,.883-.914V12.9H55.07q-2.656,0-2.656,1.555a1.316,1.316,0,0,0,.453,1.063A1.742,1.742,0,0,0,54.031,15.9Z" transform="translate(-993.21 -10687.557)" fill="#12263f"/>
    <path id="Trazado_201975" data-name="Trazado 201975" d="M9.688,13.391a4.185,4.185,0,0,1-1.332,2.785,4.365,4.365,0,0,1-2.98.98,4.008,4.008,0,0,1-3.23-1.445A5.815,5.815,0,0,1,.93,11.844V10.75A6.481,6.481,0,0,1,1.5,7.961,4.231,4.231,0,0,1,3.1,6.113a4.47,4.47,0,0,1,2.406-.645A4.11,4.11,0,0,1,8.414,6.48a4.235,4.235,0,0,1,1.273,2.8H8.18a3.268,3.268,0,0,0-.848-1.975A2.565,2.565,0,0,0,5.508,6.7,2.684,2.684,0,0,0,3.254,7.759a4.882,4.882,0,0,0-.816,3.026v1.1a5.018,5.018,0,0,0,.773,2.948A2.5,2.5,0,0,0,5.375,15.93a2.887,2.887,0,0,0,1.918-.566,3.143,3.143,0,0,0,.887-1.973Zm1.438-.7a4.993,4.993,0,0,1,.488-2.234A3.643,3.643,0,0,1,12.973,8.93a3.7,3.7,0,0,1,1.988-.539,3.565,3.565,0,0,1,2.793,1.2,4.6,4.6,0,0,1,1.066,3.18v.1a5.036,5.036,0,0,1-.473,2.215A3.589,3.589,0,0,1,17,16.609a3.743,3.743,0,0,1-2.02.547,3.556,3.556,0,0,1-2.785-1.2A4.575,4.575,0,0,1,11.125,12.8Zm1.453.172a3.616,3.616,0,0,0,.652,2.258,2.211,2.211,0,0,0,3.5-.012,3.955,3.955,0,0,0,.648-2.418,3.61,3.61,0,0,0-.66-2.254,2.1,2.1,0,0,0-1.754-.863,2.075,2.075,0,0,0-1.727.852A3.925,3.925,0,0,0,12.578,12.867ZM22,8.547l.047,1.063a3.08,3.08,0,0,1,2.531-1.219q2.68,0,2.7,3.023V17H25.836V11.406a1.946,1.946,0,0,0-.418-1.352,1.675,1.675,0,0,0-1.277-.437,2.086,2.086,0,0,0-1.234.375,2.546,2.546,0,0,0-.828.984V17H20.633V8.547ZM31.422,6.5V8.547H33V9.664H31.422v5.249a1.173,1.173,0,0,0,.211.763.888.888,0,0,0,.719.254,3.5,3.5,0,0,0,.688-.094V17a4.215,4.215,0,0,1-1.109.155,1.8,1.8,0,0,1-1.461-.586,2.517,2.517,0,0,1-.492-1.664V9.664H28.438V8.547h1.539V6.5ZM36.258,17H34.813V8.547h1.445ZM34.7,6.3a.863.863,0,0,1,.215-.594.807.807,0,0,1,.637-.242.819.819,0,0,1,.641.242.854.854,0,0,1,.219.594.826.826,0,0,1-.219.586.834.834,0,0,1-.641.234.821.821,0,0,1-.637-.234A.834.834,0,0,1,34.7,6.3Zm5.242,2.242.047,1.063a3.08,3.08,0,0,1,2.531-1.219q2.68,0,2.7,3.023V17H43.773V11.406a1.946,1.946,0,0,0-.418-1.352,1.675,1.675,0,0,0-1.277-.437,2.086,2.086,0,0,0-1.234.375,2.546,2.546,0,0,0-.828.984V17H38.57V8.547Zm12.68,7.617a3.07,3.07,0,0,1-2.477.992,2.628,2.628,0,0,1-2.059-.785,3.4,3.4,0,0,1-.715-2.324v-5.5h1.445v5.461q0,1.922,1.563,1.922a2.163,2.163,0,0,0,2.2-1.234V8.547h1.445V17H52.648Zm8.82.836a3.036,3.036,0,0,1-.2-.891,3.225,3.225,0,0,1-2.406,1.047,2.984,2.984,0,0,1-2.051-.707,2.287,2.287,0,0,1-.8-1.793,2.39,2.39,0,0,1,1-2.051,4.733,4.733,0,0,1,2.824-.73h1.406v-.664A1.623,1.623,0,0,0,60.758,10a1.821,1.821,0,0,0-1.336-.449,2.107,2.107,0,0,0-1.3.391,1.151,1.151,0,0,0-.523.945H56.148A2,2,0,0,1,56.6,9.668a3.066,3.066,0,0,1,1.219-.934,4.1,4.1,0,0,1,1.691-.344,3.342,3.342,0,0,1,2.289.73,2.635,2.635,0,0,1,.859,2.012v3.891a4.757,4.757,0,0,0,.3,1.852V17Zm-2.4-1.1a2.54,2.54,0,0,0,1.289-.352,2.127,2.127,0,0,0,.883-.914V12.9H60.078q-2.656,0-2.656,1.555a1.316,1.316,0,0,0,.453,1.063A1.742,1.742,0,0,0,59.039,15.9Z" transform="translate(-995.21 -10542.515)" fill="#12263f"/>
    <path id="Trazado_201967" data-name="Trazado 201967" d="M9.688,13.391a4.185,4.185,0,0,1-1.332,2.785,4.365,4.365,0,0,1-2.98.98,4.008,4.008,0,0,1-3.23-1.445A5.815,5.815,0,0,1,.93,11.844V10.75A6.481,6.481,0,0,1,1.5,7.961,4.231,4.231,0,0,1,3.1,6.113a4.47,4.47,0,0,1,2.406-.645A4.11,4.11,0,0,1,8.414,6.48a4.235,4.235,0,0,1,1.273,2.8H8.18a3.268,3.268,0,0,0-.848-1.975A2.565,2.565,0,0,0,5.508,6.7,2.684,2.684,0,0,0,3.254,7.759a4.882,4.882,0,0,0-.816,3.026v1.1a5.018,5.018,0,0,0,.773,2.948A2.5,2.5,0,0,0,5.375,15.93a2.887,2.887,0,0,0,1.918-.566,3.143,3.143,0,0,0,.887-1.973Zm7.039,2.773a3.07,3.07,0,0,1-2.477.992,2.628,2.628,0,0,1-2.059-.785,3.4,3.4,0,0,1-.715-2.324v-5.5h1.445v5.461q0,1.922,1.563,1.922a2.163,2.163,0,0,0,2.2-1.234V8.547h1.445V17H16.758Zm8.82.836a3.036,3.036,0,0,1-.2-.891,3.225,3.225,0,0,1-2.406,1.047,2.984,2.984,0,0,1-2.051-.707,2.287,2.287,0,0,1-.8-1.793,2.39,2.39,0,0,1,1-2.051,4.733,4.733,0,0,1,2.824-.73H25.32v-.664A1.623,1.623,0,0,0,24.867,10a1.821,1.821,0,0,0-1.336-.449,2.107,2.107,0,0,0-1.3.391,1.151,1.151,0,0,0-.523.945H20.258a2,2,0,0,1,.449-1.223,3.066,3.066,0,0,1,1.219-.934,4.1,4.1,0,0,1,1.691-.344,3.342,3.342,0,0,1,2.289.73,2.635,2.635,0,0,1,.859,2.012v3.891a4.757,4.757,0,0,0,.3,1.852V17Zm-2.4-1.1a2.54,2.54,0,0,0,1.289-.352,2.127,2.127,0,0,0,.883-.914V12.9H24.188q-2.656,0-2.656,1.555a1.316,1.316,0,0,0,.453,1.063A1.742,1.742,0,0,0,23.148,15.9ZM30.6,17H29.156V5H30.6Zm3.883,0H33.039V8.547h1.445ZM32.922,6.3a.863.863,0,0,1,.215-.594.807.807,0,0,1,.637-.242.819.819,0,0,1,.641.242.854.854,0,0,1,.219.594.826.826,0,0,1-.219.586.834.834,0,0,1-.641.234.821.821,0,0,1-.637-.234A.834.834,0,0,1,32.922,6.3Zm5.836.2V8.547h1.578V9.664H38.758v5.249a1.173,1.173,0,0,0,.211.763.888.888,0,0,0,.719.254,3.5,3.5,0,0,0,.688-.094V17a4.215,4.215,0,0,1-1.109.155A1.8,1.8,0,0,1,37.8,16.57a2.517,2.517,0,0,1-.492-1.664V9.664H35.773V8.547h1.539V6.5ZM47.242,17a3.036,3.036,0,0,1-.2-.891,3.225,3.225,0,0,1-2.406,1.047,2.984,2.984,0,0,1-2.051-.707,2.287,2.287,0,0,1-.8-1.793,2.39,2.39,0,0,1,1-2.051,4.733,4.733,0,0,1,2.824-.73h1.406v-.664A1.623,1.623,0,0,0,46.563,10a1.821,1.821,0,0,0-1.336-.449,2.107,2.107,0,0,0-1.3.391,1.151,1.151,0,0,0-.523.945H41.953A2,2,0,0,1,42.4,9.668a3.066,3.066,0,0,1,1.219-.934,4.1,4.1,0,0,1,1.691-.344,3.342,3.342,0,0,1,2.289.73,2.635,2.635,0,0,1,.859,2.012v3.891a4.757,4.757,0,0,0,.3,1.852V17Zm-2.4-1.1a2.54,2.54,0,0,0,1.289-.352,2.127,2.127,0,0,0,.883-.914V12.9H45.883q-2.656,0-2.656,1.555a1.316,1.316,0,0,0,.453,1.063A1.742,1.742,0,0,0,44.844,15.9Zm7.844-9.4V8.547h1.578V9.664H52.688v5.249a1.173,1.173,0,0,0,.211.763.888.888,0,0,0,.719.254,3.5,3.5,0,0,0,.688-.094V17a4.215,4.215,0,0,1-1.109.155,1.8,1.8,0,0,1-1.461-.586,2.517,2.517,0,0,1-.492-1.664V9.664H49.7V8.547h1.539V6.5ZM57.523,17H56.078V8.547h1.445ZM55.961,6.3a.863.863,0,0,1,.215-.594.807.807,0,0,1,.637-.242.819.819,0,0,1,.641.242.854.854,0,0,1,.219.594.826.826,0,0,1-.219.586.834.834,0,0,1-.641.234.821.821,0,0,1-.637-.234A.834.834,0,0,1,55.961,6.3Zm6.664,8.734,2.094-6.492H66.2L63.164,17h-1.1L59,8.547h1.477ZM72.688,17a3.036,3.036,0,0,1-.2-.891,3.225,3.225,0,0,1-2.406,1.047,2.984,2.984,0,0,1-2.051-.707,2.288,2.288,0,0,1-.8-1.793,2.39,2.39,0,0,1,1-2.051,4.733,4.733,0,0,1,2.824-.73h1.406v-.664A1.623,1.623,0,0,0,72.008,10a1.821,1.821,0,0,0-1.336-.449,2.108,2.108,0,0,0-1.3.391,1.151,1.151,0,0,0-.523.945H67.4a2,2,0,0,1,.449-1.223,3.066,3.066,0,0,1,1.219-.934,4.1,4.1,0,0,1,1.691-.344,3.342,3.342,0,0,1,2.289.73,2.635,2.635,0,0,1,.859,2.012v3.891a4.757,4.757,0,0,0,.3,1.852V17Zm-2.4-1.1a2.54,2.54,0,0,0,1.289-.352,2.127,2.127,0,0,0,.883-.914V12.9H71.328q-2.656,0-2.656,1.555a1.316,1.316,0,0,0,.453,1.063A1.742,1.742,0,0,0,70.289,15.9Z" transform="translate(-582.21 -10816.385)" fill="#12263f"/>
    <path id="Trazado_201966" data-name="Trazado 201966" d="M2.461,8.547l.047,1.063A3.08,3.08,0,0,1,5.039,8.391q2.68,0,2.7,3.023V17H6.3V11.406a1.946,1.946,0,0,0-.418-1.352A1.675,1.675,0,0,0,4.6,9.617a2.086,2.086,0,0,0-1.234.375,2.546,2.546,0,0,0-.828.984V17H1.094V8.547ZM9.539,12.7a4.993,4.993,0,0,1,.488-2.234A3.643,3.643,0,0,1,11.387,8.93a3.7,3.7,0,0,1,1.988-.539,3.565,3.565,0,0,1,2.793,1.2,4.6,4.6,0,0,1,1.066,3.18v.1a5.036,5.036,0,0,1-.473,2.215,3.589,3.589,0,0,1-1.352,1.527,3.743,3.743,0,0,1-2.02.547,3.556,3.556,0,0,1-2.785-1.2A4.575,4.575,0,0,1,9.539,12.8Zm1.453.172a3.616,3.616,0,0,0,.652,2.258,2.211,2.211,0,0,0,3.5-.012,3.955,3.955,0,0,0,.648-2.418,3.61,3.61,0,0,0-.66-2.254,2.1,2.1,0,0,0-1.754-.863,2.075,2.075,0,0,0-1.727.852A3.925,3.925,0,0,0,10.992,12.867Zm9.414-4.32.039.938a3.122,3.122,0,0,1,2.508-1.094A2.417,2.417,0,0,1,25.367,9.75a3.2,3.2,0,0,1,1.1-.984,3.242,3.242,0,0,1,1.6-.375q2.781,0,2.828,2.945V17H29.445V11.422a1.941,1.941,0,0,0-.414-1.355,1.823,1.823,0,0,0-1.391-.449,1.916,1.916,0,0,0-1.336.48,1.949,1.949,0,0,0-.617,1.293V17H24.234V11.461a1.613,1.613,0,0,0-1.8-1.844,1.934,1.934,0,0,0-1.945,1.211V17H19.039V8.547ZM34.641,17H33.2V8.547h1.445ZM33.078,6.3a.863.863,0,0,1,.215-.594.807.807,0,0,1,.637-.242.819.819,0,0,1,.641.242.854.854,0,0,1,.219.594.826.826,0,0,1-.219.586.834.834,0,0,1-.641.234.821.821,0,0,1-.637-.234A.834.834,0,0,1,33.078,6.3ZM38.32,8.547l.047,1.063A3.08,3.08,0,0,1,40.9,8.391q2.68,0,2.7,3.023V17H42.156V11.406a1.946,1.946,0,0,0-.418-1.352,1.675,1.675,0,0,0-1.277-.437,2.086,2.086,0,0,0-1.234.375,2.546,2.546,0,0,0-.828.984V17H36.953V8.547ZM51,17a3.036,3.036,0,0,1-.2-.891,3.225,3.225,0,0,1-2.406,1.047,2.984,2.984,0,0,1-2.051-.707,2.287,2.287,0,0,1-.8-1.793,2.39,2.39,0,0,1,1-2.051,4.733,4.733,0,0,1,2.824-.73h1.406v-.664A1.623,1.623,0,0,0,50.32,10a1.821,1.821,0,0,0-1.336-.449,2.107,2.107,0,0,0-1.3.391,1.151,1.151,0,0,0-.523.945H45.711a2,2,0,0,1,.449-1.223,3.066,3.066,0,0,1,1.219-.934,4.1,4.1,0,0,1,1.691-.344,3.342,3.342,0,0,1,2.289.73,2.635,2.635,0,0,1,.859,2.012v3.891a4.757,4.757,0,0,0,.3,1.852V17Zm-2.4-1.1a2.54,2.54,0,0,0,1.289-.352,2.127,2.127,0,0,0,.883-.914V12.9H49.641q-2.656,0-2.656,1.555a1.316,1.316,0,0,0,.453,1.063A1.742,1.742,0,0,0,48.6,15.9ZM56.055,17H54.609V5h1.445Z" transform="translate(-571.21 -10687.558)" fill="#12263f"/>
    <path id="Trazado_201965" data-name="Trazado 201965" d="M.711,12.7A4.993,4.993,0,0,1,1.2,10.461,3.643,3.643,0,0,1,2.559,8.93a3.7,3.7,0,0,1,1.988-.539,3.565,3.565,0,0,1,2.793,1.2,4.6,4.6,0,0,1,1.066,3.18v.1a5.036,5.036,0,0,1-.473,2.215,3.589,3.589,0,0,1-1.352,1.527,3.743,3.743,0,0,1-2.02.547,3.556,3.556,0,0,1-2.785-1.2A4.575,4.575,0,0,1,.711,12.8Zm1.453.172a3.616,3.616,0,0,0,.652,2.258,2.088,2.088,0,0,0,1.746.852,2.075,2.075,0,0,0,1.75-.863A3.955,3.955,0,0,0,6.961,12.7a3.61,3.61,0,0,0-.66-2.254,2.1,2.1,0,0,0-1.754-.863,2.075,2.075,0,0,0-1.727.852A3.925,3.925,0,0,0,2.164,12.867ZM14.3,9.844a4.331,4.331,0,0,0-.711-.055A1.9,1.9,0,0,0,11.664,11v6H10.219V8.547h1.406l.023.977a2.251,2.251,0,0,1,2.016-1.133A1.477,1.477,0,0,1,14.3,8.5Zm.977,2.859A4.952,4.952,0,0,1,16.2,9.574a2.915,2.915,0,0,1,2.414-1.184,2.932,2.932,0,0,1,2.352,1.016V5h1.445V17H21.086l-.07-.906A2.943,2.943,0,0,1,18.6,17.156a2.887,2.887,0,0,1-2.395-1.2,5.008,5.008,0,0,1-.926-3.141Zm1.445.164a3.749,3.749,0,0,0,.594,2.25,1.92,1.92,0,0,0,1.641.813A2.108,2.108,0,0,0,20.969,14.7V10.813a2.125,2.125,0,0,0-1.992-1.2,1.929,1.929,0,0,0-1.656.82A4.128,4.128,0,0,0,16.727,12.867ZM26.227,17H24.781V8.547h1.445ZM24.664,6.3a.863.863,0,0,1,.215-.594.807.807,0,0,1,.637-.242.819.819,0,0,1,.641.242.854.854,0,0,1,.219.594.826.826,0,0,1-.219.586.834.834,0,0,1-.641.234.821.821,0,0,1-.637-.234A.834.834,0,0,1,24.664,6.3Zm5.242,2.242.047,1.063a3.08,3.08,0,0,1,2.531-1.219q2.68,0,2.7,3.023V17H33.742V11.406a1.946,1.946,0,0,0-.418-1.352,1.675,1.675,0,0,0-1.277-.437,2.086,2.086,0,0,0-1.234.375,2.546,2.546,0,0,0-.828.984V17H28.539V8.547ZM42.586,17a3.036,3.036,0,0,1-.2-.891,3.225,3.225,0,0,1-2.406,1.047,2.984,2.984,0,0,1-2.051-.707,2.287,2.287,0,0,1-.8-1.793,2.39,2.39,0,0,1,1-2.051,4.733,4.733,0,0,1,2.824-.73h1.406v-.664A1.623,1.623,0,0,0,41.906,10a1.821,1.821,0,0,0-1.336-.449,2.107,2.107,0,0,0-1.3.391,1.151,1.151,0,0,0-.523.945H37.3a2,2,0,0,1,.449-1.223,3.066,3.066,0,0,1,1.219-.934,4.1,4.1,0,0,1,1.691-.344,3.342,3.342,0,0,1,2.289.73,2.635,2.635,0,0,1,.859,2.012v3.891a4.757,4.757,0,0,0,.3,1.852V17Zm-2.4-1.1a2.54,2.54,0,0,0,1.289-.352,2.127,2.127,0,0,0,.883-.914V12.9H41.227q-2.656,0-2.656,1.555a1.316,1.316,0,0,0,.453,1.063A1.742,1.742,0,0,0,40.188,15.9ZM47.641,17H46.2V5h1.445Z" transform="translate(-566.21 -10542.516)" fill="#12263f"/>
  </g>
</svg>
