<svg xmlns="http://www.w3.org/2000/svg" width="99.989" height="100" viewBox="0 0 99.989 100">
  <g id="Grupo_150166" data-name="Grupo 150166" transform="translate(-3401.313 8670.848)">
    <g id="Grupo_150099" data-name="Grupo 150099" transform="translate(-4094.492 -8614.849)">
      <g id="Grupo_150055" data-name="Grupo 150055" transform="translate(7495.777 -430.013)">
        <g id="Grupo_149683" data-name="Grupo 149683" transform="translate(1.485 375.476)">
          <g id="Grupo_149679" data-name="Grupo 149679" transform="translate(0 37.551)">
            <path id="Trazado_201139" data-name="Trazado 201139" d="M125.868,428.576a39.322,39.322,0,0,1,0,24.952q-9.632.266-19.265.422a70.513,70.513,0,0,0,0-25.8q9.632.157,19.265.422Z" transform="translate(-30.825 -427.932)" fill="#95d6a4"/>
            <path id="Trazado_201140" data-name="Trazado 201140" d="M80.326,433.717c1.586,8.6,3.909,6.445,2.323,15.043-2.9.047-8.12,5.191-11.019,5.224q-19.014.21-38.028-.011c-9.007-.1-11.41-6.885-20.417-7.135-2.709-8.317-2.709-1.659,0-9.976,9.007-.249,11.41-8.8,20.417-8.9q19.015-.221,38.028-.011c2.9.033,5.8,5.721,8.7,5.768Z" transform="translate(-4.548 -427.848)" fill="#dce736"/>
            <path id="Trazado_201141" data-name="Trazado 201141" d="M94.6,454.023c2.447-4.36,4.79-8.7,6.78-13.017-1.99-4.314-4.334-8.657-6.78-13.016q6.46.071,12.921.192a106.287,106.287,0,0,1,7.346,12.824,106.287,106.287,0,0,1-7.346,12.824" transform="translate(-27.522 -427.887)" fill="#f85316"/>
            <path id="Trazado_201142" data-name="Trazado 201142" d="M36.212,441.01a110.4,110.4,0,0,0-5.119,13.007q-13.511-.156-27.021-.53a39.319,39.319,0,0,1,0-24.954q13.51-.373,27.021-.53A110.341,110.341,0,0,0,36.212,441.01Z" transform="translate(-2.039 -427.891)" fill="#75b62f"/>
          </g>
          <g id="Grupo_149680" data-name="Grupo 149680" transform="translate(5.379)">
            <path id="Trazado_201143" data-name="Trazado 201143" d="M34.131,397.738a160.755,160.755,0,0,1-20.672,0A3.917,3.917,0,0,1,9.812,394.2a73.152,73.152,0,0,1,0-14.306,3.918,3.918,0,0,1,3.647-3.534,161.02,161.02,0,0,1,20.672,0A3.919,3.919,0,0,1,37.78,379.9a73.16,73.16,0,0,1,0,14.307A3.917,3.917,0,0,1,34.131,397.738Z" transform="translate(-9.461 -376.032)" fill="#75b62f"/>
          </g>
          <g id="Grupo_149681" data-name="Grupo 149681" transform="translate(63.808 7.412)">
            <path id="Trazado_201144" data-name="Trazado 201144" d="M107.875,401.911a115.99,115.99,0,0,1-14.906,0,2.825,2.825,0,0,1-2.63-2.548,52.762,52.762,0,0,1,0-10.316,2.824,2.824,0,0,1,2.63-2.548,115.99,115.99,0,0,1,14.906,0,2.825,2.825,0,0,1,2.63,2.548,52.762,52.762,0,0,1,0,10.316A2.825,2.825,0,0,1,107.875,401.911Z" transform="translate(-90.086 -386.259)" fill="#dce736"/>
          </g>
          <g id="Grupo_149682" data-name="Grupo 149682" transform="translate(27.175 72.226)">
            <path id="Trazado_201145" data-name="Trazado 201145" d="M67.351,500.167a181.229,181.229,0,0,1-23.306,0,4.416,4.416,0,0,1-4.113-3.984,82.507,82.507,0,0,1,0-16.13,4.417,4.417,0,0,1,4.113-3.984,181.516,181.516,0,0,1,23.306,0,4.417,4.417,0,0,1,4.113,3.984,82.5,82.5,0,0,1,0,16.13A4.415,4.415,0,0,1,67.351,500.167Z" transform="translate(-39.537 -475.694)" fill="#3d46c2"/>
          </g>
        </g>
        <g id="Grupo_149684" data-name="Grupo 149684" transform="translate(0.027 374.013)">
          <path id="Trazado_201146" data-name="Trazado 201146" d="M97.921,413.217a1.466,1.466,0,0,0-1.353-1.011q-1.386-.038-2.774-.074h-.038a1.465,1.465,0,0,0-.037,2.929l1.723.046a37.926,37.926,0,0,1,0,22.081q-5.608.151-11.234.264A99.606,99.606,0,0,0,90.16,426.77a1.464,1.464,0,0,0,0-1.246,99.577,99.577,0,0,0-5.953-10.682q1.838.037,3.675.077h.033a1.465,1.465,0,0,0,.033-2.93q-5.418-.122-10.854-.208v-11.55q3.05-.037,6.083-.23a4.275,4.275,0,0,0,3.994-3.867,54.434,54.434,0,0,0,0-10.6,4.276,4.276,0,0,0-3.994-3.867,117.871,117.871,0,0,0-15.094,0,4.275,4.275,0,0,0-3.994,3.867,54.432,54.432,0,0,0,0,10.6A4.275,4.275,0,0,0,68.082,400q3.029.195,6.082.23v11.507c-17.128-.243-34.353-.227-51.5.05V398.968c3-.027,5.99-.131,8.965-.322a5.366,5.366,0,0,0,5.012-4.853,75.059,75.059,0,0,0,0-14.593,5.366,5.366,0,0,0-5.012-4.853,163.157,163.157,0,0,0-20.86,0A5.365,5.365,0,0,0,5.757,379.2a74.938,74.938,0,0,0,0,14.592,5.365,5.365,0,0,0,5.012,4.853c2.976.192,5.969.3,8.965.323v12.871q-8.145.146-16.258.369a1.464,1.464,0,0,0-1.352,1.011,40.921,40.921,0,0,0,0,25.86,1.463,1.463,0,0,0,1.352,1.01c3.576.1,7.1.185,10.468.257h.032a1.465,1.465,0,0,0,.03-2.929c-3.035-.064-6.194-.141-9.4-.228a37.924,37.924,0,0,1,0-22.08q12.395-.335,24.871-.485a112.33,112.33,0,0,0,4.575,11.525,112.45,112.45,0,0,0-4.576,11.528q-4.819-.059-9.623-.145h-.027a1.465,1.465,0,0,0-.026,2.929q11.737.212,23.559.256v5.53c-3.436.027-6.869.151-10.282.37a5.864,5.864,0,0,0-5.477,5.3,84.4,84.4,0,0,0,0,16.415,5.864,5.864,0,0,0,5.477,5.3c3.9.251,7.822.376,11.747.376s7.85-.125,11.747-.376a5.864,5.864,0,0,0,5.477-5.3,84.406,84.406,0,0,0,0-16.416,5.863,5.863,0,0,0-5.477-5.3c-3.413-.22-6.846-.344-10.283-.37v-5.524c1.225,0,2.449.009,3.674.009,15.55,0,31.142-.215,46.608-.642a1.466,1.466,0,0,0,1.352-1.011,40.931,40.931,0,0,0,0-25.86ZM67,395.849a51.542,51.542,0,0,1,0-10.031,1.356,1.356,0,0,1,1.266-1.228c2.442-.157,4.9-.236,7.359-.236s4.917.079,7.359.236a1.356,1.356,0,0,1,1.266,1.228,51.43,51.43,0,0,1,0,10.031,1.356,1.356,0,0,1-1.266,1.229,115.165,115.165,0,0,1-14.718,0A1.356,1.356,0,0,1,67,395.849ZM8.673,393.506a72.047,72.047,0,0,1,0-14.021,2.446,2.446,0,0,1,2.284-2.215c3.4-.219,6.82-.328,10.242-.328s6.843.109,10.241.328a2.447,2.447,0,0,1,2.284,2.215,72.048,72.048,0,0,1,0,14.021,2.447,2.447,0,0,1-2.284,2.215,160.055,160.055,0,0,1-20.484,0A2.447,2.447,0,0,1,8.673,393.506Zm50.457,58.7a81.393,81.393,0,0,1,0,15.844,2.946,2.946,0,0,1-2.749,2.665,180.679,180.679,0,0,1-23.119,0,2.945,2.945,0,0,1-2.749-2.665,81.393,81.393,0,0,1,0-15.844,2.945,2.945,0,0,1,2.749-2.665c3.835-.246,7.7-.37,11.559-.37s7.725.123,11.56.37A2.946,2.946,0,0,1,59.129,452.2Zm28.082-26.057a104.735,104.735,0,0,1-6.526,11.373q-4.8.088-9.607.147c1.852-3.35,3.843-7.1,5.6-10.906a1.469,1.469,0,0,0,0-1.227c-1.757-3.808-3.748-7.556-5.6-10.907q4.809.06,9.607.148a104.731,104.731,0,0,1,6.526,11.372ZM32.55,437.708a116.336,116.336,0,0,1,4.441-10.952,1.471,1.471,0,0,0,0-1.218,116.226,116.226,0,0,1-4.44-10.95q17.573-.182,35.154,0c1.945,3.48,4.118,7.485,6.028,11.559-1.91,4.074-4.083,8.079-6.028,11.559C55.976,437.828,44.235,437.829,32.55,437.708Z" transform="translate(-0.027 -374.014)"/>
          <path id="Trazado_201147" data-name="Trazado 201147" d="M17.828,388.214H33.563a1.465,1.465,0,1,0,0-2.93H17.828a1.465,1.465,0,0,0,0,2.93Z" transform="translate(-4.524 -377.116)"/>
          <path id="Trazado_201148" data-name="Trazado 201148" d="M28.491,394.614a1.464,1.464,0,0,0-1.465-1.465h-9.2a1.465,1.465,0,0,0,0,2.929h9.2A1.464,1.464,0,0,0,28.491,394.614Z" transform="translate(-4.524 -379.281)"/>
          <path id="Trazado_201149" data-name="Trazado 201149" d="M97.446,394.2h9.2a1.465,1.465,0,1,0,0-2.93h-9.2a1.465,1.465,0,0,0,0,2.93Z" transform="translate(-26.443 -378.764)"/>
          <path id="Trazado_201150" data-name="Trazado 201150" d="M104.288,400.6a1.464,1.464,0,0,0-1.465-1.465H97.446a1.465,1.465,0,1,0,0,2.929h5.377A1.464,1.464,0,0,0,104.288,400.6Z" transform="translate(-26.443 -380.929)"/>
          <path id="Trazado_201151" data-name="Trazado 201151" d="M66.16,490.816H50.424a1.465,1.465,0,1,0,0,2.93H66.16a1.465,1.465,0,0,0,0-2.93Z" transform="translate(-13.498 -406.169)"/>
          <path id="Trazado_201152" data-name="Trazado 201152" d="M48.959,484.146a1.465,1.465,0,0,0,1.465,1.465H66.16a1.465,1.465,0,0,0,0-2.93H50.424a1.465,1.465,0,0,0-1.465,1.465Z" transform="translate(-13.498 -403.929)"/>
          <path id="Trazado_201153" data-name="Trazado 201153" d="M59.623,498.952h-9.2a1.465,1.465,0,1,0,0,2.93h9.2a1.465,1.465,0,0,0,0-2.93Z" transform="translate(-13.498 -408.409)"/>
        </g>
      </g>
    </g>
  </g>
</svg>
