<svg xmlns="http://www.w3.org/2000/svg" width="482" height="218" viewBox="0 0 482 218">
  <g id="Grupo_150123" data-name="Grupo 150123" transform="translate(6488 10485.111)">
    <g id="Grupo_149982" data-name="Grupo 149982" transform="translate(-6752 -12168.62)">
      <g id="Rectángulo_295750" data-name="Rectángulo 295750" transform="translate(264 1683.509)" fill="#f6f6f6" stroke="#707070" stroke-width="1">
        <rect width="482" height="218" rx="29" stroke="none"/>
        <rect x="0.5" y="0.5" width="481" height="217" rx="28.5" fill="none"/>
      </g>
      <g id="Grupo_149246" data-name="Grupo 149246" transform="translate(1185.739 1430.238)">
        <path id="Trazado_200447" data-name="Trazado 200447" d="M-578.948,388.632q71.216,0,142.432.044c1.366,0,3.893-.891,3.858,1.084-.033,1.816-2.571.984-3.973.984q-142.286.065-284.572,0c-1.407,0-4.023.786-3.989-.946.044-2.19,2.677-1.108,4.1-1.11Q-650.019,388.586-578.948,388.632Z" transform="translate(-57.08 -23.806)" fill="#75b62f"/>
        <path id="Trazado_200448" data-name="Trazado 200448" d="M-673.284,348.814c-1.663-.084-1.788-.686-1.235-1.558a24.7,24.7,0,0,1,2.592-3.876c2.317-2.455,2.156-4.687-.046-7.074a16.845,16.845,0,0,1-1.942-2.91c-.365-.618-1.148-1.351-.227-2.02a1.649,1.649,0,0,1,2.348.435c1.119,1.468,2.144,3.012,3.133,4.572.737,1.162,1.332,1.239,2.1.037.945-1.474,1.944-2.915,2.973-4.333.625-.861,1.616-1.422,2.519-.772,1.053.758.074,1.688-.44,2.207-4.154,4.2-4.071,8.3-.008,12.522.562.583,1.626,1.693.587,2.479-1.1.832-2.2.046-2.931-1.022-.6-.884-1.191-1.779-1.755-2.688-2.013-3.25-2.005-3.251-4.206.035-.65.97-1.306,1.936-1.986,2.886C-672.279,348.4-672.9,348.841-673.284,348.814Z" transform="translate(-77.978)" fill="#75b62f"/>
        <path id="Trazado_200449" data-name="Trazado 200449" d="M-849.726,393.815c-1.859-.152-2.382-1.681-3.155-2.853-2.813-4.267-2.759-4.262-5.653-.062-.939,1.363-1.9,3.893-3.784,2.6-1.44-.988.756-2.575,1.485-3.755,3.75-6.069,3.853-3.534-.145-9.98-.619-1-2.557-2.23-1.016-3.366s2.5.716,3.32,1.9c3.1,4.473,3.09,4.477,6.3-.1a10.629,10.629,0,0,1,1.05-1.4c.662-.672,1.56-1.076,2.341-.425.857.713.06,1.544-.413,2-4.565,4.4-3.895,8.654.084,13.011C-848.7,392.043-847.521,393.451-849.726,393.815Z" transform="translate(0 -18.671)" fill="#75b62f"/>
        <path id="Trazado_200450" data-name="Trazado 200450" d="M-573.407,343.487c-1.168,1.963-2.1,3.537-3.041,5.108a1.657,1.657,0,0,1-2.2.9c-1.312-.646-.369-1.631.085-2.147,3.552-4.035,3.632-7.988.028-12.031-.455-.51-1.146-1.4-.176-2a1.637,1.637,0,0,1,2.288.666c.991,1.539,1.9,3.13,3.035,5.009,1.1-1.76,2.039-3.307,3.035-4.816.52-.788,1.352-1.354,2.234-.859,1.214.681.148,1.475-.138,2.206a.79.79,0,0,1-.153.248c-3.418,3.626-3.379,7.234-.107,10.975.57.652,1.809,1.828.5,2.671-1.237.8-2.1-.359-2.724-1.428C-571.556,346.591-572.391,345.2-573.407,343.487Z" transform="translate(-117.591 -0.849)" fill="#75b62f"/>
        <path id="Trazado_200451" data-name="Trazado 200451" d="M-478.382,343.521c-1.133,1.9-2.065,3.472-3.007,5.04-.581.967-1.5,1.459-2.441.826-.9-.6-.009-1.365.253-2.035a.844.844,0,0,1,.145-.252c3.373-3.8,3.622-7.6.107-11.506-.492-.547-1.426-1.547-.37-2.239,1.086-.711,2.028.052,2.635,1.066.843,1.406,1.657,2.83,2.692,4.6,1.056-1.7,1.942-3.148,2.855-4.581.557-.874,1.381-1.684,2.389-1.126,1.4.772.051,1.62-.232,2.42a1.427,1.427,0,0,1-.311.491c-3.137,3.289-3.085,6.6-.1,9.956a4.776,4.776,0,0,1,.75,1.248c.287.654,1.084,1.433.1,2.01a1.638,1.638,0,0,1-2.28-.689C-476.226,347.13-477.2,345.472-478.382,343.521Z" transform="translate(-157.039 -0.848)" fill="#75b62f"/>
        <path id="Trazado_200452" data-name="Trazado 200452" d="M-299.38,343.514c-1.143,1.921-2.072,3.5-3.017,5.061-.582.963-1.5,1.452-2.443.8-.884-.61.006-1.369.27-2.039a.851.851,0,0,1,.145-.252c3.4-3.806,3.589-7.6.095-11.5-.493-.549-1.423-1.55-.358-2.237,1.088-.7,2.026.066,2.633,1.079.841,1.406,1.655,2.828,2.69,4.6,1.057-1.7,1.942-3.156,2.856-4.591.557-.874,1.386-1.681,2.39-1.118,1.385.777.041,1.623-.243,2.424a1.506,1.506,0,0,1-.311.492c-2.887,3.163-3.3,6.376-.259,9.71a5.586,5.586,0,0,1,.867,1.515c.287.644,1.141,1.4.129,1.989a1.641,1.641,0,0,1-2.273-.712C-297.23,347.118-298.2,345.464-299.38,343.514Z" transform="translate(-231.292 -0.849)" fill="#75b62f"/>
        <path id="Trazado_200453" data-name="Trazado 200453" d="M-485.11,425.926c0-1.071-.042-2.144.01-3.212.078-1.592-.362-3.787,2.573-2.36.33.16.91-.162,1.364-.294,4.073-1.183,6.247.151,6.666,4.3a47.815,47.815,0,0,1,.046,6.124c-.025.884-.265,1.826-1.466,1.782-1.176-.043-1.361-.97-1.395-1.868-.065-1.75-.042-3.5-.072-5.255-.027-1.658-.233-3.293-2.426-3.21-1.919.073-2.654,1.307-2.618,3.157s0,3.7-.067,5.546c-.03.81-.28,1.58-1.327,1.576-1.079,0-1.222-.817-1.242-1.613-.041-1.556-.012-3.114-.012-4.672Z" transform="translate(-156.664 -36.758)" fill="#75b62f"/>
        <path id="Trazado_200454" data-name="Trazado 200454" d="M-795.785,382.074q3.062,0,6.123,0c1.438,0,2.474.429,2.44,2.149-.031,1.56-.99,1.985-2.3,1.988q-6.56.017-13.121-.005c-1.3-.005-2.265-.416-2.293-1.99-.031-1.738,1.023-2.134,2.445-2.139C-800.256,382.067-798.021,382.074-795.785,382.074Z" transform="translate(-24.001 -21.172)" fill="#75b62f"/>
        <path id="Trazado_200455" data-name="Trazado 200455" d="M-796.293,401.214c-2.138,0-4.276.016-6.414,0-1.342-.011-2.23-.51-2.232-2.049s.87-2.059,2.219-2.062q6.705-.016,13.411.008a1.854,1.854,0,0,1,2.081,2.187c-.046,1.372-.839,1.893-2.067,1.906C-791.628,401.228-793.961,401.21-796.293,401.214Z" transform="translate(-24 -27.403)" fill="#75b62f"/>
        <path id="Trazado_200456" data-name="Trazado 200456" d="M-608.7,345.768c-.157.981-1,1.141-1.741,1.088-2.506-.177-3.574.9-3.367,3.4.06.727-.019,1.782-1.047,1.751-1.081-.032-.955-1.137-.88-1.825.286-2.6-.9-3.505-3.365-3.324-.806.06-1.973.005-1.853-1.255.092-.971,1.124-1.053,1.853-.977,2.782.289,3.628-1.075,3.374-3.608-.065-.649.053-1.49,1-1.435a1.077,1.077,0,0,1,.891,1.306c-.338,2.995,1.177,3.97,3.912,3.819A1.118,1.118,0,0,1-608.7,345.768Z" transform="translate(-100.318 -3.547)" fill="#75b62f"/>
        <path id="Trazado_200457" data-name="Trazado 200457" d="M-513.688,345.712c-.109,1.006-.948,1.19-1.692,1.143-2.442-.152-3.652.779-3.415,3.354.068.74-.024,1.789-1,1.814-1.09.027-1-1.081-.93-1.777.267-2.53-.775-3.581-3.312-3.377-.8.064-2,.045-1.9-1.2.1-1.155,1.277-1.1,2.085-1.04,2.434.183,3.344-.9,3.123-3.254-.067-.717-.121-1.761.963-1.778.83-.014,1.033.869.967,1.537-.267,2.676.952,3.722,3.546,3.531A1.35,1.35,0,0,1-513.688,345.712Z" transform="translate(-139.731 -3.55)" fill="#75b62f"/>
        <path id="Trazado_200458" data-name="Trazado 200458" d="M-418.687,345.84c-.283.968-1.119,1.081-1.864,1.035-2.342-.143-3.4.819-3.241,3.22.053.782.1,2.014-1.166,1.893-1.021-.1-.838-1.227-.77-1.915.242-2.435-.837-3.348-3.191-3.194-.8.053-1.993.1-2.021-1.1-.029-1.223,1.171-1.214,1.967-1.145,2.615.229,3.495-.992,3.249-3.437-.063-.63-.067-1.512.847-1.593s1.124.777,1.061,1.412c-.283,2.831,1.079,3.831,3.733,3.674A1.184,1.184,0,0,1-418.687,345.84Z" transform="translate(-179.142 -3.553)" fill="#75b62f"/>
        <path id="Trazado_200459" data-name="Trazado 200459" d="M-341.073,339.527c1.242.1,1.338.98,1.275,1.708-.222,2.537.9,3.549,3.385,3.387.731-.048,1.73.093,1.675,1.152-.052,1.014-1.036,1.106-1.776,1.066-2.3-.124-3.458.736-3.278,3.185.058.786.109,2.012-1.132,1.941-1.042-.06-.872-1.2-.807-1.883.225-2.385-.747-3.4-3.151-3.23-.808.059-1.99.111-2.062-1.063-.075-1.242,1.132-1.248,1.928-1.181,2.567.215,3.567-.9,3.28-3.4A1.619,1.619,0,0,1-341.073,339.527Z" transform="translate(-213.983 -3.523)" fill="#75b62f"/>
        <path id="Trazado_200460" data-name="Trazado 200460" d="M-459.688,360.652c-.307-.066-.877-.167-1.436-.313-.5-.13-.939-.441-.9-.982.06-.783.664-.822,1.29-.716.988.167,2.131.3,2.512-.818.462-1.358-.928-1.38-1.7-1.853-1.406-.857-.43-1.33.36-1.787.435-.253.883-.554.774-1.1-.142-.713-.738-.8-1.361-.72-.688.088-1.529.224-1.456-.79.056-.784.9-.906,1.569-1.053,2.547-.561,4.24.926,3.8,3.418a3.255,3.255,0,0,0,.061,1.927C-455.119,358.648-456.466,360.57-459.688,360.652Z" transform="translate(-166.247 -8.035)" fill="#75b62f"/>
        <path id="Trazado_200461" data-name="Trazado 200461" d="M-553.154,357.923c.4.734,1.13.424,1.583.733a1.536,1.536,0,0,1,.688.81c.092.589-.412.88-.91.884-1.723.016-3.557.586-5.117-.373-.664-.408.012-1.224.47-1.729a28.441,28.441,0,0,0,2.725-3.014c1.078-1.607.825-2.8-1.446-2.759-.669.013-1.514.327-1.544-.692-.018-.6.7-.874,1.269-1.025,1.489-.4,2.943-.357,4.024.9,1.124,1.307.833,2.715-.041,4.031C-551.976,356.48-552.6,357.2-553.154,357.923Z" transform="translate(-126.772 -8.089)" fill="#75b62f"/>
      </g>
    </g>
  </g>
</svg>
