<svg xmlns="http://www.w3.org/2000/svg" width="122.492" height="104.81" viewBox="0 0 122.492 104.81">
  <g id="Grupo_150171" data-name="Grupo 150171" transform="translate(-3254.026 8319.439)">
    <g id="Grupo_150078" data-name="Grupo 150078" transform="translate(2145.519 -10790.439)">
      <circle id="Elipse_12662" data-name="Elipse 12662" cx="19.215" cy="19.215" r="19.215" transform="translate(1190.822 2472.747)" fill="#75b62f"/>
      <circle id="Elipse_12663" data-name="Elipse 12663" cx="13.975" cy="13.975" r="13.975" transform="translate(1154.139 2535.633)" fill="#dce736"/>
      <path id="Trazado_201259" data-name="Trazado 201259" d="M38.855,457.05a45.463,45.463,0,0,1-8.937-49.687l3.2,1.4a41.968,41.968,0,0,0,8.251,45.863Z" transform="translate(1107.039 2097.875)" fill="#62b8d3"/>
      <path id="Trazado_201260" data-name="Trazado 201260" d="M137.334,372.144l-3.049,3.049,2.471,2.471,3.049-3.049A19.315,19.315,0,0,0,137.334,372.144Z" transform="translate(1084.999 2105.052)" fill="#00779c"/>
      <path id="Trazado_201261" data-name="Trazado 201261" d="M140.224,391.989h5.161c.052-.575.08-1.158.08-1.747s-.028-1.171-.08-1.747h-5.161Z" transform="translate(1083.788 2101.72)" fill="#00779c"/>
      <path id="Trazado_201262" data-name="Trazado 201262" d="M139.805,405.351l-3.049-3.049-2.471,2.471,3.049,3.049A19.364,19.364,0,0,0,139.805,405.351Z" transform="translate(1084.999 2098.906)" fill="#00779c"/>
      <path id="Trazado_201263" data-name="Trazado 201263" d="M120.478,413.4c.576.052,1.158.08,1.747.08s1.172-.028,1.747-.08v-5.161h-3.494Z" transform="translate(1087.813 2097.695)" fill="#00779c"/>
      <path id="Trazado_201264" data-name="Trazado 201264" d="M104.127,405.351a19.312,19.312,0,0,0,2.471,2.471l3.049-3.049-2.471-2.471Z" transform="translate(1091.145 2098.906)" fill="#00779c"/>
      <path id="Trazado_201265" data-name="Trazado 201265" d="M98.619,391.989h5.161V388.5H98.619c-.052.576-.08,1.158-.08,1.747S98.567,391.414,98.619,391.989Z" transform="translate(1092.284 2101.72)" fill="#00779c"/>
      <path id="Trazado_201266" data-name="Trazado 201266" d="M104.127,374.615l3.049,3.049,2.471-2.471-3.049-3.049A19.263,19.263,0,0,0,104.127,374.615Z" transform="translate(1091.145 2105.052)" fill="#00779c"/>
      <path id="Trazado_201267" data-name="Trazado 201267" d="M123.972,366.636c-.575-.052-1.158-.08-1.747-.08s-1.171.028-1.747.08V371.8h3.494Z" transform="translate(1087.813 2106.191)" fill="#00779c"/>
      <path id="Trazado_201268" data-name="Trazado 201268" d="M117.01,394.483l-2.471-2.471,4.729-4.729v-9.757h3.494v10.48a1.75,1.75,0,0,1-.511,1.236Z" transform="translate(1089.023 2103.955)" fill="#62b8d3"/>
      <rect id="Rect치ngulo_295788" data-name="Rect치ngulo 295788" width="10.481" height="17.468" transform="translate(1152.392 2483.228)" fill="#75b62f"/>
      <path id="Trazado_201269" data-name="Trazado 201269" d="M37.129,379.678l-5.241-8.734H30.062a3.493,3.493,0,0,0-3.244,4.791l1.577,3.943H23.564a3.493,3.493,0,0,0-3.472,3.88l.971,8.734a3.493,3.493,0,0,0,3.472,3.108h7.654a3.493,3.493,0,0,0,2.471-1.023l2.47-2.471h6.987V379.678Z" transform="translate(1089.026 2105.297)" fill="#ffcbb1"/>
      <path id="Trazado_201270" data-name="Trazado 201270" d="M86.061,468.331,80.82,463.09H68.592a6.987,6.987,0,0,0,6.987,6.987h3.494l-6.987,6.987-20.22-6.221a3.494,3.494,0,0,0-3.934,1.4l-2.049,3.073,29.7,12.228,10.481-5.241h17.468V468.331Z" transform="translate(1103.015 2086.517)" fill="#ffcbb1"/>
      <path id="Trazado_201271" data-name="Trazado 201271" d="M93.579,419.665v-3.674l-3.51-.842-1.17-2.823,1.893-3.088-2.6-2.6-3.088,1.893-2.823-1.17-.842-3.51H77.767l-.842,3.51-2.823,1.17-3.089-1.893-2.6,2.6,1.893,3.089c-.492,1.186-.679,1.638-1.17,2.823l-3.51.842v3.674l3.51.842,1.17,2.823-1.893,3.088,2.6,2.6,3.089-1.893,2.823,1.17.842,3.51h3.674l.842-3.51,2.823-1.17,3.088,1.893,2.6-2.6L88.9,423.33l1.17-2.823ZM79.6,421.322a3.494,3.494,0,1,1,3.494-3.494A3.494,3.494,0,0,1,79.6,421.322Z" transform="translate(1098.991 2098.59)" fill="#3d46c2"/>
      <path id="Trazado_201272" data-name="Trazado 201272" d="M124.35,458.741l-2.561-2.377a41.784,41.784,0,0,0,11.184-28.508,42.268,42.268,0,0,0-.838-8.387l3.424-.694a45.506,45.506,0,0,1-11.208,39.966Z" transform="translate(1087.545 2095.549)" fill="#62b8d3"/>
      <path id="Trazado_201273" data-name="Trazado 201273" d="M70.328,377.847l-.836-3.393a45.8,45.8,0,0,1,19.981-.408l-.7,3.424A42.308,42.308,0,0,0,70.328,377.847Z" transform="translate(1098.203 2104.85)" fill="#62b8d3"/>
      <path id="Trazado_201274" data-name="Trazado 201274" d="M42.611,444.567a36.713,36.713,0,0,1,0-38.67l2.967,1.844a33.222,33.222,0,0,0,0,34.982Z" transform="translate(1104.803 2098.173)" fill="#62b8d3"/>
      <path id="Trazado_201275" data-name="Trazado 201275" d="M114.806,454.5l-2.445-2.5a32.941,32.941,0,0,0,9.956-23.7,33.381,33.381,0,0,0-.664-6.64l3.424-.7a36.965,36.965,0,0,1,.733,7.335A36.409,36.409,0,0,1,114.806,454.5Z" transform="translate(1089.467 2095.102)" fill="#62b8d3"/>
      <path id="Trazado_201276" data-name="Trazado 201276" d="M70.406,389.12l-1.046-3.333a36.945,36.945,0,0,1,18.339-.946l-.7,3.424A33.454,33.454,0,0,0,70.406,389.12Z" transform="translate(1098.23 2102.614)" fill="#62b8d3"/>
      <path id="Trazado_201277" data-name="Trazado 201277" d="M61.231,466.632A8.735,8.735,0,0,1,72.15,453.29l-1.75,3.024a5.241,5.241,0,0,0-6.55,8.007Z" transform="translate(1100.332 2088.753)" fill="#abc79b"/>
      <path id="Trazado_201278" data-name="Trazado 201278" d="M29.631,425.531a41.625,41.625,0,0,1,3.487-16.769l-3.2-1.4a45.463,45.463,0,0,0,8.937,49.687l2.515-2.425A41.713,41.713,0,0,1,29.631,425.531Z" transform="translate(1107.039 2097.875)"/>
      <path id="Trazado_201279" data-name="Trazado 201279" d="M117.307,364.362a20.962,20.962,0,1,0,20.962,20.962A20.962,20.962,0,0,0,117.307,364.362Zm13.52,32.01-1.8-1.8-2.471,2.471,1.8,1.8a17.386,17.386,0,0,1-9.3,3.862V399.3H115.56V402.7a17.386,17.386,0,0,1-9.3-3.862l1.8-1.8-2.471-2.471-1.8,1.8a17.38,17.38,0,0,1-3.862-9.3h3.406v-3.494H99.926a17.38,17.38,0,0,1,3.862-9.3l1.8,1.8,2.471-2.471-1.8-1.8a17.386,17.386,0,0,1,9.3-3.862v3.406h3.494v-3.406a17.386,17.386,0,0,1,9.3,3.862l-1.8,1.8,2.471,2.471,1.8-1.8a17.386,17.386,0,0,1,3.862,9.3h-3.406v3.494h3.406A17.386,17.386,0,0,1,130.826,396.372Z" transform="translate(1092.731 2106.638)"/>
      <path id="Trazado_201280" data-name="Trazado 201280" d="M119.268,387.283l-4.729,4.729,2.471,2.471,5.241-5.241a1.75,1.75,0,0,0,.511-1.236v-10.48h-3.494Z" transform="translate(1089.023 2103.955)"/>
      <path id="Trazado_201281" data-name="Trazado 201281" d="M35.447,395.164l1.959-1.959h4.517v1.747a1.747,1.747,0,0,0,1.747,1.747H54.15a1.747,1.747,0,0,0,1.747-1.747h0V377.484a1.747,1.747,0,0,0-1.747-1.747H43.669a1.747,1.747,0,0,0-1.747,1.746H37.671L32.939,369.6a1.747,1.747,0,0,0-1.5-.848H29.614a5.24,5.24,0,0,0-4.866,7.187l.619,1.548H23.117a5.235,5.235,0,0,0-5.208,5.819l.97,8.734a5.236,5.236,0,0,0,5.209,4.662h7.654A5.2,5.2,0,0,0,35.447,395.164Zm9.969-15.934H52.4v13.975H45.416ZM22.351,391.652l-.97-8.734a1.746,1.746,0,0,1,1.543-1.929,1.725,1.725,0,0,1,.193-.011h4.831a1.748,1.748,0,0,0,1.622-2.395l-1.577-3.944a1.747,1.747,0,0,1,1.622-2.395h.838l4.732,7.886a1.747,1.747,0,0,0,1.5.848h5.241v8.734H36.681a1.745,1.745,0,0,0-1.235.512l-2.471,2.471a1.735,1.735,0,0,1-1.235.511H24.087A1.746,1.746,0,0,1,22.351,391.652Z" transform="translate(1090.632 2105.744)"/>
      <path id="Trazado_201282" data-name="Trazado 201282" d="M81.608,457.829a1.747,1.747,0,0,0-1.235-.512h-.1a15.72,15.72,0,1,0-30.2,7.618,5.269,5.269,0,0,0-4.039,2.315l-2.049,3.073a1.746,1.746,0,0,0,.788,2.584l29.7,12.228a1.747,1.747,0,0,0,1.446-.053l10.113-5.056h17.055v-3.494H85.614a1.737,1.737,0,0,0-.781.185l-9.77,4.885L48.071,470.489l.867-1.3a1.758,1.758,0,0,1,1.967-.7l20.22,6.222a1.747,1.747,0,0,0,1.748-.434l6.987-6.987a1.747,1.747,0,0,0-1.235-2.983H75.133a5.249,5.249,0,0,1-4.941-3.494h9.458l4.729,4.729a1.75,1.75,0,0,0,1.236.511h17.468v-3.494H86.337Zm-13.463-.512a1.747,1.747,0,0,0-1.747,1.747h0a8.747,8.747,0,0,0,8.038,8.707l-3.289,3.289-16.6-5.108a12.079,12.079,0,0,1-2.124-6.889,12.227,12.227,0,0,1,24.33-1.747Z" transform="translate(1103.462 2090.543)"/>
      <path id="Trazado_201283" data-name="Trazado 201283" d="M67.907,412.033l-.489,1.178-2.643.635a1.746,1.746,0,0,0-1.34,1.7v3.674a1.747,1.747,0,0,0,1.34,1.7l2.643.635.489,1.178-1.428,2.33a1.748,1.748,0,0,0,.255,2.148l2.6,2.6a1.747,1.747,0,0,0,2.148.254l2.33-1.428,1.178.489.635,2.643a1.746,1.746,0,0,0,1.7,1.34h3.674a1.747,1.747,0,0,0,1.7-1.34l.634-2.643,1.179-.489,2.33,1.428a1.748,1.748,0,0,0,2.148-.254l2.6-2.6a1.747,1.747,0,0,0,.254-2.148l-1.428-2.33.489-1.178,2.643-.635a1.747,1.747,0,0,0,1.34-1.7v-3.674a1.746,1.746,0,0,0-1.34-1.7l-2.643-.635-.489-1.178,1.428-2.33a1.747,1.747,0,0,0-.254-2.148l-2.6-2.6a1.748,1.748,0,0,0-2.148-.254l-2.33,1.428-1.178-.489L82.692,403a1.747,1.747,0,0,0-1.7-1.34H77.32a1.746,1.746,0,0,0-1.7,1.34l-.635,2.643-1.178.489-2.33-1.428a1.746,1.746,0,0,0-2.148.254l-2.6,2.6a1.747,1.747,0,0,0-.254,2.148Zm2.4,3.339,1.17-2.823a1.746,1.746,0,0,0-.124-1.581l-1.173-1.915.65-.65,1.915,1.173a1.749,1.749,0,0,0,1.581.125l2.823-1.17a1.747,1.747,0,0,0,1.03-1.206l.52-2.17h.919l.52,2.17a1.747,1.747,0,0,0,1.03,1.206l2.823,1.17a1.746,1.746,0,0,0,1.581-.124l1.915-1.173.65.65-1.174,1.915a1.749,1.749,0,0,0-.124,1.581l1.17,2.823a1.747,1.747,0,0,0,1.206,1.03l2.17.52v.919l-2.17.52a1.747,1.747,0,0,0-1.206,1.03l-1.17,2.823a1.749,1.749,0,0,0,.124,1.581l1.174,1.915-.65.65-1.915-1.173a1.749,1.749,0,0,0-1.581-.125l-2.823,1.17a1.747,1.747,0,0,0-1.03,1.206l-.52,2.17H78.7l-.521-2.17a1.744,1.744,0,0,0-1.029-1.206l-2.823-1.17a1.749,1.749,0,0,0-1.581.125l-1.915,1.173-.65-.65,1.173-1.915a1.746,1.746,0,0,0,.124-1.581l-1.17-2.823a1.747,1.747,0,0,0-1.206-1.03l-2.17-.52v-.919l2.17-.52a1.747,1.747,0,0,0,1.206-1.03Z" transform="translate(1099.438 2099.037)"/>
      <path id="Trazado_201284" data-name="Trazado 201284" d="M81.84,425.3a5.241,5.241,0,1,0-5.241-5.241A5.241,5.241,0,0,0,81.84,425.3Zm0-6.987a1.747,1.747,0,1,1-1.747,1.747A1.747,1.747,0,0,1,81.84,418.317Z" transform="translate(1096.755 2096.354)"/>
      <path id="Trazado_201285" data-name="Trazado 201285" d="M132.135,419.469a42.268,42.268,0,0,1,.838,8.387,41.784,41.784,0,0,1-11.184,28.508l2.561,2.377a45.506,45.506,0,0,0,11.208-39.966Z" transform="translate(1087.545 2095.549)"/>
      <path id="Trazado_201286" data-name="Trazado 201286" d="M80.391,376.632a42.257,42.257,0,0,1,8.386.838l.7-3.424a45.8,45.8,0,0,0-19.981.408l.836,3.393A42.1,42.1,0,0,1,80.391,376.632Z" transform="translate(1098.203 2104.85)"/>
      <path id="Trazado_201287" data-name="Trazado 201287" d="M42.611,405.9a36.713,36.713,0,0,0,0,38.67l2.967-1.844a33.222,33.222,0,0,1,0-34.982Z" transform="translate(1104.803 2098.173)"/>
      <path id="Trazado_201288" data-name="Trazado 201288" d="M114.806,454.5a36.409,36.409,0,0,0,11.005-26.2,36.965,36.965,0,0,0-.733-7.335l-3.424.7a33.381,33.381,0,0,1,.664,6.64,32.941,32.941,0,0,1-9.956,23.7Z" transform="translate(1089.467 2095.102)"/>
      <path id="Trazado_201289" data-name="Trazado 201289" d="M80.364,387.6a33.505,33.505,0,0,1,6.64.664l.7-3.424a36.945,36.945,0,0,0-18.339.946l1.046,3.333A33.207,33.207,0,0,1,80.364,387.6Z" transform="translate(1098.23 2102.614)"/>
      <path id="Trazado_201290" data-name="Trazado 201290" d="M59.047,460.854a8.723,8.723,0,0,0,2.184,5.778l2.619-2.311a5.241,5.241,0,0,1,6.55-8.007l1.75-3.024a8.736,8.736,0,0,0-13.1,7.564Z" transform="translate(1100.332 2088.753)"/>
      <circle id="Elipse_12662-2" data-name="Elipse 12662" cx="19.215" cy="19.215" r="19.215" transform="translate(1190.822 2472.747)" fill="#75b62f"/>
      <circle id="Elipse_12663-2" data-name="Elipse 12663" cx="13.975" cy="13.975" r="13.975" transform="translate(1154.139 2535.633)" fill="#dce736"/>
      <path id="Trazado_201259-2" data-name="Trazado 201259" d="M38.855,457.05a45.463,45.463,0,0,1-8.937-49.687l3.2,1.4a41.968,41.968,0,0,0,8.251,45.863Z" transform="translate(1107.039 2097.875)" fill="#62b8d3"/>
      <path id="Trazado_201260-2" data-name="Trazado 201260" d="M137.334,372.144l-3.049,3.049,2.471,2.471,3.049-3.049A19.315,19.315,0,0,0,137.334,372.144Z" transform="translate(1084.999 2105.052)" fill="#00779c"/>
      <path id="Trazado_201261-2" data-name="Trazado 201261" d="M140.224,391.989h5.161c.052-.575.08-1.158.08-1.747s-.028-1.171-.08-1.747h-5.161Z" transform="translate(1083.788 2101.72)" fill="#00779c"/>
      <path id="Trazado_201262-2" data-name="Trazado 201262" d="M139.805,405.351l-3.049-3.049-2.471,2.471,3.049,3.049A19.364,19.364,0,0,0,139.805,405.351Z" transform="translate(1084.999 2098.906)" fill="#00779c"/>
      <path id="Trazado_201263-2" data-name="Trazado 201263" d="M120.478,413.4c.576.052,1.158.08,1.747.08s1.172-.028,1.747-.08v-5.161h-3.494Z" transform="translate(1087.813 2097.695)" fill="#00779c"/>
      <path id="Trazado_201264-2" data-name="Trazado 201264" d="M104.127,405.351a19.312,19.312,0,0,0,2.471,2.471l3.049-3.049-2.471-2.471Z" transform="translate(1091.145 2098.906)" fill="#00779c"/>
      <path id="Trazado_201265-2" data-name="Trazado 201265" d="M98.619,391.989h5.161V388.5H98.619c-.052.576-.08,1.158-.08,1.747S98.567,391.414,98.619,391.989Z" transform="translate(1092.284 2101.72)" fill="#00779c"/>
      <path id="Trazado_201266-2" data-name="Trazado 201266" d="M104.127,374.615l3.049,3.049,2.471-2.471-3.049-3.049A19.263,19.263,0,0,0,104.127,374.615Z" transform="translate(1091.145 2105.052)" fill="#00779c"/>
      <path id="Trazado_201267-2" data-name="Trazado 201267" d="M123.972,366.636c-.575-.052-1.158-.08-1.747-.08s-1.171.028-1.747.08V371.8h3.494Z" transform="translate(1087.813 2106.191)" fill="#00779c"/>
      <path id="Trazado_201268-2" data-name="Trazado 201268" d="M117.01,394.483l-2.471-2.471,4.729-4.729v-9.757h3.494v10.48a1.75,1.75,0,0,1-.511,1.236Z" transform="translate(1089.023 2103.955)" fill="#62b8d3"/>
      <rect id="Rect치ngulo_295788-2" data-name="Rect치ngulo 295788" width="10.481" height="17.468" transform="translate(1152.392 2483.228)" fill="#75b62f"/>
      <path id="Trazado_201269-2" data-name="Trazado 201269" d="M37.129,379.678l-5.241-8.734H30.062a3.493,3.493,0,0,0-3.244,4.791l1.577,3.943H23.564a3.493,3.493,0,0,0-3.472,3.88l.971,8.734a3.493,3.493,0,0,0,3.472,3.108h7.654a3.493,3.493,0,0,0,2.471-1.023l2.47-2.471h6.987V379.678Z" transform="translate(1089.026 2105.297)" fill="#ffcbb1"/>
      <path id="Trazado_201270-2" data-name="Trazado 201270" d="M86.061,468.331,80.82,463.09H68.592a6.987,6.987,0,0,0,6.987,6.987h3.494l-6.987,6.987-20.22-6.221a3.494,3.494,0,0,0-3.934,1.4l-2.049,3.073,29.7,12.228,10.481-5.241h17.468V468.331Z" transform="translate(1103.015 2086.517)" fill="#ffcbb1"/>
      <path id="Trazado_201271-2" data-name="Trazado 201271" d="M93.579,419.665v-3.674l-3.51-.842-1.17-2.823,1.893-3.088-2.6-2.6-3.088,1.893-2.823-1.17-.842-3.51H77.767l-.842,3.51-2.823,1.17-3.089-1.893-2.6,2.6,1.893,3.089c-.492,1.186-.679,1.638-1.17,2.823l-3.51.842v3.674l3.51.842,1.17,2.823-1.893,3.088,2.6,2.6,3.089-1.893,2.823,1.17.842,3.51h3.674l.842-3.51,2.823-1.17,3.088,1.893,2.6-2.6L88.9,423.33l1.17-2.823ZM79.6,421.322a3.494,3.494,0,1,1,3.494-3.494A3.494,3.494,0,0,1,79.6,421.322Z" transform="translate(1098.991 2098.59)" fill="#3d46c2"/>
      <path id="Trazado_201272-2" data-name="Trazado 201272" d="M124.35,458.741l-2.561-2.377a41.784,41.784,0,0,0,11.184-28.508,42.268,42.268,0,0,0-.838-8.387l3.424-.694a45.506,45.506,0,0,1-11.208,39.966Z" transform="translate(1087.545 2095.549)" fill="#62b8d3"/>
      <path id="Trazado_201273-2" data-name="Trazado 201273" d="M70.328,377.847l-.836-3.393a45.8,45.8,0,0,1,19.981-.408l-.7,3.424A42.308,42.308,0,0,0,70.328,377.847Z" transform="translate(1098.203 2104.85)" fill="#62b8d3"/>
      <path id="Trazado_201274-2" data-name="Trazado 201274" d="M42.611,444.567a36.713,36.713,0,0,1,0-38.67l2.967,1.844a33.222,33.222,0,0,0,0,34.982Z" transform="translate(1104.803 2098.173)" fill="#62b8d3"/>
      <path id="Trazado_201275-2" data-name="Trazado 201275" d="M114.806,454.5l-2.445-2.5a32.941,32.941,0,0,0,9.956-23.7,33.381,33.381,0,0,0-.664-6.64l3.424-.7a36.965,36.965,0,0,1,.733,7.335A36.409,36.409,0,0,1,114.806,454.5Z" transform="translate(1089.467 2095.102)" fill="#62b8d3"/>
      <path id="Trazado_201276-2" data-name="Trazado 201276" d="M70.406,389.12l-1.046-3.333a36.945,36.945,0,0,1,18.339-.946l-.7,3.424A33.454,33.454,0,0,0,70.406,389.12Z" transform="translate(1098.23 2102.614)" fill="#62b8d3"/>
      <path id="Trazado_201277-2" data-name="Trazado 201277" d="M61.231,466.632A8.735,8.735,0,0,1,72.15,453.29l-1.75,3.024a5.241,5.241,0,0,0-6.55,8.007Z" transform="translate(1100.332 2088.753)" fill="#abc79b"/>
      <path id="Trazado_201278-2" data-name="Trazado 201278" d="M29.631,425.531a41.625,41.625,0,0,1,3.487-16.769l-3.2-1.4a45.463,45.463,0,0,0,8.937,49.687l2.515-2.425A41.713,41.713,0,0,1,29.631,425.531Z" transform="translate(1107.039 2097.875)"/>
      <path id="Trazado_201279-2" data-name="Trazado 201279" d="M117.307,364.362a20.962,20.962,0,1,0,20.962,20.962A20.962,20.962,0,0,0,117.307,364.362Zm13.52,32.01-1.8-1.8-2.471,2.471,1.8,1.8a17.386,17.386,0,0,1-9.3,3.862V399.3H115.56V402.7a17.386,17.386,0,0,1-9.3-3.862l1.8-1.8-2.471-2.471-1.8,1.8a17.38,17.38,0,0,1-3.862-9.3h3.406v-3.494H99.926a17.38,17.38,0,0,1,3.862-9.3l1.8,1.8,2.471-2.471-1.8-1.8a17.386,17.386,0,0,1,9.3-3.862v3.406h3.494v-3.406a17.386,17.386,0,0,1,9.3,3.862l-1.8,1.8,2.471,2.471,1.8-1.8a17.386,17.386,0,0,1,3.862,9.3h-3.406v3.494h3.406A17.386,17.386,0,0,1,130.826,396.372Z" transform="translate(1092.731 2106.638)"/>
      <path id="Trazado_201280-2" data-name="Trazado 201280" d="M119.268,387.283l-4.729,4.729,2.471,2.471,5.241-5.241a1.75,1.75,0,0,0,.511-1.236v-10.48h-3.494Z" transform="translate(1089.023 2103.955)"/>
      <path id="Trazado_201281-2" data-name="Trazado 201281" d="M35.447,395.164l1.959-1.959h4.517v1.747a1.747,1.747,0,0,0,1.747,1.747H54.15a1.747,1.747,0,0,0,1.747-1.747h0V377.484a1.747,1.747,0,0,0-1.747-1.747H43.669a1.747,1.747,0,0,0-1.747,1.746H37.671L32.939,369.6a1.747,1.747,0,0,0-1.5-.848H29.614a5.24,5.24,0,0,0-4.866,7.187l.619,1.548H23.117a5.235,5.235,0,0,0-5.208,5.819l.97,8.734a5.236,5.236,0,0,0,5.209,4.662h7.654A5.2,5.2,0,0,0,35.447,395.164Zm9.969-15.934H52.4v13.975H45.416ZM22.351,391.652l-.97-8.734a1.746,1.746,0,0,1,1.543-1.929,1.725,1.725,0,0,1,.193-.011h4.831a1.748,1.748,0,0,0,1.622-2.395l-1.577-3.944a1.747,1.747,0,0,1,1.622-2.395h.838l4.732,7.886a1.747,1.747,0,0,0,1.5.848h5.241v8.734H36.681a1.745,1.745,0,0,0-1.235.512l-2.471,2.471a1.735,1.735,0,0,1-1.235.511H24.087A1.746,1.746,0,0,1,22.351,391.652Z" transform="translate(1090.632 2105.744)"/>
      <path id="Trazado_201282-2" data-name="Trazado 201282" d="M81.608,457.829a1.747,1.747,0,0,0-1.235-.512h-.1a15.72,15.72,0,1,0-30.2,7.618,5.269,5.269,0,0,0-4.039,2.315l-2.049,3.073a1.746,1.746,0,0,0,.788,2.584l29.7,12.228a1.747,1.747,0,0,0,1.446-.053l10.113-5.056h17.055v-3.494H85.614a1.737,1.737,0,0,0-.781.185l-9.77,4.885L48.071,470.489l.867-1.3a1.758,1.758,0,0,1,1.967-.7l20.22,6.222a1.747,1.747,0,0,0,1.748-.434l6.987-6.987a1.747,1.747,0,0,0-1.235-2.983H75.133a5.249,5.249,0,0,1-4.941-3.494h9.458l4.729,4.729a1.75,1.75,0,0,0,1.236.511h17.468v-3.494H86.337Zm-13.463-.512a1.747,1.747,0,0,0-1.747,1.747h0a8.747,8.747,0,0,0,8.038,8.707l-3.289,3.289-16.6-5.108a12.079,12.079,0,0,1-2.124-6.889,12.227,12.227,0,0,1,24.33-1.747Z" transform="translate(1103.462 2090.543)"/>
      <path id="Trazado_201283-2" data-name="Trazado 201283" d="M67.907,412.033l-.489,1.178-2.643.635a1.746,1.746,0,0,0-1.34,1.7v3.674a1.747,1.747,0,0,0,1.34,1.7l2.643.635.489,1.178-1.428,2.33a1.748,1.748,0,0,0,.255,2.148l2.6,2.6a1.747,1.747,0,0,0,2.148.254l2.33-1.428,1.178.489.635,2.643a1.746,1.746,0,0,0,1.7,1.34h3.674a1.747,1.747,0,0,0,1.7-1.34l.634-2.643,1.179-.489,2.33,1.428a1.748,1.748,0,0,0,2.148-.254l2.6-2.6a1.747,1.747,0,0,0,.254-2.148l-1.428-2.33.489-1.178,2.643-.635a1.747,1.747,0,0,0,1.34-1.7v-3.674a1.746,1.746,0,0,0-1.34-1.7l-2.643-.635-.489-1.178,1.428-2.33a1.747,1.747,0,0,0-.254-2.148l-2.6-2.6a1.748,1.748,0,0,0-2.148-.254l-2.33,1.428-1.178-.489L82.692,403a1.747,1.747,0,0,0-1.7-1.34H77.32a1.746,1.746,0,0,0-1.7,1.34l-.635,2.643-1.178.489-2.33-1.428a1.746,1.746,0,0,0-2.148.254l-2.6,2.6a1.747,1.747,0,0,0-.254,2.148Zm2.4,3.339,1.17-2.823a1.746,1.746,0,0,0-.124-1.581l-1.173-1.915.65-.65,1.915,1.173a1.749,1.749,0,0,0,1.581.125l2.823-1.17a1.747,1.747,0,0,0,1.03-1.206l.52-2.17h.919l.52,2.17a1.747,1.747,0,0,0,1.03,1.206l2.823,1.17a1.746,1.746,0,0,0,1.581-.124l1.915-1.173.65.65-1.174,1.915a1.749,1.749,0,0,0-.124,1.581l1.17,2.823a1.747,1.747,0,0,0,1.206,1.03l2.17.52v.919l-2.17.52a1.747,1.747,0,0,0-1.206,1.03l-1.17,2.823a1.749,1.749,0,0,0,.124,1.581l1.174,1.915-.65.65-1.915-1.173a1.749,1.749,0,0,0-1.581-.125l-2.823,1.17a1.747,1.747,0,0,0-1.03,1.206l-.52,2.17H78.7l-.521-2.17a1.744,1.744,0,0,0-1.029-1.206l-2.823-1.17a1.749,1.749,0,0,0-1.581.125l-1.915,1.173-.65-.65,1.173-1.915a1.746,1.746,0,0,0,.124-1.581l-1.17-2.823a1.747,1.747,0,0,0-1.206-1.03l-2.17-.52v-.919l2.17-.52a1.747,1.747,0,0,0,1.206-1.03Z" transform="translate(1099.438 2099.037)"/>
      <path id="Trazado_201284-2" data-name="Trazado 201284" d="M81.84,425.3a5.241,5.241,0,1,0-5.241-5.241A5.241,5.241,0,0,0,81.84,425.3Zm0-6.987a1.747,1.747,0,1,1-1.747,1.747A1.747,1.747,0,0,1,81.84,418.317Z" transform="translate(1096.755 2096.354)"/>
      <path id="Trazado_201285-2" data-name="Trazado 201285" d="M132.135,419.469a42.268,42.268,0,0,1,.838,8.387,41.784,41.784,0,0,1-11.184,28.508l2.561,2.377a45.506,45.506,0,0,0,11.208-39.966Z" transform="translate(1087.545 2095.549)"/>
      <path id="Trazado_201286-2" data-name="Trazado 201286" d="M80.391,376.632a42.257,42.257,0,0,1,8.386.838l.7-3.424a45.8,45.8,0,0,0-19.981.408l.836,3.393A42.1,42.1,0,0,1,80.391,376.632Z" transform="translate(1098.203 2104.85)"/>
      <path id="Trazado_201287-2" data-name="Trazado 201287" d="M42.611,405.9a36.713,36.713,0,0,0,0,38.67l2.967-1.844a33.222,33.222,0,0,1,0-34.982Z" transform="translate(1104.803 2098.173)"/>
      <path id="Trazado_201288-2" data-name="Trazado 201288" d="M114.806,454.5a36.409,36.409,0,0,0,11.005-26.2,36.965,36.965,0,0,0-.733-7.335l-3.424.7a33.381,33.381,0,0,1,.664,6.64,32.941,32.941,0,0,1-9.956,23.7Z" transform="translate(1089.467 2095.102)"/>
      <path id="Trazado_201289-2" data-name="Trazado 201289" d="M80.364,387.6a33.505,33.505,0,0,1,6.64.664l.7-3.424a36.945,36.945,0,0,0-18.339.946l1.046,3.333A33.207,33.207,0,0,1,80.364,387.6Z" transform="translate(1098.23 2102.614)"/>
      <path id="Trazado_201290-2" data-name="Trazado 201290" d="M59.047,460.854a8.723,8.723,0,0,0,2.184,5.778l2.619-2.311a5.241,5.241,0,0,1,6.55-8.007l1.75-3.024a8.736,8.736,0,0,0-13.1,7.564Z" transform="translate(1100.332 2088.753)"/>
    </g>
  </g>
</svg>
