<svg xmlns="http://www.w3.org/2000/svg" width="303" height="238.112" viewBox="0 0 303 238.112">
  <g id="Grupo_150140" data-name="Grupo 150140" transform="translate(1704.643 9223.728)">
    <g id="Grupo_150139" data-name="Grupo 150139">
      <g id="Grupo_150007" data-name="Grupo 150007" transform="translate(2618.771 -10468.563)">
        <g id="Grupo_149277" data-name="Grupo 149277" transform="translate(-4284.94 1246.028)">
          <g id="Grupo_149266" data-name="Grupo 149266" transform="translate(0 194.449)">
            <g id="Grupo_149265" data-name="Grupo 149265">
              <path id="Trazado_200603" data-name="Trazado 200603" d="M303.6,134.374H41.866a1.193,1.193,0,1,1,0-2.386H303.6a1.193,1.193,0,0,1,0,2.386Z" transform="translate(-40.673 -131.988)" fill="#c4c4c4"/>
            </g>
          </g>
          <g id="Grupo_149268" data-name="Grupo 149268" transform="translate(0 155.56)">
            <g id="Grupo_149267" data-name="Grupo 149267">
              <path id="Trazado_200604" data-name="Trazado 200604" d="M303.6,118.076H41.866a1.193,1.193,0,0,1,0-2.386H303.6a1.193,1.193,0,0,1,0,2.386Z" transform="translate(-40.673 -115.69)" fill="#c4c4c4"/>
            </g>
          </g>
          <g id="Grupo_149270" data-name="Grupo 149270" transform="translate(0 116.669)">
            <g id="Grupo_149269" data-name="Grupo 149269">
              <path id="Trazado_200605" data-name="Trazado 200605" d="M303.6,101.777H41.866a1.193,1.193,0,1,1,0-2.386H303.6a1.193,1.193,0,0,1,0,2.386Z" transform="translate(-40.673 -99.391)" fill="#c4c4c4"/>
            </g>
          </g>
          <g id="Grupo_149272" data-name="Grupo 149272" transform="translate(0 77.78)">
            <g id="Grupo_149271" data-name="Grupo 149271">
              <path id="Trazado_200606" data-name="Trazado 200606" d="M303.6,85.479H41.866a1.193,1.193,0,1,1,0-2.386H303.6a1.193,1.193,0,0,1,0,2.386Z" transform="translate(-40.673 -83.093)" fill="#c4c4c4"/>
            </g>
          </g>
          <g id="Grupo_149274" data-name="Grupo 149274" transform="translate(0 38.889)">
            <g id="Grupo_149273" data-name="Grupo 149273">
              <path id="Trazado_200607" data-name="Trazado 200607" d="M303.6,69.18H41.866a1.193,1.193,0,1,1,0-2.386H303.6a1.193,1.193,0,0,1,0,2.386Z" transform="translate(-40.673 -66.794)" fill="#c4c4c4"/>
            </g>
          </g>
          <g id="Grupo_149276" data-name="Grupo 149276">
            <g id="Grupo_149275" data-name="Grupo 149275">
              <path id="Trazado_200608" data-name="Trazado 200608" d="M303.6,52.882H41.866a1.193,1.193,0,1,1,0-2.386H303.6a1.193,1.193,0,0,1,0,2.386Z" transform="translate(-40.673 -50.496)" fill="#c4c4c4"/>
            </g>
          </g>
        </g>
        <g id="Grupo_149278" data-name="Grupo 149278" transform="translate(-4297.496 1244.835)">
          <path id="Trazado_200609" data-name="Trazado 200609" d="M310.107,288.108H37.8a2.385,2.385,0,0,1-2.386-2.386V52.382a2.386,2.386,0,0,1,4.772,0V283.336H310.107a2.386,2.386,0,1,1,0,4.772Z" transform="translate(-35.411 -49.996)" fill="#c4c4c4"/>
        </g>
        <g id="Grupo_149283" data-name="Grupo 149283" transform="translate(-4323.221 1454.448)">
          <g id="Grupo_149282" data-name="Grupo 149282" transform="translate(0 0)">
            <g id="Grupo_149281" data-name="Grupo 149281">
              <g id="Grupo_149279" data-name="Grupo 149279" transform="translate(0 0.174)">
                <path id="Trazado_200610" data-name="Trazado 200610" d="M29.705,149.706H28.087v-10.06l-2.751,1.673-.706-1.145,3.648-2.257h1.427Z" transform="translate(-24.63 -137.916)" fill="#c4c4c4"/>
              </g>
              <g id="Grupo_149280" data-name="Grupo 149280" transform="translate(7.986)">
                <path id="Trazado_200611" data-name="Trazado 200611" d="M35.873,143.923c0,3.911-1.305,6.1-3.949,6.1s-3.947-2.186-3.947-6.1,1.3-6.08,3.947-6.08S35.873,140.029,35.873,143.923Zm-6.2,0c0,3.472.773,4.81,2.255,4.81,1.463,0,2.257-1.339,2.257-4.81,0-3.455-.795-4.794-2.257-4.794C30.442,139.129,29.669,140.468,29.669,143.923Z" transform="translate(-27.977 -137.843)" fill="#c4c4c4"/>
              </g>
            </g>
          </g>
        </g>
        <g id="Grupo_149288" data-name="Grupo 149288" transform="translate(-4323.202 1415.499)">
          <g id="Grupo_149287" data-name="Grupo 149287">
            <g id="Grupo_149286" data-name="Grupo 149286">
              <g id="Grupo_149284" data-name="Grupo 149284">
                <path id="Trazado_200612" data-name="Trazado 200612" d="M31.758,124.746c0,2.2-1.408,3.772-5.023,7.383h5.307l-.2,1.358h-6.96V132.2c4.159-4.336,5.18-5.464,5.18-7.385a1.818,1.818,0,0,0-1.94-1.954,2.9,2.9,0,0,0-2.4,1.286l-1.093-.845a4.358,4.358,0,0,1,3.577-1.782A3.241,3.241,0,0,1,31.758,124.746Z" transform="translate(-24.638 -121.52)" fill="#c4c4c4"/>
              </g>
              <g id="Grupo_149285" data-name="Grupo 149285" transform="translate(9.253)">
                <path id="Trazado_200613" data-name="Trazado 200613" d="M36.412,127.6c0,3.913-1.305,6.1-3.947,6.1s-3.949-2.186-3.949-6.1,1.305-6.08,3.949-6.08S36.412,123.706,36.412,127.6Zm-6.2,0c0,3.472.773,4.81,2.257,4.81,1.463,0,2.255-1.339,2.255-4.81,0-3.453-.792-4.794-2.255-4.794C30.981,122.806,30.208,124.147,30.208,127.6Z" transform="translate(-28.516 -121.52)" fill="#c4c4c4"/>
              </g>
            </g>
          </g>
        </g>
        <g id="Grupo_149293" data-name="Grupo 149293" transform="translate(-4323.414 1376.56)">
          <g id="Grupo_149292" data-name="Grupo 149292">
            <g id="Grupo_149291" data-name="Grupo 149291">
              <g id="Grupo_149289" data-name="Grupo 149289">
                <path id="Trazado_200614" data-name="Trazado 200614" d="M31.741,108.2a2.706,2.706,0,0,1-2.293,2.715,2.716,2.716,0,0,1,2.661,2.856c0,2.059-1.568,3.613-4.016,3.613a4.45,4.45,0,0,1-3.543-1.587l.971-.9a3.308,3.308,0,0,0,2.52,1.162,2.183,2.183,0,0,0,2.377-2.307c0-1.62-.914-2.114-2.343-2.114h-.88l.2-1.253h.6a1.981,1.981,0,0,0,2.133-2.078,1.759,1.759,0,0,0-1.957-1.8,3.328,3.328,0,0,0-2.431,1.059l-.845-.969A4.757,4.757,0,0,1,28.25,105.2C30.507,105.2,31.741,106.611,31.741,108.2Z" transform="translate(-24.549 -105.201)" fill="#c4c4c4"/>
              </g>
              <g id="Grupo_149290" data-name="Grupo 149290" transform="translate(9.499)">
                <path id="Trazado_200615" data-name="Trazado 200615" d="M36.423,111.281c0,3.913-1.3,6.1-3.947,6.1s-3.947-2.186-3.947-6.1,1.305-6.08,3.947-6.08S36.423,107.387,36.423,111.281Zm-6.2,0c0,3.472.775,4.81,2.255,4.81,1.463,0,2.255-1.339,2.255-4.81,0-3.453-.792-4.794-2.255-4.794C31,106.487,30.222,107.828,30.222,111.281Z" transform="translate(-28.53 -105.201)" fill="#c4c4c4"/>
              </g>
            </g>
          </g>
        </g>
        <g id="Grupo_149298" data-name="Grupo 149298" transform="translate(-4323.264 1337.619)">
          <g id="Grupo_149297" data-name="Grupo 149297">
            <g id="Grupo_149296" data-name="Grupo 149296">
              <g id="Grupo_149294" data-name="Grupo 149294">
                <path id="Trazado_200616" data-name="Trazado 200616" d="M32.753,97.939H31.219v2.906H29.654V97.939H24.612V96.774l3.541-7.893,1.36.563-3.19,7.208h3.348l.143-3.171h1.405v3.171h1.534Z" transform="translate(-24.612 -88.881)" fill="#c4c4c4"/>
              </g>
              <g id="Grupo_149295" data-name="Grupo 149295" transform="translate(9.642)">
                <path id="Trazado_200617" data-name="Trazado 200617" d="M36.549,94.961c0,3.911-1.305,6.1-3.949,6.1s-3.947-2.186-3.947-6.1,1.305-6.08,3.947-6.08S36.549,91.067,36.549,94.961Zm-6.2,0c0,3.472.773,4.81,2.255,4.81,1.465,0,2.257-1.339,2.257-4.81,0-3.455-.792-4.794-2.257-4.794C31.118,90.167,30.345,91.506,30.345,94.961Z" transform="translate(-28.653 -88.881)" fill="#c4c4c4"/>
              </g>
            </g>
          </g>
        </g>
        <g id="Grupo_149303" data-name="Grupo 149303" transform="translate(-4323.235 1298.678)">
          <g id="Grupo_149302" data-name="Grupo 149302">
            <g id="Grupo_149301" data-name="Grupo 149301">
              <g id="Grupo_149299" data-name="Grupo 149299" transform="translate(0 0.177)">
                <path id="Trazado_200618" data-name="Trazado 200618" d="M31.565,73.9h-4.6v3.472a4.057,4.057,0,0,1,1.883-.458c1.992,0,3.35,1.393,3.35,3.737a3.84,3.84,0,0,1-4.087,3.982,4.608,4.608,0,0,1-3.488-1.5l.985-.952A3.177,3.177,0,0,0,28.1,83.315c1.477,0,2.412-.971,2.412-2.7,0-1.816-.935-2.451-2.15-2.451a3.684,3.684,0,0,0-1.675.406H25.416V72.635h6.378Z" transform="translate(-24.624 -72.635)" fill="#c4c4c4"/>
              </g>
              <g id="Grupo_149300" data-name="Grupo 149300" transform="translate(9.339)">
                <path id="Trazado_200619" data-name="Trazado 200619" d="M36.431,78.641c0,3.913-1.3,6.1-3.947,6.1s-3.947-2.186-3.947-6.1,1.305-6.08,3.947-6.08S36.431,74.747,36.431,78.641Zm-6.2,0c0,3.472.775,4.81,2.255,4.81,1.463,0,2.255-1.339,2.255-4.81,0-3.453-.792-4.794-2.255-4.794C31.005,73.847,30.23,75.188,30.23,78.641Z" transform="translate(-28.538 -72.561)" fill="#c4c4c4"/>
              </g>
            </g>
          </g>
        </g>
        <g id="Grupo_149308" data-name="Grupo 149308" transform="translate(-4323.008 1259.734)">
          <g id="Grupo_149307" data-name="Grupo 149307">
            <g id="Grupo_149306" data-name="Grupo 149306">
              <g id="Grupo_149304" data-name="Grupo 149304">
                <path id="Trazado_200620" data-name="Trazado 200620" d="M32.438,64.2c0,2.572-1.673,4.211-3.753,4.211-2.873,0-3.966-2.36-3.966-5.746,0-3.858,1.675-6.431,4.457-6.431a4.26,4.26,0,0,1,2.434.721l-.637,1.076a3.431,3.431,0,0,0-1.811-.511c-1.711,0-2.732,1.78-2.82,4.476a3.312,3.312,0,0,1,2.835-1.551C30.9,60.451,32.438,61.685,32.438,64.2Zm-1.639.052c0-1.868-.795-2.52-1.9-2.52a3.035,3.035,0,0,0-2.536,1.623c.072,2.572.756,3.77,2.326,3.77C30.076,67.13,30.8,65.985,30.8,64.257Z" transform="translate(-24.719 -56.24)" fill="#c4c4c4"/>
              </g>
              <g id="Grupo_149305" data-name="Grupo 149305" transform="translate(9.396)">
                <path id="Trazado_200621" data-name="Trazado 200621" d="M36.55,62.32c0,3.911-1.3,6.1-3.947,6.1s-3.947-2.186-3.947-6.1,1.3-6.08,3.947-6.08S36.55,58.426,36.55,62.32Zm-6.2,0c0,3.472.773,4.81,2.255,4.81,1.46,0,2.255-1.339,2.255-4.81,0-3.455-.795-4.794-2.255-4.794C31.122,57.526,30.349,58.865,30.349,62.32Z" transform="translate(-28.657 -56.24)" fill="#c4c4c4"/>
              </g>
            </g>
          </g>
        </g>
        <path id="Trazado_200622" data-name="Trazado 200622" d="M69.146,81.8c-4.173,0-7.557,4.808-7.557,10.737V227.484H76.7V92.54C76.7,86.611,73.319,81.8,69.146,81.8Z" transform="translate(-4296.622 1238.927)" fill="#75b62f"/>
        <path id="Trazado_200623" data-name="Trazado 200623" d="M59.479,63.394c-4.173,0-7.557,4.806-7.557,10.737V253H67.036V74.131C67.036,68.2,63.652,63.394,59.479,63.394Z" transform="translate(-4310.021 1213.41)" fill="#d7df23"/>
        <path id="Trazado_200624" data-name="Trazado 200624" d="M51.146,96.41c-4.173,0-7.557,4.806-7.557,10.737v100.09H58.7V107.147C58.7,101.216,55.319,96.41,51.146,96.41Z" transform="translate(-4321.571 1259.174)" fill="#616161"/>
        <path id="Trazado_200625" data-name="Trazado 200625" d="M101.81,81.8c-4.171,0-7.554,4.808-7.554,10.737V227.484h15.111V92.54C109.367,86.611,105.984,81.8,101.81,81.8Z" transform="translate(-4251.341 1238.927)" fill="#75b62f"/>
        <path id="Trazado_200626" data-name="Trazado 200626" d="M92.143,63.394c-4.171,0-7.554,4.806-7.554,10.737V253H99.7V74.131C99.7,68.2,96.317,63.394,92.143,63.394Z" transform="translate(-4264.741 1213.41)" fill="#d7df23"/>
        <path id="Trazado_200627" data-name="Trazado 200627" d="M83.81,96.41c-4.171,0-7.554,4.806-7.554,10.737v100.09H91.367V107.147C91.367,101.216,87.984,96.41,83.81,96.41Z" transform="translate(-4276.292 1259.174)" fill="#616161"/>
        <path id="Trazado_200628" data-name="Trazado 200628" d="M134.643,81.8c-4.171,0-7.554,4.808-7.554,10.737V227.484H142.2V92.54C142.2,86.611,138.817,81.8,134.643,81.8Z" transform="translate(-4205.832 1238.927)" fill="#75b62f"/>
        <path id="Trazado_200629" data-name="Trazado 200629" d="M124.976,63.394c-4.171,0-7.554,4.806-7.554,10.737V253h15.111V74.131C132.533,68.2,129.15,63.394,124.976,63.394Z" transform="translate(-4219.231 1213.41)" fill="#d7df23"/>
        <path id="Trazado_200630" data-name="Trazado 200630" d="M116.643,96.41c-4.171,0-7.554,4.806-7.554,10.737v100.09H124.2V107.147C124.2,101.216,120.817,96.41,116.643,96.41Z" transform="translate(-4230.781 1259.174)" fill="#616161"/>
        <path id="Trazado_200631" data-name="Trazado 200631" d="M143.977,96.41c-4.171,0-7.554,4.806-7.554,10.737v100.09h15.111V107.147C151.534,101.216,148.151,96.41,143.977,96.41Z" transform="translate(-4192.894 1259.174)" fill="#616161"/>
      </g>
    </g>
  </g>
</svg>
